<svg width="38" height="38" viewBox="0 0 38 38" fill="none" xmlns="http://www.w3.org/2000/svg">
<rect x="0.5" y="0.5" width="37" height="37" fill="white" stroke="#EBEBEB"/>
<path d="M18.898 14.007L19 14C19.1812 14 19.3563 14.0656 19.4929 14.1848C19.6295 14.3039 19.7184 14.4684 19.743 14.648L19.75 14.75V18.25H23.25C23.4312 18.25 23.6063 18.3156 23.7429 18.4348C23.8795 18.5539 23.9684 18.7184 23.993 18.898L24 19C24 19.1812 23.9344 19.3563 23.8152 19.4929C23.6961 19.6295 23.5316 19.7184 23.352 19.743L23.25 19.75H19.75V23.25C19.75 23.4312 19.6844 23.6063 19.5652 23.7429C19.4461 23.8795 19.2816 23.9684 19.102 23.993L19 24C18.8188 24 18.6437 23.9344 18.5071 23.8152C18.3705 23.6961 18.2816 23.5316 18.257 23.352L18.25 23.25V19.75H14.75C14.5688 19.75 14.3937 19.6844 14.2571 19.5652C14.1205 19.4461 14.0316 19.2816 14.007 19.102L14 19C14 18.8188 14.0656 18.6437 14.1848 18.5071C14.3039 18.3705 14.4684 18.2816 14.648 18.257L14.75 18.25H18.25V14.75C18.25 14.5688 18.3156 14.3937 18.4348 14.2571C18.5539 14.1205 18.7184 14.0316 18.898 14.007L19 14L18.898 14.007Z" fill="#D0D0D0"/>
</svg>
