<svg width="20" height="20" viewBox="0 0 20 20" fill="none" xmlns="http://www.w3.org/2000/svg">
<g clip-path="url(#clip0_2542_52700)">
<path d="M16.7857 3.57144H6.7857C5.93322 3.57144 5.11565 3.91009 4.51285 4.51288C3.91006 5.11568 3.57141 5.93325 3.57141 6.78573V16.7857C3.57141 17.6382 3.91006 18.4558 4.51285 19.0586C5.11565 19.6614 5.93322 20 6.7857 20H16.7857C17.6382 20 18.4557 19.6614 19.0585 19.0586C19.6613 18.4558 20 17.6382 20 16.7857V6.78573C20 5.93325 19.6613 5.11568 19.0585 4.51288C18.4557 3.91009 17.6382 3.57144 16.7857 3.57144V3.57144ZM15.337 12.5H12.5V15.3371C12.5 15.7214 12.2044 16.0514 11.8201 16.0705C11.7235 16.0752 11.627 16.0602 11.5364 16.0264C11.4458 15.9927 11.3629 15.9409 11.2929 15.8742C11.2229 15.8075 11.1672 15.7273 11.1291 15.6384C11.0911 15.5495 11.0714 15.4538 11.0714 15.3572V12.5H8.23436C7.84998 12.5 7.52007 12.2045 7.50088 11.8201C7.49622 11.7235 7.51123 11.627 7.54498 11.5364C7.57873 11.4458 7.63052 11.363 7.69722 11.293C7.76393 11.223 7.84415 11.1673 7.93302 11.1292C8.0219 11.0911 8.11758 11.0715 8.21427 11.0714H11.0714V8.23439C11.0714 7.85001 11.3669 7.5201 11.7513 7.50091C11.8479 7.49625 11.9444 7.51126 12.035 7.54501C12.1256 7.57876 12.2084 7.63055 12.2784 7.69725C12.3484 7.76396 12.4042 7.84418 12.4423 7.93305C12.4803 8.02193 12.5 8.11761 12.5 8.2143V11.0714H15.3571C15.4539 11.0713 15.5497 11.0909 15.6387 11.1289C15.7276 11.1669 15.808 11.2226 15.8748 11.2927C15.9416 11.3627 15.9934 11.4455 16.0272 11.5362C16.061 11.6269 16.0761 11.7234 16.0714 11.8201C16.0527 12.2045 15.7214 12.5 15.337 12.5Z" fill="#2C8EFF"/>
<path d="M16.2446 2.14286C16.0224 1.51663 15.6119 0.974497 15.0693 0.590842C14.5267 0.207187 13.8788 0.000802235 13.2143 0H3.21429C2.3618 0 1.54424 0.338647 0.941442 0.941442C0.338647 1.54424 0 2.3618 0 3.21429V13.2143C0.000802235 13.8788 0.207187 14.5267 0.590842 15.0693C0.974497 15.6119 1.51663 16.0224 2.14286 16.2446V5.71429C2.14286 4.76708 2.51913 3.85868 3.1889 3.1889C3.85868 2.51913 4.76708 2.14286 5.71429 2.14286H16.2446Z" fill="#2C8EFF"/>
</g>
<defs>
<clipPath id="clip0_2542_52700">
<rect width="20" height="20" fill="white"/>
</clipPath>
</defs>
</svg>
