<svg width="20" height="20" viewBox="0 0 20 20" fill="none" xmlns="http://www.w3.org/2000/svg">
<g clip-path="url(#clip0_2542_51865)">
<path d="M16.7856 3.57144H6.78557C5.93309 3.57144 5.11553 3.91009 4.51273 4.51288C3.90994 5.11568 3.57129 5.93325 3.57129 6.78573V16.7857C3.57129 17.6382 3.90994 18.4558 4.51273 19.0586C5.11553 19.6614 5.93309 20 6.78557 20H16.7856C17.6381 20 18.4556 19.6614 19.0584 19.0586C19.6612 18.4558 19.9999 17.6382 19.9999 16.7857V6.78573C19.9999 5.93325 19.6612 5.11568 19.0584 4.51288C18.4556 3.91009 17.6381 3.57144 16.7856 3.57144ZM15.3369 12.5H12.4999V15.3371C12.4999 15.7214 12.2043 16.0514 11.8199 16.0705C11.7234 16.0752 11.6269 16.0602 11.5362 16.0264C11.4456 15.9927 11.3628 15.9409 11.2928 15.8742C11.2228 15.8075 11.1671 15.7273 11.129 15.6384C11.0909 15.5495 11.0713 15.4538 11.0713 15.3572V12.5H8.23424C7.84986 12.5 7.51995 12.2045 7.50075 11.8201C7.4961 11.7235 7.5111 11.627 7.54485 11.5364C7.57861 11.4458 7.6304 11.363 7.6971 11.293C7.7638 11.223 7.84402 11.1673 7.9329 11.1292C8.02177 11.0911 8.11746 11.0715 8.21415 11.0714H11.0713V8.23439C11.0713 7.85001 11.3668 7.5201 11.7512 7.50091C11.8478 7.49625 11.9443 7.51126 12.0349 7.54501C12.1255 7.57876 12.2083 7.63055 12.2783 7.69725C12.3483 7.76396 12.4041 7.84418 12.4421 7.93305C12.4802 8.02193 12.4999 8.11761 12.4999 8.2143V11.0714H15.357C15.4538 11.0713 15.5495 11.0909 15.6385 11.1289C15.7275 11.1669 15.8078 11.2226 15.8746 11.2927C15.9414 11.3627 15.9933 11.4455 16.0271 11.5362C16.0609 11.6269 16.0759 11.7234 16.0713 11.8201C16.0525 12.2045 15.7213 12.5 15.3369 12.5Z" fill="#DFDFDF"/>
<path d="M16.2446 2.14286C16.0224 1.51663 15.6119 0.974497 15.0693 0.590842C14.5267 0.207187 13.8788 0.000802236 13.2143 0H3.21429C2.3618 0 1.54424 0.338647 0.941442 0.941442C0.338647 1.54424 0 2.3618 0 3.21429V13.2143C0.000802236 13.8788 0.207187 14.5267 0.590842 15.0693C0.974497 15.6119 1.51663 16.0224 2.14286 16.2446V5.71429C2.14286 4.76708 2.51913 3.85868 3.1889 3.1889C3.85868 2.51913 4.76708 2.14286 5.71429 2.14286H16.2446Z" fill="#DFDFDF"/>
</g>
<defs>
<clipPath id="clip0_2542_51865">
<rect width="20" height="20" fill="white"/>
</clipPath>
</defs>
</svg>
