<svg width="20" height="22" viewBox="0 0 20 22" fill="none" xmlns="http://www.w3.org/2000/svg">
<path d="M13.6364 3.63636H19.0909C19.332 3.63636 19.5632 3.73214 19.7337 3.90263C19.9042 4.07312 20 4.30435 20 4.54545C20 4.78656 19.9042 5.01779 19.7337 5.18828C19.5632 5.35877 19.332 5.45455 19.0909 5.45455H18.0855L16.7182 17.7745C16.5947 18.8864 16.0655 19.9137 15.2318 20.6598C14.3982 21.4059 13.3187 21.8183 12.2 21.8182H7.8C6.68127 21.8183 5.60179 21.4059 4.76816 20.6598C3.93454 19.9137 3.40533 18.8864 3.28182 17.7745L1.91273 5.45455H0.909091C0.667985 5.45455 0.436754 5.35877 0.266267 5.18828C0.0957791 5.01779 0 4.78656 0 4.54545C0 4.30435 0.0957791 4.07312 0.266267 3.90263C0.436754 3.73214 0.667985 3.63636 0.909091 3.63636H6.36364C6.36364 2.67194 6.74675 1.74702 7.4287 1.06507C8.11065 0.383116 9.03558 0 10 0C10.9644 0 11.8893 0.383116 12.5713 1.06507C13.2532 1.74702 13.6364 2.67194 13.6364 3.63636ZM10 1.81818C9.51779 1.81818 9.05533 2.00974 8.71435 2.35071C8.37338 2.69169 8.18182 3.15415 8.18182 3.63636H11.8182C11.8182 3.15415 11.6266 2.69169 11.2856 2.35071C10.9447 2.00974 10.4822 1.81818 10 1.81818ZM7.27273 9.09091V16.3636C7.27273 16.6047 7.36851 16.836 7.53899 17.0065C7.70948 17.177 7.94071 17.2727 8.18182 17.2727C8.42292 17.2727 8.65415 17.177 8.82464 17.0065C8.99513 16.836 9.09091 16.6047 9.09091 16.3636V9.09091C9.09091 8.8498 8.99513 8.61857 8.82464 8.44808C8.65415 8.2776 8.42292 8.18182 8.18182 8.18182C7.94071 8.18182 7.70948 8.2776 7.53899 8.44808C7.36851 8.61857 7.27273 8.8498 7.27273 9.09091ZM11.8182 8.18182C11.5771 8.18182 11.3458 8.2776 11.1754 8.44808C11.0049 8.61857 10.9091 8.8498 10.9091 9.09091V16.3636C10.9091 16.6047 11.0049 16.836 11.1754 17.0065C11.3458 17.177 11.5771 17.2727 11.8182 17.2727C12.0593 17.2727 12.2905 17.177 12.461 17.0065C12.6315 16.836 12.7273 16.6047 12.7273 16.3636V9.09091C12.7273 8.8498 12.6315 8.61857 12.461 8.44808C12.2905 8.2776 12.0593 8.18182 11.8182 8.18182Z" fill="#DFDFDF"/>
</svg>
