<svg width="30" height="22" viewBox="0 0 30 22" fill="none" xmlns="http://www.w3.org/2000/svg">
<path d="M24.3529 8.82353C24.5294 8.29412 24.7059 7.76471 24.7059 7.05882C24.7059 3.17647 21.5294 0 17.6471 0C15 0 12.5294 1.58823 11.4706 3.88235C10.9412 3.70588 10.2353 3.52941 9.70588 3.52941C7.23529 3.52941 5.29412 5.47059 5.29412 7.94118C5.29412 8.29412 5.29412 8.64706 5.47059 8.82353C2.29412 9.35294 0 11.8235 0 15C0 18.3529 2.82353 21.1765 6.17647 21.1765H12.3529V15.8824H7.05882L15 7.94118L22.9412 15.8824H17.6471V21.1765H23.8235C27.1765 21.1765 30 18.3529 30 15C30 11.8235 27.5294 9.17647 24.3529 8.82353Z" fill="url(#paint0_linear_2542_51357)"/>
<defs>
<linearGradient id="paint0_linear_2542_51357" x1="15" y1="0" x2="24.7059" y2="27.3529" gradientUnits="userSpaceOnUse">
<stop stop-color="#2A89F6"/>
<stop offset="1" stop-color="#1658A4"/>
</linearGradient>
</defs>
</svg>
