<svg width="81" height="91" viewBox="0 0 81 91" fill="none" xmlns="http://www.w3.org/2000/svg">
<path d="M31 0C3.38702 0 -19 22.387 -19 50C-19 77.613 3.38702 100 31 100C58.613 100 81 77.613 81 50C81 22.387 58.613 0 31 0ZM54.0769 57.6923H31C29.9799 57.6923 29.0017 57.2871 28.2804 56.5658C27.5591 55.8445 27.1538 54.8662 27.1538 53.8462V19.2308C27.1538 18.2107 27.5591 17.2324 28.2804 16.5111C29.0017 15.7898 29.9799 15.3846 31 15.3846C32.0201 15.3846 32.9983 15.7898 33.7196 16.5111C34.4409 17.2324 34.8462 18.2107 34.8462 19.2308V50H54.0769C55.097 50 56.0753 50.4052 56.7966 51.1265C57.5179 51.8478 57.9231 52.8261 57.9231 53.8462C57.9231 54.8662 57.5179 55.8445 56.7966 56.5658C56.0753 57.2871 55.097 57.6923 54.0769 57.6923Z" fill="#237DE4"/>
</svg>
