<svg width="18" height="18" viewBox="0 0 18 18" fill="none" xmlns="http://www.w3.org/2000/svg">
<path d="M14.0002 5.59948C14.0982 5.5995 14.1929 5.63553 14.2661 5.70072C14.3393 5.76591 14.386 5.85572 14.3974 5.9531L14.4002 5.9995V6.63313L14.5174 6.51713C14.5863 6.44819 14.6779 6.40674 14.7751 6.40056C14.8723 6.39437 14.9684 6.42387 15.0455 6.48352L15.0831 6.51673C15.1519 6.58561 15.1933 6.67725 15.1994 6.77447C15.2055 6.87168 15.176 6.96779 15.1163 7.04475L15.0831 7.08275L14.283 7.88279L14.2654 7.89919L14.2382 7.9212L14.1938 7.95L14.1486 7.9712L14.1066 7.9856L14.0594 7.9952L14.0238 7.9992H13.9762L13.953 7.9972L13.9066 7.9892L13.8634 7.976L13.831 7.9624L13.7918 7.9416L13.7534 7.9148C13.7408 7.90485 13.7287 7.89417 13.7174 7.88279L12.9173 7.08275C12.8448 7.01093 12.8025 6.91412 12.7991 6.81212C12.7956 6.71012 12.8313 6.61066 12.8987 6.53409C12.9662 6.45753 13.0604 6.40964 13.162 6.40024C13.2636 6.39084 13.365 6.42063 13.4454 6.48352L13.483 6.51673L13.6002 6.63393V5.9995C13.6001 5.90145 13.636 5.80679 13.7011 5.73349C13.7663 5.66019 13.856 5.61335 13.9534 5.60188L14.0002 5.59948ZM16.5175 2.91655C16.5864 2.84767 16.6781 2.8063 16.7753 2.80018C16.8725 2.79407 16.9686 2.82364 17.0456 2.88334L17.0832 2.91655L17.8832 3.71659L17.8996 3.73419L17.9216 3.76139L17.9504 3.80579L17.972 3.85099L17.986 3.89339L17.996 3.9402L18 3.9762V4.0234L17.9976 4.0466L17.9896 4.093L17.9764 4.13621L17.9628 4.16901L17.942 4.20781L17.9124 4.24981L17.8832 4.28261L17.0832 5.08265C17.0113 5.15516 16.9145 5.19747 16.8125 5.20093C16.7105 5.20439 16.6111 5.16874 16.5345 5.10127C16.4579 5.0338 16.41 4.93961 16.4006 4.83799C16.3912 4.73637 16.421 4.635 16.4839 4.55463L16.5175 4.51663L16.6335 4.39982H16.0003C15.9022 4.39989 15.8075 4.36391 15.7342 4.29871C15.6609 4.23351 15.6141 4.14365 15.6027 4.0462L15.6003 3.9994C15.6003 3.90142 15.6363 3.80686 15.7014 3.73364C15.7665 3.66042 15.8562 3.61364 15.9535 3.60218L16.0003 3.59978H16.6343L16.5175 3.48257C16.4486 3.41374 16.4071 3.32213 16.401 3.22491C16.3948 3.12769 16.4243 3.03156 16.4839 2.95455L16.5175 2.91655ZM10.9172 2.91655C10.9892 2.8448 11.0858 2.80315 11.1874 2.80005C11.289 2.79695 11.388 2.83263 11.4642 2.89984C11.5404 2.96706 11.5882 3.06077 11.5978 3.16195C11.6075 3.26312 11.5782 3.36417 11.5161 3.44457L11.4829 3.48257L11.3657 3.59978H12.0001C12.0981 3.59979 12.1926 3.63576 12.2659 3.70087C12.3391 3.76598 12.3859 3.85569 12.3973 3.953L12.4001 3.9994C12.4001 4.09744 12.3641 4.19206 12.2989 4.26528C12.2337 4.33851 12.1439 4.38525 12.0465 4.39662L12.0001 4.39942H11.3661L11.4829 4.51623C11.5517 4.58511 11.5931 4.67675 11.5992 4.77397C11.6053 4.87118 11.5758 4.96729 11.5161 5.04425L11.4829 5.08225C11.414 5.15113 11.3223 5.1925 11.2251 5.19862C11.1279 5.20473 11.0318 5.17516 10.9548 5.11546L10.9172 5.08225L10.1172 4.28221L10.0784 4.23741L10.0496 4.19301L10.0284 4.14781L10.0144 4.10581L10.0044 4.0586L10.0012 4.0334L10 3.9914L10.0016 3.9634L10.008 3.919L10.02 3.87419L10.0372 3.83019L10.0584 3.79099L10.0852 3.75259C10.0951 3.73995 10.1058 3.72793 10.1172 3.71659L10.9172 2.91655ZM14.0002 2.89935C14.292 2.89935 14.5718 3.01524 14.7781 3.22154C14.9844 3.42784 15.1003 3.70765 15.1003 3.9994C15.1003 4.29115 14.9844 4.57096 14.7781 4.77726C14.5718 4.98356 14.292 5.09945 14.0002 5.09945C13.7084 5.09945 13.4286 4.98356 13.2223 4.77726C13.016 4.57096 12.9001 4.29115 12.9001 3.9994C12.9001 3.70765 13.016 3.42784 13.2223 3.22154C13.4286 3.01524 13.7084 2.89935 14.0002 2.89935ZM13.9406 0.00360011L13.9702 0.000399991L14.0222 0L14.0702 0.00560026L14.125 0.0192009L14.1694 0.0368018L14.2086 0.0576028L14.2502 0.0872043L14.283 0.116406L15.0831 0.916446C15.1556 0.988266 15.1979 1.08508 15.2013 1.18708C15.2048 1.28907 15.1691 1.38854 15.1017 1.46511C15.0342 1.54167 14.94 1.58956 14.8384 1.59896C14.7368 1.60836 14.6354 1.57857 14.555 1.51568L14.5174 1.48247L14.4002 1.36527V1.9993C14.4003 2.09741 14.3643 2.19212 14.2991 2.26543C14.2339 2.33874 14.144 2.38554 14.0466 2.39692L14.0002 2.39932C13.9022 2.39931 13.8077 2.36334 13.7344 2.29823C13.6612 2.23312 13.6144 2.14341 13.603 2.0461L13.6002 1.9993V1.36487L13.483 1.48247C13.4141 1.55135 13.3224 1.59272 13.2252 1.59884C13.128 1.60495 13.0319 1.57538 12.9549 1.51568L12.9173 1.48247C12.8485 1.41359 12.8071 1.32195 12.801 1.22473C12.7949 1.12752 12.8244 1.03141 12.8841 0.954448L12.9173 0.916446L13.7174 0.116406L13.7622 0.0780039L13.8062 0.0492024L13.8518 0.0280014L13.8938 0.0136006L13.9406 0.00360011Z" fill="#616161"/>
<path d="M10.437 6.6161C10.2523 6.61885 10.0689 6.64887 9.89297 6.7052C9.80386 6.12366 9.16603 5.68281 8.35937 5.68281C8.11483 5.67472 7.87107 5.71455 7.64182 5.80005C7.49603 5.54332 7.28124 5.33255 7.02179 5.19163C6.76234 5.05072 6.46861 4.98529 6.17388 5.00277C5.91644 4.99132 5.65998 5.04152 5.42586 5.1492C5.19174 5.25688 4.98673 5.41892 4.82788 5.62184C4.55971 5.46289 4.25322 5.38018 3.94149 5.38265C3.56798 5.35794 3.19967 5.48062 2.91559 5.72437C2.6315 5.96812 2.45429 6.31352 2.42197 6.68644V7.11322C1.92484 7.30082 0.49442 7.95741 0.119229 9.38313C-0.255962 10.8089 0.278685 13.135 1.38081 14.9078C2.12171 16.0629 3.05803 17.0801 4.14785 17.914C4.2202 17.9662 4.30721 17.9941 4.39641 17.9938H9.24576C9.33912 17.9928 9.42963 17.9615 9.5037 17.9047C10.3459 17.1286 10.9549 16.133 11.2624 15.0298C11.7942 13.5772 12.0426 12.0361 11.994 10.4899V7.91051C11.956 7.53371 11.7715 7.18692 11.4803 6.94482C11.1891 6.70272 10.8144 6.58467 10.437 6.6161ZM11.1499 10.4899C11.201 11.9516 10.9669 13.4092 10.4604 14.7812C10.1951 15.6688 9.72246 16.4806 9.08161 17.1496H4.51835C3.56439 16.3946 2.74056 15.4884 2.0796 14.467C0.9681 12.6567 0.672636 10.6072 0.916511 9.59418C1.04437 9.24311 1.24441 8.92275 1.50371 8.65375C1.76301 8.38475 2.07583 8.1731 2.42197 8.03244V11.6202C2.42197 11.7322 2.46644 11.8395 2.54559 11.9187C2.62475 11.9978 2.73211 12.0423 2.84406 12.0423C2.956 12.0423 3.06336 11.9978 3.14252 11.9187C3.22168 11.8395 3.26615 11.7322 3.26615 11.6202V6.68644C3.26615 6.46602 3.54285 6.21746 3.95087 6.21746C4.35889 6.21746 4.64967 6.46133 4.64967 6.68644V9.36906H5.49385V6.17994C5.49385 6.04862 5.76586 5.84695 6.17857 5.84695C6.59128 5.84695 6.89612 6.07207 6.89612 6.1987V9.43003H7.7403V6.73803L7.82003 6.68175C7.98553 6.57795 8.17817 6.52571 8.37344 6.53168C8.8096 6.53168 9.07692 6.73803 9.07692 6.85059V9.89902H9.92579V7.61504C10.0804 7.50989 10.2641 7.45577 10.4511 7.46028C10.8544 7.46028 11.1639 7.69946 11.1639 7.90113L11.1499 10.4899Z" fill="#616161"/>
</svg>
