<svg width="18" height="18" viewBox="0 0 18 18" fill="none" xmlns="http://www.w3.org/2000/svg">
<g clip-path="url(#clip0_2542_51873)">
<path d="M15.1466 0.0113525L17.9887 2.85346L15.8221 5.02104L12.98 2.17893L15.1466 0.0113525Z" fill="#DFDFDF"/>
<path d="M4.73682 13.2632H7.57892L14.4824 6.35968L11.6403 3.51758L4.73682 10.4211V13.2632Z" fill="#DFDFDF"/>
<path d="M15.1579 16.1053H4.88653C4.86189 16.1053 4.83632 16.1148 4.81168 16.1148C4.78042 16.1148 4.74916 16.1062 4.71695 16.1053H1.89474V2.84212H8.38137L10.2761 0.947388H1.89474C0.849789 0.947388 0 1.79623 0 2.84212V16.1053C0 17.1512 0.849789 18 1.89474 18H15.1579C15.6604 18 16.1423 17.8004 16.4977 17.4451C16.853 17.0897 17.0526 16.6078 17.0526 16.1053V7.89349L15.1579 9.78823V16.1053Z" fill="#DFDFDF"/>
</g>
<defs>
<clipPath id="clip0_2542_51873">
<rect width="18" height="18" fill="white"/>
</clipPath>
</defs>
</svg>
