<svg width="16" height="15" viewBox="0 0 16 15" fill="none" xmlns="http://www.w3.org/2000/svg">
<path d="M9.7 5.0625V5.1125H9.75H13.25C13.4688 5.1125 13.6786 5.19942 13.8334 5.35414C13.9881 5.50885 14.075 5.7187 14.075 5.9375V9.4375C14.075 9.6563 13.9881 9.86615 13.8334 10.0209C13.6786 10.1756 13.4688 10.2625 13.25 10.2625H9.75H9.7V10.3125V11.1875V11.2375H9.75H13.25C13.7274 11.2375 14.1852 11.0479 14.5228 10.7103C14.8604 10.3727 15.05 9.91489 15.05 9.4375V5.9375C15.05 5.46011 14.8604 5.00227 14.5228 4.66471C14.1852 4.32714 13.7274 4.1375 13.25 4.1375H9.75H9.7V4.1875V5.0625ZM6.25 5.1125H6.3V5.0625V4.1875V4.1375H6.25H2.75C2.27261 4.1375 1.81477 4.32714 1.47721 4.66471C1.13964 5.00227 0.95 5.46011 0.95 5.9375V9.4375C0.95 9.91489 1.13964 10.3727 1.47721 10.7103C1.81477 11.0479 2.27261 11.2375 2.75 11.2375H6.25H6.3V11.1875V10.3125V10.2625H6.25H2.75C2.5312 10.2625 2.32135 10.1756 2.16664 10.0209C2.01192 9.86615 1.925 9.6563 1.925 9.4375V5.9375C1.925 5.7187 2.01192 5.50885 2.16664 5.35414C2.32135 5.19942 2.5312 5.1125 2.75 5.1125H6.25Z" fill="#2C8EFF" stroke="#2C8EFF" stroke-width="0.1"/>
<rect x="7.45" y="0.95" width="1.1" height="13.1" fill="#2C8EFF" stroke="#2C8EFF" stroke-width="0.1"/>
</svg>
