<svg width="14" height="15" viewBox="0 0 14 15" fill="none" xmlns="http://www.w3.org/2000/svg">
<path d="M13.5437 7.59151C13.8377 7.20301 14.0005 6.72701 14.0005 6.23176C14.0005 5.44601 13.5612 4.70226 12.8542 4.28751C12.6722 4.18075 12.465 4.12457 12.254 4.12476H8.05749L8.16249 1.97401C8.18699 1.45426 8.00324 0.960763 7.64624 0.584513C7.47104 0.399062 7.25967 0.251511 7.02519 0.150977C6.79071 0.0504435 6.53811 -0.000936273 6.28299 1.29153e-05C5.37299 1.29153e-05 4.56799 0.612513 4.32649 1.48926L2.82324 6.93176H2.81799V14.4218H11.0832C11.2442 14.4218 11.4017 14.3903 11.547 14.3273C12.38 13.972 12.9172 13.1583 12.9172 12.2553C12.9172 12.0348 12.8857 11.8178 12.8227 11.6078C13.1167 11.2193 13.2795 10.7433 13.2795 10.248C13.2795 10.0275 13.248 9.81051 13.185 9.60051C13.479 9.21201 13.6417 8.73601 13.6417 8.24076C13.6382 8.02026 13.6067 7.80151 13.5437 7.59151ZM0.000488281 7.49176V13.8618C0.000488281 14.1715 0.250738 14.4218 0.560488 14.4218H1.69799V6.93176H0.560488C0.250738 6.93176 0.000488281 7.18201 0.000488281 7.49176Z" fill="#47CA5B"/>
</svg>
