<svg width="14" height="14" viewBox="0 0 14 14" fill="none" xmlns="http://www.w3.org/2000/svg">
<path d="M10.5155 11.0406L10.5162 11.0406C11.2132 11.0373 11.8808 10.7591 12.3739 10.2665C12.867 9.77384 13.1459 9.1066 13.15 8.40958L13.15 8.40806C13.1479 7.91094 13.0044 7.42469 12.7363 7.00607C12.4855 6.61456 12.1355 6.29729 11.7225 6.08616L11.7225 4.16384L11.7225 4.16364C11.7214 3.28517 11.3719 2.44299 10.7507 1.82182C10.1295 1.20064 9.28737 0.851157 8.40889 0.85H8.4087L5.5913 0.85L5.59101 0.85C4.71244 0.851736 3.87043 1.20185 3.24964 1.82355C2.62886 2.44525 2.28 3.28778 2.27957 4.16635V4.16642V6.0887C1.86675 6.29943 1.51663 6.61616 1.26558 7.00713C0.997119 7.4252 0.852994 7.91096 0.849991 8.4078L0.850003 8.40967C0.853225 8.90855 0.997198 9.39639 1.26536 9.81708C1.51635 10.2108 1.86658 10.5308 2.28009 10.7452L2.28009 11.2423L2.28009 11.2424C2.2804 11.5617 2.40738 11.8678 2.63316 12.0936C2.85894 12.3194 3.16507 12.4464 3.48437 12.4467H3.48452H5.19721C5.28547 12.6392 5.42316 12.8056 5.59708 12.9286C5.80043 13.0724 6.04332 13.1498 6.29239 13.15H6.29252H7.70122V13.15L7.70455 13.15C8.01941 13.143 8.31901 13.013 8.53921 12.7878C8.75941 12.5627 8.88272 12.2602 8.88272 11.9453C8.88272 11.6304 8.75942 11.3279 8.53921 11.1028C8.31901 10.8776 8.01941 10.7476 7.70455 10.7406L7.70455 10.7406H7.70122H6.29252H6.29239C6.04332 10.7408 5.80043 10.8181 5.59708 10.962C5.42316 11.085 5.28547 11.2514 5.19721 11.4439H3.48005C3.42653 11.4438 3.37523 11.4225 3.33739 11.3847L3.23132 11.4908L3.33739 11.3847C3.29958 11.3469 3.27829 11.2956 3.27817 11.2422C3.27817 11.2421 3.27817 11.2421 3.27817 11.242L3.27817 11.0329C3.34528 11.0381 3.41258 11.0406 3.47992 11.0406H3.83148H3.98148V10.8906V5.94557V5.79557H3.83148H3.47983H3.47982C3.41251 5.79557 3.34525 5.7981 3.27817 5.80316V4.66547H4.53687H4.68687V4.51547L4.68687 4.16406C4.68687 4.16401 4.68687 4.16396 4.68687 4.16391C4.68726 3.92414 4.78269 3.69429 4.95223 3.52475C5.12177 3.35521 5.3516 3.2598 5.59137 3.25941C5.59142 3.25941 5.59148 3.25941 5.59153 3.25941H8.40378C8.40383 3.25941 8.40388 3.25941 8.40393 3.25941C8.6437 3.2598 8.87354 3.35521 9.04307 3.52475C9.21265 3.69432 9.30808 3.92424 9.30844 4.16406V4.51547V4.66547H9.45844H10.7171V5.80316C10.6501 5.7981 10.5828 5.79557 10.5155 5.79557H10.1638H10.0138V5.94557V10.8906V11.0406H10.1638L10.5155 11.0406ZM1.85538 8.40664L1.85465 8.35353C1.86928 7.99983 1.99964 7.66009 2.22651 7.38701C2.42595 7.14693 2.6897 6.97074 2.98496 6.87783V9.95683C2.691 9.85775 2.42938 9.67778 2.23119 9.43589C1.99303 9.14524 1.86053 8.78238 1.85538 8.40664ZM5.5913 2.25399L5.59096 2.25399C5.15122 2.25498 4.72526 2.40758 4.38492 2.68605C4.07648 2.93841 3.85545 3.28016 3.75118 3.66269H3.33591C3.44376 3.18051 3.70358 2.74382 4.07937 2.41834C4.49925 2.05467 5.03592 1.85413 5.59139 1.85332H8.4086C8.96398 1.85425 9.50052 2.05484 9.92029 2.41849C10.296 2.74395 10.5557 3.18059 10.6636 3.66269H10.2488C10.1446 3.28016 9.92352 2.93841 9.61508 2.68605C9.27474 2.40758 8.84878 2.25498 8.40904 2.25399H8.4087L5.5913 2.25399ZM11.0197 9.95422V6.876C11.3141 6.96906 11.577 7.14489 11.7759 7.38429C12.0145 7.67141 12.1464 8.03225 12.1493 8.40555C12.1438 8.78074 12.0114 9.14301 11.7735 9.43328C11.5753 9.67517 11.3137 9.85514 11.0197 9.95422ZM7.70539 12.1493H6.2967C6.24328 12.1493 6.19206 12.1281 6.15429 12.0903C6.11652 12.0525 6.0953 12.0013 6.0953 11.9479C6.0953 11.8945 6.11653 11.8433 6.15429 11.8055C6.19206 11.7677 6.24328 11.7465 6.2967 11.7465H7.70539C7.7588 11.7465 7.81003 11.7677 7.8478 11.8055C7.88556 11.8433 7.90678 11.8945 7.90678 11.9479C7.90678 12.0013 7.88557 12.0525 7.8478 12.0903C7.81003 12.1281 7.7588 12.1493 7.70539 12.1493Z" fill="#C4C4C4" stroke="#C4C4C4" stroke-width="0.3"/>
</svg>
