<svg width="70" height="29" viewBox="0 0 70 29" fill="none" xmlns="http://www.w3.org/2000/svg">
<path fill-rule="evenodd" clip-rule="evenodd" d="M0.00119499 15.8903C0.698209 22.5709 5.94374 27.8929 12.5984 28.6748H0L0.00119499 15.8903ZM28.3402 15.8903C27.6432 22.5709 22.3977 27.8929 15.7426 28.6748H28.3414L28.3402 15.8903ZM0.00119499 12.784C0.698209 6.10385 5.94374 0.781851 12.5984 0H0L0.00119499 12.784ZM28.3402 12.784C27.6432 6.10385 22.3977 0.781851 15.7426 0H28.3414L28.3402 12.784ZM13.8355 28.0048V0.753571H13.5838V28.0048H13.8355Z" fill="#0054A4"/>
<path fill-rule="evenodd" clip-rule="evenodd" d="M9.76855 11.9901V17.524H15.5124V11.9901H13.5838V15.5955H11.6971V11.9901H9.76855ZM16.393 11.9901V17.524H20.7109V15.5955H18.3215V14.1286H20.7109V11.9901H16.393ZM23.73 15.8894H25.365V14.1286H23.73V15.8894ZM21.801 17.524V8.38477H23.7296V11.9901H27.419V17.524H21.801ZM50.4364 13.0384L50.2054 17.524H52.0507L52.155 15.5333C52.1968 14.4635 53.371 14.0867 54.1883 14.2966L54.2512 12.8289C53.79 12.8708 53.1822 12.9759 52.721 13.2479L52.4908 13.0384H50.4364ZM39.1372 17.524H37.2927L37.6069 11.4453H39.4522L39.3264 13.6044C39.7246 13.1432 40.7726 12.8289 41.7372 12.8496C42.7011 12.8704 43.6447 13.3109 43.5817 14.4635L43.4136 17.524H41.5691L41.695 15.1554C41.7368 14.3381 41.0235 14.2966 40.6674 14.2966C40.3113 14.2966 39.3264 14.485 39.2423 15.7429L39.1372 17.524ZM31.1924 11.4453L30.8781 17.524H32.9744L33.205 12.7449H34.3787C35.0077 12.7449 35.1542 13.1432 35.1335 13.4156C35.1128 13.6881 34.9658 14.2333 33.6662 14.1286L34.0856 15.2812C35.0913 15.3231 37.1039 14.9881 37.1457 13.2479C37.1875 11.5082 35.6154 11.4453 35.0913 11.4453H31.1924ZM45.0694 13.1854L44.881 14.3174C45.5935 14.0027 47.585 13.6044 47.7742 14.0863C47.8156 14.254 47.8785 14.5265 47.5009 14.5894C47.1234 14.6523 45.6564 14.9248 44.965 15.1968C44.2728 15.47 43.749 15.9305 43.9374 16.7689C44.1266 17.6073 45.1741 17.7965 46.7466 17.6706C46.8095 17.5866 47.0819 16.7689 47.0819 16.7689C46.4745 16.9158 45.9711 16.8947 45.9082 16.6438C45.8452 16.3917 45.8281 16.026 46.3483 15.8472C46.9565 15.6373 47.4591 15.574 47.7945 15.5118L47.6901 17.5236H49.5557L49.7238 14.0863C49.8071 13.3316 48.9687 12.8496 47.9415 12.8078C46.9147 12.766 45.6987 12.9337 45.0694 13.1854ZM54.7547 13.0384L54.5237 17.524H56.3901L56.5151 14.9459C56.5362 14.2751 57.2285 14.1493 57.5216 14.1493C57.8148 14.1493 58.3182 14.2333 58.2971 15.0717L58.1712 17.5236H60.0165L60.1416 14.9455C60.1627 14.2747 60.8549 14.1489 61.1481 14.1489C61.4412 14.1489 61.9447 14.2329 61.9236 15.0713L61.8184 17.5232H63.6629L63.831 14.1278C63.8939 13.0165 62.7202 12.807 62.1538 12.8281C61.5882 12.8492 60.5606 13.0587 60.1834 13.5411C59.9743 13.038 58.5902 12.3462 56.913 13.2475L56.6199 13.038H54.7547V13.0384ZM65.3405 13.1854L65.1521 14.3174C65.8647 14.0027 67.8562 13.6044 68.0445 14.0863C68.0864 14.254 68.1497 14.5265 67.7721 14.5894C67.3945 14.6523 65.9276 14.9248 65.2354 15.1968C64.5439 15.47 64.0202 15.9305 64.2086 16.7689C64.3978 17.6073 65.4453 17.7965 67.0177 17.6706C67.0807 17.5866 67.3531 16.7689 67.3531 16.7689C66.7457 16.9158 66.2423 16.8947 66.1793 16.6438C66.1164 16.3917 66.0993 16.026 66.6195 15.8472C67.2269 15.6373 67.7303 15.574 68.0657 15.5118L67.9613 17.5236H69.8269L69.995 14.0863C70.0782 13.3316 69.2398 12.8496 68.2126 12.8078C67.1858 12.766 65.9698 12.9337 65.3405 13.1854Z" fill="#0054A4"/>
</svg>
