<svg width="16" height="16" viewBox="0 0 16 16" fill="none" xmlns="http://www.w3.org/2000/svg">
<path d="M8 0C3.58214 0 0 3.58214 0 8C0 12.4179 3.58214 16 8 16C12.4179 16 16 12.4179 16 8C16 3.58214 12.4179 0 8 0ZM8 14.6429C4.33214 14.6429 1.35714 11.6679 1.35714 8C1.35714 4.33214 4.33214 1.35714 8 1.35714C11.6679 1.35714 14.6429 4.33214 14.6429 8C14.6429 11.6679 11.6679 14.6429 8 14.6429ZM10.1018 4.13214C9.81786 4.06964 9.4875 4.03571 9.11429 4.03571C7.20893 4.03571 5.91964 5.03036 5.56786 6.7125H5C4.92143 6.7125 4.85714 6.77679 4.85714 6.85536V7.34107C4.85714 7.41964 4.92143 7.48393 5 7.48393H5.47143C5.46607 7.55714 5.46607 7.63393 5.46607 7.7125V8.37143H5C4.92143 8.37143 4.85714 8.43571 4.85714 8.51429V9C4.85714 9.07857 4.92143 9.14286 5 9.14286H5.53929C5.84643 10.9143 7.15357 11.9643 9.11429 11.9643C9.4875 11.9643 9.81786 11.9339 10.1018 11.8732C10.1679 11.8589 10.2161 11.8018 10.2161 11.7339V10.9696C10.2161 10.8804 10.1339 10.8125 10.0464 10.8304C9.78393 10.8804 9.47679 10.9036 9.12143 10.9036C7.89821 10.9036 7.07679 10.25 6.80357 9.14286H9.13571C9.21429 9.14286 9.27857 9.07857 9.27857 9V8.51429C9.27857 8.43571 9.21429 8.37143 9.13571 8.37143H6.7V7.72857C6.7 7.64464 6.7 7.56071 6.70536 7.48214H9.13214C9.21072 7.48214 9.275 7.41786 9.275 7.33929V6.85357C9.275 6.775 9.21072 6.71071 9.13214 6.71071H6.84107C7.14821 5.69464 7.95357 5.09643 9.11964 5.09643C9.475 5.09643 9.78214 5.12321 10.0429 5.175C10.0636 5.17923 10.0849 5.17881 10.1055 5.17378C10.126 5.16874 10.1451 5.15922 10.1615 5.1459C10.1779 5.13258 10.1911 5.11579 10.2003 5.09673C10.2094 5.07768 10.2142 5.05684 10.2143 5.03571V4.27143C10.2143 4.20357 10.1679 4.14643 10.1018 4.13214Z" fill="#2C8EFF"/>
</svg>
