<svg width="17" height="21" viewBox="0 0 17 21" fill="none" xmlns="http://www.w3.org/2000/svg">
<path d="M2.5 10C2.5 11.3783 3.62167 12.5 5 12.5C6.37833 12.5 7.5 11.3783 7.5 10C7.5 8.62167 6.37833 7.5 5 7.5C3.62167 7.5 2.5 8.62167 2.5 10ZM9.44444 18.0556H10V17.5C10 15.3561 8.255 13.6111 6.11111 13.6111H3.88889C1.74444 13.6111 0 15.3561 0 17.5V18.0556H9.44444Z" fill="#737373" fill-opacity="0.7"/>
<path d="M8 10.5C8 12.154 9.346 13.5 11 13.5C12.654 13.5 14 12.154 14 10.5C14 8.846 12.654 7.5 11 7.5C9.346 7.5 8 8.846 8 10.5ZM16.3333 20.1667H17V19.5C17 16.9273 14.906 14.8333 12.3333 14.8333H9.66667C7.09333 14.8333 5 16.9273 5 19.5V20.1667H16.3333Z" fill="#737373"/>
<path d="M10.7167 6.5L9.1 4.89412L10.1167 4.89412V3.60588C10.1167 2.67059 9.26667 1.89412 8.25 1.89412C7.21667 1.89412 6.36667 2.74118 6.36667 3.8V5.42353H5L5 3.8C5 1.96471 6.45 0.5 8.23333 0.5C9.98333 0.5 11.4667 1.91176 11.4667 3.58824V4.87647H12.3333L10.7167 6.5Z" fill="#737373"/>
</svg>
