<svg width="14" height="14" viewBox="0 0 14 14" fill="none" xmlns="http://www.w3.org/2000/svg">
<circle cx="7" cy="7" r="7" fill="#ED4C5C"/>
<path fill-rule="evenodd" clip-rule="evenodd" d="M7.00038 7.98616L8.94236 9.85739C9.13718 10.0466 9.26394 10.0485 9.46232 9.85739L9.85195 9.48188C10.0428 9.298 10.0558 9.1773 9.85195 8.98089L7.79596 7.00008L9.85214 5.01926C10.0447 4.83309 10.0485 4.70745 9.85214 4.5181L9.4625 4.14276C9.26037 3.94794 9.13549 3.95694 8.94255 4.14276L7.00038 6.01399L5.0584 4.14293C4.86545 3.95712 4.74058 3.94812 4.53845 4.14293L4.14881 4.51827C3.95231 4.70762 3.95587 4.83326 4.14881 5.01943L6.2048 7.00008L4.14881 8.98089C3.945 9.1773 3.95587 9.298 4.14881 9.48188L4.53826 9.85739C4.73495 10.0485 4.8617 10.0466 5.05821 9.85739L7.00038 7.98616Z" fill="white"/>
</svg>
