<svg width="20" height="22" viewBox="0 0 20 22" fill="none" xmlns="http://www.w3.org/2000/svg">
<path d="M10.5256 6.2582C10.3862 6.11889 10.1973 6.04062 10.0003 6.04062C9.80326 6.04062 9.61431 6.11889 9.475 6.2582C9.33569 6.39752 9.25742 6.58646 9.25742 6.78348V13.2121C9.25742 13.4091 9.33569 13.598 9.475 13.7373C9.61431 13.8766 9.80326 13.9549 10.0003 13.9549C10.1973 13.9549 10.3862 13.8766 10.5256 13.7373C10.6649 13.598 10.7431 13.4091 10.7431 13.2121V6.78348C10.7431 6.58646 10.6649 6.39752 10.5256 6.2582Z" fill="#2C8EFF" stroke="#2C8EFF" stroke-width="0.2"/>
<path d="M10.0004 17.1692C10.2827 17.1692 10.5534 17.0571 10.753 16.8575C10.9526 16.6579 11.0647 16.3872 11.0647 16.1049C11.0647 15.8226 10.9526 15.5519 10.753 15.3523C10.5534 15.1528 10.2827 15.0406 10.0004 15.0406C9.71815 15.0406 9.44745 15.1528 9.24786 15.3523C9.04826 15.5519 8.93613 15.8226 8.93613 16.1049C8.93613 16.3872 9.04826 16.6579 9.24786 16.8575C9.44745 17.0571 9.71815 17.1692 10.0004 17.1692Z" fill="#2C8EFF" stroke="#2C8EFF" stroke-width="0.2"/>
<path d="M10.412 1.02475L10.412 1.02475C12.8268 2.65262 15.5793 3.7114 18.4625 4.12138L18.4626 4.1214C18.6396 4.14678 18.8014 4.23512 18.9185 4.3702C19.0356 4.50529 19.1 4.67806 19.1 4.85682V10.6425C19.1 13.1652 18.3516 15.351 16.8694 17.1869C15.3885 19.0215 13.1797 20.5011 10.2673 21.622C10.0953 21.6884 9.9047 21.6884 9.73264 21.622C9.73262 21.622 9.7326 21.622 9.73257 21.622L9.76857 21.5287C3.96743 19.2954 1 15.644 1 10.6425L10.412 1.02475ZM10.412 1.02475L10.4115 1.02442C10.2896 0.943285 10.1464 0.9 10 0.9C9.85355 0.9 9.71037 0.943285 9.58846 1.02442L9.64386 1.10767M10.412 1.02475L9.64386 1.10767M9.64386 1.10767L9.58796 1.02475C7.17362 2.65244 4.4215 3.71122 1.53877 4.12138L9.64386 1.10767ZM10.4614 2.81513L10.4614 2.81514L10.4625 2.8158C12.6594 4.14502 15.0849 5.05235 17.6143 5.49141V10.6425C17.6143 12.8022 16.9884 14.6642 15.7231 16.2416C14.4627 17.8131 12.5628 19.1081 10 20.1302C7.43721 19.1081 5.53734 17.8131 4.27686 16.2416C3.01163 14.6642 2.38571 12.8022 2.38571 10.6425V5.4914C4.90549 5.05378 7.32211 4.15144 9.51229 2.83024H9.5143L9.53856 2.81513L10 2.52789L10.4614 2.81513Z" fill="#2C8EFF" stroke="#2C8EFF" stroke-width="0.2"/>
</svg>
