<svg width="36" height="36" viewBox="0 0 36 36" fill="none" xmlns="http://www.w3.org/2000/svg">
<rect x="0.25" y="0.25" width="35.5" height="35.5" rx="2.75" fill="#EAF7FF" stroke="#AEE1FF" stroke-width="0.5"/>
<g clip-path="url(#clip0_11_25137)">
<path d="M14.0784 17.7549L13.5159 19.4986H14.6409L14.0784 17.7549Z" fill="#42A4DF"/>
<path d="M24.9346 10.1611H15.9346V12.9736H18.1846V14.0986H10.8721C9.91582 14.0986 9.18457 14.8299 9.18457 15.7861V21.9736C9.18457 22.9299 9.91582 23.6611 10.8721 23.6611H11.4346V26.5299L14.9783 23.6611H18.7471V19.7236H24.9346C25.8908 19.7236 26.6221 18.9924 26.6221 18.0361V11.8486C26.6221 10.8924 25.8908 10.1611 24.9346 10.1611ZM15.2596 21.3549L14.9783 20.4549H13.2346L12.8971 21.3549H11.5471L13.4033 16.3486H14.7533L16.6096 21.3549H15.2596ZM23.8096 16.9111V18.0361C23.0783 18.0361 22.2908 17.8111 21.6158 17.4736C20.9408 17.8111 20.1533 17.9799 19.3658 18.0361L19.3096 16.9111C19.7033 16.9111 20.0971 16.8549 20.4908 16.7424C19.9846 16.2361 19.6471 15.6174 19.4783 14.9424H20.6596C20.8283 15.4486 21.1658 15.8424 21.5596 16.1799C22.1783 15.6736 22.5721 14.9424 22.6283 14.0986H19.2533V12.9736H20.9408V11.8486H22.0658V12.9736H23.9221L23.9783 13.5361C24.0346 14.7174 23.5846 15.8986 22.7408 16.7424C23.1346 16.8549 23.4721 16.9111 23.8096 16.9111Z" fill="#42A4DF"/>
</g>
<defs>
<clipPath id="clip0_11_25137">
<rect width="18" height="16.875" fill="white" transform="translate(9 10)"/>
</clipPath>
</defs>
</svg>
