<svg width="36" height="36" viewBox="0 0 36 36" fill="none" xmlns="http://www.w3.org/2000/svg">
<rect x="0.25" y="0.25" width="35.5" height="35.5" rx="2.75" fill="#EAF7FF" stroke="#AEE1FF" stroke-width="0.5"/>
<path d="M23.8392 16.5175L22.3861 16.0837C22.2857 15.7329 22.1475 15.3941 21.9741 15.073L22.6854 13.7414C22.7121 13.6911 22.7219 13.6336 22.7133 13.5774C22.7047 13.5211 22.6782 13.4691 22.6377 13.4291L21.601 12.3881C21.561 12.3476 21.509 12.3211 21.4528 12.3125C21.3965 12.3039 21.339 12.3137 21.2887 12.3404L19.9658 13.0474C19.6416 12.8655 19.2983 12.72 18.9421 12.6136L18.5083 11.1779C18.49 11.125 18.4553 11.0793 18.4093 11.0473C18.3634 11.0154 18.3084 10.9988 18.2524 11.0001H16.7863C16.73 11.0003 16.6752 11.0186 16.63 11.0521C16.5847 11.0857 16.5514 11.1328 16.5347 11.1866L16.101 12.618C15.7418 12.7238 15.3956 12.8693 15.0686 13.0517L13.7674 12.3491C13.7171 12.3224 13.6596 12.3126 13.6033 12.3212C13.5471 12.3298 13.4951 12.3563 13.4551 12.3968L12.401 13.4248C12.3606 13.4648 12.334 13.5168 12.3255 13.573C12.3169 13.6293 12.3266 13.6868 12.3533 13.7371L13.056 15.0383C12.8739 15.3639 12.7284 15.7087 12.6223 16.0664L11.1865 16.5001C11.1327 16.5167 11.0856 16.5501 11.052 16.5953C11.0185 16.6406 11.0003 16.6954 11 16.7517V18.2178C11.0003 18.2741 11.0185 18.3289 11.052 18.3741C11.0856 18.4194 11.1327 18.4527 11.1865 18.4694L12.6309 18.9031C12.7382 19.2548 12.8837 19.5937 13.0647 19.9138L12.3533 21.2758C12.3266 21.326 12.3169 21.3836 12.3255 21.4398C12.334 21.4961 12.3606 21.5481 12.401 21.5881L13.4377 22.6248C13.4777 22.6652 13.5297 22.6917 13.586 22.7003C13.6422 22.7089 13.6998 22.6992 13.75 22.6725L15.0903 21.9568C15.4074 22.1279 15.7418 22.2645 16.088 22.3645L16.5217 23.8263C16.5383 23.8801 16.5717 23.9272 16.617 23.9607C16.6622 23.9943 16.717 24.0125 16.7733 24.0128H18.2394C18.2957 24.0125 18.3505 23.9943 18.3958 23.9607C18.441 23.9272 18.4744 23.8801 18.491 23.8263L18.9247 22.3602C19.2679 22.2597 19.5994 22.123 19.9137 21.9524L21.2627 22.6725C21.313 22.6992 21.3705 22.7089 21.4268 22.7003C21.483 22.6917 21.535 22.6652 21.575 22.6248L22.6117 21.5881C22.6522 21.5481 22.6787 21.4961 22.6873 21.4398C22.6959 21.3836 22.6861 21.326 22.6594 21.2758L21.9394 19.9311C22.1117 19.6157 22.2499 19.2827 22.3514 18.9378L23.8132 18.5041C23.867 18.4874 23.9141 18.4541 23.9477 18.4088C23.9812 18.3636 23.9994 18.3088 23.9997 18.2525V16.7734C24.0023 16.7194 23.9883 16.666 23.9596 16.6203C23.9309 16.5745 23.8889 16.5386 23.8392 16.5175ZM17.5194 19.8921C17.0475 19.8921 16.5863 19.7522 16.194 19.49C15.8016 19.2279 15.4959 18.8553 15.3153 18.4194C15.1347 17.9835 15.0875 17.5038 15.1795 17.041C15.2716 16.5782 15.4988 16.1531 15.8325 15.8195C16.1661 15.4859 16.5912 15.2587 17.054 15.1666C17.5167 15.0745 17.9964 15.1218 18.4323 15.3024C18.8682 15.4829 19.2408 15.7887 19.503 16.181C19.7651 16.5733 19.905 17.0346 19.905 17.5064C19.905 18.1391 19.6537 18.7459 19.2063 19.1933C18.7589 19.6407 18.1521 19.8921 17.5194 19.8921Z" fill="#42A4DF"/>
</svg>
