<svg width="12" height="13" viewBox="0 0 12 13" fill="none" xmlns="http://www.w3.org/2000/svg">
<path d="M11.8516 5.09304L10.5103 4.69265C10.4175 4.36886 10.29 4.05606 10.1299 3.75974L10.7865 2.53053C10.8112 2.48414 10.8202 2.43103 10.8123 2.3791C10.8043 2.32717 10.7799 2.27918 10.7425 2.24225L9.78556 1.28131C9.74864 1.24394 9.70065 1.21948 9.64872 1.21154C9.59678 1.20361 9.54368 1.21263 9.49728 1.23727L8.27609 1.88991C7.97684 1.72201 7.65994 1.58773 7.33116 1.48952L6.93077 0.164222C6.91384 0.11538 6.88184 0.0731723 6.83939 0.0436727C6.79694 0.014173 6.74622 -0.00109677 6.69454 6.13274e-05H5.34122C5.28923 0.000303393 5.23867 0.0171318 5.1969 0.0480975C5.15513 0.0790633 5.12433 0.12255 5.10899 0.17223L4.7086 1.49352C4.37708 1.59121 4.05747 1.7255 3.75567 1.89391L2.5545 1.24528C2.5081 1.22064 2.45499 1.21162 2.40306 1.21955C2.35113 1.22749 2.30314 1.25195 2.26621 1.28932L1.29326 2.23825C1.25589 2.27517 1.23143 2.32316 1.22349 2.37509C1.21556 2.42703 1.22458 2.48013 1.24922 2.52653L1.89785 3.7277C1.72971 4.02823 1.59543 4.34649 1.49746 4.67663L0.172168 5.07702C0.122489 5.09236 0.0790019 5.12316 0.0480362 5.16493C0.0170705 5.2067 0.000242066 5.25726 0 5.30925V6.66257C0.000242066 6.71457 0.0170705 6.76512 0.0480362 6.80689C0.0790019 6.84866 0.122489 6.87946 0.172168 6.8948L1.50547 7.29519C1.60451 7.61983 1.73877 7.93267 1.90586 8.2281L1.24922 9.48533C1.22458 9.53173 1.21556 9.58483 1.22349 9.63677C1.23143 9.6887 1.25589 9.73669 1.29326 9.77361L2.2502 10.7305C2.28712 10.7679 2.33511 10.7924 2.38704 10.8003C2.43898 10.8083 2.49208 10.7992 2.53848 10.7746L3.77569 10.1139C4.06836 10.2719 4.37708 10.398 4.69659 10.4903L5.09698 11.8396C5.11232 11.8893 5.14312 11.9328 5.18489 11.9638C5.22665 11.9947 5.27721 12.0116 5.32921 12.0118H6.68253C6.73452 12.0116 6.78508 11.9947 6.82685 11.9638C6.86862 11.9328 6.89942 11.8893 6.91476 11.8396L7.31515 10.4863C7.63193 10.3936 7.93794 10.2674 8.22804 10.1099L9.47326 10.7746C9.51966 10.7992 9.57276 10.8083 9.62469 10.8003C9.67662 10.7924 9.72461 10.7679 9.76154 10.7305L10.7185 9.77361C10.7558 9.73669 10.7803 9.6887 10.7882 9.63677C10.7962 9.58483 10.7872 9.53173 10.7625 9.48533L10.0979 8.24412C10.257 7.95291 10.3845 7.64553 10.4782 7.32722L11.8276 6.92683C11.8772 6.91149 11.9207 6.88069 11.9517 6.83892C11.9827 6.79716 11.9995 6.7466 11.9997 6.6946V5.32927C12.0021 5.27948 11.9892 5.23016 11.9627 5.18793C11.9362 5.14571 11.8974 5.11259 11.8516 5.09304ZM6.01788 8.20808C5.58234 8.20808 5.15657 8.07893 4.79443 7.83695C4.43229 7.59498 4.15003 7.25105 3.98336 6.84866C3.81668 6.44627 3.77307 6.00349 3.85804 5.57631C3.94301 5.14914 4.15275 4.75675 4.46072 4.44877C4.7687 4.1408 5.16109 3.93106 5.58826 3.84609C6.01544 3.76112 6.45822 3.80473 6.86061 3.97141C7.263 4.13808 7.60693 4.42034 7.8489 4.78248C8.09088 5.14462 8.22003 5.57039 8.22003 6.00593C8.22003 6.58998 7.98802 7.1501 7.57504 7.56309C7.16205 7.97607 6.60193 8.20808 6.01788 8.20808Z" fill="#999999"/>
</svg>
