<svg width="11" height="8" viewBox="0 0 11 8" fill="none" xmlns="http://www.w3.org/2000/svg">
<path d="M9.43874 0.250501C9.61155 0.0880521 9.8415 -0.00175654 10.0801 2.60374e-05C10.3187 0.00180862 10.5472 0.0950432 10.7175 0.260056C10.8878 0.425069 10.9865 0.648953 10.9928 0.884467C10.9991 1.11998 10.9126 1.3487 10.7513 1.52237L5.85673 7.56679C5.77257 7.6563 5.67099 7.72814 5.55807 7.778C5.44514 7.82786 5.3232 7.85473 5.19952 7.85699C5.07584 7.85925 4.95297 7.83686 4.83826 7.79116C4.72355 7.74546 4.61934 7.67739 4.53188 7.59101L1.28599 4.3859C1.1956 4.30273 1.1231 4.20243 1.07281 4.09099C1.02253 3.97955 0.995487 3.85925 0.993307 3.73727C0.991128 3.61529 1.01385 3.49412 1.06013 3.381C1.1064 3.26788 1.17527 3.16512 1.26264 3.07885C1.35 2.99259 1.45407 2.92458 1.56863 2.87889C1.68319 2.83319 1.8059 2.81076 1.92943 2.81291C2.05296 2.81506 2.17479 2.84176 2.28765 2.89141C2.40051 2.94107 2.50208 3.01266 2.58631 3.10191L5.15505 5.63718L9.41543 0.277151C9.4231 0.267825 9.43007 0.258928 9.43874 0.250501Z" fill="#35BC4B"/>
</svg>
