<svg width="24" height="17" viewBox="0 0 24 17" fill="none" xmlns="http://www.w3.org/2000/svg">
<path d="M19.4824 7.08333C19.6235 6.65833 19.7647 6.23333 19.7647 5.66667C19.7647 2.55 17.2235 0 14.1176 0C12 0 10.0235 1.275 9.17647 3.11667C8.75294 2.975 8.18824 2.83333 7.76471 2.83333C5.78824 2.83333 4.23529 4.39167 4.23529 6.375C4.23529 6.65833 4.23529 6.94167 4.37647 7.08333C1.83529 7.50833 0 9.49167 0 12.0417C0 14.7333 2.25882 17 4.94118 17H9.88235V12.75H5.64706L12 6.375L18.3529 12.75H14.1176V17H19.0588C21.7412 17 24 14.7333 24 12.0417C24 9.49167 22.0235 7.36667 19.4824 7.08333Z" fill="url(#paint0_linear_11_25149)"/>
<defs>
<linearGradient id="paint0_linear_11_25149" x1="12" y1="0" x2="19.8126" y2="21.9413" gradientUnits="userSpaceOnUse">
<stop stop-color="#E7E7E7"/>
<stop offset="1" stop-color="#848484" stop-opacity="0"/>
</linearGradient>
</defs>
</svg>
