<svg width="15" height="14" viewBox="0 0 15 14" fill="none" xmlns="http://www.w3.org/2000/svg">
<g clip-path="url(#clip0_11_26859)">
<path d="M2.28369 13.5629C1.56182 13.5629 1.23369 13.0379 1.56182 12.4035L7.40244 0.919141C7.73057 0.284766 8.25557 0.284766 8.58369 0.919141L14.4243 12.4035C14.7524 13.0379 14.4243 13.5629 13.7024 13.5629H2.28369Z" fill="#FFD42F"/>
<path d="M7.07453 5.1627L7.68703 9.20957C7.75265 9.60332 8.25578 9.60332 8.3214 9.20957L8.91203 5.1627C9.0214 3.5877 6.96515 3.5877 7.07453 5.1627Z" fill="#665202"/>
<path d="M7.99321 11.7691C8.50062 11.7691 8.91196 11.3578 8.91196 10.8504C8.91196 10.343 8.50062 9.93164 7.99321 9.93164C7.4858 9.93164 7.07446 10.343 7.07446 10.8504C7.07446 11.3578 7.4858 11.7691 7.99321 11.7691Z" fill="#665202"/>
</g>
<defs>
<clipPath id="clip0_11_26859">
<rect width="14" height="14" fill="white" transform="translate(0.993164)"/>
</clipPath>
</defs>
</svg>
