<svg width="15" height="16" viewBox="0 0 15 16" fill="none" xmlns="http://www.w3.org/2000/svg">
<g clip-path="url(#clip0_2440_77)">
<path d="M12.241 0.700348L14.491 2.95035L12.7758 4.66635L10.5258 2.41635L12.241 0.700348Z" fill="#FFBE15"/>
<path d="M4 11.1914H6.25L11.7152 5.7262L9.46525 3.4762L4 8.94145V11.1914Z" fill="#FFBE15"/>
<path d="M12.25 13.4414H4.1185C4.099 13.4414 4.07875 13.4489 4.05925 13.4489C4.0345 13.4489 4.00975 13.4422 3.98425 13.4414H1.75V2.94141H6.88525L8.38525 1.44141H1.75C0.92275 1.44141 0.25 2.11341 0.25 2.94141V13.4414C0.25 14.2694 0.92275 14.9414 1.75 14.9414H12.25C12.6478 14.9414 13.0294 14.7834 13.3107 14.5021C13.592 14.2208 13.75 13.8392 13.75 13.4414V6.94041L12.25 8.44041V13.4414Z" fill="#FFBE15"/>
</g>
<defs>
<clipPath id="clip0_2440_77">
<rect width="15" height="15" fill="white" transform="translate(0 0.191406)"/>
</clipPath>
</defs>
</svg>
