<svg width="3" height="13" viewBox="0 0 3 13" fill="none" xmlns="http://www.w3.org/2000/svg">
<path d="M1.27832 2.5C1.96868 2.5 2.52832 1.94036 2.52832 1.25C2.52832 0.559644 1.96868 0 1.27832 0C0.587964 0 0.0283203 0.559644 0.0283203 1.25C0.0283203 1.94036 0.587964 2.5 1.27832 2.5Z" fill="#AAA4A4"/>
<path d="M1.27832 7.5C1.96868 7.5 2.52832 6.94036 2.52832 6.25C2.52832 5.55964 1.96868 5 1.27832 5C0.587964 5 0.0283203 5.55964 0.0283203 6.25C0.0283203 6.94036 0.587964 7.5 1.27832 7.5Z" fill="#AAA4A4"/>
<path d="M1.27832 12.5C1.96868 12.5 2.52832 11.9404 2.52832 11.25C2.52832 10.5596 1.96868 10 1.27832 10C0.587964 10 0.0283203 10.5596 0.0283203 11.25C0.0283203 11.9404 0.587964 12.5 1.27832 12.5Z" fill="#AAA4A4"/>
</svg>
