<svg width="34" height="34" viewBox="0 0 34 34" fill="none" xmlns="http://www.w3.org/2000/svg">
<rect width="34" height="34" rx="3" fill="#FFEDE2"/>
<g clip-path="url(#clip0_12_9074)">
<path d="M17.8 12.2C19.8056 12.5384 21.4616 14.1944 21.8 16.2H25C24.6232 12.4264 21.5736 9.3768 17.8 9V12.2Z" fill="#FF772A"/>
<path d="M21.8 17.8C21.4176 20.0664 19.4144 21.7592 17.0408 21.7592C14.3936 21.7592 12.2408 19.6064 12.2408 16.9592C12.2408 14.5856 13.9336 12.5824 16.2 12.2V9C12.1632 9.4032 9.04083 12.8184 9.04083 16.9592C9.04083 21.3704 12.6296 24.9592 17.0408 24.9592C21.1816 24.9592 24.5968 21.8368 25 17.8H21.8Z" fill="#FF772A"/>
</g>
<defs>
<clipPath id="clip0_12_9074">
<rect width="16" height="16" fill="white" transform="translate(9 9)"/>
</clipPath>
</defs>
</svg>
