<svg width="20" height="20" viewBox="0 0 20 20" fill="none" xmlns="http://www.w3.org/2000/svg">
<circle cx="10" cy="10" r="10" fill="#F0F0F0"/>
<path fill-rule="evenodd" clip-rule="evenodd" d="M6.19499 6.20332C6.31989 6.07847 6.48926 6.00833 6.66585 6.00833C6.84245 6.00833 7.01182 6.07847 7.13671 6.20332L9.99584 9.06244L12.855 6.20332C12.9164 6.13971 12.9899 6.08897 13.0711 6.05407C13.1524 6.01917 13.2398 6.00079 13.3282 6.00003C13.4166 5.99926 13.5043 6.01611 13.5862 6.04959C13.668 6.08308 13.7424 6.13253 13.8049 6.19507C13.8675 6.2576 13.9169 6.33196 13.9504 6.41381C13.9839 6.49565 14.0007 6.58335 14 6.67178C13.9992 6.76021 13.9808 6.84761 13.9459 6.92886C13.911 7.01011 13.8603 7.0836 13.7967 7.14504L10.9376 10.0042L13.7967 12.8633C13.918 12.9889 13.9851 13.1571 13.9836 13.3317C13.9821 13.5064 13.912 13.6734 13.7886 13.7969C13.6651 13.9204 13.498 13.9904 13.3234 13.9919C13.1488 13.9934 12.9806 13.9263 12.855 13.805L9.99584 10.9459L7.13671 13.805C7.01111 13.9263 6.84287 13.9934 6.66825 13.9919C6.49363 13.9904 6.32659 13.9204 6.20311 13.7969C6.07963 13.6734 6.00958 13.5064 6.00807 13.3317C6.00655 13.1571 6.07368 12.9889 6.19499 12.8633L9.05412 10.0042L6.19499 7.14504C6.07014 7.02015 6 6.85078 6 6.67418C6 6.49758 6.07014 6.32821 6.19499 6.20332Z" fill="#BEBEBE"/>
</svg>
