<svg width="12" height="12" viewBox="0 0 12 12" fill="none" xmlns="http://www.w3.org/2000/svg">
<path d="M0.783622 8.1878L0.113034 11.0819C0.0899007 11.1877 0.0906937 11.2973 0.115355 11.4028C0.140016 11.5082 0.187922 11.6069 0.255574 11.6914C0.323225 11.776 0.408914 11.8444 0.506378 11.8916C0.603843 11.9388 0.710623 11.9636 0.818916 11.9643C0.869376 11.9694 0.920221 11.9694 0.970681 11.9643L3.88245 11.2937L9.47303 5.72427L6.35303 2.61133L0.783622 8.1878Z" fill="#999999"/>
<path d="M11.2305 2.93566L9.14814 0.853303C9.01123 0.71709 8.82596 0.640625 8.63284 0.640625C8.43972 0.640625 8.25445 0.71709 8.11755 0.853303L6.9599 2.01095L10.0764 5.12742L11.234 3.96977C11.3018 3.90168 11.3554 3.8209 11.3919 3.73206C11.4284 3.64321 11.447 3.54803 11.4467 3.45198C11.4464 3.35593 11.4271 3.26089 11.39 3.17229C11.3529 3.08369 11.2987 3.00328 11.2305 2.93566Z" fill="#999999"/>
</svg>
