<svg width="30" height="30" viewBox="0 0 30 30" fill="none" xmlns="http://www.w3.org/2000/svg">
<rect x="0.5" y="0.5" width="29" height="29" rx="1.5" fill="white" stroke="#D8D8D8"/>
<path d="M14.75 18V9.75C14.75 9.55109 14.829 9.36032 14.9697 9.21967C15.1103 9.07902 15.3011 9 15.5 9C15.6989 9 15.8897 9.07902 16.0303 9.21967C16.171 9.36032 16.25 9.55109 16.25 9.75V18H17C17.1989 18 17.3897 18.079 17.5303 18.2197C17.671 18.3603 17.75 18.5511 17.75 18.75C17.75 18.9489 17.671 19.1397 17.5303 19.2803C17.3897 19.421 17.1989 19.5 17 19.5H16.25V20.25C16.25 20.4489 16.171 20.6397 16.0303 20.7803C15.8897 20.921 15.6989 21 15.5 21C15.3011 21 15.1103 20.921 14.9697 20.7803C14.829 20.6397 14.75 20.4489 14.75 20.25V19.5H14C13.8011 19.5 13.6103 19.421 13.4697 19.2803C13.329 19.1397 13.25 18.9489 13.25 18.75C13.25 18.5511 13.329 18.3603 13.4697 18.2197C13.6103 18.079 13.8011 18 14 18H14.75ZM20 10.5V9.75C20 9.55109 20.079 9.36032 20.2197 9.21967C20.3603 9.07902 20.5511 9 20.75 9C20.9489 9 21.1397 9.07902 21.2803 9.21967C21.421 9.36032 21.5 9.55109 21.5 9.75V10.5H22.25C22.4489 10.5 22.6397 10.579 22.7803 10.7197C22.921 10.8603 23 11.0511 23 11.25C23 11.4489 22.921 11.6397 22.7803 11.7803C22.6397 11.921 22.4489 12 22.25 12H21.5V20.25C21.5 20.4489 21.421 20.6397 21.2803 20.7803C21.1397 20.921 20.9489 21 20.75 21C20.5511 21 20.3603 20.921 20.2197 20.7803C20.079 20.6397 20 20.4489 20 20.25V12H19.25C19.0511 12 18.8603 11.921 18.7197 11.7803C18.579 11.6397 18.5 11.4489 18.5 11.25C18.5 11.0511 18.579 10.8603 18.7197 10.7197C18.8603 10.579 19.0511 10.5 19.25 10.5H20ZM11 12.75H11.75C11.9489 12.75 12.1397 12.829 12.2803 12.9697C12.421 13.1103 12.5 13.3011 12.5 13.5C12.5 13.6989 12.421 13.8897 12.2803 14.0303C12.1397 14.171 11.9489 14.25 11.75 14.25H11V20.25C11 20.4489 10.921 20.6397 10.7803 20.7803C10.6397 20.921 10.4489 21 10.25 21C10.0511 21 9.86032 20.921 9.71967 20.7803C9.57902 20.6397 9.5 20.4489 9.5 20.25V14.25H8.75C8.55109 14.25 8.36032 14.171 8.21967 14.0303C8.07902 13.8897 8 13.6989 8 13.5C8 13.3011 8.07902 13.1103 8.21967 12.9697C8.36032 12.829 8.55109 12.75 8.75 12.75H9.5V9.75C9.5 9.55109 9.57902 9.36032 9.71967 9.21967C9.86032 9.07902 10.0511 9 10.25 9C10.4489 9 10.6397 9.07902 10.7803 9.21967C10.921 9.36032 11 9.55109 11 9.75V12.75Z" fill="#AAAAAA"/>
</svg>
