<svg width="34" height="34" viewBox="0 0 34 34" fill="none" xmlns="http://www.w3.org/2000/svg">
<rect width="34" height="34" rx="3" fill="#F2F2F2"/>
<path d="M15.0333 21C15.0333 21.751 14.4176 22.3667 13.6667 22.3667C12.9157 22.3667 12.3 21.751 12.3 21V12.6667C12.3 11.9157 12.9157 11.3 13.6667 11.3C14.4176 11.3 15.0333 11.9157 15.0333 12.6667V21ZM18.9667 21V12.6667C18.9667 11.9157 19.5824 11.3 20.3333 11.3C21.0843 11.3 21.7 11.9157 21.7 12.6667V21C21.7 21.751 21.0843 22.3667 20.3333 22.3667C19.5824 22.3667 18.9667 21.751 18.9667 21Z" fill="#AFAFAF" stroke="#AFAFAF" stroke-width="0.6"/>
</svg>
