<svg width="16" height="16" viewBox="0 0 16 16" fill="none" xmlns="http://www.w3.org/2000/svg">
<path d="M3 1.61345C3 1.18553 3.15804 0.775147 3.43934 0.472567C3.72064 0.169988 4.10218 0 4.5 0H11.5C11.8978 0 12.2794 0.169988 12.5607 0.472567C12.842 0.775147 13 1.18553 13 1.61345V2.15126H13.5C14.163 2.15126 14.7989 2.43457 15.2678 2.93887C15.7366 3.44317 16 4.12715 16 4.84034V10.2185C16 10.6464 15.842 11.0568 15.5607 11.3594C15.2794 11.6619 14.8978 11.8319 14.5 11.8319H13V13.4454C13 13.8733 12.842 14.2837 12.5607 14.5863C12.2794 14.8888 11.8978 15.0588 11.5 15.0588H4.5C4.10218 15.0588 3.72064 14.8888 3.43934 14.5863C3.15804 14.2837 3 13.8733 3 13.4454V11.8319H1.5C1.10218 11.8319 0.720644 11.6619 0.43934 11.3594C0.158035 11.0568 0 10.6464 0 10.2185V4.84034C0 4.12715 0.263392 3.44317 0.732233 2.93887C1.20107 2.43457 1.83696 2.15126 2.5 2.15126H3V1.61345ZM12 1.61345C12 1.47081 11.9473 1.33401 11.8536 1.23315C11.7598 1.13229 11.6326 1.07563 11.5 1.07563H4.5C4.36739 1.07563 4.24021 1.13229 4.14645 1.23315C4.05268 1.33401 4 1.47081 4 1.61345V2.15126H12V1.61345ZM4 9.14286V13.4454C4 13.588 4.05268 13.7248 4.14645 13.8257C4.24021 13.9265 4.36739 13.9832 4.5 13.9832H11.5C11.6326 13.9832 11.7598 13.9265 11.8536 13.8257C11.9473 13.7248 12 13.588 12 13.4454V9.14286C12 9.00022 11.9473 8.86342 11.8536 8.76256C11.7598 8.66171 11.6326 8.60504 11.5 8.60504H4.5C4.36739 8.60504 4.24021 8.66171 4.14645 8.76256C4.05268 8.86342 4 9.00022 4 9.14286Z" fill="#42A4DF"/>
</svg>
