<svg width="14" height="14" viewBox="0 0 14 14" fill="none" xmlns="http://www.w3.org/2000/svg">
<path d="M12.8675 5.51746L11.4144 5.0837C11.314 4.73293 11.1758 4.39407 11.0024 4.07305L11.7137 2.74141C11.7404 2.69115 11.7502 2.63362 11.7416 2.57736C11.733 2.5211 11.7065 2.46911 11.666 2.42911L10.6293 1.38809C10.5893 1.34761 10.5374 1.3211 10.4811 1.31251C10.4248 1.30391 10.3673 1.31368 10.317 1.34038L8.99408 2.0474C8.6699 1.86551 8.32659 1.72004 7.97042 1.61364L7.53666 0.177907C7.51831 0.124996 7.48365 0.07927 7.43766 0.047312C7.39167 0.0153541 7.33673 -0.00118817 7.28074 6.6438e-05H5.81464C5.75831 0.000328676 5.70354 0.0185595 5.65829 0.0521057C5.61304 0.0856519 5.57968 0.132763 5.56306 0.186582L5.1293 1.61798C4.77016 1.72381 4.42391 1.86929 4.09696 2.05174L2.79569 1.34905C2.74543 1.32236 2.6879 1.31259 2.63164 1.32118C2.57538 1.32978 2.52339 1.35628 2.48339 1.39676L1.42936 2.42477C1.38887 2.46477 1.36237 2.51676 1.35377 2.57302C1.34518 2.62928 1.35495 2.68681 1.38164 2.73707L2.08433 4.03835C1.90218 4.36392 1.7567 4.7087 1.65057 5.06635L0.214836 5.50011C0.161017 5.51673 0.113906 5.55009 0.0803595 5.59534C0.0468134 5.64059 0.0285826 5.69536 0.0283203 5.75169V7.21779C0.0285826 7.27411 0.0468134 7.32889 0.0803595 7.37413C0.113906 7.41938 0.161017 7.45274 0.214836 7.46936L1.65925 7.90312C1.76654 8.25482 1.91199 8.59372 2.093 8.91378L1.38164 10.2758C1.35495 10.326 1.34518 10.3836 1.35377 10.4398C1.36237 10.4961 1.38887 10.5481 1.42936 10.5881L2.46604 11.6248C2.50604 11.6652 2.55803 11.6917 2.61429 11.7003C2.67054 11.7089 2.72808 11.6992 2.77834 11.6725L4.11865 10.9568C4.43571 11.1279 4.77016 11.2645 5.11629 11.3645L5.55005 12.8263C5.56667 12.8801 5.60003 12.9272 5.64528 12.9607C5.69053 12.9943 5.7453 13.0125 5.80163 13.0128H7.26773C7.32405 13.0125 7.37883 12.9943 7.42408 12.9607C7.46932 12.9272 7.50269 12.8801 7.51931 12.8263L7.95306 11.3602C8.29624 11.2597 8.62776 11.123 8.94203 10.9524L10.291 11.6725C10.3413 11.6992 10.3988 11.7089 10.4551 11.7003C10.5113 11.6917 10.5633 11.6652 10.6033 11.6248L11.64 10.5881C11.6805 10.5481 11.707 10.4961 11.7156 10.4398C11.7242 10.3836 11.7144 10.326 11.6877 10.2758L10.9677 8.93113C11.14 8.61565 11.2782 8.28266 11.3797 7.93782L12.8415 7.50407C12.8953 7.48744 12.9424 7.45408 12.976 7.40883C13.0095 7.36359 13.0278 7.30881 13.028 7.25249V5.77337C13.0306 5.71944 13.0166 5.66601 12.9879 5.62026C12.9592 5.57452 12.9172 5.53864 12.8675 5.51746ZM6.54769 8.89209C6.07585 8.89209 5.61461 8.75217 5.22229 8.49003C4.82997 8.22789 4.52419 7.8553 4.34362 7.41938C4.16306 6.98346 4.11581 6.50378 4.20787 6.041C4.29992 5.57823 4.52713 5.15315 4.86077 4.8195C5.19441 4.48586 5.6195 4.25865 6.08227 4.1666C6.54504 4.07455 7.02472 4.12179 7.46065 4.30236C7.89657 4.48292 8.26916 4.7887 8.5313 5.18102C8.79344 5.57334 8.93336 6.03458 8.93336 6.50642C8.93336 7.13914 8.68201 7.74594 8.23461 8.19334C7.78721 8.64074 7.18041 8.89209 6.54769 8.89209Z" fill="white"/>
</svg>
