<svg width="34" height="34" viewBox="0 0 34 34" fill="none" xmlns="http://www.w3.org/2000/svg">
<rect width="34" height="34" rx="3" fill="#EAF7FF"/>
<path d="M15.7133 9.46883C16.0737 9.16601 16.5293 9 17 9C17.4707 9 17.9263 9.16601 18.2867 9.46883L24.2867 14.5142C24.51 14.7018 24.6896 14.9361 24.8128 15.2005C24.936 15.4649 24.9999 15.7531 25 16.0448V24.4248C25 24.7785 24.8595 25.1176 24.6095 25.3676C24.3594 25.6177 24.0203 25.7582 23.6667 25.7582H20C19.6464 25.7582 19.3072 25.6177 19.0572 25.3676C18.8071 25.1176 18.6667 24.7785 18.6667 24.4248V19.7582H15.3333V24.4248C15.3333 24.7785 15.1929 25.1176 14.9428 25.3676C14.6928 25.6177 14.3536 25.7582 14 25.7582H10.3333C9.97971 25.7582 9.64057 25.6177 9.39052 25.3676C9.14048 25.1176 9 24.7785 9 24.4248V16.0442C9.00007 15.7524 9.06396 15.4643 9.18719 15.1998C9.31042 14.9354 9.49 14.7012 9.71333 14.5135L15.7133 9.46816V9.46883ZM17.4293 10.4888C17.3091 10.3877 17.1571 10.3322 17 10.3322C16.8429 10.3322 16.6909 10.3877 16.5707 10.4888L10.5707 15.5355C10.4965 15.5979 10.4368 15.6758 10.3959 15.7636C10.3549 15.8515 10.3335 15.9472 10.3333 16.0442V24.4242H14V19.7575C14 19.4039 14.1405 19.0647 14.3905 18.8147C14.6406 18.5646 14.9797 18.4242 15.3333 18.4242H18.6667C19.0203 18.4242 19.3594 18.5646 19.6095 18.8147C19.8595 19.0647 20 19.4039 20 19.7575V24.4242H23.6667V16.0442C23.6667 15.947 23.6454 15.851 23.6044 15.7629C23.5634 15.6748 23.5037 15.5967 23.4293 15.5342L17.4293 10.4888Z" fill="#42A4DF"/>
</svg>
