<svg width="34" height="34" viewBox="0 0 34 34" fill="none" xmlns="http://www.w3.org/2000/svg">
<rect width="34" height="34" rx="3" fill="#EAF7FF"/>
<path d="M17 17C19.2094 17 21 15.2094 21 13C21 10.7906 19.2094 9 17 9C14.7906 9 13 10.7906 13 13C13 15.2094 14.7906 17 17 17ZM19.8 18H19.2781C18.5844 18.3187 17.8125 18.5 17 18.5C16.1875 18.5 15.4188 18.3187 14.7219 18H14.2C11.8812 18 10 19.8812 10 22.2V23.5C10 24.3281 10.6719 25 11.5 25H22.5C23.3281 25 24 24.3281 24 23.5V22.2C24 19.8812 22.1188 18 19.8 18Z" fill="#42A4DF"/>
</svg>
