<svg width="312" height="376" viewBox="0 0 312 376" fill="none" xmlns="http://www.w3.org/2000/svg">
<path d="M30.7478 74.0601L42.9565 126.472L30.7478 178.656L76.1913 206.913L104 252.716L156 240.411L208 252.716L235.809 206.913L281.252 178.656L269.043 126.472L281.252 74.0601L236.035 45.8034L208 0L156 12.5333L104.226 0.227877L75.9652 45.8034L30.7478 74.0601ZM156.226 218.534C132.241 218.534 109.239 208.931 92.279 191.837C75.3192 174.743 65.7913 151.558 65.7913 127.383C65.7913 103.209 75.3192 80.0241 92.279 62.93C109.239 45.8359 132.241 36.2325 156.226 36.2325C205.965 36.2325 246.435 77.0225 246.435 127.156C246.435 177.744 205.965 218.534 156.226 218.534ZM155.774 195.747C118.243 195.747 88.1739 165.211 88.1739 127.383C88.1739 89.7837 118.243 59.0202 155.774 59.0202C193.304 59.0202 223.826 89.7837 223.826 127.383C223.826 165.211 193.304 195.747 155.774 195.747ZM242.591 220.813L213.652 271.858L166.626 261.147L223.826 394L255.478 343.867H312L242.591 220.813ZM68.5044 222.408L96.7652 273.681L144.922 262.059L88.1739 394L56.5217 343.867H0L68.5044 222.408Z" fill="#DCDCDC" fill-opacity="0.15"/>
</svg>
