<svg width="16" height="11" viewBox="0 0 16 11" fill="none" xmlns="http://www.w3.org/2000/svg">
<path d="M3.07011 6.15063L5.96094 9.04055L5.96096 9.04057C6.02138 9.10098 6.0693 9.17271 6.102 9.25165C6.1347 9.33058 6.15153 9.41519 6.15153 9.50063C6.15153 9.58607 6.1347 9.67068 6.102 9.74962C6.0693 9.82856 6.02138 9.90028 5.96096 9.9607C5.90054 10.0211 5.82882 10.069 5.74988 10.1017C5.67094 10.1344 5.58634 10.1513 5.50089 10.1513C5.41545 10.1513 5.33085 10.1344 5.25191 10.1017C5.17297 10.069 5.10124 10.0211 5.04083 9.9607L1.04096 5.96083L3.07011 6.15063ZM3.07011 6.15063H14.5009C14.6733 6.15063 14.8386 6.08215 14.9605 5.96025C15.0824 5.83835 15.1509 5.67302 15.1509 5.50063C15.1509 5.32824 15.0824 5.16291 14.9605 5.04101C14.8386 4.91911 14.6733 4.85063 14.5009 4.85063H3.07011L5.96094 1.96071L5.96096 1.9607C6.02138 1.90028 6.0693 1.82856 6.102 1.74962C6.1347 1.67068 6.15153 1.58607 6.15153 1.50063C6.15153 1.41519 6.1347 1.33058 6.102 1.25165C6.0693 1.17271 6.02138 1.10098 5.96096 1.04057C5.90054 0.980149 5.82882 0.932224 5.74988 0.899526C5.67094 0.866829 5.58634 0.85 5.50089 0.85C5.41545 0.85 5.33085 0.866829 5.25191 0.899526C5.17297 0.932224 5.10124 0.980149 5.04083 1.04057L1.04096 5.04043L3.07011 6.15063ZM0.899636 5.25151C0.93238 5.1726 0.980359 5.10092 1.04083 5.04057L0.899636 5.25151ZM0.899636 5.25151C0.866867 5.33048 0.85 5.41513 0.85 5.50063M0.899636 5.25151L0.85 5.50063M0.85 5.50063C0.85 5.58613 0.866867 5.67079 0.899636 5.74975M0.85 5.50063L0.899636 5.74975M0.899636 5.74975C0.93238 5.82867 0.980359 5.90035 1.04083 5.9607L0.899636 5.74975Z" fill="#BDBCBC" stroke="#BDBCBC" stroke-width="0.3"/>
</svg>
