<svg width="14" height="15" viewBox="0 0 14 15" fill="none" xmlns="http://www.w3.org/2000/svg">
<path d="M2.82063 4.38421L4.68926 6.25284L3.64737 7.29474L0 3.64737L3.64737 0L4.68926 1.04189L2.82063 2.91053H8.10526C9.66864 2.91053 11.168 3.53158 12.2735 4.63705C13.3789 5.74253 14 7.24188 14 8.80526C14 10.3686 13.3789 11.868 12.2735 12.9735C11.168 14.0789 9.66864 14.7 8.10526 14.7H1.47368V13.2263H8.10526C9.2778 13.2263 10.4023 12.7605 11.2314 11.9314C12.0605 11.1023 12.5263 9.9778 12.5263 8.80526C12.5263 7.63273 12.0605 6.50821 11.2314 5.67911C10.4023 4.85 9.2778 4.38421 8.10526 4.38421H2.82063Z" fill="#C9C9C9"/>
</svg>
