<svg width="16" height="11" viewBox="0 0 16 11" fill="none" xmlns="http://www.w3.org/2000/svg">
<path d="M10.0369 1.309C10.0621 1.24827 10.0989 1.19309 10.1454 1.14661C10.1919 1.10013 10.2471 1.06326 10.3078 1.0381C10.3686 1.01295 10.4337 1 10.4994 1C10.5651 1 10.6302 1.01295 10.691 1.0381C10.7517 1.06326 10.8069 1.10013 10.8534 1.14661L14.8531 5.14605C14.8997 5.19249 14.9366 5.24766 14.9618 5.30839C14.987 5.36913 15 5.43424 15 5.5C15 5.56576 14.987 5.63087 14.9618 5.69161C14.9366 5.75234 14.8997 5.80751 14.8531 5.85395L14.9592 5.96002L14.9591 5.96009C14.9591 5.96011 14.9591 5.96013 14.959 5.96015L10.9594 9.95946C10.899 10.0199 10.8273 10.0678 10.7484 10.1005L10.691 9.9619L10.7484 10.1005C10.6694 10.1332 10.5848 10.15 10.4994 10.15C10.414 10.15 10.3294 10.1332 10.2504 10.1005L10.3078 9.9619L10.2504 10.1005C10.1715 10.0678 10.0998 10.0199 10.0394 9.95946C9.97894 9.89905 9.93102 9.82733 9.89832 9.7484C9.86562 9.66947 9.84879 9.58487 9.84879 9.49944C9.84879 9.41401 9.86562 9.32941 9.89832 9.25048C9.93102 9.17155 9.97894 9.09983 10.0394 9.03942L10.0394 9.0394L12.93 6.14993H1.49997C1.32759 6.14993 1.16227 6.08146 1.04037 5.95957C0.918482 5.83769 0.85 5.67238 0.85 5.5C0.85 5.32762 0.918482 5.16231 1.04037 5.04043C1.16227 4.91854 1.32759 4.85007 1.49997 4.85007H12.93L10.0394 1.9606L10.0394 1.96058C9.97894 1.90017 9.93102 1.82846 9.89832 1.74953L10.0369 1.69212L9.89832 1.74952C9.86562 1.67059 9.84879 1.586 9.84879 1.50056C9.84879 1.41513 9.86562 1.33053 9.89832 1.2516L10.0369 1.309ZM10.0369 1.309L9.89832 1.2516C9.93102 1.17267 9.97894 1.10095 10.0394 1.04054C10.0998 0.980131 10.1715 0.932212 10.2504 0.89952C10.3294 0.866827 10.414 0.85 10.4994 0.85C10.5848 0.85 10.6694 0.866827 10.7484 0.899519C10.8273 0.932212 10.899 0.980131 10.9594 1.04054L14.959 5.03985L10.0369 1.309Z" fill="#2C8EFF" stroke="#2C8EFF" stroke-width="0.3"/>
</svg>
