<svg width="22" height="19" viewBox="0 0 22 19" fill="none" xmlns="http://www.w3.org/2000/svg">
<path d="M7.59375 18.875C8.4567 18.875 9.15625 18.1754 9.15625 17.3125C9.15625 16.4496 8.4567 15.75 7.59375 15.75C6.73081 15.75 6.03125 16.4496 6.03125 17.3125C6.03125 18.1754 6.73081 18.875 7.59375 18.875Z" fill="#ED4C5C"/>
<path d="M18.5312 18.875C19.3942 18.875 20.0938 18.1754 20.0938 17.3125C20.0938 16.4496 19.3942 15.75 18.5312 15.75C17.6683 15.75 16.9688 16.4496 16.9688 17.3125C16.9688 18.1754 17.6683 18.875 18.5312 18.875Z" fill="#ED4C5C"/>
<path d="M21.3047 2.89746C21.1949 2.76321 21.0567 2.65508 20.8999 2.58092C20.7431 2.50677 20.5718 2.46845 20.3984 2.46875H5.5376L5.23828 0.770508C5.20637 0.589614 5.11173 0.42575 4.971 0.307699C4.83027 0.189649 4.65244 0.124961 4.46875 0.125H1.34375C1.13655 0.125 0.937836 0.20731 0.791323 0.353823C0.64481 0.500336 0.5625 0.69905 0.5625 0.90625C0.5625 1.11345 0.64481 1.31216 0.791323 1.45868C0.937836 1.60519 1.13655 1.6875 1.34375 1.6875H3.81348L6.04297 14.3232C6.07488 14.5041 6.16952 14.668 6.31025 14.7861C6.45098 14.9041 6.62881 14.9688 6.8125 14.9688H19.3125C19.5197 14.9688 19.7184 14.8864 19.8649 14.7399C20.0114 14.5934 20.0938 14.3947 20.0938 14.1875C20.0938 13.9803 20.0114 13.7816 19.8649 13.6351C19.7184 13.4886 19.5197 13.4062 19.3125 13.4062H7.46777L7.19238 11.8438H18.9922C19.2631 11.8434 19.5256 11.7495 19.7352 11.5778C19.9449 11.4062 20.0888 11.1674 20.1426 10.9019L21.5488 3.87061C21.5827 3.70044 21.5784 3.52487 21.5362 3.35658C21.4939 3.18829 21.4149 3.03148 21.3047 2.89746Z" fill="#ED4C5C"/>
</svg>
