<svg width="18" height="16" viewBox="0 0 18 16" fill="none" xmlns="http://www.w3.org/2000/svg">
<g clip-path="url(#clip0_2542_19986)">
<path d="M6.21298 15.4435C6.91903 15.4435 7.49139 14.8712 7.49139 14.1651C7.49139 13.4591 6.91903 12.8867 6.21298 12.8867C5.50693 12.8867 4.93457 13.4591 4.93457 14.1651C4.93457 14.8712 5.50693 15.4435 6.21298 15.4435Z" fill="white"/>
<path d="M15.1622 15.4435C15.8682 15.4435 16.4406 14.8712 16.4406 14.1651C16.4406 13.4591 15.8682 12.8867 15.1622 12.8867C14.4562 12.8867 13.8838 13.4591 13.8838 14.1651C13.8838 14.8712 14.4562 15.4435 15.1622 15.4435Z" fill="white"/>
<path d="M17.4308 2.36994C17.341 2.2601 17.2279 2.17163 17.0996 2.11096C16.9714 2.05028 16.8312 2.01893 16.6894 2.01918H4.53049L4.2856 0.629705C4.25949 0.481701 4.18206 0.34763 4.06691 0.251044C3.95177 0.154457 3.80627 0.101531 3.65598 0.101563H1.09917C0.929638 0.101563 0.767054 0.168907 0.64718 0.288781C0.527305 0.408655 0.459961 0.571239 0.459961 0.740767C0.459961 0.910295 0.527305 1.07288 0.64718 1.19275C0.767054 1.31263 0.929638 1.37997 1.09917 1.37997H3.11985L4.94398 11.7183C4.97009 11.8663 5.04752 12.0004 5.16267 12.097C5.27781 12.1936 5.42331 12.2465 5.5736 12.2464H15.8009C15.9704 12.2464 16.133 12.1791 16.2529 12.0592C16.3727 11.9394 16.4401 11.7768 16.4401 11.6072C16.4401 11.4377 16.3727 11.2751 16.2529 11.1553C16.133 11.0354 15.9704 10.968 15.8009 10.968H6.10973L5.88441 9.68963H15.5388C15.7605 9.68935 15.9752 9.61249 16.1468 9.47206C16.3183 9.33162 16.436 9.13625 16.48 8.91899L17.6306 3.16615C17.6583 3.02692 17.6548 2.88328 17.6202 2.74559C17.5857 2.60789 17.521 2.47959 17.4308 2.36994Z" fill="white"/>
</g>
<defs>
<clipPath id="clip0_2542_19986">
<rect width="18" height="15.5455" fill="white"/>
</clipPath>
</defs>
</svg>
