<svg width="14" height="14" viewBox="0 0 14 14" fill="none" xmlns="http://www.w3.org/2000/svg">
<circle cx="7" cy="7" r="7" fill="#47CA5B"/>
<path d="M9.75646 4.19129C9.8947 4.06724 10.0787 3.99866 10.2695 4.00002C10.4604 4.00138 10.6433 4.07258 10.7795 4.19859C10.9157 4.3246 10.9947 4.49556 10.9997 4.67541C11.0048 4.85526 10.9355 5.02992 10.8065 5.16254L6.89085 9.77827C6.82352 9.84663 6.74226 9.90148 6.65192 9.93956C6.56158 9.97764 6.46403 9.99815 6.36509 9.99988C6.26614 10.0016 6.16785 9.98451 6.07608 9.94961C5.98431 9.91471 5.90094 9.86273 5.83097 9.79677L3.23426 7.34923C3.16195 7.28572 3.10395 7.20913 3.06372 7.12403C3.02349 7.03893 3.00186 6.94707 3.00011 6.85392C2.99837 6.76077 3.01655 6.66824 3.05357 6.58186C3.09059 6.49547 3.14569 6.417 3.21558 6.35112C3.28547 6.28525 3.36872 6.23331 3.46037 6.19842C3.55202 6.16353 3.65019 6.14639 3.74901 6.14804C3.84784 6.14968 3.9453 6.17007 4.03559 6.20799C4.12588 6.24591 4.20713 6.30057 4.27452 6.36873L6.32951 8.30475L9.73782 4.21164C9.74395 4.20452 9.7505 4.19773 9.75744 4.19129H9.75646Z" fill="white"/>
</svg>
