<?xml version="1.0" encoding="utf-8"?>
<!-- Generator: Adobe Illustrator 24.0.1, SVG Export Plug-In . SVG Version: 6.00 Build 0)  -->
<svg version="1.1" id="Layer_1" xmlns="http://www.w3.org/2000/svg" xmlns:xlink="http://www.w3.org/1999/xlink" x="0px" y="0px"
	 viewBox="0 0 38 32" style="enable-background:new 0 0 38 32;" xml:space="preserve">
<style type="text/css">
	.st0{fill:#97121F;}
	.st1{fill:#ED4C5C;}
	.st2{fill:#FFFFFF;}
</style>
<path class="st0" d="M0,3l7,0v29l-7-4V3z"/>
<path class="st1" d="M0,3h36c1.1,0,2,0.9,2,2v21c0,1.1-0.9,2-2,2H0V3z"/>
<path class="st2" d="M3.6,16.6h3.2v1.5H3.6V16.6z M14.4,17.6v-2.3c0-0.1,0-0.3,0-0.5c0-0.2,0-0.3,0-0.5l-2.3,3.2H14.4z M17,17.6v1
	c0,0.1,0,0.2-0.1,0.2C16.8,19,16.7,19,16.6,19h-0.5v2h-1.6v-2h-3.5c-0.1,0-0.2,0-0.3-0.1c-0.1-0.1-0.1-0.2-0.2-0.3l-0.2-0.9l4-5.4
	h1.8v5.3H17z M23.9,16.6c0,0.8-0.1,1.4-0.2,2c-0.2,0.6-0.4,1-0.7,1.4c-0.3,0.4-0.6,0.6-1,0.8c-0.4,0.2-0.8,0.3-1.3,0.3
	c-0.5,0-0.9-0.1-1.3-0.3c-0.4-0.2-0.7-0.5-1-0.8s-0.5-0.8-0.7-1.4c-0.2-0.6-0.2-1.2-0.2-2c0-0.8,0.1-1.4,0.2-2
	c0.2-0.6,0.4-1,0.7-1.4s0.6-0.6,1-0.8c0.4-0.2,0.8-0.3,1.3-0.3c0.5,0,0.9,0.1,1.3,0.3c0.4,0.2,0.7,0.4,1,0.8
	c0.3,0.4,0.5,0.8,0.7,1.4C23.9,15.2,23.9,15.9,23.9,16.6z M22,16.6c0-0.6,0-1.1-0.1-1.5c-0.1-0.4-0.2-0.7-0.3-0.9
	c-0.1-0.2-0.3-0.4-0.4-0.5c-0.2-0.1-0.3-0.1-0.5-0.1c-0.2,0-0.3,0-0.5,0.1c-0.2,0.1-0.3,0.2-0.4,0.5c-0.1,0.2-0.2,0.5-0.3,0.9
	c-0.1,0.4-0.1,0.9-0.1,1.5c0,0.6,0,1.1,0.1,1.5c0.1,0.4,0.2,0.7,0.3,0.9c0.1,0.2,0.3,0.4,0.4,0.5c0.2,0.1,0.3,0.1,0.5,0.1
	c0.2,0,0.3,0,0.5-0.1c0.2-0.1,0.3-0.2,0.4-0.5c0.1-0.2,0.2-0.5,0.3-0.9C22,17.7,22,17.2,22,16.6z M28.8,14.4c0,0.3-0.1,0.6-0.2,0.9
	c-0.1,0.3-0.3,0.5-0.5,0.7c-0.2,0.2-0.4,0.3-0.7,0.4c-0.3,0.1-0.5,0.2-0.8,0.2c-0.3,0-0.6-0.1-0.8-0.2c-0.3-0.1-0.5-0.3-0.7-0.4
	c-0.2-0.2-0.3-0.4-0.4-0.7s-0.2-0.6-0.2-0.9c0-0.3,0.1-0.6,0.2-0.9c0.1-0.3,0.2-0.5,0.4-0.7c0.2-0.2,0.4-0.3,0.7-0.4
	c0.3-0.1,0.5-0.2,0.8-0.2c0.3,0,0.6,0.1,0.8,0.2c0.3,0.1,0.5,0.3,0.7,0.4c0.2,0.2,0.3,0.4,0.4,0.7C28.7,13.7,28.8,14,28.8,14.4z
	 M27.4,14.4c0-0.2,0-0.4-0.1-0.5c0-0.1-0.1-0.2-0.1-0.3s-0.1-0.1-0.2-0.2c-0.1,0-0.2,0-0.3,0c-0.1,0-0.2,0-0.3,0
	c-0.1,0-0.1,0.1-0.2,0.2s-0.1,0.2-0.1,0.3c0,0.1,0,0.3,0,0.5c0,0.2,0,0.4,0,0.5s0.1,0.2,0.1,0.3c0.1,0.1,0.1,0.1,0.2,0.2
	c0.1,0,0.2,0,0.3,0c0.1,0,0.2,0,0.3,0c0.1,0,0.2-0.1,0.2-0.2c0.1-0.1,0.1-0.2,0.1-0.3C27.3,14.7,27.4,14.6,27.4,14.4z M31.5,12.5
	c0.1-0.1,0.1-0.1,0.2-0.2c0.1-0.1,0.2-0.1,0.4-0.1h1.4l-6.6,8.5c-0.1,0.1-0.1,0.1-0.2,0.2c-0.1,0-0.2,0.1-0.3,0.1h-1.4L31.5,12.5z
	 M33.8,18.9c0,0.3-0.1,0.6-0.2,0.9c-0.1,0.3-0.3,0.5-0.5,0.7c-0.2,0.2-0.4,0.3-0.7,0.4c-0.3,0.1-0.5,0.2-0.8,0.2
	c-0.3,0-0.6-0.1-0.8-0.2c-0.3-0.1-0.5-0.3-0.7-0.4c-0.2-0.2-0.3-0.4-0.4-0.7c-0.1-0.3-0.2-0.6-0.2-0.9c0-0.3,0.1-0.6,0.2-0.9
	c0.1-0.3,0.2-0.5,0.4-0.7c0.2-0.2,0.4-0.3,0.7-0.4c0.3-0.1,0.5-0.2,0.8-0.2c0.3,0,0.6,0.1,0.8,0.2c0.3,0.1,0.5,0.3,0.7,0.4
	c0.2,0.2,0.3,0.4,0.4,0.7C33.8,18.3,33.8,18.6,33.8,18.9z M32.4,18.9c0-0.2,0-0.4-0.1-0.5c0-0.1-0.1-0.2-0.1-0.3
	C32.1,18,32.1,18,32,18c-0.1,0-0.2,0-0.3,0s-0.2,0-0.3,0s-0.1,0.1-0.2,0.2s-0.1,0.2-0.1,0.3c0,0.1,0,0.3,0,0.5c0,0.2,0,0.4,0,0.5
	s0.1,0.2,0.1,0.3c0.1,0.1,0.1,0.1,0.2,0.2s0.2,0,0.3,0s0.2,0,0.3,0c0.1,0,0.2-0.1,0.2-0.2c0.1-0.1,0.1-0.2,0.1-0.3
	C32.4,19.3,32.4,19.1,32.4,18.9z"/>
<rect x="1.5" y="6.2" class="st1" width="33.8" height="18.5"/>
</svg>
