<svg width="18" height="18" viewBox="0 0 18 18" fill="none" xmlns="http://www.w3.org/2000/svg">
<path d="M9 0C6.61305 0 4.32387 0.948211 2.63604 2.63604C0.948211 4.32387 0 6.61305 0 9C6.15322e-05 10.1819 0.232914 11.3522 0.685264 12.4441C1.13761 13.536 1.8006 14.5281 2.63637 15.3638C3.47214 16.1995 4.46433 16.8624 5.55628 17.3146C6.64824 17.7669 7.81857 17.9996 9.00047 17.9995C10.1824 17.9995 11.3527 17.7666 12.4446 17.3143C13.5365 16.8619 14.5286 16.1989 15.3643 15.3632C16.2 14.5274 16.8629 13.5352 17.3151 12.4432C17.7673 11.3513 18.0001 10.181 18 8.99906C18 4.02938 13.9697 0 9 0ZM9 16.1241C8.06433 16.1241 7.13782 15.9398 6.27338 15.5817C5.40894 15.2236 4.62348 14.6988 3.96186 14.0372C3.30025 13.3756 2.77542 12.5901 2.41736 11.7257C2.05929 10.8612 1.875 9.93473 1.875 8.99906C1.875 8.06339 2.05929 7.13689 2.41736 6.27244C2.77542 5.408 3.30025 4.62254 3.96186 3.96093C4.62348 3.29931 5.40894 2.77449 6.27338 2.41642C7.13782 2.05836 8.06433 1.87406 9 1.87406V9L15.3675 5.81625C15.8653 6.80373 16.1247 7.89414 16.125 9C16.1248 10.8895 15.374 12.7015 14.0378 14.0375C12.7016 15.3735 10.8895 16.1241 9 16.1241Z" fill="#6B6B6B"/>
</svg>
