<svg width="60" height="60" viewBox="0 0 60 60" fill="none" xmlns="http://www.w3.org/2000/svg">
<circle cx="30" cy="30" r="30" fill="#E9E9E9"/>
<path d="M34.0009 29.8577C34.0009 28.2862 32.7151 27.0004 31.1436 27.0004C29.5721 27.0004 28.2863 28.2862 28.2863 29.8577C28.2863 31.4292 29.5721 32.715 31.1436 32.715C32.7151 32.715 34.0009 31.4292 34.0009 29.8577ZM31.1436 17C27.7335 17 24.4631 18.3546 22.0518 20.7659C19.6405 23.1772 18.2859 26.4476 18.2859 29.8577H14L19.7145 35.5722L25.4291 29.8577H21.1432C21.1432 24.3289 25.6148 19.8573 31.1436 19.8573C36.6724 19.8573 41.144 24.3289 41.144 29.8577C41.146 31.6946 40.6416 33.4965 39.6862 35.0655C38.7309 36.6345 37.3616 37.9097 35.7288 38.7513C34.0959 39.5928 32.2628 39.9679 30.4306 39.8356C28.5985 39.7032 26.8383 39.0684 25.3433 38.0009L23.3147 40.0581C24.9357 41.3021 26.8298 42.1417 28.84 42.5076C30.8503 42.8735 32.9188 42.755 34.8741 42.1619C36.8294 41.5689 38.6152 40.5184 40.0835 39.0975C41.5519 37.6766 42.6604 35.9263 43.3174 33.9915C43.9743 32.0567 44.1606 29.9932 43.861 27.972C43.5613 25.9509 42.7843 24.0302 41.5943 22.3693C40.4043 20.7083 38.8355 19.3549 37.0181 18.4211C35.2007 17.4874 33.1869 17.0002 31.1436 17Z" fill="#B6B6B6"/>
<ellipse cx="30.5" cy="30" rx="4.5" ry="5" fill="#E9E9E9"/>
</svg>
