<svg width="14" height="14" viewBox="0 0 14 14" fill="none" xmlns="http://www.w3.org/2000/svg">
<circle cx="7" cy="7" r="7" fill="#47CA5B"/>
<path d="M9.75646 4.20295C9.8947 4.07134 10.0787 3.99858 10.2695 4.00002C10.4604 4.00147 10.6433 4.077 10.7795 4.21069C10.9157 4.34438 10.9947 4.52577 10.9997 4.71658C11.0048 4.90738 10.9355 5.09269 10.8065 5.23339L6.89085 10.1304C6.82352 10.203 6.74226 10.2612 6.65192 10.3016C6.56158 10.342 6.46403 10.3637 6.36509 10.3656C6.26614 10.3674 6.16785 10.3492 6.07608 10.3122C5.98431 10.2752 5.90094 10.22 5.83097 10.1501L3.23426 7.55336C3.16195 7.48597 3.10395 7.40471 3.06372 7.31443C3.02349 7.22414 3.00186 7.12668 3.00011 7.02785C2.99837 6.92903 3.01655 6.83086 3.05357 6.73921C3.09059 6.64756 3.14569 6.56431 3.21558 6.49442C3.28547 6.42453 3.36872 6.36943 3.46037 6.33241C3.55202 6.29539 3.65019 6.27721 3.74901 6.27895C3.84784 6.2807 3.9453 6.30233 4.03559 6.34256C4.12588 6.38279 4.20713 6.44079 4.27452 6.5131L6.32951 8.56711L9.73782 4.22454C9.74395 4.21699 9.74952 4.20978 9.75646 4.20295Z" fill="white"/>
</svg>
