<svg width="18" height="20" viewBox="0 0 18 20" fill="none" xmlns="http://www.w3.org/2000/svg">
<path d="M17.0999 11.9602L13.9833 10.125L17.1157 8.28984C17.3847 8.13164 17.4638 7.78359 17.3056 7.53047L15.2806 4.17656C15.1224 3.90762 14.7743 3.82852 14.5054 3.98672L11.547 5.69531V2.29395C11.547 1.99336 11.2938 1.74023 10.9774 1.74023H7.02236C6.70595 1.74023 6.45283 1.99336 6.45283 2.29395V5.69531L3.49443 3.95508C3.22549 3.79688 2.87744 3.87598 2.71923 4.14492L0.694235 7.51465C0.536032 7.78359 0.630954 8.11582 0.884079 8.27402L4.0165 10.125L0.884079 11.9602C0.615133 12.1184 0.536032 12.4664 0.694235 12.7195L2.71923 16.0734C2.87744 16.3424 3.22549 16.4215 3.49443 16.2633L6.45283 14.523V17.9244C6.45283 18.225 6.70595 18.4781 7.02236 18.4781H10.9774C11.2938 18.4781 11.547 18.225 11.547 17.9244V14.5547L14.5054 16.2949C14.7743 16.4531 15.1224 16.3582 15.2806 16.1051L17.3056 12.7512C17.4638 12.4664 17.3847 12.1184 17.0999 11.9602Z" fill="url(#paint0_linear_2542_19870)"/>
<g opacity="0.2">
<g opacity="0.2">
<path opacity="0.2" d="M10.9777 2.21484C11.0252 2.21484 11.0727 2.24648 11.0727 2.29395V5.69531C11.0727 5.86934 11.1676 6.02754 11.31 6.10664C11.3891 6.1541 11.4682 6.16992 11.5473 6.16992C11.6264 6.16992 11.7213 6.1541 11.7846 6.10664L14.743 4.36641C14.7588 4.35059 14.7746 4.35059 14.7904 4.35059C14.8062 4.35059 14.8379 4.35059 14.8695 4.39805L16.8945 7.75195C16.9104 7.76777 16.9104 7.78359 16.9104 7.81524C16.9104 7.83106 16.8945 7.84688 16.8787 7.8627L13.7305 9.71367C13.5881 9.79277 13.4932 9.95098 13.4932 10.125C13.4932 10.299 13.5881 10.4572 13.7305 10.5363L16.8629 12.3715C16.8945 12.3873 16.8945 12.4031 16.8945 12.4189C16.8945 12.4348 16.8945 12.4664 16.8787 12.4822L14.8537 15.8361C14.8221 15.8678 14.7904 15.8836 14.7746 15.8836C14.7588 15.8836 14.743 15.8836 14.7271 15.8678L11.7687 14.1275C11.6896 14.0801 11.6105 14.0643 11.5314 14.0643C11.4523 14.0643 11.3732 14.0801 11.2941 14.1275C11.1518 14.2066 11.0568 14.3648 11.0568 14.5389V17.9402C11.0568 17.9877 11.0094 18.0193 10.9619 18.0193H7.00684C6.95937 18.0193 6.91191 17.9877 6.91191 17.9402V14.5547C6.91191 14.3807 6.81699 14.2225 6.67461 14.1434C6.59551 14.0959 6.51641 14.0801 6.4373 14.0801C6.3582 14.0801 6.2791 14.0959 6.2 14.1434L3.2416 15.8836C3.22578 15.8994 3.20996 15.8994 3.19414 15.8994C3.17832 15.8994 3.13086 15.8994 3.11504 15.852L1.10586 12.4822C1.09004 12.4664 1.09004 12.4506 1.09004 12.4348C1.09004 12.4189 1.10586 12.4031 1.12168 12.3873L4.2541 10.5521C4.39648 10.473 4.49141 10.3148 4.49141 10.1408C4.49141 9.9668 4.39648 9.82442 4.2541 9.72949L1.1375 7.87852C1.10586 7.8627 1.10586 7.84688 1.10586 7.83106C1.10586 7.81524 1.10586 7.78359 1.12168 7.76777L3.14668 4.41387C3.1625 4.38223 3.20996 4.36641 3.22578 4.36641C3.2416 4.36641 3.25742 4.36641 3.27324 4.38223L6.23164 6.12246C6.31074 6.16992 6.38984 6.18574 6.46894 6.18574C6.54805 6.18574 6.62715 6.16992 6.70625 6.12246C6.84863 6.04336 6.94355 5.88516 6.94355 5.71113V2.29395C6.94355 2.24648 6.99101 2.21484 7.03848 2.21484H10.9777ZM10.9777 1.74023H7.02266C6.70625 1.74023 6.45312 1.99336 6.45312 2.29395V5.69531L3.49473 3.95508C3.3998 3.90762 3.30488 3.87598 3.20996 3.87598C3.02012 3.87598 2.83027 3.9709 2.71953 4.14492L0.694531 7.51465C0.536328 7.78359 0.63125 8.11582 0.884375 8.27402L4.0168 10.125L0.900195 11.9602C0.63125 12.1184 0.552149 12.4664 0.710352 12.7195L2.73535 16.0734C2.84609 16.2475 3.03594 16.3424 3.22578 16.3424C3.3207 16.3424 3.41562 16.3107 3.51055 16.2633L6.46894 14.523V17.9244C6.46894 18.225 6.72207 18.4781 7.03848 18.4781H10.9936C11.31 18.4781 11.5631 18.225 11.5631 17.9244V14.5547L14.5215 16.2949C14.6164 16.3424 14.7113 16.374 14.8062 16.374C14.9961 16.374 15.1859 16.2791 15.2967 16.1051L17.3217 12.7512C17.4799 12.4822 17.385 12.15 17.1318 11.9918L13.9836 10.125L17.116 8.28984C17.385 8.13164 17.4641 7.78359 17.3059 7.53047L15.2809 4.17656C15.1701 4.00254 14.9803 3.90762 14.7904 3.90762C14.6955 3.90762 14.6006 3.93926 14.5057 3.98672L11.5473 5.69531V2.29395C11.5473 1.99336 11.2941 1.74023 10.9777 1.74023Z" fill="#424242"/>
</g>
</g>
<path d="M10.1863 1.1707C9.94902 0.933398 9.6168 0.791016 9.26875 0.791016C8.9207 0.791016 8.6043 0.933398 8.35117 1.1707C8.11387 1.42383 7.9873 1.75605 7.9873 2.08828L8.54102 18.7471C8.55684 19.1268 8.87324 19.4432 9.25293 19.4432C9.64844 19.4432 9.94902 19.1426 9.96484 18.7471L10.5186 2.08828C10.5502 1.75605 10.4236 1.42383 10.1863 1.1707Z" fill="url(#paint1_linear_2542_19870)"/>
<path d="M10.361 7.07227C10.361 7.07227 11.1836 7.34121 11.6424 8.25879C11.9588 8.87578 11.8481 10.2838 10.5192 11.1064C9.90218 11.4861 8.5891 12.0873 8.47836 12.5145C8.39925 12.8467 8.41507 13.4004 8.41507 13.4004C8.41507 13.4004 7.52914 13.0365 7.38675 12.293C7.24437 11.5652 7.71898 11.0115 8.33597 10.5686C8.8264 10.2205 9.87054 9.68262 10.092 9.01816C10.3452 8.32207 10.361 7.07227 10.361 7.07227Z" fill="url(#paint2_linear_2542_19870)"/>
<path d="M10.1703 12.5605C10.1703 12.5605 10.2652 12.608 10.3917 12.7187C11.1353 13.3674 11.1353 14.5381 10.4076 15.2025C10.1861 15.3924 9.91713 15.6297 9.63237 15.8354C8.90463 16.3574 8.52494 16.3574 8.57241 17.7812C8.57241 17.7812 7.95541 17.4648 7.73393 16.7687C7.62319 16.4207 7.67065 16.0885 7.78139 15.8195C7.95541 15.4082 8.28764 15.076 8.68315 14.8703C9.03119 14.6963 9.55327 14.3957 9.75893 14.0951C10.1544 13.5572 10.1544 12.7504 10.1703 12.5605Z" fill="url(#paint3_linear_2542_19870)"/>
<path d="M10.0758 16.5488C10.0758 16.5488 10.7244 16.8969 10.6137 17.6879C10.5346 18.2732 10.0441 18.5264 9.68027 18.6055C9.56953 18.6371 9.47461 18.4947 9.53789 18.3998C9.75938 18.0201 10.06 17.2924 10.0758 16.5488Z" fill="url(#paint4_linear_2542_19870)"/>
<path d="M10.4551 15.2033C11.2303 14.4914 11.2303 13.2574 10.4393 12.5771C10.2969 12.4664 10.202 12.4031 10.202 12.4031V12.4348L10.2336 11.3273C10.3443 11.2641 10.4551 11.2008 10.55 11.1375C11.9422 10.2674 12.0529 8.79609 11.7207 8.14746C11.2461 7.19824 10.4076 6.91348 10.376 6.91348L10.5342 1.96172C10.55 1.61367 10.4234 1.26563 10.1703 1.02832C9.94884 0.775195 9.63243 0.632812 9.26856 0.632812C8.90469 0.632812 8.58829 0.775195 8.33516 1.02832C8.08204 1.28145 7.95548 1.61367 7.9713 1.96172L8.25606 10.5996C7.62325 11.0584 7.14864 11.6279 7.29102 12.3873C7.43341 13.1467 8.31934 13.5264 8.3668 13.5422L8.41426 14.9818C8.09786 15.2033 7.82891 15.4881 7.67071 15.852C7.54415 16.1525 7.49669 16.5006 7.60743 16.8645C7.84473 17.5764 8.47755 17.9244 8.50919 17.9244L8.54083 18.8895C8.55665 19.285 8.87305 19.5855 9.26856 19.5855C9.66407 19.5855 9.98048 19.285 9.9963 18.8895L10.0121 18.5572C10.3285 18.4148 10.6133 18.1301 10.6924 17.6555C10.8031 16.7854 10.0912 16.4057 10.0912 16.3898L10.107 15.5039C10.2336 15.409 10.3602 15.2982 10.4551 15.2033ZM8.57247 1.2498C8.76231 1.04414 8.99962 0.949219 9.26856 0.949219C9.53751 0.949219 9.79063 1.05996 9.96466 1.2498C10.0578 1.34232 10.13 1.45375 10.1764 1.57657C10.2228 1.69938 10.2423 1.83072 10.2336 1.96172L9.9963 9.23906C9.69571 9.71367 9.03126 10.1092 8.57247 10.4098L8.2877 1.96172C8.2877 1.69277 8.38262 1.43965 8.57247 1.2498ZM8.33516 12.3398L8.3668 13.1941C8.14532 13.0676 7.70235 12.767 7.62325 12.3398C7.52833 11.8178 7.79727 11.359 8.46173 10.8686L8.74649 10.6787L8.84141 10.5996C9.33184 10.2832 9.94884 9.8877 10.2652 9.39727C10.2969 9.34981 10.3127 9.28652 10.3127 9.23906L10.376 7.2457C10.5816 7.34063 11.1195 7.62539 11.4518 8.28984C11.7049 8.78027 11.6416 10.0775 10.3918 10.8686C10.3127 10.916 10.2178 10.9793 10.0912 11.0426C10.0279 11.0742 9.82227 11.185 9.77481 11.2166C9.28438 11.4855 8.74649 11.7861 8.41426 12.0867C8.35098 12.1658 8.31934 12.2449 8.33516 12.3398ZM9.93302 11.5014L9.85391 13.9219C9.82227 13.9535 9.80645 14.001 9.77481 14.0326C9.55333 14.3174 9.07872 14.618 8.71485 14.8078L8.63575 12.324C8.92052 12.0551 9.45841 11.7703 9.93302 11.5014ZM9.71153 18.0193C9.63243 18.2092 9.55333 18.3674 9.49005 18.4781C9.42676 18.5889 9.50587 18.7154 9.61661 18.7154H9.64825C9.66407 18.7154 9.67989 18.7154 9.69571 18.6996V18.9053C9.67989 19.1268 9.50587 19.3008 9.28438 19.3008C9.0629 19.3008 8.87305 19.1268 8.87305 18.9053L8.79395 16.5322C8.9838 16.2791 9.26856 16.1525 9.64825 15.8836C9.69571 15.852 9.75899 15.8045 9.80645 15.7729L9.71153 18.0193ZM10.376 17.6555C10.3443 17.9244 10.202 18.1301 9.94884 18.2725C9.96466 18.2408 9.98048 18.1934 9.9963 18.1459C10.0121 18.1143 10.0279 18.0668 10.0279 18.0352L10.0754 16.817C10.2178 16.9436 10.4393 17.2125 10.376 17.6555ZM9.9172 15.2666C9.85391 15.3141 9.66407 15.4723 9.60079 15.5197L9.58497 15.5355C9.53751 15.5672 9.50587 15.5988 9.45841 15.6305C9.34766 15.7096 9.25274 15.7729 9.15782 15.8361C8.92052 15.9943 8.69903 16.1367 8.54083 16.3424C8.49337 16.4057 8.47755 16.4689 8.47755 16.548L8.50919 17.5605C8.33516 17.434 8.0504 17.165 7.92384 16.7854C7.84473 16.5322 7.86055 16.2633 7.9713 15.9943C8.09786 15.7096 8.30352 15.4564 8.58829 15.2666C8.63575 15.235 8.82559 15.1242 8.87305 15.1084C9.44259 14.8078 9.83809 14.5072 10.0279 14.2383C10.0596 14.1908 10.0912 14.1434 10.1229 14.1117C10.1545 14.0801 10.1703 14.0168 10.1703 13.9535L10.202 12.7986C10.2178 12.8145 10.2336 12.8145 10.2336 12.8303C10.5342 13.0992 10.7082 13.4631 10.724 13.8744C10.724 14.3016 10.55 14.6971 10.2494 14.9818L9.9172 15.2666Z" fill="url(#paint5_linear_2542_19870)"/>
<path d="M8.16166 8.03636C8.16166 8.03636 6.34232 7.43519 6.1683 5.1096C6.0101 2.81565 8.20912 2.49925 8.20912 2.49925C8.20912 2.49925 9.00014 2.40433 9.47475 2.91058C9.94936 3.41683 9.33236 3.87562 9.33236 3.87562C9.33236 3.87562 9.06342 4.12874 8.17748 4.22366C7.29154 4.31858 7.51303 5.63167 8.06674 6.09046C8.08256 6.09046 8.16166 8.03636 8.16166 8.03636Z" fill="url(#paint6_linear_2542_19870)"/>
<path d="M8.69961 3.3543C8.84814 3.3543 8.96855 3.23389 8.96855 3.08535C8.96855 2.93682 8.84814 2.81641 8.69961 2.81641C8.55107 2.81641 8.43066 2.93682 8.43066 3.08535C8.43066 3.23389 8.55107 3.3543 8.69961 3.3543Z" fill="#1565C0"/>
<path d="M9.56971 2.84727C9.20585 2.46758 8.68378 2.4043 8.41483 2.4043C8.30409 2.4043 8.24081 2.42012 8.24081 2.42012C8.24081 2.42012 5.93104 2.75234 6.10506 5.15703C6.27909 7.59336 8.19335 8.21035 8.19335 8.21035L8.17753 7.81484C8.17753 7.81484 7.95604 7.73574 7.89276 7.7041C7.87694 7.7041 7.86112 7.68828 7.8453 7.67246C7.32323 7.34023 6.53221 6.59668 6.42147 5.12539C6.27909 3.05293 8.20917 2.75234 8.28827 2.73652H8.41483C8.63631 2.73652 9.06346 2.78398 9.33241 3.06875C9.44315 3.19531 9.44315 3.27441 9.44315 3.30605C9.42733 3.44844 9.28495 3.59082 9.23749 3.62246C9.22167 3.62246 9.22167 3.62246 9.22167 3.63828C9.19003 3.66992 8.90526 3.84395 8.19335 3.92305C7.7662 3.97051 7.44979 4.22363 7.33905 4.61914C7.19667 5.12539 7.40233 5.77402 7.81366 6.18535C7.81366 6.18535 8.01932 6.34355 8.13006 6.39102L8.11424 6.04297C7.52889 5.56836 7.30741 4.33437 8.22499 4.23945C9.14256 4.14453 9.42733 3.87559 9.42733 3.87559C9.42733 3.87559 10.076 3.38516 9.56971 2.84727Z" fill="url(#paint7_linear_2542_19870)"/>
<path opacity="0.2" d="M10.4553 15.2033C11.2305 14.4914 11.2305 13.2574 10.4394 12.5771C10.2971 12.4664 10.2021 12.4031 10.2021 12.4031V12.4348L10.2338 11.3273C10.3445 11.2641 10.4553 11.2008 10.5502 11.1375C11.9424 10.2674 12.0531 8.79609 11.7209 8.14746C11.2463 7.19824 10.4078 6.91348 10.3762 6.91348L10.5344 1.96172C10.5502 1.61367 10.4236 1.26563 10.1705 1.02832C9.94901 0.775195 9.6326 0.632812 9.26873 0.632812C8.90487 0.632812 8.58846 0.775195 8.33534 1.02832C8.08221 1.28145 7.95565 1.61367 7.97147 1.96172L7.98729 2.46797C7.38612 2.62617 5.96229 3.22734 6.10467 5.1416C6.27869 7.49883 8.08221 8.16328 8.19295 8.19492L8.17713 7.79941C8.14549 7.79941 7.95565 7.72031 7.89237 7.68867C7.87655 7.68867 7.86073 7.67285 7.84491 7.65703C7.32284 7.32481 6.53182 6.58125 6.42108 5.10996C6.31034 3.49629 7.4494 2.94258 8.00311 2.78438C8.16131 2.73691 8.27205 2.72109 8.28787 2.72109H8.41444C8.63592 2.72109 9.06307 2.76855 9.33201 3.05332C9.44276 3.17988 9.44276 3.25898 9.44276 3.29063C9.42694 3.43301 9.28455 3.57539 9.23709 3.60703C9.22127 3.60703 9.22127 3.60703 9.22127 3.62285C9.18963 3.63867 8.95233 3.79688 8.35116 3.8918C8.30369 3.8918 8.24041 3.90762 8.17713 3.90762C8.12967 3.90762 8.08221 3.92344 8.03475 3.93926C7.6867 4.01836 7.43358 4.25566 7.32284 4.60371C7.18045 5.10996 7.38612 5.75859 7.79744 6.16992C7.79744 6.16992 8.00311 6.32813 8.11385 6.37559L8.09803 6.02754C7.54432 5.58457 7.32284 4.49297 8.03475 4.25566L8.09803 6.02754L8.11385 6.37559L8.16131 7.79941L8.17713 8.19492L8.25623 10.5996C7.62342 11.0584 7.14881 11.6279 7.29119 12.3873C7.43358 13.1467 8.31951 13.5264 8.36698 13.5422L8.41444 14.9818C8.09803 15.2033 7.82909 15.4881 7.67088 15.852C7.54432 16.1525 7.49686 16.5006 7.6076 16.8645C7.84491 17.5764 8.47772 17.9244 8.50936 17.9244L8.541 18.8895C8.55682 19.285 8.87323 19.5855 9.26873 19.5855C9.66424 19.5855 9.98065 19.285 9.99647 18.8895L10.0123 18.5572C10.3287 18.4148 10.6135 18.1301 10.6926 17.6555C10.8033 16.7854 10.0914 16.4057 10.0914 16.3898L10.123 15.4723C10.2338 15.409 10.3603 15.2982 10.4553 15.2033ZM9.42694 3.87598C9.42694 3.87598 10.0756 3.38555 9.56932 2.84766C9.20545 2.46797 8.68338 2.40469 8.41444 2.40469H8.30369L8.28787 1.9459C8.27205 1.67695 8.3828 1.42383 8.55682 1.23398C8.73084 1.04414 8.99979 0.949219 9.26873 0.949219C9.53768 0.949219 9.7908 1.05996 9.96483 1.2498C10.058 1.34232 10.1302 1.45375 10.1766 1.57657C10.223 1.69938 10.2425 1.83072 10.2338 1.96172L9.99647 9.23906C9.69588 9.71367 9.03143 10.1092 8.57264 10.4098L8.36698 4.22402C9.17381 4.11328 9.42694 3.87598 9.42694 3.87598ZM8.33534 12.3398L8.36698 13.1941C8.14549 13.0676 7.70252 12.767 7.62342 12.3398C7.5285 11.8178 7.79744 11.359 8.4619 10.8686L8.74666 10.6787L8.84159 10.5996C9.33201 10.2832 9.94901 9.8877 10.2654 9.39727C10.2971 9.34981 10.3129 9.28652 10.3129 9.23906L10.3762 7.2457C10.5818 7.34063 11.1197 7.62539 11.4519 8.28984C11.7051 8.78027 11.6418 10.0775 10.392 10.8686C10.3129 10.916 10.218 10.9793 10.0914 11.0426C10.0281 11.0742 9.82244 11.185 9.77498 11.2166C9.28455 11.4855 8.74666 11.7861 8.41444 12.0867C8.35116 12.1658 8.31951 12.2449 8.33534 12.3398ZM9.93319 11.5014L9.85409 13.9219C9.82244 13.9535 9.80662 14.001 9.77498 14.0326C9.5535 14.3174 9.07889 14.618 8.71502 14.8078L8.63592 12.324C8.92069 12.0551 9.45858 11.7703 9.93319 11.5014ZM9.7117 18.0193C9.6326 18.2092 9.5535 18.3674 9.49022 18.4781C9.42694 18.5889 9.50604 18.7154 9.61678 18.7154H9.64842C9.66424 18.7154 9.68006 18.7154 9.69588 18.6996V18.9053C9.68006 19.1268 9.50604 19.3008 9.28455 19.3008C9.06307 19.3008 8.87323 19.1268 8.87323 18.9053L8.79412 16.5322C8.98397 16.2791 9.26873 16.1525 9.64842 15.8836C9.69588 15.852 9.75916 15.8045 9.80662 15.7729L9.7117 18.0193ZM10.3762 17.6555C10.3445 17.9244 10.2021 18.1301 9.94901 18.2725C9.96483 18.2408 9.98065 18.1934 9.99647 18.1459C10.0123 18.1143 10.0281 18.0668 10.0281 18.0352L10.0756 16.817C10.218 16.9436 10.4394 17.2125 10.3762 17.6555ZM9.91737 15.2666C9.85409 15.3141 9.66424 15.4723 9.60096 15.5197L9.58514 15.5355C9.53768 15.5672 9.50604 15.5988 9.45858 15.6305C9.34784 15.7096 9.25291 15.7729 9.15799 15.8361C8.92069 15.9943 8.6992 16.1367 8.541 16.3424C8.49354 16.4057 8.47772 16.4689 8.47772 16.548L8.50936 17.5605C8.33534 17.434 8.05057 17.165 7.92401 16.7854C7.84491 16.5322 7.86073 16.2633 7.97147 15.9943C8.09803 15.7096 8.30369 15.4564 8.58846 15.2666C8.63592 15.235 8.82577 15.1242 8.87323 15.1084C9.44276 14.8078 9.83826 14.5072 10.0281 14.2383C10.0597 14.1908 10.0914 14.1434 10.123 14.1117C10.1547 14.0801 10.1705 14.0168 10.1705 13.9535L10.2021 12.7986C10.218 12.8145 10.2338 12.8145 10.2338 12.8303C10.5344 13.0992 10.7084 13.4631 10.7242 13.8744C10.7242 14.3016 10.5502 14.6971 10.2496 14.9818L9.91737 15.2666Z" fill="#424242"/>
<defs>
<linearGradient id="paint0_linear_2542_19870" x1="8.9999" y1="0.764596" x2="8.9999" y2="19.6931" gradientUnits="userSpaceOnUse">
<stop stop-color="#1E88E5"/>
<stop offset="1" stop-color="#1565C0"/>
</linearGradient>
<linearGradient id="paint1_linear_2542_19870" x1="9.2553" y1="0.194748" x2="9.2553" y2="22.3304" gradientUnits="userSpaceOnUse">
<stop stop-color="#E1F5FE"/>
<stop offset="0.995" stop-color="#81D4FA"/>
</linearGradient>
<linearGradient id="paint2_linear_2542_19870" x1="9.57597" y1="0.510792" x2="9.57597" y2="21.9544" gradientUnits="userSpaceOnUse">
<stop stop-color="#E1F5FE"/>
<stop offset="0.995" stop-color="#81D4FA"/>
</linearGradient>
<linearGradient id="paint3_linear_2542_19870" x1="9.31122" y1="0.891328" x2="9.31122" y2="22.1144" gradientUnits="userSpaceOnUse">
<stop stop-color="#E1F5FE"/>
<stop offset="0.995" stop-color="#81D4FA"/>
</linearGradient>
<linearGradient id="paint4_linear_2542_19870" x1="10.072" y1="1.76948" x2="10.072" y2="22.0448" gradientUnits="userSpaceOnUse">
<stop stop-color="#E1F5FE"/>
<stop offset="0.995" stop-color="#81D4FA"/>
</linearGradient>
<linearGradient id="paint5_linear_2542_19870" x1="9.57152" y1="0.764596" x2="9.57152" y2="19.6931" gradientUnits="userSpaceOnUse">
<stop stop-color="#1E88E5"/>
<stop offset="1" stop-color="#1565C0"/>
</linearGradient>
<linearGradient id="paint6_linear_2542_19870" x1="7.90711" y1="0.213371" x2="7.90711" y2="21.7019" gradientUnits="userSpaceOnUse">
<stop stop-color="#E1F5FE"/>
<stop offset="0.995" stop-color="#81D4FA"/>
</linearGradient>
<linearGradient id="paint7_linear_2542_19870" x1="7.92931" y1="0.764205" x2="7.92931" y2="19.6927" gradientUnits="userSpaceOnUse">
<stop stop-color="#1E88E5"/>
<stop offset="1" stop-color="#1565C0"/>
</linearGradient>
</defs>
</svg>
