<svg width="72" height="74" viewBox="0 0 72 74" fill="none" xmlns="http://www.w3.org/2000/svg">
<g filter="url(#filter0_ddd_2542_17675)">
<rect x="8" y="4" width="56" height="57.0182" rx="5" fill="white"/>
</g>
<g clip-path="url(#clip0_2542_17675)">
<path d="M50.902 44.678C50.9023 45.1015 50.8192 45.5208 50.6574 45.9122C50.4955 46.3035 50.2582 46.6592 49.9589 46.9587C49.6595 47.2583 49.3041 47.496 48.9129 47.6582C48.5217 47.8203 48.1024 47.9038 47.6789 47.9039H24.2222C23.7988 47.9037 23.3796 47.82 22.9885 47.6578C22.5975 47.4955 22.2422 47.2578 21.943 46.9583C21.6438 46.6587 21.4065 46.3032 21.2447 45.9119C21.0829 45.5207 20.9998 45.1014 21 44.678V21.2236C20.9999 20.3688 21.3393 19.5491 21.9435 18.9445C22.5478 18.34 23.3674 18.0002 24.2222 18H47.6794C49.4606 18 50.9025 19.4437 50.9025 21.2236V44.678H50.902Z" fill="#1B75BB"/>
<path fill-rule="evenodd" clip-rule="evenodd" d="M40.6966 30.004C40.4599 30.0626 40.2368 30.1976 39.9987 30.229C38.9187 30.3734 37.8358 30.4924 36.754 30.6274C36.6574 30.6424 36.529 30.6898 36.484 30.769L36.4783 30.7784C36.3883 30.7985 36.3044 30.8416 36.2604 30.9541C35.9187 31.8405 35.3576 32.5948 34.969 33.4568C34.646 34.1843 34.354 34.9137 33.9897 35.6191C34.774 36.0054 35.2657 36.7324 35.4522 37.5368C35.6152 37.5062 35.7805 37.4902 35.9463 37.489C36.0363 37.489 36.1151 37.5073 36.2037 37.5148C36.273 37.3751 36.3429 37.2382 36.4183 37.1032C36.6462 36.6991 36.9054 36.312 37.1482 35.9168C37.2091 35.9416 37.2705 35.966 37.3296 35.9918C37.4238 36.6476 37.3605 37.347 37.5204 37.9465C37.669 38.044 37.8035 38.1551 37.9263 38.277C38.3407 36.9195 38.7162 35.5127 39.2397 34.1679C39.791 32.7523 40.5185 31.4177 41.2108 29.959C41.0346 29.9707 40.8579 29.9627 40.6966 30.004Z" fill="white"/>
<path fill-rule="evenodd" clip-rule="evenodd" d="M47.3532 37.1105L44.4601 29.933C44.4212 29.8959 44.4493 29.8289 44.401 29.7933C44.3794 29.7749 44.3565 29.758 44.3326 29.7427C44.0288 29.5472 43.7438 29.4773 43.4949 29.6142L43.494 29.6077L43.472 29.6316C43.4148 29.6677 43.358 29.6995 43.3051 29.7586C43.0613 30.0361 42.849 30.3464 42.6455 30.6623C41.439 32.2964 39.3821 35.6864 39.3549 39.7791C39.3366 40.0856 39.3484 40.3908 39.3741 40.6927C39.376 40.7227 39.377 40.7522 39.3807 40.7812V40.7719C39.3901 40.8712 39.3971 40.972 39.4065 41.0695C39.8345 40.9866 40.1377 40.8895 40.4448 40.8787C41.4634 40.8389 42.4801 40.8342 43.4987 40.8112C43.9604 40.8014 44.2332 40.4953 44.2351 39.9872C44.2407 39.1008 44.236 38.2148 44.236 37.3275L44.9724 38.7548L44.3518 44.1553C44.3152 43.6519 44.258 43.312 44.2745 42.9773C44.2857 42.758 44.2496 42.6094 44.1859 42.4945L44.1549 42.1931H38.5534L38.4582 42.6506L38.4507 42.6516C38.4502 42.6825 38.4409 42.7116 38.4395 42.7425L38.0293 44.6803L38.1938 44.6437C38.1911 44.6558 38.1909 44.6682 38.1934 44.6803H46.8343C46.9721 43.7887 47.1127 42.9427 47.2304 42.0956C47.3598 41.1736 47.4685 40.2459 47.5852 39.322C47.5496 37.9833 47.357 37.1062 47.357 37.1062" fill="white"/>
<path fill-rule="evenodd" clip-rule="evenodd" d="M41.3341 24.2877C41.2896 24.2877 41.2512 24.2933 41.2071 24.2933L41.209 24.2858C39.213 24.1269 36.8416 24.6383 35.7255 24.9177L35.5713 24.9294C35.5169 24.9571 35.4593 24.9763 35.404 25.0021C35.358 25.0133 35.3215 25.0241 35.2868 25.0325H35.2858L35.2793 25.0354C35.1579 25.0691 35.0843 25.0907 35.0843 25.0907V25.1183C33.0387 25.9672 34.0483 26.4421 34.8363 26.6474C34.8363 26.6474 34.8447 26.653 34.8476 26.654C34.8677 26.6633 34.8888 26.6596 34.9099 26.6666C35.0618 26.7032 35.1982 26.7308 35.2976 26.7482C35.5924 27.3571 35.7855 27.899 36.0958 28.3415C36.7212 29.24 37.5115 29.9755 38.6299 29.8494C39.1755 29.7871 39.7488 29.5105 40.2133 29.1772C40.7885 28.7619 41.2512 28.131 41.3149 27.3641C41.3937 26.3765 41.3341 25.3733 41.3341 24.2877Z" fill="white"/>
<path fill-rule="evenodd" clip-rule="evenodd" d="M34.9091 20.7059C34.9091 20.7059 32.9051 21.7151 33.3847 23.0304C33.8661 24.3467 35.0305 24.2867 35.0305 24.2867C35.0305 24.2867 38.7762 23.4748 41.21 23.6088L42.5197 22.7787C42.5197 22.7787 42.7151 22.3849 41.8034 22.0695C41.8034 22.0695 37.8439 20.0543 34.9091 20.7059Z" fill="white"/>
<path fill-rule="evenodd" clip-rule="evenodd" d="M35.4979 22.5277C35.4979 22.9684 35.1655 23.327 34.7572 23.327C34.3485 23.327 34.0171 22.9688 34.0171 22.5277C34.0171 22.0876 34.3485 21.7285 34.7572 21.7285C35.1651 21.7285 35.4979 22.0876 35.4979 22.5277Z" fill="#1B75BB"/>
<path fill-rule="evenodd" clip-rule="evenodd" d="M35.973 36.3283C36.0794 36.4672 36.1574 36.6257 36.2025 36.7948C36.2477 36.9639 36.259 37.1402 36.236 37.3136C36.213 37.4871 36.156 37.6543 36.0683 37.8058C35.9807 37.9572 35.864 38.0899 35.725 38.1962C35.444 38.4103 35.0896 38.5042 34.7394 38.4574C34.3893 38.4106 34.072 38.2268 33.8571 37.9464L30.9175 34.1017C30.8115 33.9627 30.7338 33.8042 30.689 33.6352C30.6442 33.4662 30.6331 33.29 30.6564 33.1167C30.6797 32.9434 30.7369 32.7764 30.8247 32.6253C30.9126 32.4741 31.0293 32.3417 31.1683 32.2356C31.3071 32.1292 31.4656 32.0512 31.6346 32.006C31.8036 31.9609 31.9798 31.9495 32.1532 31.9725C32.3267 31.9956 32.4938 32.0525 32.6452 32.1402C32.7965 32.2279 32.9291 32.3446 33.0354 32.4836L35.973 36.3283Z" fill="white"/>
<path fill-rule="evenodd" clip-rule="evenodd" d="M30.6145 30.8627C30.7927 31.3933 30.1458 32.0898 29.1633 32.4184L27.9197 32.8352C26.9405 33.1633 26.003 32.9988 25.8258 32.4677L24.0712 27.2411C23.8922 26.7109 24.54 26.0139 25.5216 25.6863L26.7642 25.2691C27.7453 24.9409 28.6819 25.1036 28.8609 25.6338L30.6145 30.8627Z" fill="white"/>
</g>
<defs>
<filter id="filter0_ddd_2542_17675" x="0" y="0" width="72" height="73.0176" filterUnits="userSpaceOnUse" color-interpolation-filters="sRGB">
<feFlood flood-opacity="0" result="BackgroundImageFix"/>
<feColorMatrix in="SourceAlpha" type="matrix" values="0 0 0 0 0 0 0 0 0 0 0 0 0 0 0 0 0 0 127 0" result="hardAlpha"/>
<feOffset/>
<feGaussianBlur stdDeviation="0.5"/>
<feColorMatrix type="matrix" values="0 0 0 0 0 0 0 0 0 0 0 0 0 0 0 0 0 0 0.05 0"/>
<feBlend mode="normal" in2="BackgroundImageFix" result="effect1_dropShadow_2542_17675"/>
<feColorMatrix in="SourceAlpha" type="matrix" values="0 0 0 0 0 0 0 0 0 0 0 0 0 0 0 0 0 0 127 0" result="hardAlpha"/>
<feOffset/>
<feGaussianBlur stdDeviation="1"/>
<feColorMatrix type="matrix" values="0 0 0 0 0 0 0 0 0 0 0 0 0 0 0 0 0 0 0.07 0"/>
<feBlend mode="normal" in2="effect1_dropShadow_2542_17675" result="effect2_dropShadow_2542_17675"/>
<feColorMatrix in="SourceAlpha" type="matrix" values="0 0 0 0 0 0 0 0 0 0 0 0 0 0 0 0 0 0 127 0" result="hardAlpha"/>
<feOffset dy="4"/>
<feGaussianBlur stdDeviation="4"/>
<feColorMatrix type="matrix" values="0 0 0 0 0 0 0 0 0 0 0 0 0 0 0 0 0 0 0.05 0"/>
<feBlend mode="normal" in2="effect2_dropShadow_2542_17675" result="effect3_dropShadow_2542_17675"/>
<feBlend mode="normal" in="SourceGraphic" in2="effect3_dropShadow_2542_17675" result="shape"/>
</filter>
<clipPath id="clip0_2542_17675">
<rect width="30" height="30" fill="white" transform="translate(21 18)"/>
</clipPath>
</defs>
</svg>
