<svg width="60" height="39" viewBox="0 0 60 39" fill="none" xmlns="http://www.w3.org/2000/svg">
<rect x="0.5" y="0.5" width="59" height="37.4" rx="1.5" fill="white" stroke="#C4C4C4"/>
<g opacity="0.3" clip-path="url(#clip0_2542_21875)">
<path d="M34.0558 24.5608H25.9438V9.98242H34.0558V24.5608Z" fill="#6C6BBD"/>
<path d="M26.4589 17.2715C26.4589 14.3142 27.8435 11.6799 29.9998 9.98234C28.423 8.74098 26.4328 8 24.2702 8C19.1503 8 15 12.1509 15 17.2715C15 22.392 19.1503 26.5429 24.2702 26.5429C26.4329 26.5429 28.423 25.802 29.9998 24.5606C27.8435 22.863 26.4589 20.2287 26.4589 17.2715Z" fill="#D32011"/>
<path d="M44.9999 17.2715C44.9999 22.392 40.8495 26.5429 35.7296 26.5429C33.5669 26.5429 31.5769 25.802 29.9995 24.5606C32.1563 22.863 33.5409 20.2287 33.5409 17.2715C33.5409 14.3142 32.1563 11.6799 29.9995 9.98234C31.5769 8.74098 33.567 8 35.7296 8C40.8495 8 44.9999 12.1509 44.9999 17.2715Z" fill="#0099DF"/>
<path d="M36.8009 28.6801C36.9087 28.6801 37.0637 28.7007 37.1822 28.7472L37.0172 29.2518C36.904 29.2053 36.7908 29.19 36.6824 29.19C36.3322 29.19 36.1571 29.4162 36.1571 29.823V31.2035H35.6214V28.742H36.1519V29.0408C36.291 28.8245 36.492 28.6801 36.8009 28.6801ZM34.8214 29.2312H33.9461V30.3434C33.9461 30.5905 34.0334 30.7555 34.3016 30.7555C34.4407 30.7555 34.6157 30.7089 34.7749 30.6164L34.9293 31.0745C34.7596 31.1928 34.4919 31.2655 34.2602 31.2655C33.6266 31.2655 33.4056 30.9253 33.4056 30.3535V29.2312H32.9058V28.742H33.4056V27.9951H33.9461V28.742H34.8214V29.2312ZM27.9667 29.7564C28.0239 29.401 28.2397 29.1588 28.6211 29.1588C28.9658 29.1588 29.1874 29.375 29.244 29.7564H27.9667ZM29.8005 29.9728C29.7952 29.2052 29.3212 28.6801 28.631 28.6801C27.9102 28.6801 27.4056 29.2053 27.4056 29.9727C27.4056 30.7549 27.9308 31.2648 28.6676 31.2648C29.0384 31.2648 29.3779 31.1722 29.6767 30.92L29.4138 30.5233C29.2082 30.6883 28.9452 30.7809 28.6983 30.7809C28.3534 30.7809 28.0392 30.6212 27.962 30.1786H29.7899C29.7952 30.1113 29.8004 30.0446 29.8004 29.9728H29.8005ZM32.1537 29.3703C32.0045 29.2771 31.7009 29.1587 31.3867 29.1587C31.0931 29.1587 30.918 29.2672 30.918 29.4475C30.918 29.612 31.1032 29.6585 31.3349 29.6892L31.5872 29.7252C32.123 29.803 32.4471 30.0294 32.4471 30.462C32.4471 30.9305 32.0351 31.2654 31.3248 31.2654C30.9228 31.2654 30.5521 31.1622 30.2584 30.9459L30.5108 30.5286C30.6912 30.6677 30.9594 30.7862 31.3301 30.7862C31.6956 30.7862 31.8913 30.6784 31.8913 30.4873C31.8913 30.3488 31.7522 30.271 31.4586 30.2304L31.2063 30.1944C30.6552 30.1166 30.3564 29.8695 30.3564 29.4682C30.3564 28.9789 30.7583 28.6801 31.3814 28.6801C31.7728 28.6801 32.1282 28.768 32.3852 28.9377L32.1536 29.3703H32.1537ZM38.7584 29.1887C38.6482 29.1887 38.5462 29.2082 38.4513 29.2466C38.3595 29.2837 38.276 29.3391 38.2061 29.4092C38.1357 29.4811 38.0804 29.5662 38.0434 29.6598C38.0039 29.757 37.9844 29.8643 37.9844 29.981C37.9844 30.0983 38.0039 30.2049 38.0434 30.3022C38.0829 30.3995 38.1371 30.4832 38.2061 30.5527C38.276 30.6229 38.3595 30.6782 38.4513 30.7154C38.5462 30.7543 38.6482 30.7732 38.7584 30.7732C38.8685 30.7732 38.9712 30.7544 39.0654 30.7154C39.1577 30.6784 39.2415 30.623 39.3118 30.5527C39.382 30.4832 39.4363 30.3995 39.4764 30.3022C39.5159 30.2049 39.5353 30.0983 39.5353 29.981C39.5353 29.8643 39.5159 29.757 39.4764 29.6598C39.4363 29.5625 39.382 29.4788 39.3118 29.4092C39.2415 29.3389 39.1578 29.2836 39.0655 29.2466C38.9679 29.2075 38.8636 29.1879 38.7585 29.1888L38.7584 29.1887ZM38.7584 28.6801C38.9494 28.6801 39.1262 28.7131 39.2889 28.7797C39.4462 28.8423 39.5896 28.9352 39.711 29.0532C39.8305 29.1703 39.9252 29.3102 39.9898 29.4645C40.0569 29.6232 40.0905 29.7954 40.0905 29.981C40.0905 30.1666 40.0569 30.3388 39.9898 30.4973C39.9252 30.6519 39.8304 30.792 39.7109 30.9093C39.5925 31.0255 39.4515 31.1163 39.289 31.1829C39.1261 31.2489 38.9494 31.2819 38.7584 31.2819C38.5673 31.2819 38.3905 31.2489 38.2278 31.1829C38.0652 31.1163 37.9255 31.0255 37.8076 30.9093C37.6888 30.7916 37.5944 30.6516 37.5299 30.4973C37.4627 30.3388 37.4291 30.1666 37.4291 29.981C37.4291 29.7954 37.4627 29.6232 37.5299 29.4646C37.5944 29.3105 37.6888 29.1707 37.8076 29.0532C37.9282 28.9351 38.071 28.8421 38.2278 28.7797C38.3905 28.7131 38.5673 28.6801 38.7584 28.6801ZM24.838 29.9727C24.838 29.5401 25.1216 29.1847 25.5848 29.1847C26.0276 29.1847 26.3264 29.5248 26.3264 29.9728C26.3264 30.4207 26.0276 30.7603 25.5848 30.7603C25.1216 30.7603 24.838 30.4054 24.838 29.9728V29.9727ZM26.831 29.9727V28.742H26.2957V29.0408C26.1254 28.8192 25.8684 28.6801 25.5183 28.6801C24.828 28.6801 24.2875 29.2205 24.2875 29.9727C24.2875 30.7243 24.828 31.2654 25.5183 31.2654C25.8684 31.2654 26.1253 31.1263 26.2957 30.9046V31.2035H26.831V29.9728V29.9727ZM23.8134 31.2036V29.6587C23.8134 29.0769 23.4427 28.6855 22.8456 28.6802C22.5314 28.6749 22.2066 28.7728 21.9803 29.1181C21.8105 28.8452 21.5423 28.6802 21.1663 28.6802C20.9039 28.6802 20.6463 28.7574 20.4454 29.0456V28.7421H19.9102V31.2036H20.4506V29.8391C20.4506 29.4117 20.6876 29.1848 21.053 29.1848C21.4085 29.1848 21.5889 29.4164 21.5889 29.8338V31.2036H22.1295V29.8389C22.1295 29.4116 22.377 29.1847 22.7318 29.1847C23.0979 29.1847 23.273 29.4162 23.273 29.8337V31.2036H23.8134Z" fill="#110F0D"/>
</g>
<defs>
<clipPath id="clip0_2542_21875">
<rect width="30" height="23.3203" fill="white" transform="translate(15 8)"/>
</clipPath>
</defs>
</svg>
