<svg width="17" height="18" viewBox="0 0 17 18" fill="none" xmlns="http://www.w3.org/2000/svg">
<path d="M0.858658 0L0 0.858658L1.51262 3.47452L2.49357 3.33065L8.48129 9.31902L7.97054 9.8095C7.70896 10.0711 7.70896 10.4674 7.97054 10.729L8.23606 10.9951C8.49764 11.2567 8.89787 11.2567 9.09406 10.9951L9.87097 11.7714C9.80558 12.1638 9.87097 12.6301 10.198 12.957L13.7333 16.4721C14.4527 17.1915 15.6298 17.1915 16.3492 16.4721C17.1993 15.6874 17.1915 14.5141 16.4721 13.7948L12.957 10.2588C12.6301 9.93179 12.1638 9.801 11.7714 9.93179L10.9127 9.15553C11.1089 8.89395 11.1089 8.49372 10.9127 8.29687L10.6675 8.05229C10.6081 7.9903 10.5367 7.94096 10.4577 7.90727C10.3787 7.87357 10.2937 7.85619 10.2078 7.85619C10.1219 7.85619 10.0369 7.87357 9.95786 7.90727C9.87885 7.94096 9.80748 7.9903 9.74803 8.05229L9.31902 8.48129L3.33131 2.49357L3.47387 1.51262L0.858658 0ZM13.611 0.020273C12.3207 -0.0869776 10.61 0.768411 9.8095 1.51197C8.82463 2.49684 8.9855 3.7845 9.7683 5.0277L8.37927 6.41737L9.36022 7.52062C9.8834 7.06284 10.6551 7.06284 11.1783 7.52062L11.4444 7.78613L11.5059 7.8476L12.0781 7.27538C13.2605 7.97054 14.4912 8.0706 15.4297 7.13216C16.3452 6.282 17.338 4.18539 16.8802 2.94285L15.0412 4.84328C14.7796 5.10486 14.3833 5.10486 14.1218 4.84328L12.2207 2.94285C12.1587 2.8834 12.1093 2.81202 12.0756 2.73302C12.0419 2.65401 12.0246 2.569 12.0246 2.48311C12.0246 2.39722 12.0419 2.31221 12.0756 2.2332C12.1093 2.1542 12.1587 2.08282 12.2207 2.02337L14.1224 0.122946C13.9589 0.0653967 13.7954 0.0359682 13.611 0.020273ZM6.41737 8.17458L4.04609 10.5452C3.79128 10.4886 3.53085 10.4612 3.26983 10.4635C1.43873 10.4635 0 11.9022 0 13.7333C0 15.5644 1.43873 17.0031 3.26983 17.0031C5.10094 17.0031 6.53967 15.5644 6.53967 13.7333C6.53967 13.3978 6.48669 13.0754 6.39645 12.7726L7.78613 11.3829L7.58209 11.1174C7.05892 10.5943 7.06284 9.80165 7.52062 9.27782L6.41737 8.17458ZM11.4856 11.1586C11.5674 11.1586 11.6445 11.1743 11.7099 11.2404L15.5729 15.1027C15.7037 15.2335 15.7037 15.4415 15.5729 15.5723C15.4421 15.703 15.2328 15.703 15.1021 15.5723L11.2404 11.7099C11.1096 11.5791 11.1096 11.3712 11.2404 11.2404C11.3058 11.175 11.4039 11.1586 11.4856 11.1586ZM3.71976 12.0363L4.96622 13.2834L4.51629 14.9791L2.82056 15.429L1.57344 14.1819L2.02337 12.4862L3.71976 12.0363Z" fill="url(#paint0_linear_2542_19906)"/>
<defs>
<linearGradient id="paint0_linear_2542_19906" x1="-3.59682" y1="7.8476" x2="22.5618" y2="7.8476" gradientUnits="userSpaceOnUse">
<stop offset="0.0317819" stop-color="#2C8EFF"/>
<stop offset="1" stop-color="#ED4C5C"/>
</linearGradient>
</defs>
</svg>
