<svg width="12" height="12" viewBox="0 0 12 12" fill="none" xmlns="http://www.w3.org/2000/svg">
<circle cx="6" cy="6" r="6" fill="#47CA5B"/>
<path d="M8.06735 4.15221C8.17103 4.0535 8.309 3.99893 8.45216 4.00002C8.59531 4.0011 8.73244 4.05775 8.83462 4.15802C8.93679 4.25829 8.99602 4.39433 8.99981 4.53743C9.00359 4.68054 8.95163 4.81952 8.8549 4.92504L5.91814 8.59783C5.86764 8.65222 5.80669 8.69587 5.73894 8.72617C5.67119 8.75647 5.59802 8.77279 5.52381 8.77416C5.44961 8.77554 5.37589 8.76193 5.30706 8.73417C5.23823 8.7064 5.17571 8.66503 5.12323 8.61255L3.1757 6.66502C3.12146 6.61448 3.07796 6.55354 3.04779 6.48582C3.01762 6.41811 3.00139 6.34501 3.00009 6.27089C2.99878 6.19677 3.01241 6.12314 3.04018 6.05441C3.06794 5.98567 3.10926 5.92323 3.16168 5.87081C3.2141 5.81839 3.27654 5.77707 3.34528 5.74931C3.41402 5.72154 3.48764 5.70791 3.56176 5.70922C3.63588 5.71052 3.70898 5.72675 3.77669 5.75692C3.84441 5.78709 3.90535 5.83059 3.95589 5.88483L5.49713 7.42533L8.05336 4.16841C8.05796 4.16274 8.06288 4.15733 8.06808 4.15221H8.06735Z" fill="white"/>
</svg>
