<svg width="60" height="39" viewBox="0 0 60 39" fill="none" xmlns="http://www.w3.org/2000/svg">
<rect x="0.5" y="0.5" width="59" height="37.4" rx="1.5" fill="white" stroke="#C4C4C4"/>
<g opacity="0.3" clip-path="url(#clip0_2542_21865)">
<path d="M20.4537 31.204V29.6605C20.4537 29.0688 20.0934 28.683 19.476 28.683C19.1673 28.683 18.8329 28.7859 18.6013 29.1203C18.4213 28.8373 18.1641 28.683 17.7782 28.683C17.5208 28.683 17.2637 28.7601 17.0578 29.0431V28.7344H16.5176V31.204H17.0578V29.8405C17.0578 29.4033 17.2894 29.1974 17.6496 29.1974C18.0096 29.1974 18.1898 29.429 18.1898 29.8405V31.204H18.7301V29.8405C18.7301 29.4033 18.9872 29.1974 19.3216 29.1974C19.6819 29.1974 19.8619 29.429 19.8619 29.8405V31.204H20.4537ZM28.4542 28.7344H27.5796V27.9884H27.0394V28.7344H26.5506V29.2231H27.0393V30.3551C27.0393 30.9211 27.2708 31.2555 27.8883 31.2555C28.1198 31.2555 28.377 31.1784 28.5572 31.0755L28.4027 30.6123C28.2484 30.7152 28.0684 30.741 27.9397 30.741C27.6825 30.741 27.5796 30.5867 27.5796 30.3293V29.2231H28.4542V28.7344ZM33.0334 28.6829C32.7247 28.6829 32.5189 28.8373 32.3903 29.0431V28.7344H31.85V31.204H32.3903V29.8149C32.3903 29.4033 32.5703 29.1718 32.9047 29.1718C33.0076 29.1718 33.1363 29.1975 33.2392 29.2232L33.3935 28.7088C33.2906 28.683 33.1363 28.683 33.0334 28.683V28.6829ZM26.1132 28.9402C25.8559 28.7601 25.4958 28.683 25.1099 28.683C24.4925 28.683 24.081 28.9916 24.081 29.4804C24.081 29.8921 24.3896 30.1236 24.9299 30.2008L25.1871 30.2266C25.4701 30.2779 25.6245 30.3551 25.6245 30.4838C25.6245 30.6638 25.4187 30.7925 25.0584 30.7925C24.6983 30.7925 24.4153 30.6638 24.2352 30.5352L23.978 30.9468C24.261 31.1526 24.6469 31.2555 25.0327 31.2555C25.753 31.2555 26.1647 30.9211 26.1647 30.458C26.1647 30.0207 25.8302 29.7891 25.3157 29.712L25.0584 29.6862C24.8269 29.6604 24.6469 29.6091 24.6469 29.4548C24.6469 29.2746 24.8269 29.1718 25.1099 29.1718C25.4187 29.1718 25.7273 29.3003 25.8817 29.3775L26.1132 28.9402ZM40.4681 28.683C40.1593 28.683 39.9536 28.8373 39.8249 29.0431V28.7344H39.2846V31.204H39.8249V29.8149C39.8249 29.4033 40.005 29.1718 40.3393 29.1718C40.4423 29.1718 40.571 29.1975 40.6739 29.2232L40.8282 28.7088C40.7254 28.683 40.571 28.683 40.4681 28.683ZM33.5736 29.9692C33.5736 30.7152 34.0881 31.2555 34.8857 31.2555C35.2458 31.2555 35.503 31.1784 35.7602 30.9726L35.503 30.5352C35.2972 30.6896 35.0914 30.7667 34.8599 30.7667C34.4225 30.7667 34.1139 30.458 34.1139 29.9692C34.1139 29.5062 34.4225 29.1974 34.8599 29.1718C35.0914 29.1718 35.2972 29.2489 35.503 29.4033L35.7602 28.966C35.503 28.7601 35.2458 28.683 34.8857 28.683C34.0881 28.683 33.5736 29.2232 33.5736 29.9692ZM38.5644 29.9692V28.7344H38.0242V29.0431C37.8441 28.8116 37.5868 28.683 37.2524 28.683C36.5578 28.683 36.0176 29.2232 36.0176 29.9692C36.0176 30.7152 36.5578 31.2555 37.2524 31.2555C37.6125 31.2555 37.8698 31.1269 38.0242 30.8954V31.204H38.5644V29.9692ZM36.5835 29.9692C36.5835 29.5319 36.8665 29.1718 37.3295 29.1718C37.7668 29.1718 38.0756 29.5062 38.0756 29.9692C38.0756 30.4066 37.7668 30.7667 37.3295 30.7667C36.8665 30.7409 36.5835 30.4066 36.5835 29.9692ZM30.1264 28.683C29.4061 28.683 28.8915 29.1974 28.8915 29.9692C28.8915 30.741 29.406 31.2555 30.1521 31.2555C30.5122 31.2555 30.8725 31.1526 31.1555 30.9211L30.8981 30.5352C30.6923 30.6896 30.4351 30.7925 30.1779 30.7925C29.8434 30.7925 29.509 30.6381 29.4318 30.2007H31.2584V29.995C31.2841 29.1974 30.821 28.683 30.1263 28.683H30.1264ZM30.1264 29.146C30.4608 29.146 30.6925 29.3519 30.7438 29.7378H29.4575C29.509 29.4033 29.7405 29.146 30.1264 29.146ZM43.5294 29.9692V27.7568H42.9892V29.0431C42.8091 28.8116 42.5518 28.683 42.2174 28.683C41.5228 28.683 40.9826 29.2232 40.9826 29.9692C40.9826 30.7152 41.5228 31.2555 42.2174 31.2555C42.5776 31.2555 42.8348 31.1269 42.9892 30.8954V31.204H43.5294V29.9692ZM41.5486 29.9692C41.5486 29.5319 41.8315 29.1718 42.2946 29.1718C42.732 29.1718 43.0406 29.5062 43.0406 29.9692C43.0406 30.4066 42.732 30.7667 42.2946 30.7667C41.8315 30.7409 41.5486 30.4066 41.5486 29.9692ZM23.4892 29.9692V28.7344H22.9489V29.0431C22.7688 28.8116 22.5116 28.683 22.1771 28.683C21.4826 28.683 20.9423 29.2232 20.9423 29.9692C20.9423 30.7152 21.4826 31.2555 22.1771 31.2555C22.5374 31.2555 22.7946 31.1269 22.9489 30.8954V31.204H23.4892V29.9692ZM21.4826 29.9692C21.4826 29.5319 21.7656 29.1718 22.2286 29.1718C22.6659 29.1718 22.9747 29.5062 22.9747 29.9692C22.9747 30.4066 22.6659 30.7667 22.2286 30.7667C21.7656 30.7409 21.4826 30.4066 21.4826 29.9692Z" fill="black"/>
<path d="M25.9336 9.98047H34.0371V24.5411H25.9336V9.98047Z" fill="#FF5F00"/>
<path d="M26.4479 17.2612C26.4479 14.3028 27.8371 11.6787 29.9722 9.98082C28.4031 8.74602 26.4223 8 24.2613 8C19.1418 8 15 12.1418 15 17.2612C15 22.3805 19.1418 26.5224 24.2612 26.5224C26.4221 26.5224 28.403 25.7764 29.9722 24.5415C27.8371 22.8693 26.4479 20.2196 26.4479 17.2612Z" fill="#EB001B"/>
<path d="M44.9703 17.2612C44.9703 22.3805 40.8285 26.5224 35.7091 26.5224C33.5481 26.5224 31.5673 25.7764 29.998 24.5415C32.159 22.8437 33.5225 20.2196 33.5225 17.2612C33.5225 14.3028 32.1332 11.6787 29.998 9.98082C31.5672 8.74602 33.5481 8 35.7091 8C40.8285 8 44.9704 12.1675 44.9704 17.2612H44.9703Z" fill="#F79E1B"/>
</g>
<defs>
<clipPath id="clip0_2542_21865">
<rect width="30" height="23.3203" fill="white" transform="translate(15 8)"/>
</clipPath>
</defs>
</svg>
