<svg width="262" height="252" viewBox="0 0 262 252" fill="none" xmlns="http://www.w3.org/2000/svg">
<rect x="67.6344" y="68.0242" width="167.371" height="43" rx="8.5" transform="rotate(27.598 67.6344 68.0242)" fill="white" stroke="#39BA4C" stroke-width="3"/>
<path d="M72.8684 98.4061L68.6494 96.2006L69.9197 93.7704L74.1388 95.9759C74.8288 96.3366 75.4465 96.5162 75.9916 96.5147C76.5482 96.5096 77.0316 96.3612 77.442 96.0696C77.8562 95.7704 78.1986 95.362 78.4691 94.8445C78.7318 94.342 78.8756 93.8202 78.9005 93.2793C78.9254 92.7385 78.7909 92.2193 78.497 91.7219C78.2107 91.2284 77.7225 90.8012 77.0324 90.4405L73.8259 88.7643L66.539 102.704L63.445 101.087L72.0082 84.7056L78.3086 87.9991C79.5837 88.6656 80.5517 89.4629 81.2126 90.391C81.8849 91.3154 82.2476 92.3024 82.3006 93.352C82.365 94.398 82.1306 95.431 81.5974 96.4511C81.0445 97.5087 80.3281 98.2945 79.4482 98.8087C78.5757 99.3267 77.5779 99.5548 76.4546 99.4929C75.3389 99.4349 74.1435 99.0727 72.8684 98.4061ZM86.7918 92.4336L92.7435 95.5448C93.9886 96.1957 94.9594 96.9419 95.6559 97.7835C96.3524 98.6251 96.7486 99.5389 96.8444 100.525C96.9401 101.511 96.7077 102.54 96.147 103.613C95.704 104.46 95.1697 105.117 94.5442 105.583C93.9188 106.048 93.2225 106.348 92.4554 106.482C91.6958 106.62 90.8857 106.616 90.0252 106.472L88.7989 106.461L83.5447 103.715L84.7985 101.262L88.725 103.314C89.3625 103.648 89.9501 103.811 90.4878 103.806C91.0255 103.801 91.5032 103.654 91.921 103.366C92.3463 103.082 92.6923 102.685 92.9589 102.175C93.2452 101.628 93.3872 101.1 93.385 100.593C93.3867 100.078 93.2306 99.6004 92.9168 99.1594C92.603 98.7184 92.1198 98.3273 91.4672 97.9862L88.6095 96.4924L81.3226 110.432L78.2286 108.815L86.7918 92.4336ZM87.4768 113.649L87.5199 104.332L90.7997 106.032L90.8781 115.227L90.7958 115.384L87.4768 113.649ZM110.641 114.799L110.2 115.643C109.553 116.881 108.806 117.908 107.958 118.726C107.115 119.536 106.209 120.127 105.24 120.5C104.272 120.872 103.272 121.023 102.24 120.951C101.207 120.879 100.178 120.575 99.15 120.038C98.1374 119.509 97.3034 118.839 96.648 118.028C96.0001 117.221 95.5489 116.312 95.2946 115.301C95.0403 114.289 95.0012 113.204 95.1773 112.045C95.3573 110.878 95.7708 109.676 96.4177 108.439L96.8588 107.595C97.5097 106.35 98.2607 105.324 99.1119 104.518C99.963 103.712 100.873 103.123 101.841 102.75C102.813 102.37 103.815 102.216 104.848 102.288C105.887 102.363 106.913 102.666 107.926 103.195C108.954 103.732 109.791 104.404 110.439 105.211C111.087 106.017 111.533 106.928 111.775 107.943C112.03 108.955 112.065 110.038 111.882 111.193C111.705 112.352 111.292 113.554 110.641 114.799ZM107.072 114.008L107.525 113.142C107.992 112.249 108.319 111.422 108.507 110.661C108.699 109.892 108.755 109.191 108.675 108.557C108.596 107.924 108.381 107.367 108.03 106.888C107.683 106.401 107.213 106.002 106.62 105.693C106.02 105.379 105.425 105.22 104.834 105.217C104.255 105.211 103.683 105.356 103.117 105.652C102.552 105.949 102.004 106.393 101.475 106.985C100.957 107.574 100.465 108.315 99.9983 109.207L99.5455 110.074C99.0828 110.959 98.7556 111.786 98.5638 112.554C98.3795 113.327 98.3251 114.034 98.4006 114.675C98.4876 115.313 98.7008 115.873 99.0404 116.356C99.3799 116.839 99.8497 117.238 100.45 117.551C101.05 117.865 101.645 118.023 102.236 118.027C102.826 118.03 103.4 117.881 103.959 117.581C104.528 117.277 105.074 116.827 105.596 116.23C106.117 115.634 106.61 114.893 107.072 114.008ZM121.166 124.398L124.26 126.016C123.605 127.068 122.794 127.88 121.826 128.453C120.861 129.019 119.785 129.297 118.597 129.287C117.408 129.277 116.146 128.923 114.811 128.225C113.784 127.687 112.951 127.023 112.315 126.232C111.689 125.437 111.26 124.549 111.028 123.568C110.807 122.584 110.792 121.535 110.983 120.422C111.177 119.301 111.586 118.144 112.209 116.951L112.862 115.703C113.486 114.51 114.206 113.516 115.023 112.721C115.839 111.925 116.717 111.343 117.655 110.974C118.604 110.601 119.587 110.446 120.605 110.51C121.629 110.578 122.655 110.88 123.683 111.417C125.018 112.115 126.018 112.953 126.681 113.93C127.349 114.9 127.714 115.946 127.777 117.067C127.841 118.189 127.634 119.332 127.159 120.497L124.065 118.88C124.366 118.159 124.522 117.495 124.533 116.89C124.551 116.288 124.389 115.74 124.046 115.246C123.714 114.747 123.162 114.296 122.389 113.893C121.789 113.579 121.201 113.415 120.626 113.401C120.059 113.391 119.507 113.532 118.972 113.825C118.441 114.111 117.925 114.548 117.426 115.138C116.931 115.719 116.456 116.445 116.002 117.315L115.337 118.586C114.902 119.419 114.579 120.201 114.369 120.931C114.159 121.662 114.077 122.33 114.123 122.937C114.169 123.543 114.354 124.084 114.679 124.56C115.003 125.035 115.477 125.435 116.099 125.761C116.857 126.157 117.535 126.358 118.133 126.365C118.738 126.376 119.286 126.214 119.777 125.878C120.275 125.546 120.738 125.053 121.166 124.398ZM135.967 135.903L134.697 138.333L125.988 133.781L127.259 131.351L135.967 135.903ZM135.497 117.894L126.933 134.275L123.839 132.658L132.403 116.276L135.497 117.894ZM138.589 128.12L137.348 130.494L129.776 126.535L131.017 124.161L138.589 128.12ZM143.226 121.934L141.95 124.376L133.275 119.841L134.552 117.4L143.226 121.934ZM147.642 139.685C147.806 139.37 147.905 139.063 147.937 138.765C147.98 138.463 147.931 138.146 147.789 137.814C147.659 137.478 147.423 137.098 147.083 136.671C146.754 136.241 146.301 135.737 145.724 135.159C145.085 134.519 144.514 133.876 144.01 133.231C143.507 132.586 143.108 131.934 142.813 131.273C142.526 130.617 142.379 129.958 142.372 129.295C142.369 128.625 142.548 127.945 142.909 127.255C143.261 126.58 143.725 126.039 144.301 125.633C144.883 125.231 145.545 124.97 146.285 124.851C147.029 124.725 147.818 124.741 148.652 124.9C149.493 125.062 150.353 125.373 151.23 125.832C152.445 126.467 153.38 127.237 154.034 128.143C154.695 129.052 155.071 130.012 155.163 131.025C155.254 132.037 155.053 133.016 154.559 133.961L151.476 132.35C151.743 131.84 151.869 131.333 151.856 130.829C151.85 130.329 151.688 129.853 151.37 129.401C151.061 128.952 150.579 128.557 149.927 128.216C149.297 127.887 148.723 127.706 148.205 127.674C147.694 127.646 147.25 127.738 146.871 127.951C146.5 128.168 146.21 128.475 146.003 128.872C145.846 129.172 145.776 129.48 145.793 129.794C145.814 130.101 145.912 130.434 146.087 130.793C146.266 131.145 146.519 131.52 146.845 131.92C147.182 132.316 147.587 132.747 148.059 133.214C148.818 133.954 149.449 134.666 149.952 135.349C150.462 136.036 150.832 136.707 151.062 137.362C151.3 138.021 151.394 138.672 151.345 139.315C151.303 139.961 151.108 140.618 150.759 141.286C150.39 141.991 149.922 142.548 149.354 142.958C148.787 143.368 148.142 143.633 147.421 143.753C146.699 143.872 145.922 143.843 145.088 143.665C144.263 143.491 143.403 143.171 142.511 142.704C141.716 142.289 140.983 141.772 140.313 141.154C139.654 140.533 139.121 139.844 138.715 139.087C138.312 138.323 138.096 137.512 138.066 136.656C138.04 135.793 138.26 134.915 138.726 134.022L141.832 135.645C141.561 136.163 141.412 136.648 141.385 137.102C141.37 137.552 141.455 137.974 141.641 138.367C141.838 138.757 142.119 139.114 142.484 139.439C142.85 139.763 143.276 140.053 143.763 140.308C144.393 140.637 144.956 140.822 145.451 140.861C145.958 140.896 146.395 140.81 146.762 140.601C147.137 140.395 147.43 140.09 147.642 139.685ZM161.705 147.037C161.87 146.722 161.968 146.415 162 146.116C162.043 145.814 161.994 145.497 161.853 145.166C161.722 144.83 161.487 144.449 161.146 144.023C160.817 143.593 160.364 143.089 159.788 142.511C159.148 141.871 158.577 141.228 158.074 140.583C157.571 139.938 157.172 139.285 156.877 138.625C156.59 137.969 156.443 137.309 156.436 136.647C156.433 135.977 156.611 135.297 156.972 134.606C157.325 133.931 157.789 133.391 158.364 132.985C158.947 132.583 159.608 132.322 160.349 132.203C161.093 132.076 161.882 132.092 162.716 132.251C163.557 132.414 164.416 132.725 165.294 133.184C166.509 133.819 167.443 134.589 168.097 135.494C168.758 136.403 169.135 137.364 169.226 138.376C169.318 139.389 169.117 140.368 168.623 141.313L165.54 139.701C165.806 139.191 165.933 138.684 165.919 138.181C165.913 137.681 165.751 137.205 165.434 136.752C165.124 136.304 164.643 135.909 163.99 135.568C163.36 135.238 162.786 135.058 162.268 135.026C161.758 134.998 161.313 135.09 160.934 135.303C160.563 135.519 160.274 135.826 160.066 136.224C159.909 136.524 159.839 136.831 159.856 137.146C159.877 137.453 159.975 137.786 160.151 138.145C160.33 138.496 160.582 138.872 160.908 139.271C161.246 139.667 161.651 140.099 162.123 140.565C162.882 141.306 163.513 142.017 164.015 142.7C164.525 143.387 164.895 144.058 165.126 144.713C165.364 145.373 165.458 146.024 165.409 146.666C165.367 147.313 165.171 147.97 164.822 148.638C164.454 149.343 163.986 149.9 163.418 150.31C162.85 150.72 162.206 150.985 161.484 151.104C160.763 151.224 159.985 151.195 159.152 151.017C158.326 150.843 157.467 150.523 156.574 150.056C155.779 149.64 155.047 149.124 154.376 148.506C153.717 147.885 153.185 147.195 152.778 146.439C152.376 145.674 152.159 144.864 152.129 144.008C152.103 143.144 152.323 142.266 152.79 141.374L155.895 142.997C155.625 143.514 155.476 144 155.449 144.454C155.433 144.904 155.518 145.326 155.704 145.719C155.902 146.109 156.183 146.466 156.548 146.79C156.913 147.115 157.339 147.405 157.827 147.66C158.457 147.989 159.02 148.173 159.515 148.212C160.022 148.248 160.458 148.161 160.826 147.952C161.2 147.747 161.494 147.442 161.705 147.037ZM177.1 157.405L175.83 159.835L167.121 155.283L168.392 152.853L177.1 157.405ZM176.63 139.396L168.066 155.777L164.973 154.16L173.536 137.778L176.63 139.396ZM179.722 149.622L178.481 151.996L170.909 148.037L172.15 145.664L179.722 149.622ZM184.359 143.436L183.083 145.878L174.408 141.343L175.685 138.902L184.359 143.436ZM182.873 163.517L179.34 161.67L180.633 159.252L184.143 161.087C185.096 161.585 186.004 161.792 186.869 161.709C187.737 161.619 188.544 161.263 189.29 160.64C190.04 160.01 190.706 159.136 191.291 158.019L191.732 157.175C192.183 156.312 192.487 155.502 192.644 154.744C192.802 153.986 192.815 153.286 192.682 152.643C192.557 152.005 192.29 151.431 191.879 150.92C191.468 150.409 190.917 149.973 190.227 149.612L186.559 147.695L187.835 145.254L191.503 147.171C192.598 147.743 193.5 148.449 194.208 149.287C194.923 150.129 195.431 151.067 195.73 152.102C196.041 153.134 196.123 154.218 195.978 155.355C195.84 156.495 195.463 157.655 194.848 158.832L194.418 159.654C193.807 160.824 193.07 161.795 192.208 162.566C191.358 163.335 190.42 163.886 189.396 164.219C188.379 164.557 187.317 164.67 186.21 164.559C185.103 164.449 183.99 164.101 182.873 163.517ZM189.636 146.195L181.072 162.576L177.978 160.958L186.542 144.577L189.636 146.195Z" fill="#39BA4C"/>
</svg>
