<svg width="120" height="120" viewBox="0 0 120 120" fill="none" xmlns="http://www.w3.org/2000/svg">
<circle cx="60" cy="60" r="60" fill="#E6FFE9"/>
<circle cx="60" cy="60" r="40" fill="white"/>
<path fill-rule="evenodd" clip-rule="evenodd" d="M60 100C70.6087 100 80.7828 95.7857 88.2843 88.2843C95.7857 80.7828 100 70.6087 100 60C100 49.3913 95.7857 39.2172 88.2843 31.7157C80.7828 24.2143 70.6087 20 60 20C49.3913 20 39.2172 24.2143 31.7157 31.7157C24.2143 39.2172 20 49.3913 20 60C20 70.6087 24.2143 80.7828 31.7157 88.2843C39.2172 95.7857 49.3913 100 60 100ZM52.1528 78.1369L37.1429 63.4286L41.2 59.3714L52.1714 70.3429L76.1714 46.2857L80.2286 50.3429L52.1528 78.1369Z" fill="#47CA5B"/>
</svg>
