<svg width="17" height="16" viewBox="0 0 17 16" fill="none" xmlns="http://www.w3.org/2000/svg">
<path d="M3.1875 1.71429C3.1875 1.25963 3.35541 0.823594 3.6543 0.502103C3.95318 0.180612 4.35856 0 4.78125 0H12.2188C12.6414 0 13.0468 0.180612 13.3457 0.502103C13.6446 0.823594 13.8125 1.25963 13.8125 1.71429V2.28571H14.3438C15.0482 2.28571 15.7239 2.58673 16.222 3.12255C16.7201 3.65837 17 4.3851 17 5.14286V10.8571C17 11.3118 16.8321 11.7478 16.5332 12.0693C16.2343 12.3908 15.8289 12.5714 15.4062 12.5714H13.8125V14.2857C13.8125 14.7404 13.6446 15.1764 13.3457 15.4979C13.0468 15.8194 12.6414 16 12.2188 16H4.78125C4.35856 16 3.95318 15.8194 3.6543 15.4979C3.35541 15.1764 3.1875 14.7404 3.1875 14.2857V12.5714H1.59375C1.17106 12.5714 0.765685 12.3908 0.466799 12.0693C0.167913 11.7478 0 11.3118 0 10.8571V5.14286C0 4.3851 0.279854 3.65837 0.777998 3.12255C1.27614 2.58673 1.95177 2.28571 2.65625 2.28571H3.1875V1.71429ZM12.75 1.71429C12.75 1.56273 12.694 1.41739 12.5944 1.31022C12.4948 1.20306 12.3596 1.14286 12.2188 1.14286H4.78125C4.64035 1.14286 4.50523 1.20306 4.4056 1.31022C4.30597 1.41739 4.25 1.56273 4.25 1.71429V2.28571H12.75V1.71429ZM4.25 9.71429V14.2857C4.25 14.4373 4.30597 14.5826 4.4056 14.6898C4.50523 14.7969 4.64035 14.8571 4.78125 14.8571H12.2188C12.3596 14.8571 12.4948 14.7969 12.5944 14.6898C12.694 14.5826 12.75 14.4373 12.75 14.2857V9.71429C12.75 9.56273 12.694 9.41739 12.5944 9.31022C12.4948 9.20306 12.3596 9.14286 12.2188 9.14286H4.78125C4.64035 9.14286 4.50523 9.20306 4.4056 9.31022C4.30597 9.41739 4.25 9.56273 4.25 9.71429Z" fill="#994308"/>
</svg>
