<svg width="15" height="20" viewBox="0 0 15 20" fill="none" xmlns="http://www.w3.org/2000/svg">
<path d="M3.79379 14.1654C3.45434 13.826 3.63129 13.9217 2.81255 13.7025C2.44107 13.6029 2.11451 13.4115 1.8192 13.1822L0.0469517 17.5275C-0.124531 17.9482 0.195778 18.4052 0.64968 18.388L2.70786 18.3095L4.12347 19.8048C4.43597 20.1345 4.9844 20.0317 5.15588 19.611L7.18907 14.6259C6.76563 14.8619 6.29572 15.0002 5.80978 15.0002C5.04807 15.0002 4.33246 14.7037 3.79379 14.1654ZM14.953 17.5275L13.1808 13.1822C12.8855 13.4119 12.5589 13.6029 12.1875 13.7025C11.3644 13.9228 11.5449 13.8267 11.2062 14.1654C10.6675 14.7037 9.95154 15.0002 9.18983 15.0002C8.70389 15.0002 8.23398 14.8615 7.81054 14.6259L9.84373 19.611C10.0152 20.0317 10.564 20.1345 10.8761 19.8048L12.2921 18.3095L14.3503 18.388C14.8042 18.4052 15.1245 17.9478 14.953 17.5275ZM10.2734 13.2814C10.8703 12.674 10.9386 12.7264 11.7886 12.4947C12.3312 12.3467 12.7554 11.915 12.9007 11.3627C13.1929 10.2533 13.1171 10.3873 13.9144 9.57561C14.3117 9.17131 14.4667 8.58187 14.3214 8.02953C14.0296 6.92095 14.0292 7.07563 14.3214 5.96588C14.4667 5.41354 14.3117 4.82409 13.9144 4.4198C13.1171 3.60809 13.1929 3.74168 12.9007 2.63271C12.7554 2.08037 12.3312 1.64874 11.7886 1.50069C10.6996 1.20343 10.8308 1.28116 10.0328 0.46906C9.63553 0.0647674 9.05623 -0.0934341 8.51366 0.0546113C7.425 0.351483 7.57695 0.351874 6.48634 0.0546113C5.94377 -0.0934341 5.36448 0.0643768 4.96721 0.46906C4.16996 1.28077 4.30121 1.20343 3.21176 1.50069C2.66919 1.64874 2.24498 2.08037 2.09967 2.63271C1.80787 3.74168 1.88326 3.60809 1.086 4.4198C0.688742 4.82409 0.533275 5.41354 0.678976 5.96588C0.97077 7.07368 0.971161 6.91899 0.678976 8.02914C0.533665 8.58148 0.688742 9.17092 1.086 9.57561C1.88326 10.3873 1.80748 10.2533 2.09967 11.3627C2.24498 11.915 2.66919 12.3467 3.21176 12.4947C4.08597 12.733 4.15121 12.6955 4.72659 13.2814C5.24338 13.8076 6.04845 13.9017 6.66954 13.5088C6.9179 13.3511 7.20601 13.2674 7.5002 13.2674C7.79438 13.2674 8.08249 13.3511 8.33085 13.5088C8.95155 13.9017 9.75662 13.8076 10.2734 13.2814ZM3.81488 6.87368C3.81488 4.80222 5.46486 3.12294 7.5 3.12294C9.53514 3.12294 11.1851 4.80222 11.1851 6.87368C11.1851 8.94514 9.53514 10.6244 7.5 10.6244C5.46486 10.6244 3.81488 8.94514 3.81488 6.87368Z" fill="#FACB16"/>
</svg>
