<svg width="139" height="40" viewBox="0 0 139 40" fill="none" xmlns="http://www.w3.org/2000/svg">
<path d="M131.391 19.5941H131.387C131.35 18.8285 130.537 18.1129 129.134 17.691C126.131 16.7879 122.8 16.2598 119 16.2285C115.203 16.2598 111.872 16.7879 108.866 17.691C107.462 18.1129 106.656 18.8285 106.616 19.5941H106.609V35.2441C106.575 36.1191 107.553 37.0566 109.816 37.6973C112.153 38.3598 115.316 38.7879 118.997 38.7879C122.678 38.7879 125.841 38.3598 128.178 37.6973C130.55 37.0254 131.509 36.0285 131.372 35.1191H131.384V19.5941H131.391ZM106.609 19.8223H131.391H106.609Z" fill="#E2A610"/>
<path d="M121.469 33.8252L120.066 30.5189C120.471 30.3231 120.813 30.0169 121.053 29.6355C121.292 29.2541 121.419 28.813 121.419 28.3627C121.419 27.0377 120.344 25.9658 119.022 25.9658C117.7 25.9658 116.625 27.0408 116.625 28.3627C116.625 29.2533 117.113 30.0314 117.835 30.4439L116.528 33.8471C116.363 34.2783 116.681 34.7377 117.141 34.7377H120.866C121.335 34.7377 121.65 34.2564 121.469 33.8252Z" fill="#4E342E"/>
<path d="M121.334 33.5184H116.65L116.525 33.8465C116.359 34.2777 116.678 34.7371 117.137 34.7371H120.862C121.334 34.7371 121.65 34.2559 121.465 33.8246L121.334 33.5184ZM118.047 29.8121C118.103 29.6496 118.044 29.4746 117.906 29.3746C117.719 29.2371 117.465 28.9934 117.306 28.6059C116.725 27.2059 117.415 26.584 117.415 26.584C117.165 26.8077 116.965 27.0818 116.829 27.3882C116.692 27.6947 116.621 28.0265 116.622 28.3621C116.622 29.2527 117.109 30.0309 117.831 30.4434L118.047 29.8121ZM120.706 26.6559C120.706 26.6559 121.394 28.0371 120.606 28.9215C120.337 29.2215 120.109 29.3809 119.94 29.459C119.775 29.5371 119.7 29.734 119.778 29.8996L120.069 30.5121C120.474 30.3163 120.816 30.0101 121.055 29.6287C121.295 29.2473 121.422 28.8061 121.422 28.3559C121.415 27.3402 120.706 26.6559 120.706 26.6559Z" fill="#9E740B"/>
<path d="M128.606 17.4842C125.759 16.6561 122.6 16.1748 119 16.1436C115.4 16.1717 112.241 16.6561 109.394 17.4811C106.541 18.3092 106.256 20.3748 110.297 21.4811C112.512 22.0873 115.512 22.4779 119 22.4779C122.487 22.4779 125.487 22.0873 127.703 21.4811C131.744 20.3779 131.459 18.3092 128.606 17.4842Z" fill="#FDD835"/>
<path d="M127.797 19.4406C127.797 19.4406 127.681 19.9781 126.166 19.9781C124.65 19.9781 124.328 19.4406 124.328 19.4406V12.55C124.328 9.41875 121.938 6.875 118.997 6.875C116.056 6.875 113.666 9.42187 113.666 12.55V19.4437C113.666 19.4437 113.006 19.9812 111.806 19.9812C110.606 19.9812 110.2 19.4437 110.2 19.4437V12.55C110.2 7.50625 114.147 3.40625 118.997 3.40625C123.847 3.40625 127.794 7.50938 127.794 12.55V19.4406H127.797Z" fill="#84B0C1" stroke="#84B0C1" stroke-width="1.958" stroke-miterlimit="10"/>
<path d="M115.034 6.73793C113.428 7.69418 113.181 8.34105 112.734 8.63793C112.403 8.85668 111.962 8.68168 112.25 7.9223C112.497 7.2723 113.09 6.04105 114.572 5.09418C117.122 3.46293 119.322 3.53793 119.203 4.7848C119.103 5.88793 116.747 5.71918 115.034 6.73793Z" fill="#B9E4EA"/>
<path d="M7.448 7.536C7.384 7.648 7.31467 7.73067 7.24 7.784C7.17067 7.832 7.08267 7.856 6.976 7.856C6.864 7.856 6.74133 7.816 6.608 7.736C6.48 7.65067 6.32533 7.55733 6.144 7.456C5.96267 7.35467 5.74933 7.264 5.504 7.184C5.264 7.09867 4.97867 7.056 4.648 7.056C4.34933 7.056 4.088 7.09333 3.864 7.168C3.64 7.23733 3.45067 7.336 3.296 7.464C3.14667 7.592 3.03467 7.74667 2.96 7.928C2.88533 8.104 2.848 8.29867 2.848 8.512C2.848 8.784 2.92267 9.01067 3.072 9.192C3.22667 9.37333 3.42933 9.528 3.68 9.656C3.93067 9.784 4.216 9.89867 4.536 10C4.856 10.1013 5.184 10.2107 5.52 10.328C5.856 10.44 6.184 10.5733 6.504 10.728C6.824 10.8773 7.10933 11.0693 7.36 11.304C7.61067 11.5333 7.81067 11.816 7.96 12.152C8.11467 12.488 8.192 12.896 8.192 13.376C8.192 13.8987 8.10133 14.3893 7.92 14.848C7.744 15.3013 7.48267 15.6987 7.136 16.04C6.79467 16.376 6.376 16.6427 5.88 16.84C5.384 17.032 4.816 17.128 4.176 17.128C3.808 17.128 3.44533 17.0907 3.088 17.016C2.73067 16.9467 2.38667 16.8453 2.056 16.712C1.73067 16.5787 1.424 16.4187 1.136 16.232C0.848 16.0453 0.592 15.8373 0.368 15.608L1 14.576C1.05333 14.5013 1.12267 14.44 1.208 14.392C1.29333 14.3387 1.384 14.312 1.48 14.312C1.61333 14.312 1.75733 14.368 1.912 14.48C2.06667 14.5867 2.25067 14.7067 2.464 14.84C2.67733 14.9733 2.92533 15.096 3.208 15.208C3.496 15.3147 3.84 15.368 4.24 15.368C4.85333 15.368 5.328 15.224 5.664 14.936C6 14.6427 6.168 14.224 6.168 13.68C6.168 13.376 6.09067 13.128 5.936 12.936C5.78667 12.744 5.58667 12.584 5.336 12.456C5.08533 12.3227 4.8 12.2107 4.48 12.12C4.16 12.0293 3.83467 11.9307 3.504 11.824C3.17333 11.7173 2.848 11.5893 2.528 11.44C2.208 11.2907 1.92267 11.096 1.672 10.856C1.42133 10.616 1.21867 10.3173 1.064 9.96C0.914667 9.59733 0.84 9.152 0.84 8.624C0.84 8.20267 0.922667 7.792 1.088 7.392C1.25867 6.992 1.504 6.63733 1.824 6.328C2.144 6.01867 2.53867 5.77067 3.008 5.584C3.47733 5.39733 4.016 5.304 4.624 5.304C5.30667 5.304 5.936 5.41067 6.512 5.624C7.088 5.83733 7.57867 6.136 7.984 6.52L7.448 7.536ZM13.9839 13.496C13.4132 13.5227 12.9332 13.5733 12.5439 13.648C12.1545 13.7173 11.8425 13.808 11.6079 13.92C11.3732 14.032 11.2052 14.1627 11.1039 14.312C11.0025 14.4613 10.9519 14.624 10.9519 14.8C10.9519 15.1467 11.0532 15.3947 11.2559 15.544C11.4639 15.6933 11.7332 15.768 12.0639 15.768C12.4692 15.768 12.8185 15.696 13.1119 15.552C13.4105 15.4027 13.7012 15.1787 13.9839 14.88V13.496ZM9.45588 9.936C10.3999 9.072 11.5359 8.64 12.8639 8.64C13.3439 8.64 13.7732 8.72 14.1519 8.88C14.5305 9.03467 14.8505 9.25333 15.1119 9.536C15.3732 9.81333 15.5705 10.1467 15.7039 10.536C15.8425 10.9253 15.9119 11.352 15.9119 11.816V17H15.0159C14.8292 17 14.6852 16.9733 14.5839 16.92C14.4825 16.8613 14.4025 16.7467 14.3439 16.576L14.1679 15.984C13.9599 16.1707 13.7572 16.336 13.5599 16.48C13.3625 16.6187 13.1572 16.736 12.9439 16.832C12.7305 16.928 12.5012 17 12.2559 17.048C12.0159 17.1013 11.7492 17.128 11.4559 17.128C11.1092 17.128 10.7892 17.0827 10.4959 16.992C10.2025 16.896 9.94921 16.7547 9.73588 16.568C9.52254 16.3813 9.35721 16.1493 9.23988 15.872C9.12254 15.5947 9.06388 15.272 9.06388 14.904C9.06388 14.696 9.09854 14.4907 9.16788 14.288C9.23721 14.08 9.34921 13.8827 9.50388 13.696C9.66388 13.5093 9.86921 13.3333 10.1199 13.168C10.3705 13.0027 10.6772 12.8587 11.0399 12.736C11.4079 12.6133 11.8345 12.5147 12.3199 12.44C12.8052 12.36 13.3599 12.312 13.9839 12.296V11.816C13.9839 11.2667 13.8665 10.8613 13.6319 10.6C13.3972 10.3333 13.0585 10.2 12.6159 10.2C12.2959 10.2 12.0292 10.2373 11.8159 10.312C11.6079 10.3867 11.4239 10.472 11.2639 10.568C11.1039 10.6587 10.9572 10.7413 10.8239 10.816C10.6959 10.8907 10.5519 10.928 10.3919 10.928C10.2532 10.928 10.1359 10.8933 10.0399 10.824C9.94388 10.7493 9.86654 10.664 9.80788 10.568L9.45588 9.936ZM18.2083 17V10.28L17.4963 10.168C17.3416 10.136 17.2163 10.0827 17.1203 10.008C17.0296 9.928 16.9843 9.816 16.9843 9.672V8.864H18.2083V8.256C18.2083 7.78667 18.2776 7.36533 18.4163 6.992C18.5603 6.61867 18.7629 6.30133 19.0243 6.04C19.2909 5.77867 19.6136 5.57867 19.9923 5.44C20.3709 5.30133 20.7976 5.232 21.2723 5.232C21.6509 5.232 22.0029 5.28267 22.3283 5.384L22.2883 6.376C22.2829 6.45067 22.2616 6.512 22.2243 6.56C22.1869 6.60267 22.1363 6.63733 22.0723 6.664C22.0136 6.68533 21.9443 6.70133 21.8643 6.712C21.7843 6.71733 21.6989 6.72 21.6083 6.72C21.3736 6.72 21.1629 6.74667 20.9763 6.8C20.7949 6.848 20.6403 6.936 20.5123 7.064C20.3843 7.18667 20.2856 7.352 20.2163 7.56C20.1523 7.76267 20.1203 8.016 20.1203 8.32V8.864H22.2563V10.272H20.1843V17H18.2083ZM28.4359 11.952C28.4359 11.696 28.3985 11.456 28.3239 11.232C28.2545 11.0027 28.1479 10.8027 28.0039 10.632C27.8599 10.4613 27.6759 10.328 27.4519 10.232C27.2332 10.1307 26.9772 10.08 26.6839 10.08C26.1132 10.08 25.6625 10.2427 25.3319 10.568C25.0065 10.8933 24.7985 11.3547 24.7079 11.952H28.4359ZM24.6679 13.144C24.6999 13.5653 24.7745 13.9307 24.8919 14.24C25.0092 14.544 25.1639 14.7973 25.3559 15C25.5479 15.1973 25.7745 15.3467 26.0359 15.448C26.3025 15.544 26.5959 15.592 26.9159 15.592C27.2359 15.592 27.5105 15.5547 27.7399 15.48C27.9745 15.4053 28.1772 15.3227 28.3479 15.232C28.5239 15.1413 28.6759 15.0587 28.8039 14.984C28.9372 14.9093 29.0652 14.872 29.1879 14.872C29.3532 14.872 29.4759 14.9333 29.5559 15.056L30.1239 15.776C29.9052 16.032 29.6599 16.248 29.3879 16.424C29.1159 16.5947 28.8305 16.7333 28.5319 16.84C28.2385 16.9413 27.9372 17.0133 27.6279 17.056C27.3239 17.0987 27.0279 17.12 26.7399 17.12C26.1692 17.12 25.6385 17.0267 25.1479 16.84C24.6572 16.648 24.2305 16.368 23.8679 16C23.5052 15.6267 23.2199 15.168 23.0119 14.624C22.8039 14.0747 22.6999 13.44 22.6999 12.72C22.6999 12.16 22.7905 11.6347 22.9719 11.144C23.1532 10.648 23.4119 10.2187 23.7479 9.856C24.0892 9.488 24.5025 9.19733 24.9879 8.984C25.4785 8.77067 26.0305 8.664 26.6439 8.664C27.1612 8.664 27.6385 8.74667 28.0759 8.912C28.5132 9.07733 28.8892 9.32 29.2039 9.64C29.5185 9.95467 29.7639 10.344 29.9399 10.808C30.1212 11.2667 30.2119 11.792 30.2119 12.384C30.2119 12.6827 30.1799 12.8853 30.1159 12.992C30.0519 13.0933 29.9292 13.144 29.7479 13.144H24.6679ZM38.4334 11.592C38.0067 11.8693 37.6947 12.184 37.4974 12.536C37.3054 12.8827 37.2094 13.256 37.2094 13.656C37.2094 13.9493 37.26 14.2133 37.3614 14.448C37.4627 14.6827 37.5987 14.8827 37.7694 15.048C37.9454 15.208 38.148 15.3333 38.3774 15.424C38.612 15.5093 38.86 15.552 39.1214 15.552C39.5907 15.552 40.02 15.48 40.4094 15.336C40.7987 15.1867 41.1507 14.9813 41.4654 14.72L38.4334 11.592ZM46.1374 17H44.2014C43.9987 17 43.8334 16.976 43.7054 16.928C43.5827 16.88 43.452 16.7787 43.3134 16.624L42.5134 15.8C42.0067 16.216 41.4387 16.5413 40.8094 16.776C40.18 17.0107 39.5 17.128 38.7694 17.128C38.3267 17.128 37.8894 17.0533 37.4574 16.904C37.0307 16.7493 36.6494 16.528 36.3134 16.24C35.9774 15.952 35.7054 15.6053 35.4974 15.2C35.2947 14.7893 35.1934 14.328 35.1934 13.816C35.1934 13.4533 35.252 13.112 35.3694 12.792C35.4867 12.4667 35.6494 12.1653 35.8574 11.888C36.0654 11.6107 36.3134 11.3627 36.6014 11.144C36.8894 10.92 37.204 10.728 37.5454 10.568C37.2574 10.168 37.0494 9.77867 36.9214 9.4C36.7934 9.016 36.7294 8.63467 36.7294 8.256C36.7294 7.856 36.8014 7.47733 36.9454 7.12C37.0947 6.75733 37.308 6.44267 37.5854 6.176C37.8627 5.90933 38.204 5.69867 38.6094 5.544C39.0147 5.384 39.4734 5.304 39.9854 5.304C40.4547 5.304 40.8734 5.376 41.2414 5.52C41.6147 5.664 41.932 5.856 42.1934 6.096C42.46 6.336 42.668 6.61067 42.8174 6.92C42.972 7.22933 43.0627 7.54933 43.0894 7.88L41.8334 8.144C41.5987 8.192 41.428 8.09067 41.3214 7.84C41.2734 7.70133 41.2094 7.57067 41.1294 7.448C41.0547 7.32 40.964 7.21067 40.8574 7.12C40.7507 7.024 40.6254 6.94933 40.4814 6.896C40.3374 6.83733 40.172 6.808 39.9854 6.808C39.7614 6.808 39.5614 6.848 39.3854 6.928C39.2094 7.00267 39.06 7.10667 38.9374 7.24C38.82 7.368 38.7294 7.52 38.6654 7.696C38.6014 7.86667 38.5694 8.048 38.5694 8.24C38.5694 8.4 38.5854 8.55467 38.6174 8.704C38.6494 8.85333 38.7027 9.00267 38.7774 9.152C38.852 9.30133 38.948 9.456 39.0654 9.616C39.188 9.77067 39.3374 9.93867 39.5134 10.12L42.5854 13.312C42.7614 12.976 42.9027 12.6213 43.0094 12.248C43.116 11.8747 43.1854 11.496 43.2174 11.112C43.2334 10.9893 43.276 10.8907 43.3454 10.816C43.4147 10.7413 43.5107 10.704 43.6334 10.704H44.8654C44.86 11.408 44.7587 12.08 44.5614 12.72C44.364 13.36 44.0814 13.9493 43.7134 14.488L46.1374 17ZM57.5261 7.536C57.4621 7.648 57.3928 7.73067 57.3181 7.784C57.2488 7.832 57.1608 7.856 57.0541 7.856C56.9421 7.856 56.8195 7.816 56.6861 7.736C56.5581 7.65067 56.4035 7.55733 56.2221 7.456C56.0408 7.35467 55.8275 7.264 55.5821 7.184C55.3421 7.09867 55.0568 7.056 54.7261 7.056C54.4275 7.056 54.1661 7.09333 53.9421 7.168C53.7181 7.23733 53.5288 7.336 53.3741 7.464C53.2248 7.592 53.1128 7.74667 53.0381 7.928C52.9635 8.104 52.9261 8.29867 52.9261 8.512C52.9261 8.784 53.0008 9.01067 53.1501 9.192C53.3048 9.37333 53.5075 9.528 53.7581 9.656C54.0088 9.784 54.2941 9.89867 54.6141 10C54.9341 10.1013 55.2621 10.2107 55.5981 10.328C55.9341 10.44 56.2621 10.5733 56.5821 10.728C56.9021 10.8773 57.1875 11.0693 57.4381 11.304C57.6888 11.5333 57.8888 11.816 58.0381 12.152C58.1928 12.488 58.2701 12.896 58.2701 13.376C58.2701 13.8987 58.1795 14.3893 57.9981 14.848C57.8221 15.3013 57.5608 15.6987 57.2141 16.04C56.8728 16.376 56.4541 16.6427 55.9581 16.84C55.4621 17.032 54.8941 17.128 54.2541 17.128C53.8861 17.128 53.5235 17.0907 53.1661 17.016C52.8088 16.9467 52.4648 16.8453 52.1341 16.712C51.8088 16.5787 51.5021 16.4187 51.2141 16.232C50.9261 16.0453 50.6701 15.8373 50.4461 15.608L51.0781 14.576C51.1315 14.5013 51.2008 14.44 51.2861 14.392C51.3715 14.3387 51.4621 14.312 51.5581 14.312C51.6915 14.312 51.8355 14.368 51.9901 14.48C52.1448 14.5867 52.3288 14.7067 52.5421 14.84C52.7555 14.9733 53.0035 15.096 53.2861 15.208C53.5741 15.3147 53.9181 15.368 54.3181 15.368C54.9315 15.368 55.4061 15.224 55.7421 14.936C56.0781 14.6427 56.2461 14.224 56.2461 13.68C56.2461 13.376 56.1688 13.128 56.0141 12.936C55.8648 12.744 55.6648 12.584 55.4141 12.456C55.1635 12.3227 54.8781 12.2107 54.5581 12.12C54.2381 12.0293 53.9128 11.9307 53.5821 11.824C53.2515 11.7173 52.9261 11.5893 52.6061 11.44C52.2861 11.2907 52.0008 11.096 51.7501 10.856C51.4995 10.616 51.2968 10.3173 51.1421 9.96C50.9928 9.59733 50.9181 9.152 50.9181 8.624C50.9181 8.20267 51.0008 7.792 51.1661 7.392C51.3368 6.992 51.5821 6.63733 51.9021 6.328C52.2221 6.01867 52.6168 5.77067 53.0861 5.584C53.5555 5.39733 54.0941 5.304 54.7021 5.304C55.3848 5.304 56.0141 5.41067 56.5901 5.624C57.1661 5.83733 57.6568 6.136 58.0621 6.52L57.5261 7.536ZM65.0921 11.952C65.0921 11.696 65.0548 11.456 64.9801 11.232C64.9108 11.0027 64.8041 10.8027 64.6601 10.632C64.5161 10.4613 64.3321 10.328 64.1081 10.232C63.8895 10.1307 63.6335 10.08 63.3401 10.08C62.7695 10.08 62.3188 10.2427 61.9881 10.568C61.6628 10.8933 61.4548 11.3547 61.3641 11.952H65.0921ZM61.3241 13.144C61.3561 13.5653 61.4308 13.9307 61.5481 14.24C61.6655 14.544 61.8201 14.7973 62.0121 15C62.2041 15.1973 62.4308 15.3467 62.6921 15.448C62.9588 15.544 63.2521 15.592 63.5721 15.592C63.8921 15.592 64.1668 15.5547 64.3961 15.48C64.6308 15.4053 64.8335 15.3227 65.0041 15.232C65.1801 15.1413 65.3321 15.0587 65.4601 14.984C65.5935 14.9093 65.7215 14.872 65.8441 14.872C66.0095 14.872 66.1321 14.9333 66.2121 15.056L66.7801 15.776C66.5615 16.032 66.3161 16.248 66.0441 16.424C65.7721 16.5947 65.4868 16.7333 65.1881 16.84C64.8948 16.9413 64.5935 17.0133 64.2841 17.056C63.9801 17.0987 63.6841 17.12 63.3961 17.12C62.8255 17.12 62.2948 17.0267 61.8041 16.84C61.3135 16.648 60.8868 16.368 60.5241 16C60.1615 15.6267 59.8761 15.168 59.6681 14.624C59.4601 14.0747 59.3561 13.44 59.3561 12.72C59.3561 12.16 59.4468 11.6347 59.6281 11.144C59.8095 10.648 60.0681 10.2187 60.4041 9.856C60.7455 9.488 61.1588 9.19733 61.6441 8.984C62.1348 8.77067 62.6868 8.664 63.3001 8.664C63.8175 8.664 64.2948 8.74667 64.7321 8.912C65.1695 9.07733 65.5455 9.32 65.8601 9.64C66.1748 9.95467 66.4201 10.344 66.5961 10.808C66.7775 11.2667 66.8681 11.792 66.8681 12.384C66.8681 12.6827 66.8361 12.8853 66.7721 12.992C66.7081 13.0933 66.5855 13.144 66.4041 13.144H61.3241ZM74.231 10.528C74.1723 10.6027 74.1137 10.6613 74.055 10.704C74.0017 10.7467 73.9217 10.768 73.815 10.768C73.7137 10.768 73.615 10.7387 73.519 10.68C73.423 10.616 73.3083 10.5467 73.175 10.472C73.0417 10.392 72.8817 10.3227 72.695 10.264C72.5137 10.2 72.287 10.168 72.015 10.168C71.6683 10.168 71.3643 10.232 71.103 10.36C70.8417 10.4827 70.623 10.6613 70.447 10.896C70.2763 11.1307 70.1483 11.416 70.063 11.752C69.9777 12.0827 69.935 12.4587 69.935 12.88C69.935 13.3173 69.9803 13.7067 70.071 14.048C70.167 14.3893 70.303 14.6773 70.479 14.912C70.655 15.1413 70.8683 15.3173 71.119 15.44C71.3697 15.5573 71.6523 15.616 71.967 15.616C72.2817 15.616 72.535 15.5787 72.727 15.504C72.9243 15.424 73.0897 15.3387 73.223 15.248C73.3563 15.152 73.471 15.0667 73.567 14.992C73.6683 14.912 73.7803 14.872 73.903 14.872C74.063 14.872 74.183 14.9333 74.263 15.056L74.831 15.776C74.6123 16.032 74.375 16.248 74.119 16.424C73.863 16.5947 73.5963 16.7333 73.319 16.84C73.047 16.9413 72.7643 17.0133 72.471 17.056C72.183 17.0987 71.895 17.12 71.607 17.12C71.1003 17.12 70.623 17.0267 70.175 16.84C69.727 16.648 69.335 16.3707 68.999 16.008C68.663 15.6453 68.3963 15.2027 68.199 14.68C68.007 14.152 67.911 13.552 67.911 12.88C67.911 12.2773 67.9963 11.72 68.167 11.208C68.343 10.6907 68.599 10.2453 68.935 9.872C69.271 9.49333 69.687 9.19733 70.183 8.984C70.679 8.77067 71.2497 8.664 71.895 8.664C72.5083 8.664 73.0443 8.76267 73.503 8.96C73.967 9.15733 74.383 9.44 74.751 9.808L74.231 10.528ZM83.1418 8.792V17H81.9338C81.6724 17 81.5071 16.88 81.4378 16.64L81.3018 15.984C80.9658 16.3253 80.5951 16.6027 80.1898 16.816C79.7844 17.024 79.3071 17.128 78.7578 17.128C78.3098 17.128 77.9124 17.0533 77.5658 16.904C77.2244 16.7493 76.9364 16.5333 76.7018 16.256C76.4671 15.9787 76.2884 15.6507 76.1658 15.272C76.0484 14.888 75.9898 14.4667 75.9898 14.008V8.792H77.9658V14.008C77.9658 14.5093 78.0804 14.8987 78.3098 15.176C78.5444 15.448 78.8938 15.584 79.3578 15.584C79.6991 15.584 80.0191 15.5093 80.3178 15.36C80.6164 15.2053 80.8991 14.9947 81.1658 14.728V8.792H83.1418ZM86.965 10.216C87.221 9.72533 87.525 9.34133 87.877 9.064C88.229 8.78133 88.645 8.64 89.125 8.64C89.5037 8.64 89.8077 8.72267 90.037 8.888L89.909 10.368C89.8823 10.464 89.8423 10.5333 89.789 10.576C89.741 10.6133 89.6743 10.632 89.589 10.632C89.509 10.632 89.389 10.6187 89.229 10.592C89.0743 10.5653 88.9223 10.552 88.773 10.552C88.5543 10.552 88.3597 10.584 88.189 10.648C88.0183 10.712 87.8637 10.8053 87.725 10.928C87.5917 11.0453 87.4717 11.1893 87.365 11.36C87.2637 11.5307 87.1677 11.7253 87.077 11.944V17H85.101V8.792H86.261C86.4637 8.792 86.605 8.82933 86.685 8.904C86.765 8.97333 86.8183 9.10133 86.845 9.288L86.965 10.216ZM96.1234 11.952C96.1234 11.696 96.086 11.456 96.0114 11.232C95.942 11.0027 95.8354 10.8027 95.6914 10.632C95.5474 10.4613 95.3634 10.328 95.1394 10.232C94.9207 10.1307 94.6647 10.08 94.3714 10.08C93.8007 10.08 93.35 10.2427 93.0194 10.568C92.694 10.8933 92.486 11.3547 92.3954 11.952H96.1234ZM92.3554 13.144C92.3874 13.5653 92.462 13.9307 92.5794 14.24C92.6967 14.544 92.8514 14.7973 93.0434 15C93.2354 15.1973 93.462 15.3467 93.7234 15.448C93.99 15.544 94.2834 15.592 94.6034 15.592C94.9234 15.592 95.198 15.5547 95.4274 15.48C95.662 15.4053 95.8647 15.3227 96.0354 15.232C96.2114 15.1413 96.3634 15.0587 96.4914 14.984C96.6247 14.9093 96.7527 14.872 96.8754 14.872C97.0407 14.872 97.1634 14.9333 97.2434 15.056L97.8114 15.776C97.5927 16.032 97.3474 16.248 97.0754 16.424C96.8034 16.5947 96.518 16.7333 96.2194 16.84C95.926 16.9413 95.6247 17.0133 95.3154 17.056C95.0114 17.0987 94.7154 17.12 94.4274 17.12C93.8567 17.12 93.326 17.0267 92.8354 16.84C92.3447 16.648 91.918 16.368 91.5554 16C91.1927 15.6267 90.9074 15.168 90.6994 14.624C90.4914 14.0747 90.3874 13.44 90.3874 12.72C90.3874 12.16 90.478 11.6347 90.6594 11.144C90.8407 10.648 91.0994 10.2187 91.4354 9.856C91.7767 9.488 92.19 9.19733 92.6754 8.984C93.166 8.77067 93.718 8.664 94.3314 8.664C94.8487 8.664 95.326 8.74667 95.7634 8.912C96.2007 9.07733 96.5767 9.32 96.8914 9.64C97.206 9.95467 97.4514 10.344 97.6274 10.808C97.8087 11.2667 97.8994 11.792 97.8994 12.384C97.8994 12.6827 97.8674 12.8853 97.8034 12.992C97.7394 13.0933 97.6167 13.144 97.4354 13.144H92.3554Z" fill="#2AA93F"/>
<path d="M9.512 33.632C9.59733 33.632 9.672 33.6667 9.736 33.736L10.352 34.4C9.88267 34.944 9.312 35.368 8.64 35.672C7.97333 35.976 7.16533 36.128 6.216 36.128C5.39467 36.128 4.648 35.9867 3.976 35.704C3.304 35.416 2.73067 35.016 2.256 34.504C1.78133 33.9867 1.41333 33.368 1.152 32.648C0.890667 31.928 0.76 31.136 0.76 30.272C0.76 29.408 0.896 28.616 1.168 27.896C1.44 27.176 1.82133 26.5573 2.312 26.04C2.808 25.5227 3.4 25.1227 4.088 24.84C4.776 24.552 5.536 24.408 6.368 24.408C7.184 24.408 7.904 24.5387 8.528 24.8C9.152 25.0613 9.70133 25.416 10.176 25.864L9.664 26.576C9.632 26.6293 9.58933 26.6747 9.536 26.712C9.488 26.744 9.42133 26.76 9.336 26.76C9.24 26.76 9.12267 26.7093 8.984 26.608C8.84533 26.5013 8.664 26.384 8.44 26.256C8.216 26.128 7.936 26.0133 7.6 25.912C7.264 25.8053 6.85067 25.752 6.36 25.752C5.768 25.752 5.22667 25.856 4.736 26.064C4.24533 26.2667 3.82133 26.5627 3.464 26.952C3.112 27.3413 2.83733 27.816 2.64 28.376C2.44267 28.936 2.344 29.568 2.344 30.272C2.344 30.9867 2.44533 31.624 2.648 32.184C2.856 32.744 3.136 33.2187 3.488 33.608C3.84533 33.992 4.264 34.2853 4.744 34.488C5.22933 34.6907 5.752 34.792 6.312 34.792C6.65333 34.792 6.96 34.7733 7.232 34.736C7.50933 34.6933 7.76267 34.6293 7.992 34.544C8.22667 34.4587 8.44267 34.352 8.64 34.224C8.84267 34.0907 9.04267 33.9333 9.24 33.752C9.33067 33.672 9.42133 33.632 9.512 33.632ZM22.7195 24.536V36H21.1675V30.784H14.9835V36H13.4315V24.536H14.9835V29.648H21.1675V24.536H22.7195ZM34.0022 34.736L33.9943 36H26.9302V24.536H33.9943V25.8H28.4822V29.608H32.9462V30.824H28.4822V34.736H34.0022ZM45.2426 33.632C45.328 33.632 45.4026 33.6667 45.4666 33.736L46.0826 34.4C45.6133 34.944 45.0426 35.368 44.3706 35.672C43.704 35.976 42.896 36.128 41.9466 36.128C41.1253 36.128 40.3786 35.9867 39.7066 35.704C39.0346 35.416 38.4613 35.016 37.9866 34.504C37.512 33.9867 37.144 33.368 36.8826 32.648C36.6213 31.928 36.4906 31.136 36.4906 30.272C36.4906 29.408 36.6266 28.616 36.8986 27.896C37.1706 27.176 37.552 26.5573 38.0426 26.04C38.5386 25.5227 39.1306 25.1227 39.8186 24.84C40.5066 24.552 41.2666 24.408 42.0986 24.408C42.9146 24.408 43.6346 24.5387 44.2586 24.8C44.8826 25.0613 45.432 25.416 45.9066 25.864L45.3946 26.576C45.3626 26.6293 45.32 26.6747 45.2666 26.712C45.2186 26.744 45.152 26.76 45.0666 26.76C44.9706 26.76 44.8533 26.7093 44.7146 26.608C44.576 26.5013 44.3946 26.384 44.1706 26.256C43.9466 26.128 43.6666 26.0133 43.3306 25.912C42.9946 25.8053 42.5813 25.752 42.0906 25.752C41.4986 25.752 40.9573 25.856 40.4666 26.064C39.976 26.2667 39.552 26.5627 39.1946 26.952C38.8426 27.3413 38.568 27.816 38.3706 28.376C38.1733 28.936 38.0746 29.568 38.0746 30.272C38.0746 30.9867 38.176 31.624 38.3786 32.184C38.5866 32.744 38.8666 33.2187 39.2186 33.608C39.576 33.992 39.9946 34.2853 40.4746 34.488C40.96 34.6907 41.4826 34.792 42.0426 34.792C42.384 34.792 42.6906 34.7733 42.9626 34.736C43.24 34.6933 43.4933 34.6293 43.7226 34.544C43.9573 34.4587 44.1733 34.352 44.3706 34.224C44.5733 34.0907 44.7733 33.9333 44.9706 33.752C45.0613 33.672 45.152 33.632 45.2426 33.632ZM50.7061 29.56H51.2901C51.4928 29.56 51.6555 29.536 51.7781 29.488C51.9008 29.4347 52.0128 29.3467 52.1141 29.224L55.9301 24.904C56.0368 24.7653 56.1488 24.6693 56.2661 24.616C56.3835 24.5627 56.5275 24.536 56.6981 24.536H58.0101L53.6421 29.472C53.5355 29.6 53.4315 29.7067 53.3301 29.792C53.2341 29.872 53.1301 29.9387 53.0181 29.992C53.1621 30.04 53.2928 30.112 53.4101 30.208C53.5275 30.2987 53.6421 30.4187 53.7541 30.568L58.3141 36H56.9701C56.8688 36 56.7808 35.9947 56.7061 35.984C56.6368 35.968 56.5755 35.9467 56.5221 35.92C56.4688 35.888 56.4208 35.8533 56.3781 35.816C56.3408 35.7733 56.3035 35.7253 56.2661 35.672L52.3141 31.12C52.2075 30.9867 52.0928 30.8933 51.9701 30.84C51.8475 30.7813 51.6608 30.752 51.4101 30.752H50.7061V36H49.1621V24.536H50.7061V29.56ZM70.9404 30.272C70.9404 31.1307 70.8044 31.92 70.5324 32.64C70.2604 33.3547 69.8764 33.9707 69.3804 34.488C68.8844 35.0053 68.287 35.408 67.5884 35.696C66.895 35.9787 66.127 36.12 65.2844 36.12C64.4417 36.12 63.6737 35.9787 62.9804 35.696C62.287 35.408 61.6924 35.0053 61.1964 34.488C60.7004 33.9707 60.3164 33.3547 60.0444 32.64C59.7724 31.92 59.6364 31.1307 59.6364 30.272C59.6364 29.4133 59.7724 28.6267 60.0444 27.912C60.3164 27.192 60.7004 26.5733 61.1964 26.056C61.6924 25.5333 62.287 25.128 62.9804 24.84C63.6737 24.552 64.4417 24.408 65.2844 24.408C66.127 24.408 66.895 24.552 67.5884 24.84C68.287 25.128 68.8844 25.5333 69.3804 26.056C69.8764 26.5733 70.2604 27.192 70.5324 27.912C70.8044 28.6267 70.9404 29.4133 70.9404 30.272ZM69.3484 30.272C69.3484 29.568 69.2524 28.936 69.0604 28.376C68.8684 27.816 68.5964 27.344 68.2444 26.96C67.8924 26.5707 67.4657 26.272 66.9644 26.064C66.463 25.856 65.903 25.752 65.2844 25.752C64.671 25.752 64.1137 25.856 63.6124 26.064C63.111 26.272 62.6817 26.5707 62.3244 26.96C61.9724 27.344 61.7004 27.816 61.5084 28.376C61.3164 28.936 61.2204 29.568 61.2204 30.272C61.2204 30.976 61.3164 31.608 61.5084 32.168C61.7004 32.7227 61.9724 33.1947 62.3244 33.584C62.6817 33.968 63.111 34.264 63.6124 34.472C64.1137 34.6747 64.671 34.776 65.2844 34.776C65.903 34.776 66.463 34.6747 66.9644 34.472C67.4657 34.264 67.8924 33.968 68.2444 33.584C68.5964 33.1947 68.8684 32.7227 69.0604 32.168C69.2524 31.608 69.3484 30.976 69.3484 30.272ZM78.8649 34.768C79.3395 34.768 79.7635 34.688 80.1369 34.528C80.5102 34.368 80.8249 34.144 81.0809 33.856C81.3422 33.568 81.5395 33.224 81.6729 32.824C81.8115 32.424 81.8809 31.984 81.8809 31.504V24.536H83.4249V31.504C83.4249 32.1653 83.3182 32.7787 83.1049 33.344C82.8969 33.9093 82.5955 34.4 82.2009 34.816C81.8115 35.2267 81.3342 35.5493 80.7689 35.784C80.2035 36.0187 79.5689 36.136 78.8649 36.136C78.1609 36.136 77.5262 36.0187 76.9609 35.784C76.3955 35.5493 75.9155 35.2267 75.5209 34.816C75.1262 34.4 74.8222 33.9093 74.6089 33.344C74.4009 32.7787 74.2969 32.1653 74.2969 31.504V24.536H75.8409V31.496C75.8409 31.976 75.9075 32.416 76.0409 32.816C76.1795 33.216 76.3769 33.56 76.6329 33.848C76.8942 34.136 77.2115 34.3627 77.5849 34.528C77.9635 34.688 78.3902 34.768 78.8649 34.768ZM95.2385 25.84H91.5265V36H89.9825V25.84H86.2625V24.536H95.2385V25.84Z" fill="#313131"/>
</svg>
