<svg width="19" height="19" viewBox="0 0 19 19" fill="none" xmlns="http://www.w3.org/2000/svg">
<g clip-path="url(#clip0_2542_11071)">
<path d="M9.01996 1.592C7.52596 1.592 6.36546 1.046 5.83496 0.5V8.146H12.2055V0.5C11.6745 1.046 10.526 1.592 9.01996 1.592Z" fill="#994308"/>
<path d="M14.4809 4.479V2.084C14.4809 1.5425 14.1439 1.071 13.6634 0.9395L12.0539 0.5L9.02037 7.7945L5.98687 0.5L4.37737 0.9395C3.89687 1.071 3.55987 1.543 3.55987 2.084V4.4785C3.55987 6.31 2.20187 7.7945 0.526367 7.7945V17.3125C0.526367 17.9155 1.00187 18.405 1.58787 18.405H7.50337C8.34087 18.405 9.02037 17.6625 9.02037 16.747C9.02037 17.6625 9.69937 18.405 10.5374 18.405H16.4529C17.0394 18.405 17.5149 17.916 17.5149 17.3125V7.7945C15.8389 7.7945 14.4809 6.31 14.4809 4.479Z" fill="#EB7421"/>
<path d="M0.526367 15H9.02037V16.5H0.526367V15ZM17.5144 16.5H9.02037V15H17.5144V16.5ZM0.526367 11.5H9.02037V13H0.526367V11.5ZM17.5144 13H9.02037V11.5H17.5144V13Z" fill="#FCFB65"/>
<path d="M6.02637 12V0.595L5.98687 0.5L4.52637 0.899V12H6.02637ZM13.5264 12V0.9025L12.0539 0.5L12.0264 0.5665V12H13.5264Z" fill="#FCFB65"/>
<path d="M8.48926 6V17.9975C8.65839 17.8363 8.79275 17.6422 8.88407 17.4272C8.97539 17.2121 9.02173 16.9806 9.02026 16.747C9.02026 17.2365 9.21776 17.6715 9.52626 17.975V6H8.48926Z" fill="#994308"/>
</g>
<defs>
<clipPath id="clip0_2542_11071">
<rect width="18" height="18" fill="white" transform="translate(0.0263672 0.5)"/>
</clipPath>
</defs>
</svg>
