<svg width="17" height="21" viewBox="0 0 17 21" fill="none" xmlns="http://www.w3.org/2000/svg">
<path d="M16.6575 2.6909L8.84923 0.0479295C8.75502 0.0159765 8.62863 0 8.50225 0C8.37586 0 8.24948 0.0159765 8.15526 0.0479295L0.346984 2.6909C0.156258 2.75481 0 2.97392 0 3.17476V14.1849C0 14.3857 0.130981 14.6505 0.289536 14.776L8.21041 20.9064C8.29084 20.968 8.39425 21 8.49995 21C8.60565 21 8.71136 20.968 8.78949 20.9064L16.7104 14.776C16.8689 14.6528 16.9999 14.388 16.9999 14.1849V3.17476C17.0045 2.97392 16.8482 2.75709 16.6575 2.6909ZM12.6959 6.58918L7.81058 13.2696C7.77623 13.3163 7.73128 13.3543 7.67937 13.3805C7.62747 13.4067 7.57007 13.4203 7.51185 13.4203C7.45363 13.4203 7.39624 13.4067 7.34433 13.3805C7.29242 13.3543 7.24747 13.3163 7.21312 13.2696L4.30857 9.29834C4.22125 9.17737 4.30857 9.00848 4.45794 9.00848H5.72638C5.84357 9.00848 5.95617 9.06554 6.02511 9.15911L7.51185 11.1904L10.9794 6.44767C11.0483 6.35409 11.1586 6.29703 11.2781 6.29703H12.5466C12.6959 6.29932 12.7832 6.46821 12.6959 6.58918Z" fill="url(#paint0_linear_2542_19856)"/>
<defs>
<linearGradient id="paint0_linear_2542_19856" x1="8.5" y1="0" x2="8.5" y2="21" gradientUnits="userSpaceOnUse">
<stop stop-color="#E0ACFF"/>
<stop offset="1" stop-color="#8C2CAE"/>
</linearGradient>
</defs>
</svg>
