<svg width="16" height="15" viewBox="0 0 16 15" fill="none" xmlns="http://www.w3.org/2000/svg">
<path d="M9.00309 0.558555C9.10021 0.511106 9.20871 0.491897 9.31622 0.503117C9.42373 0.514337 9.52592 0.555535 9.61115 0.622015L14.8033 4.66039C14.8703 4.71238 14.9249 4.77848 14.9634 4.85398C15.0019 4.92949 15.0233 5.01255 15.0261 5.09726C15.0288 5.18197 15.0129 5.26624 14.9794 5.34409C14.9459 5.42194 14.8956 5.49145 14.8322 5.54768L9.64 10.163C9.55685 10.2368 9.45413 10.285 9.3442 10.3019C9.23427 10.3187 9.12183 10.3034 9.0204 10.2578C8.91897 10.2122 8.83288 10.1382 8.77249 10.0449C8.7121 9.95148 8.67999 9.84263 8.68002 9.73143V7.4884C8.40772 7.53455 8.05234 7.61532 7.63697 7.75378C6.62968 8.0907 5.26702 8.76799 3.89628 10.1399C3.81241 10.2241 3.70459 10.2803 3.58755 10.3009C3.47051 10.3215 3.34997 10.3054 3.24239 10.2549C3.13482 10.2044 3.04547 10.1219 2.98655 10.0187C2.92764 9.91554 2.90203 9.79666 2.91323 9.67835C3.07822 7.8657 3.60667 6.54342 4.3255 5.59037C4.94247 4.76776 5.78091 4.13783 6.74276 3.77425C7.36311 3.53913 8.01719 3.40512 8.68002 3.37734V1.07777C8.6798 0.96965 8.70998 0.863641 8.7671 0.771837C8.82422 0.680033 8.90599 0.60613 9.00309 0.558555ZM0.0263672 4.53924C0.0263672 3.77421 0.330274 3.04051 0.871233 2.49955C1.41219 1.95859 2.14589 1.65468 2.91092 1.65468H5.21856C5.37157 1.65468 5.5183 1.71547 5.6265 1.82366C5.73469 1.93185 5.79547 2.07859 5.79547 2.23159C5.79547 2.3846 5.73469 2.53134 5.6265 2.63953C5.5183 2.74772 5.37157 2.80851 5.21856 2.80851H2.91092C2.4519 2.80851 2.01168 2.99085 1.68711 3.31542C1.36253 3.64 1.18019 4.08022 1.18019 4.53924V11.4622C1.18019 11.9212 1.36253 12.3614 1.68711 12.686C2.01168 13.0105 2.4519 13.1929 2.91092 13.1929H9.83384C10.2929 13.1929 10.7331 13.0105 11.0577 12.686C11.3822 12.3614 11.5646 11.9212 11.5646 11.4622V10.3083C11.5646 10.1553 11.6254 10.0086 11.7335 9.9004C11.8417 9.79221 11.9885 9.73143 12.1415 9.73143C12.2945 9.73143 12.4412 9.79221 12.5494 9.9004C12.6576 10.0086 12.7184 10.1553 12.7184 10.3083V11.4622C12.7184 12.2272 12.4145 12.9609 11.8735 13.5018C11.3326 14.0428 10.5989 14.3467 9.83384 14.3467H2.91092C2.14589 14.3467 1.41219 14.0428 0.871233 13.5018C0.330274 12.9609 0.0263672 12.2272 0.0263672 11.4622V4.53924Z" fill="#FF971E"/>
</svg>
