<svg width="12" height="14" viewBox="0 0 12 14" fill="none" xmlns="http://www.w3.org/2000/svg">
<path fill-rule="evenodd" clip-rule="evenodd" d="M6 0C5.40857 0 4.42029 0.227143 3.49029 0.48C2.53886 0.737142 1.57972 1.04143 1.01572 1.22571C0.779911 1.30359 0.570853 1.4464 0.412562 1.63774C0.25427 1.82909 0.153165 2.0612 0.120862 2.30743C-0.389995 6.14485 0.795432 8.98885 2.23372 10.8703C2.84364 11.6751 3.57088 12.3838 4.39114 12.9728C4.722 13.2068 5.02886 13.386 5.28943 13.5086C5.52943 13.6217 5.78743 13.7143 6 13.7143C6.21257 13.7143 6.46971 13.6217 6.71057 13.5086C7.0247 13.3559 7.32522 13.1767 7.60886 12.9728C8.42913 12.3839 9.15638 11.6751 9.76628 10.8703C11.2046 8.98885 12.39 6.14485 11.8791 2.30743C11.8469 2.06108 11.7458 1.82883 11.5875 1.63734C11.4292 1.44585 11.2202 1.30288 10.9843 1.22486C10.1655 0.956411 9.34045 0.707767 8.50971 0.479143C7.57971 0.228 6.59143 0 6 0ZM6 4.28571C6.30363 4.28526 6.59763 4.39228 6.82992 4.58782C7.0622 4.78336 7.21779 5.0548 7.26912 5.35406C7.32045 5.65333 7.26422 5.9611 7.11037 6.22287C6.95652 6.48464 6.715 6.68352 6.42857 6.78428L6.75857 8.48999C6.77058 8.55203 6.76872 8.61596 6.75312 8.6772C6.73752 8.73843 6.70858 8.79546 6.66836 8.8442C6.62814 8.89294 6.57764 8.93218 6.52048 8.95911C6.46332 8.98605 6.4009 9.00001 6.33771 8.99999H5.66229C5.59917 8.99988 5.53685 8.98583 5.4798 8.95884C5.42274 8.93185 5.37235 8.89259 5.33222 8.84387C5.2921 8.79515 5.26323 8.73816 5.24768 8.67699C5.23214 8.61581 5.23029 8.55196 5.24229 8.48999L5.57143 6.78428C5.285 6.68352 5.04348 6.48464 4.88963 6.22287C4.73578 5.9611 4.67955 5.65333 4.73088 5.35406C4.78221 5.0548 4.9378 4.78336 5.17008 4.58782C5.40237 4.39228 5.69637 4.28526 6 4.28571Z" fill="#A6A6A6"/>
</svg>
