<svg width="14" height="14" viewBox="0 0 14 14" fill="none" xmlns="http://www.w3.org/2000/svg">
<path d="M0.05 7C0.05 3.16781 3.16781 0.05 7 0.05C10.8322 0.05 13.95 3.16781 13.95 7C13.95 10.8322 10.8322 13.95 7 13.95C3.16781 13.95 0.05 10.8322 0.05 7ZM1.35 7C1.35 10.1153 3.88469 12.65 7 12.65C10.1153 12.65 12.65 10.1153 12.65 7C12.65 3.88469 10.1153 1.35 7 1.35C3.88469 1.35 1.35 3.88469 1.35 7Z" fill="#B3B3B3" stroke="#B3B3B3" stroke-width="0.1"/>
<path d="M7.6498 6.3V6.35H7.6998H10.4498V7.65H6.3498V3.55H7.6498V6.3Z" fill="#B3B3B3" stroke="#B3B3B3" stroke-width="0.1"/>
</svg>
