<svg width="120" height="120" viewBox="0 0 120 120" fill="none" xmlns="http://www.w3.org/2000/svg">
<circle cx="60" cy="60" r="60" fill="#FF6924" fill-opacity="0.15"/>
<circle cx="60" cy="60" r="40" fill="#FF6924"/>
<path d="M55 75.025C55 74.3684 55.1293 73.7182 55.3806 73.1116C55.6319 72.505 56.0002 71.9538 56.4645 71.4895C56.9288 71.0252 57.48 70.6569 58.0866 70.4056C58.6932 70.1543 59.3434 70.025 60 70.025C60.6566 70.025 61.3068 70.1543 61.9134 70.4056C62.52 70.6569 63.0712 71.0252 63.5355 71.4895C63.9998 71.9538 64.3681 72.505 64.6194 73.1116C64.8707 73.7182 65 74.3684 65 75.025C65 76.3511 64.4732 77.6229 63.5355 78.5605C62.5979 79.4982 61.3261 80.025 60 80.025C58.6739 80.025 57.4021 79.4982 56.4645 78.5605C55.5268 77.6229 55 76.3511 55 75.025ZM55.49 45C55.4234 44.3692 55.4902 43.7315 55.686 43.1281C55.8818 42.5248 56.2023 41.9694 56.6266 41.4979C57.0509 41.0265 57.5696 40.6495 58.1491 40.3914C58.7285 40.1334 59.3557 40 59.99 40C60.6243 40 61.2515 40.1334 61.8309 40.3914C62.4104 40.6495 62.9291 41.0265 63.3534 41.4979C63.7777 41.9694 64.0982 42.5248 64.294 43.1281C64.4898 43.7315 64.5566 44.3692 64.49 45L62.74 62.535C62.6689 63.2148 62.3485 63.8442 61.8407 64.3017C61.3328 64.7592 60.6735 65.0124 59.99 65.0124C59.3065 65.0124 58.6472 64.7592 58.1393 64.3017C57.6315 63.8442 57.3111 63.2148 57.24 62.535L55.49 45Z" fill="white"/>
</svg>
