<svg width="16" height="16" viewBox="0 0 16 16" fill="none" xmlns="http://www.w3.org/2000/svg">
<path d="M7.10511 5.13725V8.42559C7.10511 8.73834 7.27411 9.03322 7.54096 9.19406L10.3162 10.8472C10.6364 11.0348 11.0455 10.9276 11.2323 10.6148C11.4191 10.2931 11.3213 9.88211 11.0011 9.69446L8.44824 8.16645V5.12831C8.43934 4.77089 8.13691 4.46707 7.77222 4.46707C7.40753 4.46707 7.10511 4.77089 7.10511 5.13725ZM16 5.80743V1.08044C16 0.678337 15.5197 0.481751 15.2439 0.767694L13.6606 2.35825C12.8274 1.52117 11.8207 0.878966 10.7122 0.477394C9.6037 0.0758225 8.42068 -0.0752402 7.24742 0.0349666C3.52046 0.374523 0.451725 3.38585 0.0425603 7.12991C-0.173726 9.22924 0.440147 11.3298 1.75175 12.9786C3.06335 14.6273 4.96755 15.692 7.05355 15.9429C9.13955 16.1939 11.2402 15.611 12.9022 14.32C14.5642 13.029 15.6545 11.1334 15.9377 9.04215C16 8.50601 15.5819 8.04135 15.0482 8.04135C14.6035 8.04135 14.2299 8.37197 14.1765 8.80982C13.7941 11.9284 11.1167 14.341 7.90565 14.2963C4.60564 14.2517 1.82154 11.4548 1.76817 8.13071C1.7148 4.64579 4.53448 1.78636 7.9946 1.78636C9.71131 1.78636 11.2679 2.49228 12.3976 3.61818L10.5385 5.48574C10.2539 5.77169 10.4496 6.25421 10.8499 6.25421H15.5553C15.8043 6.25421 16 6.05763 16 5.80743Z" fill="#EE8944"/>
</svg>
