<svg width="40" height="30" viewBox="0 0 40 30" fill="none" xmlns="http://www.w3.org/2000/svg">
<path d="M33.7823 0.95646C34.4735 0.336199 35.3934 -0.0067068 36.3477 9.94157e-05C37.302 0.00690564 38.2163 0.362892 38.8974 0.992941C39.5786 1.62299 39.9735 2.47782 39.9987 3.37706C40.0239 4.27629 39.6776 5.1496 39.0326 5.81269L19.4543 28.8914C19.1176 29.2331 18.7113 29.5074 18.2596 29.6978C17.8079 29.8882 17.3201 29.9908 16.8254 29.9994C16.3307 30.008 15.8392 29.9226 15.3804 29.7481C14.9215 29.5736 14.5047 29.3137 14.1549 28.9839L1.17131 16.7462C0.809738 16.4286 0.519732 16.0456 0.31859 15.6202C0.117448 15.1947 0.00929116 14.7353 0.000572728 14.2696C-0.00814571 13.8038 0.0827533 13.3412 0.267845 12.9093C0.452937 12.4774 0.728431 12.085 1.07789 11.7556C1.42735 11.4262 1.84362 11.1666 2.30186 10.9921C2.7601 10.8176 3.25093 10.732 3.74507 10.7402C4.2392 10.7484 4.72652 10.8504 5.17795 11.0399C5.62938 11.2295 6.03567 11.5029 6.37258 11.8437L16.6476 21.5238L33.6891 1.05821C33.7198 1.0226 33.7525 0.988632 33.7872 0.95646H33.7823Z" fill="white"/>
</svg>
