<svg width="12" height="10" viewBox="0 0 12 10" fill="none" xmlns="http://www.w3.org/2000/svg">
<path d="M11 8.27273C11 8.51383 10.9042 8.74506 10.7337 8.91555C10.5632 9.08604 10.332 9.18182 10.0909 9.18182H1.90909C1.66799 9.18182 1.43675 9.08604 1.26627 8.91555C1.09578 8.74506 1 8.51383 1 8.27273V3.27273C1 3.03162 1.09578 2.80039 1.26627 2.6299C1.43675 2.45942 1.66799 2.36364 1.90909 2.36364H3.72727L4.63636 1H7.36364L8.27273 2.36364H10.0909C10.332 2.36364 10.5632 2.45942 10.7337 2.6299C10.9042 2.80039 11 3.03162 11 3.27273V8.27273Z" stroke="white" stroke-width="1.3" stroke-linecap="round" stroke-linejoin="round"/>
<path d="M5.99982 7.36488C7.00398 7.36488 7.818 6.55085 7.818 5.5467C7.818 4.54254 7.00398 3.72852 5.99982 3.72852C4.99567 3.72852 4.18164 4.54254 4.18164 5.5467C4.18164 6.55085 4.99567 7.36488 5.99982 7.36488Z" stroke="white" stroke-width="1.3" stroke-linecap="round" stroke-linejoin="round"/>
</svg>
