<svg width="12" height="12" viewBox="0 0 12 12" fill="none" xmlns="http://www.w3.org/2000/svg">
<path d="M7.32418 8.46963L7.32407 8.46965C7.14235 8.50851 6.93224 8.52768 6.69643 8.52768C6.07479 8.52768 5.55256 8.36114 5.16062 8.05034C4.77806 7.74697 4.52337 7.30912 4.4203 6.76429H4.125C4.04828 6.76429 3.98571 6.70172 3.98571 6.625V6.32143C3.98571 6.24471 4.04828 6.18214 4.125 6.18214H4.36629V5.82031V5.81931C4.36629 5.78888 4.36629 5.75801 4.36716 5.72746H4.125C4.04828 5.72746 3.98571 5.66489 3.98571 5.58817V5.2846C3.98571 5.20788 4.04828 5.14531 4.125 5.14531H4.4396C4.55621 4.62768 4.81506 4.2123 5.19382 3.92474C5.58193 3.63008 6.09232 3.47232 6.69643 3.47232C6.93262 3.47232 7.14277 3.49378 7.32437 3.53376C7.38846 3.5477 7.43393 3.60364 7.43393 3.66964V4.14732V4.14756C7.43383 4.16816 7.42916 4.18848 7.42027 4.20706C7.41137 4.22563 7.39846 4.24201 7.38248 4.255C7.36649 4.26798 7.34782 4.27727 7.32782 4.28217L7.32418 8.46963ZM7.32418 8.46963C7.38746 8.45595 7.43504 8.4007 7.43504 8.33371V7.85603C7.43504 7.7691 7.3553 7.70261 7.26938 7.71991M7.32418 8.46963L4.46205 6.71429C4.65402 7.82143 5.47098 8.47768 6.69643 8.47768C6.92969 8.47768 7.13616 8.45871 7.31362 8.42076C7.35491 8.41183 7.38504 8.37612 7.38504 8.33371V7.85603C7.38504 7.80022 7.33371 7.75781 7.27902 7.76897M7.27902 7.76897L7.26966 7.71986C7.26957 7.71987 7.26947 7.71989 7.26938 7.71991M7.27902 7.76897C7.11496 7.80022 6.92299 7.81473 6.70089 7.81473C5.95498 7.81473 5.44812 7.42588 5.2653 6.76429L7.27902 7.76897ZM7.26938 7.71991C7.10943 7.75035 6.92089 7.76473 6.70089 7.76473C6.32769 7.76473 6.01946 7.66514 5.78439 7.48436C5.564 7.31487 5.40471 7.07156 5.31723 6.76429M7.26938 7.71991L5.31723 6.76429M5.31723 6.76429H6.70982C6.78654 6.76429 6.84911 6.70172 6.84911 6.625V6.32143C6.84911 6.24471 6.78654 6.18214 6.70982 6.18214H5.2375V5.83036C5.2375 5.79456 5.23751 5.75973 5.23852 5.72634H6.70759C6.78431 5.72634 6.84688 5.66377 6.84688 5.58705V5.28348C6.84688 5.20676 6.78431 5.1442 6.70759 5.1442H5.34444C5.44079 4.86647 5.60094 4.64619 5.81556 4.49222C6.04664 4.32643 6.34404 4.23527 6.69978 4.23527C6.91944 4.23527 7.10798 4.25183 7.26692 4.28339L5.31723 6.76429ZM6 0.95C3.21123 0.95 0.95 3.21123 0.95 6C0.95 8.78877 3.21123 11.05 6 11.05C8.78877 11.05 11.05 8.78877 11.05 6C11.05 3.21123 8.78877 0.95 6 0.95ZM6 10.1018C3.7352 10.1018 1.89821 8.2648 1.89821 6C1.89821 3.7352 3.7352 1.89821 6 1.89821C8.2648 1.89821 10.1018 3.7352 10.1018 6C10.1018 8.2648 8.2648 10.1018 6 10.1018Z" fill="#999999" stroke="#999999" stroke-width="0.1"/>
</svg>
