<svg width="36" height="36" viewBox="0 0 36 36" fill="none" xmlns="http://www.w3.org/2000/svg">
<rect x="0.25" y="0.25" width="35.5" height="35.5" rx="2.75" fill="#EAF7FF" stroke="#AEE1FF" stroke-width="0.5"/>
<path d="M18 18C20.2094 18 22 16.2094 22 14C22 11.7906 20.2094 10 18 10C15.7906 10 14 11.7906 14 14C14 16.2094 15.7906 18 18 18ZM20.9937 19.0188L19.5 25L18.5 20.75L19.5 19H16.5L17.5 20.75L16.5 25L15.0062 19.0188C12.7781 19.125 11 20.9469 11 23.2V24.5C11 25.3281 11.6719 26 12.5 26H23.5C24.3281 26 25 25.3281 25 24.5V23.2C25 20.9469 23.2219 19.125 20.9937 19.0188Z" fill="#42A4DF"/>
</svg>
