<svg width="36" height="36" viewBox="0 0 36 36" fill="none" xmlns="http://www.w3.org/2000/svg">
<rect x="0.25" y="0.25" width="35.5" height="35.5" rx="2.75" fill="#EAF7FF" stroke="#AEE1FF" stroke-width="0.5"/>
<path d="M19.8023 14.1127L14.6135 19.3015C14.463 19.4469 14.343 19.6207 14.2604 19.813C14.1778 20.0052 14.1343 20.212 14.1325 20.4212C14.1307 20.6304 14.1706 20.8379 14.2498 21.0316C14.329 21.2252 14.446 21.4011 14.594 21.5491C14.7419 21.697 14.9178 21.814 15.1115 21.8933C15.3051 21.9725 15.5126 22.0124 15.7219 22.0105C15.9311 22.0087 16.1378 21.9653 16.3301 21.8827C16.5223 21.8001 16.6962 21.6801 16.8416 21.5296L21.8949 16.3407C22.4689 15.7464 22.7866 14.9503 22.7794 14.124C22.7722 13.2977 22.4408 12.5073 21.8565 11.923C21.2722 11.3387 20.4818 11.0073 19.6555 11.0001C18.8292 10.9929 18.0331 11.3106 17.4387 11.8846L12.3847 17.0727C11.4981 17.9592 11 19.1617 11 20.4155C11 21.6693 11.4981 22.8718 12.3847 23.7584C13.2712 24.645 14.4737 25.1431 15.7275 25.1431C16.9813 25.1431 18.1838 24.645 19.0704 23.7584L24 18.8398" stroke="#42A4DF" stroke-width="2" stroke-linecap="round" stroke-linejoin="round"/>
</svg>
