<svg width="36" height="36" viewBox="0 0 36 36" fill="none" xmlns="http://www.w3.org/2000/svg">
<rect x="0.25" y="0.25" width="35.5" height="35.5" rx="2.75" fill="#EAF7FF" stroke="#AEE1FF" stroke-width="0.5"/>
<path d="M26 13V16C26 16.2813 25.9036 16.5182 25.7109 16.7109C25.5182 16.9036 25.2813 17 25 17H24V24.5C24 24.6354 23.9505 24.7526 23.8516 24.8516C23.7526 24.9505 23.6354 25 23.5 25H22.5C22.3646 25 22.2474 24.9505 22.1484 24.8516C22.0495 24.7526 22 24.6354 22 24.5V21H14V24.5C14 24.6354 13.9505 24.7526 13.8516 24.8516C13.7526 24.9505 13.6354 25 13.5 25H12.5C12.3646 25 12.2474 24.9505 12.1484 24.8516C12.0495 24.7526 12 24.6354 12 24.5V17H11C10.7188 17 10.4818 16.9036 10.2891 16.7109C10.0964 16.5182 10 16.2813 10 16V13C10 12.7188 10.0964 12.4818 10.2891 12.2891C10.4818 12.0964 10.7188 12 11 12H25C25.2813 12 25.5182 12.0964 25.7109 12.2891C25.9036 12.4818 26 12.7188 26 13ZM14 20H22V17H14V20ZM11 13V14L12 13H11ZM11 16H13L16 13H14L11 16ZM18 13L15 16H17L20 13H18ZM22 13L19 16H21L24 13H22ZM25 14L23 16H25V14Z" fill="#42A4DF"/>
</svg>
