<svg width="34" height="34" viewBox="0 0 34 34" fill="none" xmlns="http://www.w3.org/2000/svg">
<rect width="34" height="34" rx="3" fill="#FFF0B6"/>
<path d="M23.1887 14.5164L19.2215 13.9398L17.4481 10.3445C17.3997 10.2461 17.32 10.1664 17.2215 10.118C16.9747 9.9961 16.6747 10.0977 16.5512 10.3445L14.7778 13.9398L10.8106 14.5164C10.7012 14.532 10.6012 14.5836 10.5247 14.6617C10.4321 14.7569 10.3811 14.8849 10.3829 15.0176C10.3846 15.1503 10.439 15.2769 10.534 15.3695L13.4044 18.168L12.7262 22.1195C12.7103 22.2115 12.7205 22.306 12.7556 22.3924C12.7907 22.4789 12.8493 22.5537 12.9248 22.6086C13.0003 22.6634 13.0896 22.696 13.1826 22.7026C13.2757 22.7092 13.3687 22.6897 13.4512 22.6461L16.9997 20.7805L20.5481 22.6461C20.645 22.6977 20.7575 22.7148 20.8653 22.6961C21.1372 22.6492 21.32 22.3914 21.2731 22.1195L20.595 18.168L23.4653 15.3695C23.5434 15.293 23.595 15.193 23.6106 15.0836C23.6528 14.8102 23.4622 14.557 23.1887 14.5164Z" fill="#FF772A"/>
</svg>
