<svg width="34" height="34" viewBox="0 0 34 34" fill="none" xmlns="http://www.w3.org/2000/svg">
<rect width="34" height="34" rx="3" fill="#EAF7FF"/>
<g clip-path="url(#clip0_1788_7)">
<path d="M17.7998 12.2C19.8054 12.5384 21.4614 14.1944 21.7998 16.2H24.9998C24.623 12.4264 21.5734 9.3768 17.7998 9V12.2Z" fill="#42A4DF"/>
<path d="M21.8002 17.8C21.4178 20.0664 19.4146 21.7592 17.041 21.7592C14.3938 21.7592 12.241 19.6064 12.241 16.9592C12.241 14.5856 13.9338 12.5824 16.2002 12.2V9C12.1634 9.4032 9.04102 12.8184 9.04102 16.9592C9.04102 21.3704 12.6298 24.9592 17.041 24.9592C21.1818 24.9592 24.597 21.8368 25.0002 17.8H21.8002Z" fill="#42A4DF"/>
</g>
<defs>
<clipPath id="clip0_1788_7">
<rect width="16" height="16" fill="white" transform="translate(9 9)"/>
</clipPath>
</defs>
</svg>
