<svg width="18" height="18" viewBox="0 0 18 18" fill="none" xmlns="http://www.w3.org/2000/svg">
<rect x="0.5" y="0.5" width="17" height="17" rx="1.5" fill="#47CA5B" stroke="#34BB49"/>
<path d="M8.948 5.00311L9 5C9.10886 5.00001 9.21393 5.03998 9.29528 5.11232C9.37663 5.18466 9.4286 5.28433 9.44133 5.39244L9.44444 5.44444V8.55556H12.5556C12.6644 8.55557 12.7695 8.59554 12.8508 8.66787C12.9322 8.74021 12.9842 8.83989 12.9969 8.948L13 9C13 9.10886 12.96 9.21393 12.8877 9.29528C12.8153 9.37663 12.7157 9.4286 12.6076 9.44133L12.5556 9.44444H9.44444V12.5556C9.44443 12.6644 9.40446 12.7695 9.33213 12.8508C9.25979 12.9322 9.16011 12.9842 9.052 12.9969L9 13C8.89114 13 8.78607 12.96 8.70472 12.8877C8.62337 12.8153 8.5714 12.7157 8.55867 12.6076L8.55556 12.5556V9.44444H5.44444C5.33559 9.44443 5.23052 9.40446 5.14917 9.33213C5.06782 9.25979 5.01585 9.16011 5.00311 9.052L5 9C5.00001 8.89114 5.03998 8.78607 5.11232 8.70472C5.18466 8.62337 5.28433 8.5714 5.39244 8.55867L5.44444 8.55556H8.55556V5.44444C8.55557 5.33559 8.59554 5.23052 8.66787 5.14917C8.74021 5.06782 8.83989 5.01585 8.948 5.00311L9 5L8.948 5.00311Z" fill="white"/>
</svg>
