<svg width="13" height="15" viewBox="0 0 13 15" fill="none" xmlns="http://www.w3.org/2000/svg">
<path d="M4.72754 6.3182V11.0455C4.72754 11.2022 4.7898 11.3525 4.90061 11.4633C5.01143 11.5741 5.16173 11.6364 5.31845 11.6364C5.47517 11.6364 5.62547 11.5741 5.73628 11.4633C5.8471 11.3525 5.90936 11.2022 5.90936 11.0455V6.3182C5.90936 6.16149 5.8471 6.01119 5.73628 5.90037C5.62547 5.78955 5.47517 5.72729 5.31845 5.72729C5.16173 5.72729 5.01143 5.78955 4.90061 5.90037C4.7898 6.01119 4.72754 6.16149 4.72754 6.3182Z" fill="#D0D0D0"/>
<path d="M7.68173 5.72729C7.83845 5.72729 7.98875 5.78955 8.09957 5.90037C8.21038 6.01119 8.27264 6.16149 8.27264 6.3182V11.0455C8.27264 11.2022 8.21038 11.3525 8.09957 11.4633C7.98875 11.5741 7.83845 11.6364 7.68173 11.6364C7.52501 11.6364 7.37471 11.5741 7.26389 11.4633C7.15308 11.3525 7.09082 11.2022 7.09082 11.0455V6.3182C7.09082 6.16149 7.15308 6.01119 7.26389 5.90037C7.37471 5.78955 7.52501 5.72729 7.68173 5.72729Z" fill="#D0D0D0"/>
<path d="M8.86364 2.77282H12.4091C12.5658 2.77282 12.7161 2.83507 12.8269 2.94589C12.9377 3.05671 13 3.20701 13 3.36372C13 3.52044 12.9377 3.67074 12.8269 3.78156C12.7161 3.89238 12.5658 3.95463 12.4091 3.95463H11.7555L10.8668 11.9626C10.7865 12.6854 10.4425 13.3531 9.90069 13.838C9.35884 14.323 8.65717 14.5911 7.93 14.591H5.07C4.34283 14.5911 3.64116 14.323 3.09931 13.838C2.55745 13.3531 2.21346 12.6854 2.13318 11.9626L1.24327 3.95463H0.590909C0.43419 3.95463 0.28389 3.89238 0.173073 3.78156C0.0622564 3.67074 0 3.52044 0 3.36372C0 3.20701 0.0622564 3.05671 0.173073 2.94589C0.28389 2.83507 0.43419 2.77282 0.590909 2.77282H4.13636C4.13636 2.14594 4.38539 1.54474 4.82866 1.10147C5.27192 0.658205 5.87312 0.40918 6.5 0.40918C7.12687 0.40918 7.72807 0.658205 8.17134 1.10147C8.61461 1.54474 8.86364 2.14594 8.86364 2.77282ZM6.5 1.591C6.18656 1.591 5.88596 1.71551 5.66433 1.93714C5.44269 2.15878 5.31818 2.45938 5.31818 2.77282H7.68182C7.68182 2.45938 7.5573 2.15878 7.33567 1.93714C7.11404 1.71551 6.81344 1.591 6.5 1.591ZM2.43336 3.95463L3.30791 11.8326C3.35618 12.2662 3.56262 12.6667 3.88773 12.9576C4.21283 13.2485 4.63377 13.4092 5.07 13.4092H7.93C8.36603 13.409 8.78668 13.248 9.11153 12.9572C9.43639 12.6663 9.64265 12.266 9.69091 11.8326L10.5678 3.95463H2.43455H2.43336Z" fill="#D0D0D0"/>
</svg>
