<svg width="34" height="34" viewBox="0 0 34 34" fill="none" xmlns="http://www.w3.org/2000/svg">
<rect width="34" height="34" rx="3" fill="#EAF7FF"/>
<path d="M14.6667 16H13.1111V17.5556H14.6667V16ZM17.7778 16H16.2222V17.5556H17.7778V16ZM20.8889 16H19.3333V17.5556H20.8889V16ZM22.4444 10.5556H21.6667V9H20.1111V10.5556H13.8889V9H12.3333V10.5556H11.5556C10.6922 10.5556 10.0078 11.2556 10.0078 12.1111L10 23C10 23.4126 10.1639 23.8082 10.4556 24.0999C10.7473 24.3917 11.143 24.5556 11.5556 24.5556H22.4444C23.3 24.5556 24 23.8556 24 23V12.1111C24 11.2556 23.3 10.5556 22.4444 10.5556ZM22.4444 23H11.5556V14.4444H22.4444V23Z" fill="#42A4DF"/>
</svg>
