<svg width="9" height="11" viewBox="0 0 9 11" fill="none" xmlns="http://www.w3.org/2000/svg">
<path d="M4.5 5.14286C5.92031 5.14286 7.07143 3.99174 7.07143 2.57143C7.07143 1.15112 5.92031 0 4.5 0C3.07969 0 1.92857 1.15112 1.92857 2.57143C1.92857 3.99174 3.07969 5.14286 4.5 5.14286ZM6.3 5.78571H5.96451C5.51853 5.99062 5.02232 6.10714 4.5 6.10714C3.97768 6.10714 3.48348 5.99062 3.03549 5.78571H2.7C1.20937 5.78571 0 6.99509 0 8.48571V9.32143C0 9.85379 0.43192 10.2857 0.964286 10.2857H8.03571C8.56808 10.2857 9 9.85379 9 9.32143V8.48571C9 6.99509 7.79063 5.78571 6.3 5.78571Z" fill="#848484"/>
</svg>
