<svg width="23" height="14" viewBox="0 0 23 14" fill="none" xmlns="http://www.w3.org/2000/svg">
<path fill-rule="evenodd" clip-rule="evenodd" d="M11.0019 1.99383e-07C10.22 -0.000246628 9.45516 0.228682 8.80197 0.65848C8.14877 1.08828 7.63586 1.70009 7.32667 2.41828C7.01748 3.13647 6.92556 3.92953 7.06228 4.6994C7.19899 5.46927 7.55835 6.18219 8.09592 6.75C6.9781 7.36818 6.08682 8.32708 5.55189 9.48704C5.01696 10.647 4.86633 11.9475 5.12192 13.199C5.16782 13.4251 5.29047 13.6283 5.46907 13.7743C5.64767 13.9203 5.87125 14 6.10192 14H15.9019C16.1326 14 16.3562 13.9203 16.5348 13.7743C16.7134 13.6283 16.836 13.4251 16.8819 13.199C17.1377 11.9473 16.9872 10.6466 16.4523 9.48647C15.9173 8.32629 15.0259 7.36723 13.9079 6.749C14.4452 6.18114 14.8042 5.46832 14.9408 4.69861C15.0773 3.92891 14.9853 3.13607 14.6761 2.41808C14.367 1.7001 13.8542 1.08843 13.2012 0.658681C12.5482 0.228932 11.7836 -6.15757e-05 11.0019 1.99383e-07ZM15.5859 5.779C15.8519 5.243 16.0019 4.639 16.0019 4C16.0019 3.361 15.8519 2.757 15.5859 2.221C15.8209 1.90478 16.1159 1.63794 16.454 1.43572C16.7922 1.23349 17.1668 1.09985 17.5566 1.04242C17.9463 0.984987 18.3436 1.00489 18.7257 1.10099C19.1078 1.19709 19.4672 1.3675 19.7834 1.6025C20.0996 1.8375 20.3665 2.13248 20.5687 2.47061C20.7709 2.80874 20.9046 3.18338 20.962 3.57315C21.0194 3.96293 20.9995 4.3602 20.9034 4.74228C20.8073 5.12436 20.6369 5.48378 20.4019 5.8C20.8987 6.17259 21.3019 6.65572 21.5796 7.21115C21.8573 7.76657 22.0019 8.37902 22.0019 9V10C22.0019 10.2652 21.8966 10.5196 21.709 10.7071C21.5215 10.8946 21.2671 11 21.0019 11H17.9189C17.7681 10.1109 17.4191 9.26721 16.8977 8.53146C16.3762 7.79572 15.6958 7.18684 14.9069 6.75C15.1659 6.47643 15.3851 6.16773 15.5579 5.833C15.5725 5.82189 15.5872 5.81089 15.6019 5.8L15.5859 5.779ZM7.09592 6.749C6.83735 6.47567 6.61854 6.16732 6.44592 5.833C6.43133 5.8219 6.41666 5.8109 6.40192 5.8L6.41792 5.779C6.14332 5.22623 6.00091 4.61722 6.00192 4C6.00192 3.361 6.15192 2.757 6.41792 2.221C6.18292 1.90478 5.88793 1.63794 5.54981 1.43572C5.21168 1.23349 4.83704 1.09985 4.44727 1.04242C4.05749 0.984987 3.66022 1.00489 3.27814 1.10099C2.89606 1.19709 2.53664 1.3675 2.22042 1.6025C1.9042 1.8375 1.63736 2.13248 1.43514 2.47061C1.23291 2.80874 1.09927 3.18338 1.04184 3.57315C0.984406 3.96293 1.00431 4.3602 1.10041 4.74228C1.1965 5.12436 1.36692 5.48378 1.60192 5.8C0.919387 6.31046 0.418046 7.02587 0.171191 7.84164C-0.0756633 8.65741 -0.0550842 9.53076 0.22992 10.334C0.298916 10.5287 0.426521 10.6973 0.595197 10.8165C0.763874 10.9358 0.965344 10.9999 1.17192 11H4.08392C4.23459 10.111 4.5835 9.26736 5.10474 8.53162C5.62599 7.79589 6.3062 7.18695 7.09492 6.75L7.09592 6.749Z" fill="#8C2CAE"/>
</svg>
