<svg width="30" height="30" viewBox="0 0 30 30" fill="none" xmlns="http://www.w3.org/2000/svg">
<rect x="0.5" y="0.5" width="29" height="29" rx="1.5" fill="white" stroke="#D8D8D8"/>
<path d="M9.8125 9.40625C9.8125 9.03329 9.96066 8.6756 10.2244 8.41188C10.4881 8.14816 10.8458 8 11.2188 8H17.7812C18.1542 8 18.5119 8.14816 18.7756 8.41188C19.0393 8.6756 19.1875 9.03329 19.1875 9.40625V9.875H19.6562C20.2779 9.875 20.874 10.1219 21.3135 10.5615C21.7531 11.001 22 11.5971 22 12.2188V16.9062C22 17.2792 21.8518 17.6369 21.5881 17.9006C21.3244 18.1643 20.9667 18.3125 20.5938 18.3125H19.1875V19.7188C19.1875 20.0917 19.0393 20.4494 18.7756 20.7131C18.5119 20.9768 18.1542 21.125 17.7812 21.125H11.2188C10.8458 21.125 10.4881 20.9768 10.2244 20.7131C9.96066 20.4494 9.8125 20.0917 9.8125 19.7188V18.3125H8.40625C8.03329 18.3125 7.6756 18.1643 7.41188 17.9006C7.14816 17.6369 7 17.2792 7 16.9062V12.2188C7 11.5971 7.24693 11.001 7.68647 10.5615C8.12601 10.1219 8.72215 9.875 9.34375 9.875H9.8125V9.40625ZM18.25 9.40625C18.25 9.28193 18.2006 9.1627 18.1127 9.07479C18.0248 8.98689 17.9056 8.9375 17.7812 8.9375H11.2188C11.0944 8.9375 10.9752 8.98689 10.8873 9.07479C10.7994 9.1627 10.75 9.28193 10.75 9.40625V9.875H18.25V9.40625ZM10.75 15.9688V19.7188C10.75 19.8431 10.7994 19.9623 10.8873 20.0502C10.9752 20.1381 11.0944 20.1875 11.2188 20.1875H17.7812C17.9056 20.1875 18.0248 20.1381 18.1127 20.0502C18.2006 19.9623 18.25 19.8431 18.25 19.7188V15.9688C18.25 15.8444 18.2006 15.7252 18.1127 15.6373C18.0248 15.5494 17.9056 15.5 17.7812 15.5H11.2188C11.0944 15.5 10.9752 15.5494 10.8873 15.6373C10.7994 15.7252 10.75 15.8444 10.75 15.9688Z" fill="#A955DC"/>
</svg>
