<svg width="36" height="36" viewBox="0 0 36 36" fill="none" xmlns="http://www.w3.org/2000/svg">
<rect x="0.25" y="0.25" width="35.5" height="35.5" rx="2.75" fill="#EAF7FF" stroke="#AEE1FF" stroke-width="0.5"/>
<path d="M11.5 17.5C11.5 18.8783 12.6217 20 14 20C15.3783 20 16.5 18.8783 16.5 17.5C16.5 16.1217 15.3783 15 14 15C12.6217 15 11.5 16.1217 11.5 17.5ZM18.4444 25.5556H19V25C19 22.8561 17.255 21.1111 15.1111 21.1111H12.8889C10.7444 21.1111 9 22.8561 9 25V25.5556H18.4444Z" fill="#71BCEA"/>
<path d="M17 18C17 19.654 18.346 21 20 21C21.654 21 23 19.654 23 18C23 16.346 21.654 15 20 15C18.346 15 17 16.346 17 18ZM25.3333 27.6667H26V27C26 24.4273 23.906 22.3333 21.3333 22.3333H18.6667C16.0933 22.3333 14 24.4273 14 27V27.6667H25.3333Z" fill="#42A4DF"/>
<path d="M19.7167 14L18.1 12.3941H19.1167V11.1059C19.1167 10.1706 18.2667 9.39412 17.25 9.39412C16.2167 9.39412 15.3667 10.2412 15.3667 11.3V12.9235H14V11.3C14 9.46471 15.45 8 17.2333 8C18.9833 8 20.4667 9.41176 20.4667 11.0882V12.3765H21.3333L19.7167 14Z" fill="#42A4DF"/>
</svg>
