<svg width="50" height="50" viewBox="0 0 50 50" fill="none" xmlns="http://www.w3.org/2000/svg">
<circle cx="25" cy="25" r="25" fill="#FF6924"/>
<path d="M22 34.015C22 33.621 22.0776 33.2309 22.2284 32.8669C22.3791 32.503 22.6001 32.1723 22.8787 31.8937C23.1573 31.6151 23.488 31.3941 23.852 31.2434C24.2159 31.0926 24.606 31.015 25 31.015C25.394 31.015 25.7841 31.0926 26.1481 31.2434C26.512 31.3941 26.8427 31.6151 27.1213 31.8937C27.3999 32.1723 27.6209 32.503 27.7716 32.8669C27.9224 33.2309 28 33.621 28 34.015C28 34.8106 27.6839 35.5737 27.1213 36.1363C26.5587 36.6989 25.7956 37.015 25 37.015C24.2044 37.015 23.4413 36.6989 22.8787 36.1363C22.3161 35.5737 22 34.8106 22 34.015ZM22.294 16C22.254 15.6215 22.2941 15.2389 22.4116 14.8769C22.5291 14.5149 22.7214 14.1816 22.976 13.8988C23.2306 13.6159 23.5418 13.3897 23.8894 13.2348C24.2371 13.08 24.6134 13 24.994 13C25.3746 13 25.7509 13.08 26.0986 13.2348C26.4462 13.3897 26.7574 13.6159 27.012 13.8988C27.2666 14.1816 27.4589 14.5149 27.5764 14.8769C27.6939 15.2389 27.7339 15.6215 27.694 16L26.644 26.521C26.6013 26.9289 26.4091 27.3065 26.1044 27.581C25.7997 27.8555 25.4041 28.0074 24.994 28.0074C24.5839 28.0074 24.1883 27.8555 23.8836 27.581C23.5789 27.3065 23.3867 26.9289 23.344 26.521L22.294 16Z" fill="white"/>
</svg>
