<svg width="30" height="30" viewBox="0 0 30 30" fill="none" xmlns="http://www.w3.org/2000/svg">
<rect x="0.5" y="0.5" width="29" height="29" rx="1.5" fill="white" stroke="#D8D8D8"/>
<path d="M22 18.642V11.2346C22 10.5514 21.4486 10 20.7654 10H9.23457C8.55144 10 8 10.5514 8 11.2346V18.642C8 19.3251 8.55144 19.8765 9.23457 19.8765H20.7654C21.4486 19.8765 22 19.3251 22 18.642ZM20.9218 11.144C21.1934 11.4156 21.0453 11.6955 20.8971 11.8354L17.5556 14.8971L20.7654 18.2387C20.8642 18.3539 20.93 18.535 20.8148 18.6584C20.7078 18.7901 20.4609 18.7819 20.3539 18.6996L16.7572 15.6296L14.9959 17.2346L13.2428 15.6296L9.64609 18.6996C9.53909 18.7819 9.29218 18.7901 9.18519 18.6584C9.06996 18.535 9.1358 18.3539 9.23457 18.2387L12.4444 14.8971L9.10288 11.8354C8.95473 11.6955 8.80658 11.4156 9.07819 11.144C9.34979 10.8724 9.62963 11.0041 9.86008 11.2016L14.9959 15.3498L20.1399 11.2016C20.3704 11.0041 20.6502 10.8724 20.9218 11.144Z" fill="#42A4DF"/>
</svg>
