<svg width="17" height="20" viewBox="0 0 17 20" fill="none" xmlns="http://www.w3.org/2000/svg">
<path d="M14.9727 2.5H11.6393C11.6393 1.12109 10.4435 0 8.97266 0C7.50182 0 6.30599 1.12109 6.30599 2.5H2.97266C1.86849 2.5 0.972656 3.33984 0.972656 4.375V18.125C0.972656 19.1602 1.86849 20 2.97266 20H14.9727C16.0768 20 16.9727 19.1602 16.9727 18.125V4.375C16.9727 3.33984 16.0768 2.5 14.9727 2.5ZM4.97266 16.5625C4.41849 16.5625 3.97266 16.1445 3.97266 15.625C3.97266 15.1055 4.41849 14.6875 4.97266 14.6875C5.52682 14.6875 5.97266 15.1055 5.97266 15.625C5.97266 16.1445 5.52682 16.5625 4.97266 16.5625ZM4.97266 12.8125C4.41849 12.8125 3.97266 12.3945 3.97266 11.875C3.97266 11.3555 4.41849 10.9375 4.97266 10.9375C5.52682 10.9375 5.97266 11.3555 5.97266 11.875C5.97266 12.3945 5.52682 12.8125 4.97266 12.8125ZM4.97266 9.0625C4.41849 9.0625 3.97266 8.64453 3.97266 8.125C3.97266 7.60547 4.41849 7.1875 4.97266 7.1875C5.52682 7.1875 5.97266 7.60547 5.97266 8.125C5.97266 8.64453 5.52682 9.0625 4.97266 9.0625ZM8.97266 1.5625C9.52682 1.5625 9.97266 1.98047 9.97266 2.5C9.97266 3.01953 9.52682 3.4375 8.97266 3.4375C8.41849 3.4375 7.97266 3.01953 7.97266 2.5C7.97266 1.98047 8.41849 1.5625 8.97266 1.5625ZM14.306 15.9375C14.306 16.1094 14.156 16.25 13.9727 16.25H7.97266C7.78932 16.25 7.63932 16.1094 7.63932 15.9375V15.3125C7.63932 15.1406 7.78932 15 7.97266 15H13.9727C14.156 15 14.306 15.1406 14.306 15.3125V15.9375ZM14.306 12.1875C14.306 12.3594 14.156 12.5 13.9727 12.5H7.97266C7.78932 12.5 7.63932 12.3594 7.63932 12.1875V11.5625C7.63932 11.3906 7.78932 11.25 7.97266 11.25H13.9727C14.156 11.25 14.306 11.3906 14.306 11.5625V12.1875ZM14.306 8.4375C14.306 8.60938 14.156 8.75 13.9727 8.75H7.97266C7.78932 8.75 7.63932 8.60938 7.63932 8.4375V7.8125C7.63932 7.64062 7.78932 7.5 7.97266 7.5H13.9727C14.156 7.5 14.306 7.64062 14.306 7.8125V8.4375Z" fill="white"/>
</svg>
