<svg width="50" height="50" viewBox="0 0 50 50" fill="none" xmlns="http://www.w3.org/2000/svg">
<circle cx="25" cy="25" r="25" fill="#37B34A"/>
<path d="M35.1541 14.2991C34.9496 14.1664 34.721 14.0753 34.4814 14.0309C34.2417 13.9866 33.9957 13.9899 33.7573 14.0407C33.519 14.0915 33.2929 14.1888 33.0922 14.3269C32.8914 14.4651 32.7198 14.6415 32.5872 14.8459L22.1875 30.8761L17.1157 26.1866C16.9368 26.0212 16.727 25.8926 16.4984 25.8082C16.2697 25.7238 16.0267 25.6853 15.7832 25.6949C15.2914 25.7141 14.8274 25.928 14.4932 26.2893C14.1591 26.6507 13.9822 27.13 14.0014 27.6219C14.0207 28.1137 14.2345 28.5777 14.5959 28.9118L21.2552 35.0688C21.2552 35.0688 21.4464 35.2333 21.5348 35.2909C21.7393 35.4237 21.9679 35.5148 22.2076 35.5592C22.4473 35.6036 22.6934 35.6003 22.9319 35.5495C23.1703 35.4987 23.3964 35.4014 23.5972 35.2632C23.7981 35.125 23.9697 34.9486 24.1023 34.744L35.701 16.8659C35.8336 16.6614 35.9247 16.4329 35.9691 16.1932C36.0134 15.9536 36.0101 15.7075 35.9593 15.4692C35.9085 15.2308 35.8112 15.0048 35.6731 14.804C35.5349 14.6032 35.3585 14.4316 35.1541 14.2991Z" fill="white"/>
</svg>
