<svg width="14" height="11" viewBox="0 0 14 11" fill="none" xmlns="http://www.w3.org/2000/svg">
<g clip-path="url(#clip0_11_773)">
<path d="M7 7C7.9665 7 8.75 6.2165 8.75 5.25C8.75 4.2835 7.9665 3.5 7 3.5C6.0335 3.5 5.25 4.2835 5.25 5.25C5.25 6.2165 6.0335 7 7 7Z" fill="#999999"/>
<path d="M13.5361 5.10125C13.0215 3.77022 12.1282 2.61914 10.9665 1.79029C9.80489 0.961431 8.42584 0.491126 6.99981 0.4375C5.57379 0.491126 4.19473 0.961431 3.03309 1.79029C1.87145 2.61914 0.978134 3.77022 0.463564 5.10125C0.428812 5.19737 0.428812 5.30263 0.463564 5.39875C0.978134 6.72978 1.87145 7.88086 3.03309 8.70971C4.19473 9.53857 5.57379 10.0089 6.99981 10.0625C8.42584 10.0089 9.80489 9.53857 10.9665 8.70971C12.1282 7.88086 13.0215 6.72978 13.5361 5.39875C13.5708 5.30263 13.5708 5.19737 13.5361 5.10125ZM6.99981 8.09375C6.43737 8.09375 5.88756 7.92697 5.41991 7.61449C4.95226 7.30202 4.58777 6.85788 4.37253 6.33826C4.15729 5.81863 4.10098 5.24685 4.21071 4.69521C4.32043 4.14358 4.59127 3.63687 4.98898 3.23917C5.38668 2.84146 5.89339 2.57062 6.44503 2.46089C6.99666 2.35117 7.56844 2.40748 8.08807 2.62272C8.6077 2.83795 9.05183 3.20245 9.36431 3.6701C9.67678 4.13775 9.84356 4.68756 9.84356 5.25C9.84241 6.00385 9.54243 6.7265 9.00937 7.25956C8.47631 7.79261 7.75367 8.09259 6.99981 8.09375Z" fill="#999999"/>
</g>
<defs>
<clipPath id="clip0_11_773">
<rect width="14" height="10.5" fill="white"/>
</clipPath>
</defs>
</svg>
