<svg width="13" height="14" viewBox="0 0 13 14" fill="none" xmlns="http://www.w3.org/2000/svg">
<path d="M3.92708 1.24312H3.79167C3.86615 1.24312 3.92708 1.18097 3.92708 1.105V1.24312H9.07292V1.105C9.07292 1.18097 9.13385 1.24312 9.20833 1.24312H9.07292V2.48625H10.2917V1.105C10.2917 0.495523 9.80586 0 9.20833 0H3.79167C3.19414 0 2.70833 0.495523 2.70833 1.105V2.48625H3.92708V1.24312ZM12.4583 2.48625H0.541667C0.242057 2.48625 0 2.73315 0 3.03875V3.59125C0 3.66722 0.0609375 3.72937 0.135417 3.72937H1.15781L1.57591 12.7593C1.60299 13.3481 2.08034 13.8125 2.65755 13.8125H10.3424C10.9214 13.8125 11.397 13.3498 11.4241 12.7593L11.8422 3.72937H12.8646C12.9391 3.72937 13 3.66722 13 3.59125V3.03875C13 2.73315 12.7579 2.48625 12.4583 2.48625ZM10.2121 12.5694H2.78789L2.37826 3.72937H10.6217L10.2121 12.5694Z" fill="#ED4C5C"/>
</svg>
