<svg width="72" height="74" viewBox="0 0 72 74" fill="none" xmlns="http://www.w3.org/2000/svg">
<g filter="url(#filter0_ddd_12_22244)">
<rect x="8" y="4" width="56" height="57.0182" rx="5" fill="white"/>
</g>
<g clip-path="url(#clip0_12_22244)">
<path d="M50.902 44.678C50.9023 45.1015 50.8192 45.5208 50.6574 45.9122C50.4955 46.3035 50.2582 46.6592 49.9589 46.9587C49.6595 47.2583 49.3041 47.496 48.9129 47.6582C48.5217 47.8203 48.1024 47.9038 47.6789 47.9039H24.2222C23.7988 47.9037 23.3796 47.82 22.9885 47.6578C22.5975 47.4955 22.2422 47.2578 21.943 46.9583C21.6438 46.6587 21.4065 46.3032 21.2447 45.9119C21.0829 45.5207 20.9998 45.1014 21 44.678V21.2236C20.9999 20.3688 21.3393 19.5491 21.9435 18.9445C22.5478 18.34 23.3674 18.0002 24.2222 18H47.6794C49.4606 18 50.9025 19.4437 50.9025 21.2236V44.678H50.902Z" fill="#1B75BB"/>
<path fill-rule="evenodd" clip-rule="evenodd" d="M40.6966 30.0036C40.4599 30.0622 40.2368 30.1972 39.9987 30.2286C38.9187 30.373 37.8358 30.4921 36.754 30.6271C36.6574 30.6421 36.529 30.6894 36.484 30.7686L36.4783 30.778C36.3883 30.7981 36.3044 30.8413 36.2604 30.9538C35.9187 31.8402 35.3576 32.5944 34.969 33.4564C34.646 34.1839 34.354 34.9133 33.9897 35.6188C34.774 36.005 35.2657 36.7321 35.4522 37.5364C35.6152 37.5058 35.7805 37.4898 35.9463 37.4886C36.0363 37.4886 36.1151 37.5069 36.2037 37.5144C36.273 37.3747 36.3429 37.2378 36.4183 37.1028C36.6462 36.6988 36.9054 36.3116 37.1482 35.9164C37.2091 35.9413 37.2705 35.9656 37.3296 35.9914C37.4238 36.6472 37.3605 37.3466 37.5204 37.9461C37.669 38.0436 37.8035 38.1547 37.9263 38.2766C38.3407 36.9191 38.7162 35.5124 39.2397 34.1675C39.791 32.7519 40.5185 31.4174 41.2108 29.9586C41.0346 29.9703 40.8579 29.9624 40.6966 30.0036Z" fill="white"/>
<path fill-rule="evenodd" clip-rule="evenodd" d="M47.353 37.109L44.4598 29.9315C44.4209 29.8945 44.4491 29.8274 44.4008 29.7918C44.3791 29.7734 44.3563 29.7565 44.3323 29.7412C44.0286 29.5457 43.7436 29.4759 43.4947 29.6127L43.4937 29.6062L43.4717 29.6301C43.4145 29.6662 43.3578 29.6981 43.3048 29.7571C43.0611 30.0346 42.8487 30.3449 42.6453 30.6609C41.4387 32.2949 39.3819 35.6849 39.3547 39.7776C39.3364 40.0842 39.3481 40.3893 39.3739 40.6912C39.3758 40.7212 39.3767 40.7507 39.3805 40.7798V40.7704C39.3898 40.8698 39.3969 40.9706 39.4062 41.0681C39.8342 40.9851 40.1375 40.8881 40.4445 40.8773C41.4631 40.8374 42.4798 40.8327 43.4984 40.8098C43.9601 40.7999 44.233 40.4938 44.2348 39.9857C44.2405 39.0993 44.2358 38.2134 44.2358 37.326L44.9722 38.7534L44.3516 44.1538C44.315 43.6504 44.2578 43.3106 44.2742 42.9759C44.2855 42.7565 44.2494 42.6079 44.1856 42.4931L44.1547 42.1917H38.5531L38.458 42.6492L38.4505 42.6501C38.45 42.681 38.4406 42.7101 38.4392 42.741L38.0291 44.6788L38.1936 44.6423C38.1909 44.6543 38.1907 44.6668 38.1931 44.6788H46.8341C46.9719 43.7873 47.1125 42.9412 47.2301 42.0942C47.3595 41.1721 47.4683 40.2445 47.585 39.3206C47.5494 37.9818 47.3567 37.1048 47.3567 37.1048" fill="white"/>
<path fill-rule="evenodd" clip-rule="evenodd" d="M41.3341 24.2878C41.2896 24.2878 41.2512 24.2935 41.2071 24.2935L41.209 24.286C39.213 24.127 36.8416 24.6385 35.7255 24.9178L35.5713 24.9295C35.5169 24.9572 35.4593 24.9764 35.404 25.0022C35.358 25.0135 35.3215 25.0242 35.2868 25.0327H35.2858L35.2793 25.0355C35.1579 25.0692 35.0843 25.0908 35.0843 25.0908V25.1185C33.0387 25.9674 34.0483 26.4422 34.8363 26.6475C34.8363 26.6475 34.8447 26.6531 34.8476 26.6541C34.8677 26.6635 34.8888 26.6597 34.9099 26.6667C35.0618 26.7033 35.1982 26.731 35.2976 26.7483C35.5924 27.3572 35.7855 27.8991 36.0958 28.3416C36.7212 29.2402 37.5115 29.9756 38.6299 29.8495C39.1755 29.7872 39.7488 29.5106 40.2133 29.1774C40.7885 28.762 41.2512 28.1311 41.3149 27.3642C41.3937 26.3766 41.3341 25.3735 41.3341 24.2878Z" fill="white"/>
<path fill-rule="evenodd" clip-rule="evenodd" d="M34.9091 20.7051C34.9091 20.7051 32.9051 21.7144 33.3847 23.0297C33.8661 24.3459 35.0305 24.2859 35.0305 24.2859C35.0305 24.2859 38.7762 23.4741 41.21 23.6081L42.5197 22.778C42.5197 22.778 42.7151 22.3842 41.8034 22.0687C41.8034 22.0687 37.8439 20.0536 34.9091 20.7051Z" fill="white"/>
<path fill-rule="evenodd" clip-rule="evenodd" d="M35.4976 22.5272C35.4976 22.9679 35.1653 23.3265 34.757 23.3265C34.3483 23.3265 34.0168 22.9683 34.0168 22.5272C34.0168 22.0871 34.3483 21.728 34.757 21.728C35.1648 21.728 35.4976 22.0871 35.4976 22.5272Z" fill="#1B75BB"/>
<path fill-rule="evenodd" clip-rule="evenodd" d="M35.9728 36.328C36.0792 36.467 36.1572 36.6255 36.2023 36.7945C36.2474 36.9636 36.2588 37.1399 36.2358 37.3134C36.2127 37.4869 36.1558 37.6541 36.0681 37.8055C35.9804 37.957 35.8638 38.0897 35.7248 38.196C35.4438 38.4101 35.0893 38.504 34.7392 38.4572C34.389 38.4103 34.0717 38.2266 33.8568 37.9462L30.9173 34.1015C30.8112 33.9625 30.7336 33.804 30.6887 33.635C30.6439 33.4659 30.6329 33.2898 30.6561 33.1165C30.6794 32.9432 30.7366 32.7762 30.8245 32.625C30.9123 32.4738 31.0291 32.3414 31.1681 32.2354C31.3069 32.1289 31.4653 32.0509 31.6343 32.0058C31.8034 31.9606 31.9796 31.9492 32.153 31.9723C32.3264 31.9953 32.4936 32.0523 32.6449 32.14C32.7963 32.2277 32.9289 32.3444 33.0351 32.4833L35.9728 36.328Z" fill="white"/>
<path fill-rule="evenodd" clip-rule="evenodd" d="M30.6145 30.8624C30.7927 31.393 30.1458 32.0896 29.1633 32.4182L27.9197 32.8349C26.9405 33.163 26.003 32.9985 25.8258 32.4674L24.0712 27.2409C23.8922 26.7107 24.54 26.0137 25.5216 25.686L26.7642 25.2688C27.7453 24.9407 28.6819 25.1034 28.8609 25.6335L30.6145 30.8624Z" fill="white"/>
</g>
<defs>
<filter id="filter0_ddd_12_22244" x="0" y="0" width="72" height="73.0182" filterUnits="userSpaceOnUse" color-interpolation-filters="sRGB">
<feFlood flood-opacity="0" result="BackgroundImageFix"/>
<feColorMatrix in="SourceAlpha" type="matrix" values="0 0 0 0 0 0 0 0 0 0 0 0 0 0 0 0 0 0 127 0" result="hardAlpha"/>
<feOffset/>
<feGaussianBlur stdDeviation="0.5"/>
<feColorMatrix type="matrix" values="0 0 0 0 0 0 0 0 0 0 0 0 0 0 0 0 0 0 0.05 0"/>
<feBlend mode="normal" in2="BackgroundImageFix" result="effect1_dropShadow_12_22244"/>
<feColorMatrix in="SourceAlpha" type="matrix" values="0 0 0 0 0 0 0 0 0 0 0 0 0 0 0 0 0 0 127 0" result="hardAlpha"/>
<feOffset/>
<feGaussianBlur stdDeviation="1"/>
<feColorMatrix type="matrix" values="0 0 0 0 0 0 0 0 0 0 0 0 0 0 0 0 0 0 0.07 0"/>
<feBlend mode="normal" in2="effect1_dropShadow_12_22244" result="effect2_dropShadow_12_22244"/>
<feColorMatrix in="SourceAlpha" type="matrix" values="0 0 0 0 0 0 0 0 0 0 0 0 0 0 0 0 0 0 127 0" result="hardAlpha"/>
<feOffset dy="4"/>
<feGaussianBlur stdDeviation="4"/>
<feColorMatrix type="matrix" values="0 0 0 0 0 0 0 0 0 0 0 0 0 0 0 0 0 0 0.05 0"/>
<feBlend mode="normal" in2="effect2_dropShadow_12_22244" result="effect3_dropShadow_12_22244"/>
<feBlend mode="normal" in="SourceGraphic" in2="effect3_dropShadow_12_22244" result="shape"/>
</filter>
<clipPath id="clip0_12_22244">
<rect width="30" height="30" fill="white" transform="translate(21 18)"/>
</clipPath>
</defs>
</svg>
