<svg width="20" height="15" viewBox="0 0 20 15" fill="none" xmlns="http://www.w3.org/2000/svg">
<path d="M16.2353 5.88235C16.3529 5.52941 16.4706 5.17647 16.4706 4.70588C16.4706 2.11765 14.3529 0 11.7647 0C10 0 8.35294 1.05882 7.64706 2.58823C7.29412 2.47059 6.82353 2.35294 6.47059 2.35294C4.82353 2.35294 3.52941 3.64706 3.52941 5.29412C3.52941 5.52941 3.52941 5.76471 3.64706 5.88235C1.52941 6.23529 0 7.88235 0 10C0 12.2353 1.88235 14.1176 4.11765 14.1176H8.23529V10.5882H4.70588L10 5.29412L15.2941 10.5882H11.7647V14.1176H15.8824C18.1176 14.1176 20 12.2353 20 10C20 7.88235 18.3529 6.11765 16.2353 5.88235Z" fill="#8C2CAE"/>
</svg>
