<svg width="15" height="14" viewBox="0 0 15 14" fill="none" xmlns="http://www.w3.org/2000/svg">
<path d="M8.97672 0.0585552C9.07384 0.0111059 9.18234 -0.00810338 9.28985 0.00311671C9.39736 0.0143368 9.49956 0.055535 9.58479 0.122015L14.777 4.16039C14.8439 4.21238 14.8986 4.27848 14.9371 4.35398C14.9756 4.42949 14.9969 4.51255 14.9997 4.59726C15.0024 4.68197 14.9865 4.76624 14.953 4.84409C14.9195 4.92194 14.8692 4.99145 14.8058 5.04768L9.61363 9.66296C9.53048 9.7368 9.42776 9.78503 9.31783 9.80185C9.20791 9.81868 9.09546 9.80337 8.99403 9.75777C8.8926 9.71218 8.80651 9.63824 8.74612 9.54486C8.68574 9.45148 8.65362 9.34263 8.65365 9.23143V6.9884C8.38135 7.03455 8.02598 7.11532 7.6106 7.25378C6.60331 7.5907 5.24065 8.26799 3.86991 9.63988C3.78604 9.72407 3.67822 9.78031 3.56118 9.8009C3.44414 9.8215 3.3236 9.80544 3.21603 9.75494C3.10846 9.70444 3.0191 9.62195 2.96019 9.51874C2.90127 9.41554 2.87566 9.29666 2.88686 9.17835C3.05186 7.3657 3.5803 6.04342 4.29914 5.09037C4.91611 4.26776 5.75455 3.63783 6.71639 3.27425C7.33674 3.03913 7.99082 2.90512 8.65365 2.87734V0.577775C8.65344 0.46965 8.68361 0.363641 8.74073 0.271837C8.79786 0.180033 8.87963 0.10613 8.97672 0.0585552ZM0 4.03924C0 3.27421 0.303907 2.54051 0.844866 1.99955C1.38582 1.45859 2.11952 1.15468 2.88455 1.15468H5.19219C5.3452 1.15468 5.49194 1.21547 5.60013 1.32366C5.70832 1.43185 5.7691 1.57859 5.7691 1.73159C5.7691 1.8846 5.70832 2.03134 5.60013 2.13953C5.49194 2.24772 5.3452 2.30851 5.19219 2.30851H2.88455C2.42553 2.30851 1.98531 2.49085 1.66074 2.81542C1.33616 3.14 1.15382 3.58022 1.15382 4.03924V10.9622C1.15382 11.4212 1.33616 11.8614 1.66074 12.186C1.98531 12.5105 2.42553 12.6929 2.88455 12.6929H9.80747C10.2665 12.6929 10.7067 12.5105 11.0313 12.186C11.3559 11.8614 11.5382 11.4212 11.5382 10.9622V9.80834C11.5382 9.65533 11.599 9.50859 11.7072 9.4004C11.8154 9.29221 11.9621 9.23143 12.1151 9.23143C12.2681 9.23143 12.4149 9.29221 12.5231 9.4004C12.6312 9.50859 12.692 9.65533 12.692 9.80834V10.9622C12.692 11.7272 12.3881 12.4609 11.8472 13.0018C11.3062 13.5428 10.5725 13.8467 9.80747 13.8467H2.88455C2.11952 13.8467 1.38582 13.5428 0.844866 13.0018C0.303907 12.4609 0 11.7272 0 10.9622V4.03924Z" fill="#FF971E"/>
</svg>
