<svg width="26" height="26" viewBox="0 0 26 26" fill="none" xmlns="http://www.w3.org/2000/svg">
<circle cx="13" cy="13" r="13" fill="#FFD8DC"/>
<circle cx="13" cy="13" r="8" fill="#ED4C5C"/>
<path fill-rule="evenodd" clip-rule="evenodd" d="M13.0005 14.6474L15.5898 17.2984C15.8496 17.5665 16.0186 17.5692 16.2831 17.2984L16.8026 16.7664C17.0571 16.5059 17.0744 16.3349 16.8026 16.0567L14.0613 13.2503L16.8028 10.444C17.0596 10.1803 17.0646 10.0023 16.8028 9.73401L16.2833 9.20225C16.0138 8.92625 15.8473 8.939 15.5901 9.20225L13.0005 11.8533L10.4112 9.2025C10.1539 8.93925 9.98744 8.9265 9.71793 9.2025L9.19842 9.73426C8.93641 10.0025 8.94116 10.1805 9.19842 10.4443L11.9397 13.2503L9.19842 16.0567C8.92666 16.3349 8.94116 16.5059 9.19842 16.7664L9.71768 17.2984C9.97994 17.5692 10.1489 17.5665 10.4109 17.2984L13.0005 14.6474Z" fill="white"/>
</svg>
