<svg width="26" height="26" viewBox="0 0 26 26" fill="none" xmlns="http://www.w3.org/2000/svg">
<circle cx="13" cy="13" r="13" fill="#FFEB9F"/>
<circle cx="13" cy="13" r="8" fill="#FACC1D"/>
<path d="M14.25 7.625L13.9922 15.5234H12.1172L11.8516 7.625H14.25ZM11.7891 17.9688C11.7891 17.6354 11.9036 17.3594 12.1328 17.1406C12.3672 16.9167 12.6745 16.8047 13.0547 16.8047C13.4401 16.8047 13.7474 16.9167 13.9766 17.1406C14.2057 17.3594 14.3203 17.6354 14.3203 17.9688C14.3203 18.2917 14.2057 18.5651 13.9766 18.7891C13.7474 19.013 13.4401 19.125 13.0547 19.125C12.6745 19.125 12.3672 19.013 12.1328 18.7891C11.9036 18.5651 11.7891 18.2917 11.7891 17.9688Z" fill="white"/>
</svg>
