<svg width="26" height="26" viewBox="0 0 26 26" fill="none" xmlns="http://www.w3.org/2000/svg">
<circle cx="13" cy="13" r="13" fill="#47CA5B" fill-opacity="0.23"/>
<circle cx="13" cy="13" r="8" fill="#47CA5B"/>
<path d="M16.4456 9.25369C16.6184 9.08917 16.8483 8.99822 17.0869 9.00003C17.3255 9.00183 17.5541 9.09625 17.7244 9.26336C17.8947 9.43048 17.9934 9.65721 17.9997 9.89572C18.006 10.1342 17.9194 10.3659 17.7582 10.5417L12.8636 16.663C12.7794 16.7537 12.6778 16.8264 12.5649 16.8769C12.452 16.9274 12.33 16.9547 12.2064 16.9569C12.0827 16.9592 11.9598 16.9366 11.8451 16.8903C11.7304 16.844 11.6262 16.7751 11.5387 16.6876L8.29283 13.4417C8.20243 13.3575 8.12993 13.2559 8.07965 13.143C8.02936 13.0302 8.00232 12.9083 8.00014 12.7848C7.99796 12.6613 8.02069 12.5386 8.06696 12.424C8.11323 12.3095 8.18211 12.2054 8.26947 12.118C8.35684 12.0307 8.4609 11.9618 8.57547 11.9155C8.69003 11.8692 8.81273 11.8465 8.93627 11.8487C9.0598 11.8509 9.18163 11.8779 9.29449 11.9282C9.40734 11.9785 9.50892 12.051 9.59315 12.1414L12.1619 14.7089L16.4223 9.28068C16.4299 9.27123 16.4381 9.26222 16.4468 9.25369H16.4456Z" fill="white"/>
</svg>
