<svg width="36" height="36" viewBox="0 0 36 36" fill="none" xmlns="http://www.w3.org/2000/svg">
<rect x="0.25" y="0.25" width="35.5" height="35.5" rx="2.75" fill="#EAF7FF" stroke="#AEE1FF" stroke-width="0.5"/>
<path d="M19.6429 19V17L17.5 18L15.3571 17V19L13.2143 20L15.3571 21V23L17.5 22L19.6429 23V21L21.7857 20L19.6429 19ZM19.6429 8H12.1429C11.5745 8 11.0295 8.21071 10.6276 8.58579C10.2258 8.96086 10 9.46957 10 10V24C10 24.5304 10.2258 25.0391 10.6276 25.4142C11.0295 25.7893 11.5745 26 12.1429 26H13.2143V24H12.1429V10H18.5714V14H22.8571V24H21.7857V26H22.8571C23.4255 26 23.9705 25.7893 24.3724 25.4142C24.7742 25.0391 25 24.5304 25 24V13L19.6429 8ZM19.6429 19V17L17.5 18L15.3571 17V19L13.2143 20L15.3571 21V23L17.5 22L19.6429 23V21L21.7857 20L19.6429 19ZM15.3571 29L17.5 28L19.6429 29V24H15.3571V29ZM19.6429 19V17L17.5 18L15.3571 17V19L13.2143 20L15.3571 21V23L17.5 22L19.6429 23V21L21.7857 20L19.6429 19Z" fill="#42A4DF"/>
</svg>
