<svg width="18" height="14" viewBox="0 0 18 14" fill="none" xmlns="http://www.w3.org/2000/svg">
<path d="M9.02979 9.03467C10.2724 9.03467 11.2798 8.02731 11.2798 6.78467C11.2798 5.54203 10.2724 4.53467 9.02979 4.53467C7.78714 4.53467 6.77979 5.54203 6.77979 6.78467C6.77979 8.02731 7.78714 9.03467 9.02979 9.03467Z" fill="#2C8EFF"/>
<path d="M17.4333 6.59342C16.7717 4.8821 15.6232 3.40214 14.1296 2.33647C12.6361 1.27079 10.863 0.666115 9.02954 0.597168C7.19609 0.666115 5.42301 1.27079 3.92947 2.33647C2.43593 3.40214 1.28739 4.8821 0.625796 6.59342C0.581115 6.717 0.581115 6.85233 0.625796 6.97592C1.28739 8.68724 2.43593 10.1672 3.92947 11.2329C5.42301 12.2985 7.19609 12.9032 9.02954 12.9722C10.863 12.9032 12.6361 12.2985 14.1296 11.2329C15.6232 10.1672 16.7717 8.68724 17.4333 6.97592C17.478 6.85233 17.478 6.717 17.4333 6.59342ZM9.02954 10.4409C8.30641 10.4409 7.59951 10.2265 6.99824 9.82473C6.39697 9.42297 5.92834 8.85195 5.65161 8.18385C5.37488 7.51576 5.30247 6.78061 5.44355 6.07137C5.58463 5.36213 5.93285 4.71064 6.44419 4.19931C6.95552 3.68797 7.607 3.33975 8.31625 3.19867C9.02549 3.05759 9.76064 3.13 10.4287 3.40673C11.0968 3.68347 11.6679 4.1521 12.0696 4.75336C12.4714 5.35463 12.6858 6.06153 12.6858 6.78467C12.6843 7.75391 12.2986 8.68303 11.6133 9.36838C10.9279 10.0537 9.99879 10.4394 9.02954 10.4409Z" fill="#2C8EFF"/>
</svg>
