<svg width="11" height="13" viewBox="0 0 11 13" fill="none" xmlns="http://www.w3.org/2000/svg">
<path d="M5.5 6.28571C7.23594 6.28571 8.64286 4.87879 8.64286 3.14286C8.64286 1.40692 7.23594 0 5.5 0C3.76406 0 2.35714 1.40692 2.35714 3.14286C2.35714 4.87879 3.76406 6.28571 5.5 6.28571ZM7.7 7.07143H7.28996C6.74487 7.32188 6.13839 7.46429 5.5 7.46429C4.86161 7.46429 4.25759 7.32188 3.71004 7.07143H3.3C1.47812 7.07143 0 8.54955 0 10.3714V11.3929C0 12.0435 0.527902 12.5714 1.17857 12.5714H9.82143C10.4721 12.5714 11 12.0435 11 11.3929V10.3714C11 8.54955 9.52187 7.07143 7.7 7.07143Z" fill="#B6B6B6"/>
</svg>
