<svg width="10" height="11" viewBox="0 0 10 11" fill="none" xmlns="http://www.w3.org/2000/svg">
<path d="M2.01474 3.13158L3.34947 4.46632L2.60526 5.21053L0 2.60526L2.60526 0L3.34947 0.74421L2.01474 2.07895H5.78947C6.90618 2.07895 7.97714 2.52256 8.76677 3.31218C9.55639 4.10181 10 5.17277 10 6.28947C10 7.40617 9.55639 8.47714 8.76677 9.26677C7.97714 10.0564 6.90618 10.5 5.78947 10.5H1.05263V9.44737H5.78947C6.627 9.44737 7.43022 9.11466 8.02244 8.52244C8.61466 7.93022 8.94737 7.127 8.94737 6.28947C8.94737 5.45195 8.61466 4.64872 8.02244 4.0565C7.43022 3.46428 6.627 3.13158 5.78947 3.13158H2.01474Z" fill="#BDBCBC"/>
</svg>
