<svg width="12" height="13" viewBox="0 0 12 13" fill="none" xmlns="http://www.w3.org/2000/svg">
<path d="M10.7143 8.63185V6.85714C10.7143 6.62981 10.624 6.41179 10.4632 6.25105C10.3025 6.0903 10.0845 6 9.85714 6H6.42857V4.28571H7.28571C7.51297 4.28548 7.73086 4.19511 7.89155 4.03441C8.05225 3.87371 8.14263 3.65583 8.14286 3.42857V0.857142C8.14263 0.629884 8.05225 0.411998 7.89155 0.251302C7.73086 0.0906056 7.51297 0.000226918 7.28571 0H4.71429C4.48703 0.000226918 4.26914 0.0906056 4.10845 0.251302C3.94775 0.411998 3.85737 0.629884 3.85714 0.857142V3.42857C3.85737 3.65583 3.94775 3.87371 4.10845 4.03441C4.26914 4.19511 4.48703 4.28548 4.71429 4.28571H5.57143V6H2.14286C1.91553 6 1.69751 6.0903 1.53677 6.25105C1.37602 6.41179 1.28572 6.62981 1.28572 6.85714V8.63228C0.881721 8.73659 0.529637 8.98466 0.29546 9.33C0.0612838 9.67533 -0.0389072 10.0942 0.0136675 10.5081C0.0662423 10.9221 0.267973 11.3026 0.581047 11.5784C0.894121 11.8542 1.29704 12.0064 1.71429 12.0064C2.13153 12.0064 2.53446 11.8542 2.84753 11.5784C3.1606 11.3026 3.36233 10.9221 3.41491 10.5081C3.46748 10.0942 3.36729 9.67533 3.13312 9.33C2.89894 8.98466 2.54686 8.73659 2.14286 8.63228V6.85714H5.57143V8.63228C5.16743 8.73659 4.81535 8.98466 4.58117 9.33C4.34699 9.67533 4.2468 10.0942 4.29938 10.5081C4.35195 10.9221 4.55368 11.3026 4.86676 11.5784C5.17983 11.8542 5.58275 12.0064 6 12.0064C6.41725 12.0064 6.82017 11.8542 7.13324 11.5784C7.44632 11.3026 7.64805 10.9221 7.70062 10.5081C7.7532 10.0942 7.65301 9.67533 7.41883 9.33C7.18465 8.98466 6.83257 8.73659 6.42857 8.63228V6.85714H9.85714V8.63185C9.45314 8.73616 9.10106 8.98423 8.86688 9.32957C8.63271 9.6749 8.53252 10.0938 8.58509 10.5077C8.63766 10.9216 8.8394 11.3022 9.15247 11.578C9.46554 11.8538 9.86847 12.006 10.2857 12.006C10.703 12.006 11.1059 11.8538 11.419 11.578C11.732 11.3022 11.9338 10.9216 11.9863 10.5077C12.0389 10.0938 11.9387 9.6749 11.7045 9.32957C11.4704 8.98423 11.1183 8.73616 10.7143 8.63185ZM4.71429 0.857142H7.28571L7.28614 3.42857H4.71429V0.857142ZM2.57143 10.2857C2.57143 10.4552 2.52116 10.621 2.42698 10.7619C2.33279 10.9029 2.19893 11.0127 2.0423 11.0776C1.88568 11.1425 1.71334 11.1595 1.54707 11.1264C1.3808 11.0933 1.22807 11.0117 1.1082 10.8918C0.988324 10.7719 0.906689 10.6192 0.873616 10.4529C0.840543 10.2867 0.857517 10.1143 0.922392 9.95769C0.987267 9.80107 1.09713 9.6672 1.23809 9.57302C1.37904 9.47884 1.54476 9.42857 1.71429 9.42857C1.94155 9.42879 2.15943 9.51917 2.32013 9.67987C2.48083 9.84056 2.5712 10.0584 2.57143 10.2857ZM6.85714 10.2857C6.85714 10.4552 6.80687 10.621 6.71269 10.7619C6.6185 10.9029 6.48464 11.0127 6.32801 11.0776C6.17139 11.1425 5.99905 11.1595 5.83278 11.1264C5.66651 11.0933 5.51378 11.0117 5.39391 10.8918C5.27404 10.7719 5.1924 10.6192 5.15933 10.4529C5.12625 10.2867 5.14323 10.1143 5.2081 9.95769C5.27298 9.80107 5.38284 9.6672 5.5238 9.57302C5.66475 9.47884 5.83047 9.42857 6 9.42857C6.22722 9.42891 6.44504 9.51932 6.60572 9.67999C6.76639 9.84066 6.8568 10.0585 6.85714 10.2857ZM10.2857 11.1428C10.1162 11.1428 9.95046 11.0926 9.80951 10.9984C9.66855 10.9042 9.55869 10.7703 9.49382 10.6137C9.42894 10.4571 9.41197 10.2848 9.44504 10.1185C9.47811 9.95222 9.55975 9.79949 9.67962 9.67962C9.79949 9.55974 9.95222 9.47811 10.1185 9.44503C10.2848 9.41196 10.4571 9.42894 10.6137 9.49381C10.7703 9.55869 10.9042 9.66855 10.9984 9.8095C11.0926 9.95046 11.1429 10.1162 11.1429 10.2857C11.1426 10.513 11.0522 10.7309 10.8916 10.8915C10.7309 11.0522 10.513 11.1426 10.2857 11.1428Z" fill="#B6B6B6"/>
</svg>
