<svg width="18" height="18" viewBox="0 0 18 18" fill="none" xmlns="http://www.w3.org/2000/svg">
<g clip-path="url(#clip0_2542_6416)">
<path d="M0.53418 9.00039C0.53418 12.6848 2.89668 15.8066 6.15918 16.9598V1.04102C2.89668 2.19414 0.53418 5.31602 0.53418 9.00039Z" fill="#428BC1"/>
<path d="M17.4092 9.00039C17.4092 5.31602 15.0748 2.19414 11.7842 1.04102V16.9598C15.0748 15.8066 17.4092 12.6848 17.4092 9.00039Z" fill="#ED4C5C"/>
<path d="M6.15918 16.9594C7.03105 17.2687 7.9873 17.4375 8.97168 17.4375C9.95606 17.4375 10.9123 17.2687 11.7842 16.9594V1.04063C10.9123 0.73125 9.98418 0.5625 8.97168 0.5625C7.95918 0.5625 7.03105 0.73125 6.15918 1.04063V16.9594Z" fill="white"/>
</g>
<defs>
<clipPath id="clip0_2542_6416">
<rect width="18" height="18" fill="white"/>
</clipPath>
</defs>
</svg>
