<svg width="12" height="17" viewBox="0 0 12 17" fill="none" xmlns="http://www.w3.org/2000/svg">
<path d="M7.61429 8.86369L7.672 8.89062L9.1921 9.6L7.672 10.3094L7.61429 10.3363V10.4V11.843L6.04229 11.1094L6 11.0896L5.95771 11.1094L4.38571 11.843V10.4V10.3363L4.328 10.3094L2.8079 9.6L4.328 8.89062L4.38571 8.86369V8.8V7.35702L5.95771 8.09062L6 8.11035L6.04229 8.09062L7.61429 7.35702V8.8V8.86369ZM1.61429 12.8V12.9H1.71429H2.47143V14.3H1.71429C1.28401 14.3 0.872626 14.1404 0.570334 13.8583C0.268276 13.5763 0.1 13.1955 0.1 12.8V1.6C0.1 1.20449 0.268276 0.823656 0.570334 0.541735C0.872626 0.259595 1.28401 0.1 1.71429 0.1H7.67487L11.9 4.04345V12.8C11.9 13.1955 11.7317 13.5763 11.4297 13.8583C11.1274 14.1404 10.716 14.3 10.2857 14.3H9.52857V12.9H10.2857H10.3857V12.8V4.8V4.7H10.2857H6.95714V1.6V1.5H6.85714H1.71429H1.61429V1.6V12.8ZM6.04229 15.9094L6 15.8896L5.95771 15.9094L4.38571 16.643V12.9H7.61429V16.643L6.04229 15.9094Z" fill="#B6B6B6" stroke="white" stroke-width="0.2"/>
</svg>
