<svg width="12" height="13" viewBox="0 0 12 13" fill="none" xmlns="http://www.w3.org/2000/svg">
<path fill-rule="evenodd" clip-rule="evenodd" d="M5.22168 0H6.65782V1.67198H5.22168V0Z" fill="#B6B6B6"/>
<path fill-rule="evenodd" clip-rule="evenodd" d="M11.9985 1.97539C11.9985 1.72373 11.7581 1.51953 11.462 1.51953H0.536481C0.239608 1.51953 0 1.72373 0 1.97539V2.96698H0.724853V9.03178H4.0658L2.33656 11.0948C2.21525 11.2169 2.26045 11.4603 2.43903 11.6388L2.76303 11.9621L5.26987 9.12144V12.0322H6.66457V9.04383L9.24074 11.9613L9.56398 11.6381C9.74256 11.4603 9.78852 11.2161 9.66646 11.0941L7.88447 9.03102H11.2043V2.96622H12V1.97539H11.9985ZM10.5202 8.36871H1.42409V2.96698H10.5202V8.36871Z" fill="#B6B6B6"/>
</svg>
