<svg width="36" height="36" viewBox="0 0 36 36" fill="none" xmlns="http://www.w3.org/2000/svg">
<rect x="0.25" y="0.25" width="35.5" height="35.5" rx="2.75" fill="#EAF7FF" stroke="#AEE1FF" stroke-width="0.5"/>
<path d="M24.8713 15.8709C24.7999 15.7672 24.7038 15.6829 24.5917 15.6257C24.4796 15.5684 24.3549 15.5401 24.2291 15.5431H14.1755C13.9634 15.5521 13.7579 15.6198 13.582 15.7387C13.406 15.8575 13.2665 16.0229 13.179 16.2163C13.1776 16.2369 13.1776 16.2577 13.179 16.2783L11.8858 20.8578V12.8858H14.7601L15.9161 14.4758C15.9573 14.5322 16.0113 14.578 16.0736 14.6096C16.136 14.6412 16.2049 14.6575 16.2748 14.6573H23.4009C23.4009 14.4224 23.3076 14.1971 23.1415 14.031C22.9753 13.8649 22.75 13.7716 22.5151 13.7716H16.5007L15.4776 12.3632C15.3951 12.2503 15.2872 12.1586 15.1625 12.0955C15.0378 12.0324 14.8999 11.9996 14.7601 12H11.8858C11.6509 12 11.4256 12.0933 11.2594 12.2594C11.0933 12.4256 11 12.6509 11 12.8858V22.9349C11.0069 23.0943 11.0763 23.2446 11.1932 23.3532C11.3101 23.4617 11.465 23.5199 11.6245 23.5151H22.6657C22.7645 23.5191 22.8618 23.4898 22.9421 23.432C23.0224 23.3742 23.081 23.2912 23.1086 23.1962L24.9643 16.5086C24.9989 16.4023 25.0085 16.2895 24.9924 16.1789C24.9763 16.0682 24.9348 15.9628 24.8713 15.8709Z" fill="#42A4DF"/>
</svg>
