<svg width="30" height="30" viewBox="0 0 30 30" fill="none" xmlns="http://www.w3.org/2000/svg">
<g clip-path="url(#clip0_12_26652)">
<path d="M29.902 26.678C29.9023 27.1015 29.8192 27.5208 29.6574 27.9122C29.4955 28.3035 29.2582 28.6592 28.9589 28.9587C28.6595 29.2583 28.3041 29.496 27.9129 29.6582C27.5217 29.8203 27.1024 29.9038 26.6789 29.9039H3.22219C2.7988 29.9037 2.3796 29.82 1.98854 29.6578C1.59747 29.4955 1.24219 29.2578 0.942981 28.9583C0.643773 28.6587 0.406497 28.3032 0.2447 27.9119C0.0829032 27.5207 -0.000245755 27.1014 5.45584e-07 26.678V3.22359C-0.000123799 2.36885 0.339271 1.54906 0.943535 0.944529C1.5478 0.340001 2.36744 0.000248608 3.22219 0L26.6794 0C28.4606 0 29.9025 1.44375 29.9025 3.22359V26.678H29.902Z" fill="#1B75BB"/>
<path fill-rule="evenodd" clip-rule="evenodd" d="M19.6967 12.0036C19.46 12.0622 19.2369 12.1972 18.9988 12.2286C17.9188 12.373 16.836 12.4921 15.7541 12.6271C15.6575 12.6421 15.5291 12.6894 15.4841 12.7686L15.4785 12.778C15.3885 12.7981 15.3046 12.8413 15.2605 12.9538C14.9188 13.8402 14.3577 14.5944 13.9691 15.4564C13.6461 16.1839 13.3541 16.9133 12.9899 17.6188C13.7741 18.005 14.2658 18.7321 14.4524 19.5364C14.6153 19.5058 14.7806 19.4898 14.9464 19.4886C15.0364 19.4886 15.1152 19.5069 15.2038 19.5144C15.2731 19.3747 15.343 19.2378 15.4185 19.1028C15.6463 18.6988 15.9055 18.3116 16.1483 17.9164C16.2092 17.9413 16.2706 17.9656 16.3297 17.9914C16.4239 18.6472 16.3606 19.3466 16.5205 19.9461C16.6691 20.0436 16.8036 20.1547 16.9264 20.2766C17.3408 18.9191 17.7163 17.5124 18.2399 16.1675C18.7911 14.7519 19.5186 13.4174 20.211 11.9586C20.0347 11.9703 19.858 11.9624 19.6967 12.0036Z" fill="white"/>
<path fill-rule="evenodd" clip-rule="evenodd" d="M26.3532 19.109L23.4601 11.9315C23.4212 11.8945 23.4493 11.8274 23.401 11.7918C23.3794 11.7734 23.3565 11.7565 23.3326 11.7412C23.0288 11.5457 22.7438 11.4759 22.4949 11.6127L22.494 11.6062L22.472 11.6301C22.4148 11.6662 22.358 11.6981 22.3051 11.7571C22.0613 12.0346 21.849 12.3449 21.6455 12.6609C20.439 14.2949 18.3821 17.6849 18.3549 21.7776C18.3366 22.0842 18.3484 22.3893 18.3741 22.6912C18.376 22.7212 18.377 22.7507 18.3807 22.7798V22.7704C18.3901 22.8698 18.3971 22.9706 18.4065 23.0681C18.8345 22.9851 19.1377 22.8881 19.4448 22.8773C20.4634 22.8374 21.4801 22.8327 22.4987 22.8098C22.9604 22.7999 23.2332 22.4938 23.2351 21.9857C23.2407 21.0993 23.236 20.2134 23.236 19.326L23.9724 20.7534L23.3518 26.1538C23.3152 25.6504 23.258 25.3106 23.2745 24.9759C23.2857 24.7565 23.2496 24.6079 23.1859 24.4931L23.1549 24.1917H17.5534L17.4582 24.6492L17.4507 24.6501C17.4502 24.681 17.4409 24.7101 17.4395 24.741L17.0293 26.6788L17.1938 26.6423C17.1911 26.6543 17.1909 26.6668 17.1934 26.6788H25.8343C25.9721 25.7873 26.1127 24.9412 26.2304 24.0942C26.3598 23.1721 26.4685 22.2445 26.5852 21.3206C26.5496 19.9818 26.357 19.1048 26.357 19.1048" fill="white"/>
<path fill-rule="evenodd" clip-rule="evenodd" d="M20.3342 6.28783C20.2897 6.28783 20.2513 6.29345 20.2072 6.29345L20.2091 6.28595C18.2132 6.12705 15.8417 6.63845 14.7257 6.91783L14.5714 6.92955C14.5171 6.9572 14.4594 6.97642 14.4041 7.0022C14.3582 7.01345 14.3216 7.02423 14.2869 7.03267H14.286L14.2794 7.03548C14.158 7.06923 14.0844 7.0908 14.0844 7.0908V7.11845C12.0388 7.96736 13.0485 8.4422 13.8364 8.64752C13.8364 8.64752 13.8449 8.65314 13.8477 8.65408C13.8678 8.66345 13.8889 8.6597 13.91 8.66673C14.0619 8.7033 14.1983 8.73095 14.2977 8.7483C14.5925 9.3572 14.7857 9.89908 15.096 10.3416C15.7213 11.2402 16.5116 11.9756 17.63 11.8495C18.1757 11.7872 18.7489 11.5106 19.2135 11.1774C19.7886 10.762 20.2513 10.1311 20.315 9.36423C20.3938 8.37658 20.3342 7.37345 20.3342 6.28783Z" fill="white"/>
<path fill-rule="evenodd" clip-rule="evenodd" d="M13.9092 2.70514C13.9092 2.70514 11.9053 3.71436 12.3848 5.02968C12.8662 6.34593 14.0306 6.28593 14.0306 6.28593C14.0306 6.28593 17.7764 5.47405 20.2101 5.60811L21.5198 4.77796C21.5198 4.77796 21.7153 4.38421 20.8035 4.06874C20.8035 4.06874 16.844 2.05358 13.9092 2.70514Z" fill="white"/>
<path fill-rule="evenodd" clip-rule="evenodd" d="M14.4976 4.52725C14.4976 4.96787 14.1653 5.32646 13.757 5.32646C13.3483 5.32646 13.0168 4.96834 13.0168 4.52725C13.0168 4.08709 13.3483 3.72803 13.757 3.72803C14.1648 3.72803 14.4976 4.08709 14.4976 4.52725Z" fill="#1B75BB"/>
<path fill-rule="evenodd" clip-rule="evenodd" d="M14.9729 18.328C15.0793 18.467 15.1573 18.6255 15.2024 18.7945C15.2475 18.9636 15.2589 19.1399 15.2359 19.3134C15.2128 19.4869 15.1559 19.6541 15.0682 19.8055C14.9805 19.957 14.8639 20.0897 14.7249 20.196C14.4439 20.4101 14.0895 20.504 13.7393 20.4572C13.3891 20.4103 13.0718 20.2266 12.8569 19.9462L9.91742 16.1015C9.81134 15.9625 9.73367 15.804 9.68887 15.635C9.64406 15.4659 9.63298 15.2898 9.65627 15.1165C9.67956 14.9432 9.73675 14.7762 9.82459 14.625C9.91243 14.4738 10.0292 14.3414 10.1682 14.2354C10.307 14.1289 10.4655 14.0509 10.6345 14.0058C10.8035 13.9606 10.9797 13.9492 11.1531 13.9723C11.3265 13.9953 11.4937 14.0523 11.6451 14.14C11.7964 14.2277 11.929 14.3444 12.0352 14.4833L14.9729 18.328Z" fill="white"/>
<path fill-rule="evenodd" clip-rule="evenodd" d="M9.61453 12.8624C9.79265 13.393 9.14578 14.0896 8.16328 14.4182L6.91968 14.8349C5.94046 15.163 5.00296 14.9985 4.82578 14.4674L3.07124 9.24085C2.89218 8.7107 3.53999 8.01366 4.52156 7.68601L5.76421 7.26882C6.74531 6.9407 7.68187 7.10335 7.86093 7.63351L9.61453 12.8624Z" fill="white"/>
</g>
<defs>
<clipPath id="clip0_12_26652">
<rect width="30" height="30" fill="white"/>
</clipPath>
</defs>
</svg>
