<svg width="14" height="16" viewBox="0 0 14 16" fill="none" xmlns="http://www.w3.org/2000/svg">
<g clip-path="url(#clip0_11_20768)">
<path d="M12.8332 15.3624H4.08317C3.77385 15.3621 3.47728 15.2476 3.25855 15.0439C3.03983 14.8403 2.91681 14.5642 2.9165 14.2762V11.0176H4.08317V14.2762H12.8332V2.32791H7.58317V1.2417H12.8332C13.1425 1.24199 13.4391 1.35652 13.6578 1.56016C13.8765 1.7638 13.9995 2.03991 13.9998 2.32791V14.2762C13.9995 14.5642 13.8765 14.8403 13.6578 15.0439C13.4391 15.2476 13.1425 15.3621 12.8332 15.3624Z" fill="#ABABAB"/>
<path d="M7.5835 4.50049H11.6668V5.5867H7.5835V4.50049Z" fill="#ABABAB"/>
<path d="M7 7.21582H11.6667V8.30203H7V7.21582Z" fill="#ABABAB"/>
<path d="M6.4165 9.93164H11.6665V11.0178H6.4165V9.93164Z" fill="#ABABAB"/>
<path d="M2.91667 9.38852C2.14336 9.3878 1.40194 9.10147 0.855125 8.59237C0.308311 8.08327 0.000772153 7.39298 0 6.673V0.698865H1.16667V6.673C1.16667 7.10512 1.35104 7.51955 1.67923 7.8251C2.00742 8.13065 2.45254 8.30231 2.91667 8.30231C3.3808 8.30231 3.82591 8.13065 4.1541 7.8251C4.48229 7.51955 4.66667 7.10512 4.66667 6.673V1.78507C4.66667 1.64103 4.60521 1.50289 4.49581 1.40104C4.38642 1.29919 4.23804 1.24197 4.08333 1.24197C3.92862 1.24197 3.78025 1.29919 3.67085 1.40104C3.56146 1.50289 3.5 1.64103 3.5 1.78507V7.21611H2.33333V1.78507C2.33333 1.35295 2.51771 0.938531 2.8459 0.632976C3.17408 0.327421 3.6192 0.155762 4.08333 0.155762C4.54746 0.155762 4.99258 0.327421 5.32077 0.632976C5.64896 0.938531 5.83333 1.35295 5.83333 1.78507V6.673C5.83256 7.39298 5.52502 8.08327 4.97821 8.59237C4.43139 9.10147 3.68998 9.3878 2.91667 9.38852Z" fill="#ABABAB"/>
</g>
<defs>
<clipPath id="clip0_11_20768">
<rect width="14" height="16" fill="white"/>
</clipPath>
</defs>
</svg>
