<svg width="14" height="15" viewBox="0 0 14 15" fill="none" xmlns="http://www.w3.org/2000/svg">
<path d="M12.0446 11.1005C11.4472 11.1005 10.9124 11.3609 10.5537 11.7697L4.55765 10.7686L8.85816 8.50048C9.17131 8.7071 9.54987 8.82838 9.95695 8.82838C11.0349 8.82838 11.9113 7.98142 11.9113 6.94061C11.9113 5.90014 11.0342 5.05319 9.95695 5.05319C9.77742 5.05319 9.60415 5.07872 9.43957 5.12239L6.79524 2.63864C6.89927 2.40817 6.95773 2.15452 6.95773 1.88743C6.95773 0.846621 6.08057 0 5.00266 0C3.92475 0 3.04759 0.846621 3.04759 1.88709C3.04759 2.92756 3.92475 3.77452 5.00231 3.77452C5.15749 3.77452 5.30815 3.75503 5.45324 3.72177L8.14106 6.24585C8.05199 6.4612 8.00224 6.69469 8.00224 6.94028C8.00224 6.97219 8.00572 7.00344 8.00746 7.03468L2.96374 9.69448C2.66869 9.5218 2.32423 9.42068 1.95472 9.42068C0.876805 9.42068 0 10.2676 0 11.3081C0 12.3486 0.877153 13.1952 1.95472 13.1952C2.6492 13.1952 3.25879 12.8428 3.60569 12.314L10.14 13.4052C10.3373 14.2451 11.1159 14.875 12.0449 14.875C13.1232 14.875 14 14.028 14 12.9879C13.9997 11.9471 13.1218 11.1005 12.0446 11.1005ZM10.8675 6.94061C10.8675 7.42608 10.459 7.8205 9.95695 7.8205C9.45488 7.8205 9.04605 7.42608 9.04605 6.94061C9.04605 6.45549 9.45488 6.06107 9.95695 6.06107C10.459 6.06107 10.8675 6.45549 10.8675 6.94061ZM4.09141 1.88709C4.09141 1.40196 4.50024 1.00755 5.00231 1.00755C5.50439 1.00755 5.91321 1.40196 5.91321 1.88709C5.91321 2.37222 5.50439 2.76664 5.00231 2.76664C4.50024 2.76664 4.09141 2.37222 4.09141 1.88709ZM1.95402 12.1876C1.45195 12.1876 1.04312 11.7932 1.04312 11.3078C1.04312 10.823 1.45195 10.4286 1.95402 10.4286C2.4561 10.4286 2.86492 10.823 2.86492 11.3078C2.86492 11.7936 2.45645 12.1876 1.95402 12.1876ZM12.0446 13.8675C11.5425 13.8675 11.1337 13.473 11.1337 12.9876C11.1337 12.5028 11.5425 12.1084 12.0446 12.1084C12.5467 12.1084 12.9551 12.5028 12.9551 12.9876C12.9551 13.4734 12.5467 13.8675 12.0446 13.8675Z" fill="#ABABAB"/>
</svg>
