<svg width="14" height="14" viewBox="0 0 14 14" fill="none" xmlns="http://www.w3.org/2000/svg">
<path d="M12.8711 12.8706H13.7743V13.7738H12.8711V12.8706Z" fill="#959798"/>
<path d="M12.8711 12.8706H13.3227V13.7738H12.8711V12.8706Z" fill="#959798"/>
<path d="M11.0645 11.5161H11.9677V12.4193H11.0645V11.5161Z" fill="#959798"/>
<path d="M11.0645 11.5161H11.5161V12.4193H11.0645V11.5161Z" fill="#959798"/>
<path d="M2.03223 11.5161H2.93545V12.4193H2.03223V11.5161Z" fill="#959798"/>
<path d="M2.03223 11.5161H2.48384V12.4193H2.03223V11.5161Z" fill="#959798"/>
<path d="M0.225586 12.8706H1.12881V13.7738H0.225586V12.8706Z" fill="#959798"/>
<path d="M0.225586 12.8706H0.677199V13.7738H0.225586V12.8706Z" fill="#959798"/>
<path d="M13.5484 12.871H13.0968V0.451613H0.903273V12.871H0.45166V0.225806C0.45166 0.101216 0.552876 0 0.677467 0H13.3226C13.4472 0 13.5484 0.101216 13.5484 0.225806V12.871Z" fill="#ABABAB"/>
<path d="M11.5159 2.70949H2.48368C2.42381 2.70949 2.36626 2.68578 2.32403 2.64333L0.517578 0.836883L0.836883 0.517578L2.57718 2.25788H11.4224L13.1627 0.517578L13.482 0.836883L11.6756 2.64333C11.6334 2.68578 11.5758 2.70949 11.5159 2.70949Z" fill="#ABABAB"/>
<path d="M2.35547 10.652L13.1962 3.20215L13.452 3.57438L2.61127 11.0242L2.35547 10.652Z" fill="#ABABAB"/>
<path d="M0.549316 3.57329L0.805223 3.20117L11.6433 10.6523L11.3875 11.0245L0.549316 3.57329Z" fill="#ABABAB"/>
<path d="M2.2583 2.48389H2.70991V11.5161H2.2583V2.48389Z" fill="#ABABAB"/>
<path d="M11.2905 2.48389H11.7421V11.5161H11.2905V2.48389Z" fill="#ABABAB"/>
<path d="M11.9679 12.6454H11.0647C10.9401 12.6454 10.8389 12.5445 10.8389 12.4196V11.5163C10.8389 11.3914 10.9401 11.2905 11.0647 11.2905H11.9679C12.0925 11.2905 12.1937 11.3914 12.1937 11.5163V12.4196C12.1937 12.5445 12.0925 12.6454 11.9679 12.6454ZM11.2905 12.1938H11.7421V11.7421H11.2905V12.1938Z" fill="#ABABAB"/>
<path d="M13.7741 13.9999H12.8708C12.7462 13.9999 12.645 13.899 12.645 13.7741V12.8708C12.645 12.7459 12.7462 12.645 12.8708 12.645H13.7741C13.8986 12.645 13.9999 12.7459 13.9999 12.8708V13.7741C13.9999 13.899 13.8986 13.9999 13.7741 13.9999ZM13.0966 13.5482H13.5482V13.0966H13.0966V13.5482Z" fill="#ABABAB"/>
<path d="M1.12903 13.9999H0.225806C0.101216 13.9999 0 13.899 0 13.7741V12.8708C0 12.7459 0.101216 12.645 0.225806 12.645H1.12903C1.25362 12.645 1.35484 12.7459 1.35484 12.8708V13.7741C1.35484 13.899 1.25362 13.9999 1.12903 13.9999ZM0.451613 13.5482H0.903226V13.0966H0.451613V13.5482Z" fill="#ABABAB"/>
<path d="M2.93567 12.6454H2.03245C1.90786 12.6454 1.80664 12.5445 1.80664 12.4196V11.5163C1.80664 11.3914 1.90786 11.2905 2.03245 11.2905H2.93567C3.06026 11.2905 3.16148 11.3914 3.16148 11.5163V12.4196C3.16148 12.5445 3.06026 12.6454 2.93567 12.6454ZM2.25825 12.1938H2.70987V11.7421H2.25825V12.1938Z" fill="#ABABAB"/>
<path d="M8.17041 2.35421L9.75062 0.0957031L10.1206 0.354587L8.54043 2.6132L8.17041 2.35421Z" fill="#ABABAB"/>
<path d="M4.10498 0.355185L4.475 0.0961914L6.05576 2.35426L5.68585 2.61325L4.10498 0.355185Z" fill="#ABABAB"/>
<path d="M0.528809 2.20223L0.826172 1.8623L2.63262 3.44295L2.33526 3.78287L0.528809 2.20223Z" fill="#ABABAB"/>
<path d="M11.3672 3.4429L13.1732 1.86182L13.4707 2.20163L11.6647 3.78271L11.3672 3.4429Z" fill="#ABABAB"/>
<path d="M12.6453 2.82272H12.1937V1.80659H1.80659V2.82272H1.35498V1.58079C1.35498 1.4562 1.4562 1.35498 1.58079 1.35498H12.4195C12.5441 1.35498 12.6453 1.4562 12.6453 1.58079V2.82272Z" fill="#ABABAB"/>
<path d="M0.813004 11.2455L0.541992 10.8843L1.35492 10.2746V4.06494H1.80653V10.3875C1.80653 10.4584 1.77312 10.5255 1.71623 10.5681L0.813004 11.2455Z" fill="#ABABAB"/>
<path d="M0.576172 5.84723L0.778053 5.44336L1.68128 5.89497L1.47929 6.29884L0.576172 5.84723Z" fill="#ABABAB"/>
<path d="M0.623047 8.36177L1.52616 8.13574L1.63576 8.57368L0.732642 8.79971L0.623047 8.36177Z" fill="#ABABAB"/>
<path d="M13.1869 11.2455L12.2837 10.5681C12.2268 10.5255 12.1934 10.4584 12.1934 10.3875V4.06494H12.645V10.2746L13.4579 10.8843L13.1869 11.2455Z" fill="#ABABAB"/>
<path d="M12.3179 5.89437L13.2211 5.44287L13.4231 5.84674L12.5199 6.29836L12.3179 5.89437Z" fill="#ABABAB"/>
<path d="M12.3638 8.57417L12.4733 8.13623L13.3764 8.36204L13.2669 8.79987L12.3638 8.57417Z" fill="#ABABAB"/>
</svg>
