<svg width="14" height="14" viewBox="0 0 14 14" fill="none" xmlns="http://www.w3.org/2000/svg">
<path d="M1.29053 13.5625C0.568653 13.5625 0.240528 13.0375 0.568653 12.4031L6.40928 0.918744C6.7374 0.284369 7.2624 0.284369 7.59053 0.918744L13.4312 12.4031C13.7593 13.0375 13.4312 13.5625 12.7093 13.5625H1.29053Z" fill="#F8CC23"/>
<path d="M6.08136 5.16251L6.69386 9.20939C6.75949 9.60314 7.26261 9.60314 7.32824 9.20939L7.91886 5.16251C8.02824 3.58751 5.97199 3.58751 6.08136 5.16251Z" fill="#231F20"/>
<path d="M7.00005 11.7688C7.50746 11.7688 7.9188 11.3574 7.9188 10.85C7.9188 10.3426 7.50746 9.93127 7.00005 9.93127C6.49264 9.93127 6.0813 10.3426 6.0813 10.85C6.0813 11.3574 6.49264 11.7688 7.00005 11.7688Z" fill="#231F20"/>
</svg>
