<svg width="30" height="30" viewBox="0 0 30 30" fill="none" xmlns="http://www.w3.org/2000/svg">
<rect x="0.5" y="0.5" width="29" height="29" rx="1.5" fill="white" stroke="#D8D8D8"/>
<path d="M13.0913 13.3638V18.4547C13.0913 18.6235 13.1584 18.7853 13.2777 18.9047C13.397 19.024 13.5589 19.0911 13.7277 19.0911C13.8964 19.0911 14.0583 19.024 14.1776 18.9047C14.297 18.7853 14.364 18.6235 14.364 18.4547V13.3638C14.364 13.195 14.297 13.0331 14.1776 12.9138C14.0583 12.7945 13.8964 12.7274 13.7277 12.7274C13.5589 12.7274 13.397 12.7945 13.2777 12.9138C13.1584 13.0331 13.0913 13.195 13.0913 13.3638Z" fill="#FF3838"/>
<path d="M16.2726 12.7274C16.4414 12.7274 16.6032 12.7945 16.7226 12.9138C16.8419 13.0331 16.909 13.195 16.909 13.3638V18.4547C16.909 18.6235 16.8419 18.7853 16.7226 18.9047C16.6032 19.024 16.4414 19.0911 16.2726 19.0911C16.1038 19.0911 15.942 19.024 15.8226 18.9047C15.7033 18.7853 15.6362 18.6235 15.6362 18.4547V13.3638C15.6362 13.195 15.7033 13.0331 15.8226 12.9138C15.942 12.7945 16.1038 12.7274 16.2726 12.7274Z" fill="#FF3838"/>
<path d="M17.5455 9.54545H21.3636C21.5324 9.54545 21.6943 9.6125 21.8136 9.73184C21.933 9.85118 22 10.013 22 10.1818C22 10.3506 21.933 10.5125 21.8136 10.6318C21.6943 10.7511 21.5324 10.8182 21.3636 10.8182H20.6598L19.7027 19.4422C19.6163 20.2205 19.2458 20.9396 18.6623 21.4619C18.0787 21.9841 17.3231 22.2728 16.54 22.2727H13.46C12.6769 22.2728 11.9213 21.9841 11.3377 21.4619C10.7542 20.9396 10.3837 20.2205 10.2973 19.4422L9.33891 10.8182H8.63636C8.46759 10.8182 8.30573 10.7511 8.18639 10.6318C8.06705 10.5125 8 10.3506 8 10.1818C8 10.013 8.06705 9.85118 8.18639 9.73184C8.30573 9.6125 8.46759 9.54545 8.63636 9.54545H12.4545C12.4545 8.87036 12.7227 8.22291 13.2001 7.74555C13.6775 7.26818 14.3249 7 15 7C15.6751 7 16.3225 7.26818 16.7999 7.74555C17.2773 8.22291 17.5455 8.87036 17.5455 9.54545ZM15 8.27273C14.6625 8.27273 14.3387 8.40682 14.1 8.6455C13.8614 8.88418 13.7273 9.20791 13.7273 9.54545H16.2727C16.2727 9.20791 16.1386 8.88418 15.9 8.6455C15.6613 8.40682 15.3375 8.27273 15 8.27273ZM10.6205 10.8182L11.5624 19.3022C11.6144 19.7691 11.8367 20.2004 12.1868 20.5137C12.5369 20.8269 12.9902 21.0001 13.46 21H16.54C17.0096 20.9998 17.4626 20.8265 17.8124 20.5132C18.1623 20.2 18.3844 19.7689 18.4364 19.3022L19.3807 10.8182H10.6218H10.6205Z" fill="#FF3838"/>
</svg>
