<svg width="36" height="36" viewBox="0 0 36 36" fill="none" xmlns="http://www.w3.org/2000/svg">
<rect x="0.25" y="0.25" width="35.5" height="35.5" rx="2.75" fill="#EAF7FF" stroke="#AEE1FF" stroke-width="0.5"/>
<path d="M18 9C16.1442 9.00219 14.365 9.74039 13.0527 11.0527C11.7404 12.3649 11.0022 14.1442 11 16C10.9978 17.5166 11.4932 18.992 12.4102 20.2C12.4102 20.2 12.6011 20.4514 12.6323 20.4876L18 26.8182L23.3703 20.4844C23.3983 20.4507 23.5898 20.2 23.5898 20.2L23.5904 20.1981C24.507 18.9907 25.0022 17.5159 25 16C24.9978 14.1442 24.2596 12.3649 22.9473 11.0527C21.635 9.74039 19.8558 9.00219 18 9ZM18.6364 19.1818H17.3636V17.9091H18.6364V19.1818ZM18.6364 16.6364H17.3636V15.3636H18.6364V16.6364ZM21.1818 19.1818H19.9091V14.0909H16.0909V19.1818H14.8182V14.0909C14.8185 13.7535 14.9527 13.4299 15.1913 13.1913C15.4299 12.9527 15.7535 12.8185 16.0909 12.8182H19.9091C20.2465 12.8185 20.5701 12.9527 20.8087 13.1913C21.0473 13.4299 21.1815 13.7535 21.1818 14.0909V19.1818Z" fill="#42A4DF"/>
</svg>
