<svg width="16" height="19" viewBox="0 0 16 19" fill="none" xmlns="http://www.w3.org/2000/svg">
<path d="M8.47266 18.2812C9.50391 18.2812 10.3477 17.4375 10.3477 16.4062H6.59766C6.59766 16.9035 6.7952 17.3804 7.14683 17.7321C7.49846 18.0837 7.97538 18.2812 8.47266 18.2812ZM14.0977 12.6562V7.96875C14.0977 5.09063 12.5602 2.68125 9.87891 2.04375V1.40625C9.87891 0.628125 9.25078 0 8.47266 0C7.69453 0 7.06641 0.628125 7.06641 1.40625V2.04375C4.37578 2.68125 2.84766 5.08125 2.84766 7.96875V12.6562L0.972656 14.5312V15.4688H15.9727V14.5312L14.0977 12.6562Z" fill="#E2E2E2"/>
</svg>
