<svg width="16" height="18" viewBox="0 0 16 18" fill="none" xmlns="http://www.w3.org/2000/svg">
<path d="M5.81824 7.27311V13.0913C5.81824 13.2842 5.89486 13.4692 6.03125 13.6056C6.16764 13.7419 6.35263 13.8186 6.54551 13.8186C6.73839 13.8186 6.92338 13.7419 7.05977 13.6056C7.19616 13.4692 7.27278 13.2842 7.27278 13.0913V7.27311C7.27278 7.08023 7.19616 6.89524 7.05977 6.75885C6.92338 6.62246 6.73839 6.54584 6.54551 6.54584C6.35263 6.54584 6.16764 6.62246 6.03125 6.75885C5.89486 6.89524 5.81824 7.08023 5.81824 7.27311Z" fill="#FF3838"/>
<path d="M9.45457 6.54584C9.64745 6.54584 9.83244 6.62246 9.96883 6.75885C10.1052 6.89524 10.1818 7.08023 10.1818 7.27311V13.0913C10.1818 13.2842 10.1052 13.4692 9.96883 13.6056C9.83244 13.7419 9.64745 13.8186 9.45457 13.8186C9.26168 13.8186 9.0767 13.7419 8.94031 13.6056C8.80392 13.4692 8.72729 13.2842 8.72729 13.0913V7.27311C8.72729 7.08023 8.80392 6.89524 8.94031 6.75885C9.0767 6.62246 9.26168 6.54584 9.45457 6.54584Z" fill="#FF3838"/>
<path d="M10.9091 2.90909H15.2727C15.4656 2.90909 15.6506 2.98571 15.787 3.1221C15.9234 3.25849 16 3.44348 16 3.63636C16 3.82925 15.9234 4.01423 15.787 4.15062C15.6506 4.28701 15.4656 4.36364 15.2727 4.36364H14.4684L13.3745 14.2196C13.2757 15.1091 12.8524 15.931 12.1855 16.5278C11.5186 17.1247 10.655 17.4546 9.76 17.4545H6.24C5.34502 17.4546 4.48143 17.1247 3.81453 16.5278C3.14763 15.931 2.72426 15.1091 2.62545 14.2196L1.53018 4.36364H0.727273C0.534388 4.36364 0.349404 4.28701 0.213013 4.15062C0.0766233 4.01423 0 3.82925 0 3.63636C0 3.44348 0.0766233 3.25849 0.213013 3.1221C0.349404 2.98571 0.534388 2.90909 0.727273 2.90909H5.09091C5.09091 2.13755 5.3974 1.39761 5.94296 0.852053C6.48852 0.306493 7.22846 0 8 0C8.77154 0 9.51148 0.306493 10.057 0.852053C10.6026 1.39761 10.9091 2.13755 10.9091 2.90909ZM8 1.45455C7.61423 1.45455 7.24426 1.60779 6.97148 1.88057C6.6987 2.15335 6.54545 2.52332 6.54545 2.90909H9.45455C9.45455 2.52332 9.3013 2.15335 9.02852 1.88057C8.75574 1.60779 8.38577 1.45455 8 1.45455ZM2.99491 4.36364L4.07127 14.0596C4.13069 14.5932 4.38477 15.0862 4.7849 15.4442C5.18502 15.8022 5.7031 16.0001 6.24 16H9.76C10.2966 15.9997 10.8144 15.8017 11.2142 15.4437C11.614 15.0857 11.8679 14.593 11.9273 14.0596L13.0065 4.36364H2.99636H2.99491Z" fill="#FF3838"/>
</svg>
