<svg width="15" height="21" viewBox="0 0 15 21" fill="none" xmlns="http://www.w3.org/2000/svg">
<path d="M9.64383 11V9L7.50098 10L5.35812 9V11L3.21526 12L5.35812 13V15L7.50098 14L9.64383 15V13L11.7867 12L9.64383 11ZM9.64383 0H2.14383C1.57551 0 1.03047 0.210714 0.628605 0.585786C0.226741 0.960859 0.000976563 1.46957 0.000976562 2V16C0.000976563 16.5304 0.226741 17.0391 0.628605 17.4142C1.03047 17.7893 1.57551 18 2.14383 18H3.21526V16H2.14383V2H8.5724V6H12.8581V16H11.7867V18H12.8581C13.4264 18 13.9715 17.7893 14.3733 17.4142C14.7752 17.0391 15.001 16.5304 15.001 16V5L9.64383 0ZM9.64383 11V9L7.50098 10L5.35812 9V11L3.21526 12L5.35812 13V15L7.50098 14L9.64383 15V13L11.7867 12L9.64383 11ZM5.35812 21L7.50098 20L9.64383 21V16H5.35812V21ZM9.64383 11V9L7.50098 10L5.35812 9V11L3.21526 12L5.35812 13V15L7.50098 14L9.64383 15V13L11.7867 12L9.64383 11Z" fill="#C4C4C4"/>
</svg>
