<svg width="15" height="20" viewBox="0 0 15 20" fill="none" xmlns="http://www.w3.org/2000/svg">
<path d="M7.50098 0.00146484C5.51258 0.00381062 3.60629 0.79474 2.20027 2.20075C0.794259 3.60677 0.00333031 5.51306 0.000984542 7.50146C-0.00139697 9.12638 0.52938 10.7072 1.51189 12.0015C1.51189 12.0015 1.71644 12.2708 1.74985 12.3096L7.50098 19.0924L13.2548 12.3062C13.2848 12.2701 13.4901 12.0015 13.4901 12.0015L13.4907 11.9994C14.4728 10.7057 15.0033 9.12564 15.001 7.50146C14.9986 5.51306 14.2077 3.60677 12.8017 2.20075C11.3957 0.79474 9.48938 0.00381062 7.50098 0.00146484ZM8.18279 10.9105H6.81916V9.54691H8.18279V10.9105ZM8.18279 8.18327H6.81916V6.81964H8.18279V8.18327ZM10.9101 10.9105H9.54643V5.456H5.45552V10.9105H4.09189V5.456C4.09225 5.09446 4.23603 4.74782 4.49169 4.49217C4.74734 4.23652 5.09398 4.09273 5.45552 4.09237H9.54643C9.90798 4.09273 10.2546 4.23652 10.5103 4.49217C10.7659 4.74782 10.9097 5.09446 10.9101 5.456V10.9105Z" fill="white"/>
</svg>
