<svg width="13" height="13" viewBox="0 0 13 13" fill="none" xmlns="http://www.w3.org/2000/svg">
<path fill-rule="evenodd" clip-rule="evenodd" d="M0.316867 0.330397C0.519817 0.127507 0.795041 0.01353 1.08201 0.01353C1.36899 0.01353 1.64421 0.127507 1.84716 0.330397L6.49323 4.97647L11.1393 0.330397C11.2391 0.227031 11.3586 0.144583 11.4906 0.087864C11.6226 0.0311447 11.7647 0.00128957 11.9084 4.08624e-05C12.0521 -0.00120785 12.1946 0.0261745 12.3276 0.0805907C12.4606 0.135007 12.5814 0.215367 12.683 0.316982C12.7846 0.418597 12.865 0.539431 12.9194 0.672435C12.9738 0.805439 13.0012 0.947949 13 1.09165C12.9987 1.23535 12.9689 1.37736 12.9121 1.5094C12.8554 1.64144 12.773 1.76086 12.6696 1.86069L8.02353 6.50676L12.6696 11.1528C12.8667 11.357 12.9758 11.6303 12.9734 11.9141C12.9709 12.1979 12.8571 12.4693 12.6564 12.6699C12.4558 12.8706 12.1843 12.9844 11.9006 12.9869C11.6168 12.9894 11.3434 12.8803 11.1393 12.6831L6.49323 8.03706L1.84716 12.6831C1.64305 12.8803 1.36967 12.9894 1.08591 12.9869C0.802147 12.9844 0.530707 12.8706 0.33005 12.6699C0.129393 12.4693 0.0155741 12.1979 0.0131083 11.9141C0.0106425 11.6303 0.119727 11.357 0.316867 11.1528L4.96294 6.50676L0.316867 1.86069C0.113977 1.65774 0 1.38252 0 1.09554C0 0.808571 0.113977 0.533347 0.316867 0.330397Z" fill="#33B046"/>
</svg>
