<svg width="16" height="13" viewBox="0 0 16 13" fill="none" xmlns="http://www.w3.org/2000/svg">
<path d="M16.001 1V4C16.001 4.28125 15.9046 4.51823 15.7119 4.71094C15.5192 4.90365 15.2822 5 15.001 5H14.001V12.5C14.001 12.6354 13.9515 12.7526 13.8525 12.8516C13.7536 12.9505 13.6364 13 13.501 13H12.501C12.3656 13 12.2484 12.9505 12.1494 12.8516C12.0505 12.7526 12.001 12.6354 12.001 12.5V9H4.00098V12.5C4.00098 12.6354 3.9515 12.7526 3.85254 12.8516C3.75358 12.9505 3.63639 13 3.50098 13H2.50098C2.36556 13 2.24837 12.9505 2.14941 12.8516C2.05046 12.7526 2.00098 12.6354 2.00098 12.5V5H1.00098C0.719727 5 0.482747 4.90365 0.290039 4.71094C0.0973307 4.51823 0.000976563 4.28125 0.000976562 4V1C0.000976562 0.71875 0.0973307 0.481771 0.290039 0.289063C0.482747 0.0963542 0.719727 0 1.00098 0H15.001C15.2822 0 15.5192 0.0963542 15.7119 0.289063C15.9046 0.481771 16.001 0.71875 16.001 1ZM4.00098 8H12.001V5H4.00098V8ZM1.00098 1V2L2.00098 1H1.00098ZM1.00098 4H3.00098L6.00098 1H4.00098L1.00098 4ZM8.00098 1L5.00098 4H7.00098L10.001 1H8.00098ZM12.001 1L9.00098 4H11.001L14.001 1H12.001ZM15.001 2L13.001 4H15.001V2Z" fill="white"/>
</svg>
