<svg width="15" height="17" viewBox="0 0 15 17" fill="none" xmlns="http://www.w3.org/2000/svg">
<path d="M14.0508 6.0588H13.644V4.0962C13.6437 4.08373 13.6425 4.0713 13.6404 4.059C13.641 3.98016 13.6128 3.90381 13.5612 3.8442L10.296 0.114L10.2936 0.1116C10.274 0.0904761 10.2519 0.0719273 10.2276 0.0563999L10.206 0.0431997C10.1853 0.0316666 10.1633 0.0224127 10.1406 0.0155997L10.1226 0.00959988C10.0977 0.00338448 10.0721 0.000161886 10.0464 0H2.0202C1.6536 0 1.356 0.2982 1.356 0.6642V6.0582H0.9492C0.4248 6.0582 0 6.483 0 7.0074V11.9442C0 12.468 0.4254 12.8934 0.9492 12.8934H1.356V16.2726C1.356 16.6386 1.6536 16.9368 2.0202 16.9368H12.9798C13.3458 16.9368 13.644 16.6386 13.644 16.2726V12.8934H14.0508C14.5746 12.8934 15 12.4686 15 11.9442V7.0074C15 6.4836 14.5752 6.0588 14.0508 6.0588ZM2.0202 0.6642H9.714V4.0626C9.714 4.2462 9.8628 4.3944 10.0464 4.3944H12.9804V6.0582H2.0202V0.6642ZM6.9894 9.765C6.183 9.477 5.6508 9.0306 5.6508 8.3256C5.6508 7.4982 6.3492 6.8724 7.4862 6.8724C8.0406 6.8724 8.436 6.9804 8.724 7.1166L8.4792 7.9944C8.16545 7.84159 7.82078 7.76297 7.4718 7.7646C6.9966 7.7646 6.7662 7.9872 6.7662 8.232C6.7662 8.5416 7.032 8.6778 7.6656 8.9154C8.5224 9.2322 8.9178 9.678 8.9178 10.362C8.9178 11.1756 8.2992 11.8662 6.9678 11.8662C6.4134 11.8662 5.8668 11.715 5.5932 11.5638L5.8164 10.6644C6.19317 10.8568 6.60901 10.9602 7.032 10.9668C7.536 10.9668 7.8024 10.7574 7.8024 10.4412C7.8024 10.1388 7.5726 9.9666 6.9894 9.765ZM1.2738 9.4338C1.2738 7.7856 2.454 6.8718 3.9216 6.8718C4.4904 6.8718 4.9218 6.9864 5.1162 7.0806L4.8858 7.9512C4.59435 7.82882 4.28088 7.76755 3.9648 7.7712C3.1014 7.7712 2.4252 8.2962 2.4252 9.3756C2.4252 10.3398 3.0006 10.9518 3.972 10.9518C4.3104 10.9518 4.6704 10.8876 4.893 10.7934L5.052 11.6568C4.8576 11.7498 4.3968 11.8656 3.8142 11.8656C2.1372 11.8662 1.2738 10.8156 1.2738 9.4338ZM12.9798 16.0938H2.0202V12.894H12.9798V16.0938ZM12.093 11.7942H10.812L9.258 6.9438H10.4598L11.0496 8.9952C11.2146 9.5778 11.3658 10.125 11.481 10.7292H11.5026C11.6253 10.1526 11.7716 9.58135 11.9412 9.0168L12.5604 6.9444H13.7256L12.093 11.7942Z" fill="#2C8EFF"/>
</svg>
