<svg width="10" height="11" viewBox="0 0 10 11" fill="none" xmlns="http://www.w3.org/2000/svg">
<path d="M6.81818 1.81818H9.54545C9.66601 1.81818 9.78162 1.86607 9.86687 1.95132C9.95211 2.03656 10 2.15217 10 2.27273C10 2.39328 9.95211 2.5089 9.86687 2.59414C9.78162 2.67938 9.66601 2.72727 9.54545 2.72727H9.04273L8.35909 8.88727C8.29734 9.44322 8.03273 9.95686 7.61592 10.3299C7.19911 10.7029 6.65936 10.9092 6.1 10.9091H3.9C3.34064 10.9092 2.80089 10.7029 2.38408 10.3299C1.96727 9.95686 1.70266 9.44322 1.64091 8.88727L0.956364 2.72727H0.454545C0.333993 2.72727 0.218377 2.67938 0.133133 2.59414C0.0478896 2.5089 0 2.39328 0 2.27273C0 2.15217 0.0478896 2.03656 0.133133 1.95132C0.218377 1.86607 0.333993 1.81818 0.454545 1.81818H3.18182C3.18182 1.33597 3.37338 0.873508 3.71435 0.532533C4.05533 0.191558 4.51779 0 5 0C5.48221 0 5.94467 0.191558 6.28565 0.532533C6.62662 0.873508 6.81818 1.33597 6.81818 1.81818ZM5 0.909091C4.75889 0.909091 4.52766 1.00487 4.35718 1.17536C4.18669 1.34585 4.09091 1.57708 4.09091 1.81818H5.90909C5.90909 1.57708 5.81331 1.34585 5.64282 1.17536C5.47234 1.00487 5.24111 0.909091 5 0.909091ZM3.63636 4.54545V8.18182C3.63636 8.30237 3.68425 8.41799 3.7695 8.50323C3.85474 8.58848 3.97036 8.63636 4.09091 8.63636C4.21146 8.63636 4.32708 8.58848 4.41232 8.50323C4.49757 8.41799 4.54545 8.30237 4.54545 8.18182V4.54545C4.54545 4.4249 4.49757 4.30929 4.41232 4.22404C4.32708 4.1388 4.21146 4.09091 4.09091 4.09091C3.97036 4.09091 3.85474 4.1388 3.7695 4.22404C3.68425 4.30929 3.63636 4.4249 3.63636 4.54545ZM5.90909 4.09091C5.78854 4.09091 5.67292 4.1388 5.58768 4.22404C5.50243 4.30929 5.45455 4.4249 5.45455 4.54545V8.18182C5.45455 8.30237 5.50243 8.41799 5.58768 8.50323C5.67292 8.58848 5.78854 8.63636 5.90909 8.63636C6.02964 8.63636 6.14526 8.58848 6.2305 8.50323C6.31575 8.41799 6.36364 8.30237 6.36364 8.18182V4.54545C6.36364 4.4249 6.31575 4.30929 6.2305 4.22404C6.14526 4.1388 6.02964 4.09091 5.90909 4.09091Z" fill="#D5D5D5"/>
</svg>
