<svg width="8" height="14" viewBox="0 0 8 14" fill="none" xmlns="http://www.w3.org/2000/svg">
<path d="M1.45455 5.09091C1.16686 5.09091 0.885643 5.17622 0.646444 5.33604C0.407245 5.49587 0.220812 5.72304 0.110721 5.98882C0.000630227 6.25461 -0.0281746 6.54707 0.0279493 6.82922C0.0840733 7.11138 0.222605 7.37055 0.426027 7.57397C0.629449 7.77739 0.888624 7.91593 1.17078 7.97205C1.45293 8.02817 1.74539 7.99937 2.01118 7.88928C2.27696 7.77919 2.50413 7.59275 2.66396 7.35356C2.82378 7.11436 2.90909 6.83314 2.90909 6.54545C2.90909 6.15968 2.75584 5.78972 2.48306 5.51694C2.21028 5.24416 1.84032 5.09091 1.45455 5.09091ZM1.45455 10.1818C1.16686 10.1818 0.885643 10.2671 0.646444 10.427C0.407245 10.5868 0.220812 10.8139 0.110721 11.0797C0.000630227 11.3455 -0.0281746 11.638 0.0279493 11.9201C0.0840733 12.2023 0.222605 12.4615 0.426027 12.6649C0.629449 12.8683 0.888624 13.0068 1.17078 13.063C1.45293 13.1191 1.74539 13.0903 2.01118 12.9802C2.27696 12.8701 2.50413 12.6837 2.66396 12.4445C2.82378 12.2053 2.90909 11.924 2.90909 11.6364C2.90909 11.2506 2.75584 10.8806 2.48306 10.6078C2.21028 10.3351 1.84032 10.1818 1.45455 10.1818ZM6.54545 2.90909C6.83314 2.90909 7.11436 2.82378 7.35356 2.66396C7.59276 2.50413 7.77919 2.27696 7.88928 2.01118C7.99937 1.74539 8.02818 1.45293 7.97205 1.17078C7.91593 0.888624 7.77739 0.629449 7.57397 0.426027C7.37055 0.222605 7.11138 0.0840733 6.82922 0.0279493C6.54707 -0.0281746 6.25461 0.000630227 5.98882 0.110721C5.72304 0.220812 5.49587 0.407245 5.33604 0.646444C5.17622 0.885642 5.09091 1.16686 5.09091 1.45455C5.09091 1.84032 5.24416 2.21028 5.51694 2.48306C5.78972 2.75584 6.15969 2.90909 6.54545 2.90909ZM1.45455 6.10451e-07C1.16686 6.10451e-07 0.885643 0.0853081 0.646444 0.245136C0.407245 0.404963 0.220812 0.632132 0.110721 0.897915C0.000630227 1.1637 -0.0281746 1.45616 0.0279493 1.73831C0.0840733 2.02047 0.222605 2.27964 0.426027 2.48306C0.629449 2.68649 0.888624 2.82502 1.17078 2.88114C1.45293 2.93727 1.74539 2.90846 2.01118 2.79837C2.27696 2.68828 2.50413 2.50185 2.66396 2.26265C2.82378 2.02345 2.90909 1.74223 2.90909 1.45455C2.90909 1.06878 2.75584 0.698807 2.48306 0.426027C2.21028 0.153247 1.84032 6.10451e-07 1.45455 6.10451e-07ZM6.54545 10.1818C6.25777 10.1818 5.97655 10.2671 5.73735 10.427C5.49815 10.5868 5.31172 10.8139 5.20163 11.0797C5.09154 11.3455 5.06273 11.638 5.11886 11.9201C5.17498 12.2023 5.31351 12.4615 5.51694 12.6649C5.72036 12.8683 5.97953 13.0068 6.26169 13.063C6.54384 13.1191 6.8363 13.0903 7.10209 12.9802C7.36787 12.8701 7.59504 12.6837 7.75486 12.4445C7.91469 12.2053 8 11.924 8 11.6364C8 11.2506 7.84675 10.8806 7.57397 10.6078C7.30119 10.3351 6.93122 10.1818 6.54545 10.1818ZM6.54545 5.09091C6.25777 5.09091 5.97655 5.17622 5.73735 5.33604C5.49815 5.49587 5.31172 5.72304 5.20163 5.98882C5.09154 6.25461 5.06273 6.54707 5.11886 6.82922C5.17498 7.11138 5.31351 7.37055 5.51694 7.57397C5.72036 7.77739 5.97953 7.91593 6.26169 7.97205C6.54384 8.02817 6.8363 7.99937 7.10209 7.88928C7.36787 7.77919 7.59504 7.59275 7.75486 7.35356C7.91469 7.11436 8 6.83314 8 6.54545C8 6.15968 7.84675 5.78972 7.57397 5.51694C7.30119 5.24416 6.93122 5.09091 6.54545 5.09091Z" fill="#9F9F9F"/>
</svg>
