<svg width="14" height="15" viewBox="0 0 14 15" fill="none" xmlns="http://www.w3.org/2000/svg">
<path d="M5.6001 0.258838C5.6912 0.369545 5.74702 0.50503 5.76033 0.647786C5.77364 0.790542 5.74383 0.93401 5.67476 1.05965C5.13516 2.05038 4.85336 3.1609 4.85528 4.28904C4.85528 8.04204 7.9148 11.081 11.6855 11.081C12.1774 11.081 12.6562 11.0297 13.1164 10.9317C13.2574 10.9011 13.4043 10.9128 13.5388 10.9653C13.6732 11.0177 13.7893 11.1086 13.8724 11.2266C13.9601 11.3493 14.0048 11.4976 13.9996 11.6483C13.9944 11.799 13.9395 11.9438 13.8434 12.0601C13.1114 12.9593 12.1879 13.6839 11.1403 14.1809C10.0927 14.6778 8.94738 14.9348 7.78787 14.933C3.48513 14.933 0 11.4665 0 7.19549C0 3.98104 1.9731 1.22392 4.78248 0.0553681C4.92243 -0.00377653 5.07778 -0.0159157 5.22522 0.0207741C5.37265 0.0574639 5.5042 0.141002 5.6001 0.258838ZM4.53421 1.22299C3.45396 1.80244 2.55088 2.66375 1.92096 3.71537C1.29103 4.76699 0.957804 5.96964 0.956683 7.19549C0.956683 10.9476 4.01714 13.9865 7.78787 13.9865C8.69083 13.9881 9.58514 13.8106 10.419 13.4642C11.2529 13.1178 12.0098 12.6095 12.646 11.9686C12.3314 12.0078 12.0113 12.0274 11.6855 12.0274C7.38279 12.0274 3.8986 8.56098 3.8986 4.28997C3.8986 3.20076 4.12447 2.1638 4.53421 1.22299Z" fill="#C8C8C8"/>
</svg>
