<svg width="18" height="14" viewBox="0 0 18 14" fill="none" xmlns="http://www.w3.org/2000/svg">
<path d="M0 3.37451C0 2.47941 0.355579 1.62096 0.988515 0.988026C1.62145 0.355091 2.47989 -0.000488281 3.375 -0.000488281H14.625C15.5201 -0.000488281 16.3786 0.355091 17.0115 0.988026C17.6444 1.62096 18 2.47941 18 3.37451V10.1245C18 11.0196 17.6444 11.8781 17.0115 12.511C16.3786 13.1439 15.5201 13.4995 14.625 13.4995H3.375C2.47989 13.4995 1.62145 13.1439 0.988515 12.511C0.355579 11.8781 0 11.0196 0 10.1245V3.37451ZM5.625 2.81201V3.93701C5.625 4.0862 5.68426 4.22927 5.78975 4.33476C5.89524 4.44025 6.03832 4.49951 6.1875 4.49951C6.33668 4.49951 6.47976 4.44025 6.58525 4.33476C6.69074 4.22927 6.75 4.0862 6.75 3.93701V3.37451H8.4375V10.1245H7.875C7.72582 10.1245 7.58274 10.1838 7.47725 10.2893C7.37176 10.3948 7.3125 10.5378 7.3125 10.687C7.3125 10.8362 7.37176 10.9793 7.47725 11.0848C7.58274 11.1902 7.72582 11.2495 7.875 11.2495H10.125C10.2742 11.2495 10.4173 11.1902 10.5227 11.0848C10.6282 10.9793 10.6875 10.8362 10.6875 10.687C10.6875 10.5378 10.6282 10.3948 10.5227 10.2893C10.4173 10.1838 10.2742 10.1245 10.125 10.1245H9.5625V3.37451H11.25V3.93701C11.25 4.0862 11.3093 4.22927 11.4148 4.33476C11.5202 4.44025 11.6633 4.49951 11.8125 4.49951C11.9617 4.49951 12.1048 4.44025 12.2102 4.33476C12.3157 4.22927 12.375 4.0862 12.375 3.93701V2.81201C12.375 2.66283 12.3157 2.51975 12.2102 2.41426C12.1048 2.30877 11.9617 2.24951 11.8125 2.24951H6.1875C6.03832 2.24951 5.89524 2.30877 5.78975 2.41426C5.68426 2.51975 5.625 2.66283 5.625 2.81201Z" fill="white"/>
</svg>
