<svg width="17" height="17" viewBox="0 0 17 17" fill="none" xmlns="http://www.w3.org/2000/svg">
<path d="M8.3594 0.85C4.07542 0.85 0.590356 4.33506 0.590356 8.61905C0.590356 12.903 4.07542 16.3881 8.3594 16.3881C12.6434 16.3881 16.1285 12.903 16.1285 8.61905C16.1285 4.33506 12.6434 0.85 8.3594 0.85ZM8.3594 14.5643C5.08148 14.5643 2.41417 11.897 2.41417 8.61905C2.41417 5.34113 5.08148 2.67381 8.3594 2.67381C11.6373 2.67381 14.3046 5.34113 14.3046 8.61905C14.3046 11.897 11.6373 14.5643 8.3594 14.5643Z" fill="white" stroke="white" stroke-width="0.3"/>
<path d="M7.59747 7.75714H7.49747V7.85714V12.4286V12.5286H7.59747H9.12128H9.22128V12.4286V7.85714V7.75714H9.12128H7.59747ZM7.59747 4.70952H7.49747V4.80952V6.33333V6.43333H7.59747H9.12128H9.22128V6.33333V4.80952V4.70952H9.12128H7.59747Z" fill="white" stroke="white" stroke-width="0.2"/>
</svg>
