<svg width="18" height="17" viewBox="0 0 18 17" fill="none" xmlns="http://www.w3.org/2000/svg">
<path d="M15.9346 0.161133H6.93457V2.97363H9.18457V4.09863H1.87207C0.91582 4.09863 0.18457 4.82988 0.18457 5.78613V11.9736C0.18457 12.9299 0.91582 13.6611 1.87207 13.6611H2.43457V16.5299L5.97832 13.6611H9.74707V9.72363H15.9346C16.8908 9.72363 17.6221 8.99238 17.6221 8.03613V1.84863C17.6221 0.892383 16.8908 0.161133 15.9346 0.161133ZM6.25957 11.3549L5.97832 10.4549H4.23457L3.89707 11.3549H2.54707L4.40332 6.34863H5.75332L7.60957 11.3549H6.25957ZM14.8096 6.91113V8.03613C14.0783 8.03613 13.2908 7.81113 12.6158 7.47363C11.9408 7.81113 11.1533 7.97988 10.3658 8.03613L10.3096 6.91113C10.7033 6.91113 11.0971 6.85488 11.4908 6.74238C10.9846 6.23613 10.6471 5.61738 10.4783 4.94238H11.6596C11.8283 5.44863 12.1658 5.84238 12.5596 6.17988C13.1783 5.67363 13.5721 4.94238 13.6283 4.09863H10.2533V2.97363H11.9408V1.84863H13.0658V2.97363H14.9221L14.9783 3.53613C15.0346 4.71738 14.5846 5.89863 13.7408 6.74238C14.1346 6.85488 14.4721 6.91113 14.8096 6.91113Z" fill="#C4C4C4"/>
</svg>
