<svg width="150" height="118" viewBox="0 0 150 118" fill="none" xmlns="http://www.w3.org/2000/svg">
<path d="M0.5822 42.6236C0.277434 40.795 1.68756 39.1304 3.54138 39.1304H146.459C148.312 39.1304 149.723 40.795 149.418 42.6236L137.374 114.884C137.133 116.331 135.882 117.391 134.415 117.391H15.5849C14.1183 117.391 12.8668 116.331 12.6257 114.884L0.5822 42.6236Z" fill="url(#paint0_linear_11_38389)"/>
<path d="M13.043 3C13.043 1.34314 14.3861 0 16.043 0H55.605C57.4988 0 59.2301 1.07001 60.0771 2.76393L63.8349 10.2795C64.6819 11.9735 66.4132 13.0435 68.307 13.0435H131.956C134.717 13.0435 136.956 15.2821 136.956 18.0435V32.6087H13.043V3Z" fill="#D4D4D4"/>
<path d="M61.2072 59.707C60.8168 59.3165 60.1837 59.3165 59.7931 59.7069L52.9991 66.4993L46.2069 59.7071C45.8164 59.3166 45.1832 59.3166 44.7927 59.7071L43.7071 60.7927C43.3166 61.1832 43.3166 61.8164 43.7071 62.2069L50.4993 68.9991L45.6026 76.1234C45.276 76.5985 45.4178 77.2507 45.9122 77.5473L46.7438 78.0463C47.1759 78.3056 47.7334 78.2028 48.0447 77.8065L52.9991 71.4989L57.9553 77.8067C58.2666 78.2029 58.824 78.3056 59.2561 78.0464L60.0878 77.5473C60.5822 77.2507 60.724 76.5985 60.3974 76.1234L55.5007 68.9991L62.2929 62.2069C62.6834 61.8164 62.6834 61.1832 62.2929 60.7927L61.2072 59.707Z" fill="#B2B0B0"/>
<path d="M109.207 59.707C108.817 59.3165 108.184 59.3165 107.793 59.7069L100.999 66.4993L94.2069 59.7071C93.8164 59.3166 93.1832 59.3166 92.7927 59.7071L91.7071 60.7927C91.3166 61.1832 91.3166 61.8164 91.7071 62.2069L98.4993 68.9991L93.6026 76.1234C93.276 76.5985 93.4178 77.2507 93.9122 77.5473L94.7438 78.0463C95.1759 78.3056 95.7334 78.2028 96.0447 77.8065L100.999 71.4989L105.955 77.8067C106.267 78.2029 106.824 78.3056 107.256 78.0464L108.088 77.5473C108.582 77.2507 108.724 76.5985 108.397 76.1234L103.501 68.9991L110.293 62.2069C110.683 61.8164 110.683 61.1832 110.293 60.7927L109.207 59.707Z" fill="#B2B0B0"/>
<path d="M35.7188 68.6211H31.6367L31.1875 48.5625H36.1875L35.7188 68.6211ZM31.0508 74.7539C31.0508 74.0117 31.2917 73.3997 31.7734 72.918C32.2552 72.4232 32.9128 72.1758 33.7461 72.1758C34.5794 72.1758 35.237 72.4232 35.7188 72.918C36.2005 73.3997 36.4414 74.0117 36.4414 74.7539C36.4414 75.4701 36.207 76.069 35.7383 76.5508C35.2695 77.0326 34.6055 77.2734 33.7461 77.2734C32.8867 77.2734 32.2227 77.0326 31.7539 76.5508C31.2852 76.069 31.0508 75.4701 31.0508 74.7539Z" fill="#B2B0B0"/>
<path d="M54 97.9975C54 98.974 54.9712 99.6545 55.8914 99.3279C75.9062 92.224 77.0938 92.224 97.1086 99.3279C98.0288 99.6545 99 98.974 99 97.9975C99 97.3995 98.6236 96.8662 98.0602 96.6658L86.2153 92.4543C79.9311 90.22 73.0689 90.22 66.7847 92.4543L54.9398 96.6658C54.3764 96.8662 54 97.3995 54 97.9975Z" fill="#B2B0B0"/>
<defs>
<linearGradient id="paint0_linear_11_38389" x1="75" y1="39.1304" x2="102" y2="161" gradientUnits="userSpaceOnUse">
<stop stop-color="#E7E7E7"/>
<stop offset="1" stop-color="#848484" stop-opacity="0"/>
</linearGradient>
</defs>
</svg>
