<svg width="20" height="12" viewBox="0 0 20 12" fill="none" xmlns="http://www.w3.org/2000/svg">
<g clip-path="url(#clip0_11_38417)">
<path d="M14.0342 4.75C15.3459 4.75 16.4092 3.68668 16.4092 2.375C16.4092 1.06332 15.3459 0 14.0342 0C12.7225 0 11.6592 1.06332 11.6592 2.375C11.6592 3.68668 12.7225 4.75 14.0342 4.75Z" fill="white"/>
<path d="M6.90918 4.75C8.22086 4.75 9.28418 3.68668 9.28418 2.375C9.28418 1.06332 8.22086 0 6.90918 0C5.5975 0 4.53418 1.06332 4.53418 2.375C4.53418 3.68668 5.5975 4.75 6.90918 4.75Z" fill="white"/>
<path d="M19.4566 5.93766L13.4004 7.12516H7.58164L1.52539 5.93766L3.22747 2.81058C3.66289 2.0585 4.45456 1.5835 5.32539 1.5835H15.6962C16.5671 1.5835 17.3587 2.0585 17.7941 2.81058L19.4566 5.93766Z" fill="white"/>
<path d="M16.013 11.8752C18.1991 11.8752 19.9714 10.103 19.9714 7.91683C19.9714 5.7307 18.1991 3.9585 16.013 3.9585C13.8269 3.9585 12.0547 5.7307 12.0547 7.91683C12.0547 10.103 13.8269 11.8752 16.013 11.8752Z" fill="white"/>
<path d="M4.93001 11.8752C7.11614 11.8752 8.88835 10.103 8.88835 7.91683C8.88835 5.7307 7.11614 3.9585 4.93001 3.9585C2.74389 3.9585 0.97168 5.7307 0.97168 7.91683C0.97168 10.103 2.74389 11.8752 4.93001 11.8752Z" fill="white"/>
<path d="M10.4714 9.10433C11.5644 9.10433 12.4505 8.21823 12.4505 7.12516C12.4505 6.0321 11.5644 5.146 10.4714 5.146C9.37829 5.146 8.49219 6.0321 8.49219 7.12516C8.49219 8.21823 9.37829 9.10433 10.4714 9.10433Z" fill="white"/>
<path d="M10.4714 7.91683C10.9086 7.91683 11.263 7.56239 11.263 7.12516C11.263 6.68794 10.9086 6.3335 10.4714 6.3335C10.0341 6.3335 9.67969 6.68794 9.67969 7.12516C9.67969 7.56239 10.0341 7.91683 10.4714 7.91683Z" fill="#42A4DF"/>
<path d="M16.013 10.6877C17.5433 10.6877 18.7839 9.44712 18.7839 7.91683C18.7839 6.38654 17.5433 5.146 16.013 5.146C14.4827 5.146 13.2422 6.38654 13.2422 7.91683C13.2422 9.44712 14.4827 10.6877 16.013 10.6877Z" fill="#42A4DF"/>
<path d="M4.93001 10.6877C6.4603 10.6877 7.70085 9.44712 7.70085 7.91683C7.70085 6.38654 6.4603 5.146 4.93001 5.146C3.39972 5.146 2.15918 6.38654 2.15918 7.91683C2.15918 9.44712 3.39972 10.6877 4.93001 10.6877Z" fill="#42A4DF"/>
</g>
<defs>
<clipPath id="clip0_11_38417">
<rect width="19" height="11.875" fill="white" transform="translate(0.97168)"/>
</clipPath>
</defs>
</svg>
