<svg width="20" height="12" viewBox="0 0 20 12" fill="none" xmlns="http://www.w3.org/2000/svg">
<g clip-path="url(#clip0_2186_8834)">
<path d="M14.0342 4.75C15.3459 4.75 16.4092 3.68668 16.4092 2.375C16.4092 1.06332 15.3459 0 14.0342 0C12.7225 0 11.6592 1.06332 11.6592 2.375C11.6592 3.68668 12.7225 4.75 14.0342 4.75Z" fill="#C4C4C4"/>
<path d="M6.90918 4.75C8.22086 4.75 9.28418 3.68668 9.28418 2.375C9.28418 1.06332 8.22086 0 6.90918 0C5.5975 0 4.53418 1.06332 4.53418 2.375C4.53418 3.68668 5.5975 4.75 6.90918 4.75Z" fill="#C4C4C4"/>
<path d="M19.4571 5.93749L13.4009 7.12499H7.58213L1.52588 5.93749L3.22796 2.81041C3.66338 2.05833 4.45505 1.58333 5.32588 1.58333H15.6967C16.5675 1.58333 17.3592 2.05833 17.7946 2.81041L19.4571 5.93749Z" fill="#C4C4C4"/>
<path d="M16.0133 11.875C18.1994 11.875 19.9716 10.1028 19.9716 7.91666C19.9716 5.73053 18.1994 3.95833 16.0133 3.95833C13.8271 3.95833 12.0549 5.73053 12.0549 7.91666C12.0549 10.1028 13.8271 11.875 16.0133 11.875Z" fill="#C4C4C4"/>
<path d="M4.93001 11.875C7.11614 11.875 8.88835 10.1028 8.88835 7.91666C8.88835 5.73053 7.11614 3.95833 4.93001 3.95833C2.74389 3.95833 0.97168 5.73053 0.97168 7.91666C0.97168 10.1028 2.74389 11.875 4.93001 11.875Z" fill="#C4C4C4"/>
<path d="M10.4716 9.10416C11.5647 9.10416 12.4508 8.21806 12.4508 7.12499C12.4508 6.03193 11.5647 5.14583 10.4716 5.14583C9.37853 5.14583 8.49243 6.03193 8.49243 7.12499C8.49243 8.21806 9.37853 9.10416 10.4716 9.10416Z" fill="#C4C4C4"/>
<path d="M10.4716 7.91666C10.9088 7.91666 11.2633 7.56222 11.2633 7.125C11.2633 6.68777 10.9088 6.33333 10.4716 6.33333C10.0344 6.33333 9.67993 6.68777 9.67993 7.125C9.67993 7.56222 10.0344 7.91666 10.4716 7.91666Z" fill="white"/>
<path d="M16.0133 10.6875C17.5436 10.6875 18.7841 9.44695 18.7841 7.91666C18.7841 6.38637 17.5436 5.14583 16.0133 5.14583C14.483 5.14583 13.2424 6.38637 13.2424 7.91666C13.2424 9.44695 14.483 10.6875 16.0133 10.6875Z" fill="white"/>
<path d="M4.93001 10.6875C6.4603 10.6875 7.70085 9.44695 7.70085 7.91666C7.70085 6.38637 6.4603 5.14583 4.93001 5.14583C3.39972 5.14583 2.15918 6.38637 2.15918 7.91666C2.15918 9.44695 3.39972 10.6875 4.93001 10.6875Z" fill="white"/>
</g>
<defs>
<clipPath id="clip0_2186_8834">
<rect width="19" height="11.875" fill="white" transform="translate(0.97168)"/>
</clipPath>
</defs>
</svg>
