<svg width="12" height="12" viewBox="0 0 12 12" fill="none" xmlns="http://www.w3.org/2000/svg">
<rect x="0.5" y="0.5" width="11" height="11" rx="0.5" stroke="#42A4DF"/>
<path d="M5.61376 3.22567C5.6948 3.13275 5.8066 3.07217 5.92866 3.05501L6.00167 3.05C6.12492 3.05041 6.24392 3.09522 6.33683 3.17626C6.42975 3.2573 6.49033 3.3691 6.50749 3.49116L6.5125 3.56421V5.43675V5.48673L6.56248 5.48675L8.43748 5.4875H8.4375C8.56134 5.48751 8.681 5.53236 8.77433 5.61376C8.86725 5.69479 8.92783 5.8066 8.94499 5.92865L8.95 6.00167C8.94959 6.12492 8.90478 6.24392 8.82374 6.33683C8.7427 6.42975 8.6309 6.49033 8.50884 6.50749L8.4358 6.5125L6.56252 6.51175L6.5125 6.51173V6.56175V8.4375C6.51249 8.56134 6.46764 8.681 6.38624 8.77433C6.30521 8.86725 6.1934 8.92783 6.07135 8.94499L5.99833 8.95C5.87508 8.94959 5.75608 8.90478 5.66317 8.82374C5.57025 8.7427 5.50967 8.6309 5.49251 8.50884L5.4875 8.43579V6.56175V6.51173L5.43748 6.51175L3.5625 6.5125C3.5625 6.5125 3.56249 6.5125 3.56248 6.5125C3.43864 6.51249 3.319 6.46764 3.22567 6.38624C3.13275 6.3052 3.07217 6.1934 3.05501 6.07134L3.05 5.99833C3.05041 5.87508 3.09522 5.75608 3.17626 5.66317C3.2573 5.57025 3.3691 5.50967 3.49116 5.49251L3.56422 5.4875L5.43752 5.48675L5.4875 5.48673V5.43675V3.5625C5.48751 3.43866 5.53236 3.319 5.61376 3.22567Z" fill="#42A4DF" stroke="white" stroke-width="0.1"/>
</svg>
