<svg width="30" height="30" viewBox="0 0 30 30" fill="none" xmlns="http://www.w3.org/2000/svg">
<rect x="0.5" y="0.5" width="29" height="29" rx="1.5" fill="white" stroke="#D8D8D8"/>
<path d="M18.3496 14.9375C18.3496 15.0488 18.3408 15.1455 18.3232 15.2275C18.3057 15.3037 18.2822 15.3682 18.2529 15.4209C18.2236 15.4736 18.1885 15.5117 18.1475 15.5352C18.1064 15.5586 18.0625 15.5703 18.0156 15.5703H15.1328V18.7695C15.1328 18.8164 15.1211 18.8574 15.0977 18.8926C15.0742 18.9219 15.0361 18.9482 14.9834 18.9717C14.9365 18.9951 14.8721 19.0156 14.79 19.0332C14.708 19.0449 14.6055 19.0508 14.4824 19.0508C14.3652 19.0508 14.2627 19.0449 14.1748 19.0332C14.0928 19.0156 14.0254 18.9951 13.9727 18.9717C13.9258 18.9482 13.8906 18.9219 13.8672 18.8926C13.8438 18.8574 13.832 18.8164 13.832 18.7695V15.5703H10.9492C10.8965 15.5703 10.8496 15.5586 10.8086 15.5352C10.7734 15.5117 10.7412 15.4736 10.7119 15.4209C10.6826 15.3682 10.6592 15.3037 10.6416 15.2275C10.624 15.1455 10.6152 15.0488 10.6152 14.9375C10.6152 14.832 10.624 14.7412 10.6416 14.665C10.6592 14.583 10.6826 14.5156 10.7119 14.4629C10.7412 14.4102 10.7734 14.3721 10.8086 14.3486C10.8496 14.3252 10.8936 14.3135 10.9404 14.3135H13.832V11.1143C13.832 11.0674 13.8438 11.0264 13.8672 10.9912C13.8906 10.9502 13.9258 10.918 13.9727 10.8945C14.0254 10.8652 14.0928 10.8447 14.1748 10.833C14.2627 10.8154 14.3652 10.8066 14.4824 10.8066C14.6055 10.8066 14.708 10.8154 14.79 10.833C14.8721 10.8447 14.9365 10.8652 14.9834 10.8945C15.0361 10.918 15.0742 10.9502 15.0977 10.9912C15.1211 11.0264 15.1328 11.0674 15.1328 11.1143V14.3135H18.0244C18.0713 14.3135 18.1123 14.3252 18.1475 14.3486C18.1885 14.3721 18.2236 14.4102 18.2529 14.4629C18.2881 14.5156 18.3115 14.583 18.3232 14.665C18.3408 14.7412 18.3496 14.832 18.3496 14.9375Z" fill="#626262"/>
</svg>
