<svg width="16" height="16" viewBox="0 0 16 16" fill="none" xmlns="http://www.w3.org/2000/svg">
<g clip-path="url(#clip0_11_5892)">
<path d="M14.7095 14.709H15.7417V15.7412H14.7095V14.709Z" fill="#959798"/>
<path d="M14.7095 14.709H15.2256V15.7412H14.7095V14.709Z" fill="#959798"/>
<path d="M12.645 13.1606H13.6773V14.1929H12.645V13.1606Z" fill="#959798"/>
<path d="M12.645 13.1606H13.1612V14.1929H12.645V13.1606Z" fill="#959798"/>
<path d="M2.32275 13.1606H3.35501V14.1929H2.32275V13.1606Z" fill="#959798"/>
<path d="M2.32275 13.1606H2.83888V14.1929H2.32275V13.1606Z" fill="#959798"/>
<path d="M0.257812 14.709H1.29007V15.7412H0.257812V14.709Z" fill="#959798"/>
<path d="M0.257812 14.709H0.773942V15.7412H0.257812V14.709Z" fill="#959798"/>
<path d="M15.4839 14.7092H14.9677V0.515641H1.03224V14.7092H0.516113V0.257576C0.516113 0.115187 0.631789 -0.000488281 0.774178 -0.000488281H15.2258C15.3682 -0.000488281 15.4839 0.115187 15.4839 0.257576V14.7092Z" fill="#C4C4C4"/>
<path d="M13.1614 3.09586H2.83877C2.77035 3.09586 2.70457 3.06877 2.65631 3.02026L0.591797 0.95574L0.956716 0.59082L2.94563 2.57973H13.0545L15.0434 0.59082L15.4083 0.95574L13.3438 3.02026C13.2956 3.06877 13.2298 3.09586 13.1614 3.09586Z" fill="#C4C4C4"/>
<path d="M2.69189 12.1733L15.0813 3.65918L15.3736 4.08458L2.98423 12.5987L2.69189 12.1733Z" fill="#C4C4C4"/>
<path d="M0.627441 4.08299L0.919906 3.65771L13.3062 12.1733L13.0139 12.5986L0.627441 4.08299Z" fill="#C4C4C4"/>
<path d="M2.58057 2.83838H3.09669V13.161H2.58057V2.83838Z" fill="#C4C4C4"/>
<path d="M12.9033 2.83838H13.4194V13.161H12.9033V2.83838Z" fill="#C4C4C4"/>
<path d="M13.6775 14.4512H12.6453C12.5029 14.4512 12.3872 14.3359 12.3872 14.1932V13.1609C12.3872 13.0181 12.5029 12.9028 12.6453 12.9028H13.6775C13.8199 12.9028 13.9356 13.0181 13.9356 13.1609V14.1932C13.9356 14.3359 13.8199 14.4512 13.6775 14.4512ZM12.9033 13.9351H13.4195V13.419H12.9033V13.9351Z" fill="#C4C4C4"/>
<path d="M15.742 15.9996H14.7097C14.5673 15.9996 14.4517 15.8843 14.4517 15.7415V14.7092C14.4517 14.5665 14.5673 14.4512 14.7097 14.4512H15.742C15.8844 14.4512 16 14.5665 16 14.7092V15.7415C16 15.8843 15.8844 15.9996 15.742 15.9996ZM14.9678 15.4834H15.4839V14.9673H14.9678V15.4834Z" fill="#C4C4C4"/>
<path d="M1.29032 15.9996H0.258065C0.115675 15.9996 0 15.8843 0 15.7415V14.7092C0 14.5665 0.115675 14.4512 0.258065 14.4512H1.29032C1.43271 14.4512 1.54839 14.5665 1.54839 14.7092V15.7415C1.54839 15.8843 1.43271 15.9996 1.29032 15.9996ZM0.516129 15.4834H1.03226V14.9673H0.516129V15.4834Z" fill="#C4C4C4"/>
<path d="M3.35478 14.4512H2.32252C2.18013 14.4512 2.06445 14.3359 2.06445 14.1932V13.1609C2.06445 13.0181 2.18013 12.9028 2.32252 12.9028H3.35478C3.49716 12.9028 3.61284 13.0181 3.61284 13.1609V14.1932C3.61284 14.3359 3.49716 14.4512 3.35478 14.4512ZM2.58058 13.9351H3.09671V13.419H2.58058V13.9351Z" fill="#C4C4C4"/>
<path d="M9.33789 2.69004L11.1438 0.108887L11.5667 0.404754L9.76077 2.98603L9.33789 2.69004Z" fill="#C4C4C4"/>
<path d="M4.69141 0.405368L5.11429 0.109375L6.92087 2.69002L6.49811 2.98601L4.69141 0.405368Z" fill="#C4C4C4"/>
<path d="M0.604492 2.51641L0.944336 2.12793L3.00885 3.93438L2.66901 4.32286L0.604492 2.51641Z" fill="#C4C4C4"/>
<path d="M12.9912 3.9344L15.0552 2.12744L15.3952 2.5158L13.3312 4.32275L12.9912 3.9344Z" fill="#C4C4C4"/>
<path d="M14.4516 3.22527H13.9354V2.06398H2.06447V3.22527H1.54834V1.80592C1.54834 1.66353 1.66402 1.54785 1.8064 1.54785H14.1935C14.3359 1.54785 14.4516 1.66353 14.4516 1.80592V3.22527Z" fill="#C4C4C4"/>
<path d="M0.928868 12.8514L0.619141 12.4386L1.5482 11.7418V4.64502H2.06433V11.8708C2.06433 11.9518 2.02615 12.0285 1.96113 12.0772L0.928868 12.8514Z" fill="#C4C4C4"/>
<path d="M0.658691 6.68227L0.889412 6.2207L1.92167 6.73683L1.69082 7.1984L0.658691 6.68227Z" fill="#C4C4C4"/>
<path d="M0.711914 9.55568L1.74405 9.29736L1.8693 9.79787L0.837166 10.0562L0.711914 9.55568Z" fill="#C4C4C4"/>
<path d="M15.071 12.8514L14.0387 12.0772C13.9737 12.0285 13.9355 11.9518 13.9355 11.8708V4.64502H14.4517V11.7418L15.3807 12.4386L15.071 12.8514Z" fill="#C4C4C4"/>
<path d="M14.0776 6.73622L15.1099 6.22021L15.3407 6.68178L14.3085 7.19791L14.0776 6.73622Z" fill="#C4C4C4"/>
<path d="M14.1299 9.79836L14.255 9.29785L15.2871 9.55592L15.162 10.0563L14.1299 9.79836Z" fill="#C4C4C4"/>
</g>
<defs>
<clipPath id="clip0_11_5892">
<rect width="16" height="16" fill="white" transform="translate(0 -0.000488281)"/>
</clipPath>
</defs>
</svg>
