<svg width="17" height="18" viewBox="0 0 17 18" fill="none" xmlns="http://www.w3.org/2000/svg">
<g clip-path="url(#clip0_12_122260)">
<path d="M14.6947 17.5574H4.69466C4.34115 17.557 4.00221 17.4261 3.75224 17.1934C3.50227 16.9607 3.36168 16.6451 3.36133 16.316V12.5918H4.69466V16.316H14.6947V2.66081H8.69466V1.41943H14.6947C15.0482 1.41976 15.3871 1.55066 15.6371 1.78339C15.8871 2.01612 16.0276 2.33168 16.028 2.66081V16.316C16.0276 16.6451 15.8871 16.9607 15.6371 17.1934C15.3871 17.4261 15.0482 17.557 14.6947 17.5574Z" fill="white"/>
<path d="M8.69531 5.14355H13.362V6.38493H8.69531V5.14355Z" fill="white"/>
<path d="M8.02832 8.24707H13.3617V9.48845H8.02832V8.24707Z" fill="white"/>
<path d="M7.36133 11.3501H13.3613V12.5915H7.36133V11.3501Z" fill="white"/>
<path d="M3.36165 10.7295C2.47787 10.7286 1.63054 10.4014 1.00561 9.81957C0.380676 9.23774 0.0292028 8.44884 0.0283203 7.62601V0.798424H1.36165V7.62601C1.36165 8.11986 1.57237 8.59349 1.94744 8.94269C2.32251 9.2919 2.83122 9.48808 3.36165 9.48808C3.89209 9.48808 4.40079 9.2919 4.77587 8.94269C5.15094 8.59349 5.36165 8.11986 5.36165 7.62601V2.0398C5.36165 1.87519 5.29142 1.71731 5.16639 1.60091C5.04137 1.48451 4.8718 1.41911 4.69499 1.41911C4.51818 1.41911 4.34861 1.48451 4.22358 1.60091C4.09856 1.71731 4.02832 1.87519 4.02832 2.0398V8.2467H2.69499V2.0398C2.69499 1.54595 2.9057 1.07233 3.28077 0.723122C3.65585 0.373916 4.16455 0.177734 4.69499 0.177734C5.22542 0.177734 5.73413 0.373916 6.1092 0.723122C6.48427 1.07233 6.69499 1.54595 6.69499 2.0398V7.62601C6.6941 8.44884 6.34263 9.23774 5.7177 9.81957C5.09277 10.4014 4.24544 10.7286 3.36165 10.7295Z" fill="white"/>
</g>
<defs>
<clipPath id="clip0_12_122260">
<rect width="16" height="18" fill="white" transform="translate(0.0283203)"/>
</clipPath>
</defs>
</svg>
