<svg width="14" height="14" viewBox="0 0 14 14" fill="none" xmlns="http://www.w3.org/2000/svg">
<path d="M13.8133 5.93604L12.2499 5.46938C12.1418 5.09199 11.9932 4.72742 11.8066 4.38205L12.5719 2.94939C12.6007 2.89531 12.6112 2.83342 12.6019 2.77289C12.5927 2.71236 12.5642 2.65643 12.5206 2.61339L11.4053 1.4934C11.3622 1.44984 11.3063 1.42133 11.2458 1.41208C11.1853 1.40283 11.1234 1.41335 11.0693 1.44206L9.64595 2.20273C9.29717 2.00704 8.92782 1.85053 8.54462 1.73606L8.07796 0.191404C8.05822 0.134478 8.02093 0.0852839 7.97145 0.0509014C7.92197 0.0165189 7.86286 -0.00127831 7.80263 7.14784e-05H6.2253C6.1647 0.000353611 6.10577 0.0199675 6.05709 0.0560587C6.00841 0.0921499 5.97252 0.142835 5.95464 0.200737L5.48797 1.74073C5.10158 1.85459 4.72907 2.0111 4.37731 2.20739L2.97732 1.4514C2.92324 1.42268 2.86134 1.41216 2.80082 1.42141C2.74029 1.43066 2.68436 1.45918 2.64132 1.50273L1.50733 2.60872C1.46377 2.65176 1.43525 2.70769 1.42601 2.76822C1.41676 2.82875 1.42728 2.89065 1.45599 2.94472L2.21199 4.34472C2.01602 4.69499 1.8595 5.06592 1.74532 5.45071L0.200666 5.91738C0.142763 5.93526 0.0920784 5.97115 0.0559872 6.01983C0.019896 6.06851 0.000282133 6.12744 0 6.18804V7.76536C0.000282133 7.82596 0.019896 7.88489 0.0559872 7.93357C0.0920784 7.98226 0.142763 8.01815 0.200666 8.03603L1.75466 8.50269C1.87009 8.88107 2.02657 9.24569 2.22132 9.59002L1.45599 11.0553C1.42728 11.1094 1.41676 11.1713 1.42601 11.2318C1.43525 11.2924 1.46377 11.3483 1.50733 11.3913L2.62265 12.5067C2.66569 12.5502 2.72162 12.5787 2.78215 12.588C2.84268 12.5972 2.90457 12.5867 2.95865 12.558L4.40064 11.788C4.74176 11.9721 5.10158 12.1191 5.47397 12.2267L5.94064 13.7993C5.95852 13.8572 5.99441 13.9079 6.04309 13.944C6.09177 13.9801 6.1507 13.9997 6.2113 14H7.78863C7.84923 13.9997 7.90816 13.9801 7.95684 13.944C8.00552 13.9079 8.04141 13.8572 8.05929 13.7993L8.52596 12.222C8.89517 12.1139 9.25184 11.9669 9.58995 11.7833L11.0413 12.558C11.0954 12.5867 11.1573 12.5972 11.2178 12.588C11.2783 12.5787 11.3342 12.5502 11.3773 12.5067L12.4926 11.3913C12.5362 11.3483 12.5647 11.2924 12.5739 11.2318C12.5832 11.1713 12.5727 11.1094 12.5439 11.0553L11.7693 9.60869C11.9547 9.26928 12.1033 8.91103 12.2126 8.54003L13.7853 8.07336C13.8432 8.05548 13.8939 8.01959 13.9299 7.97091C13.966 7.92223 13.9856 7.8633 13.9859 7.8027V6.21137C13.9887 6.15334 13.9736 6.09586 13.9427 6.04665C13.9119 5.99743 13.8667 5.95883 13.8133 5.93604ZM7.01396 9.56669C6.50633 9.56669 6.01009 9.41616 5.58801 9.13413C5.16592 8.8521 4.83695 8.45125 4.64269 7.98225C4.44842 7.51326 4.39759 6.99719 4.49663 6.49931C4.59566 6.00142 4.84011 5.54409 5.19907 5.18514C5.55802 4.82618 6.01535 4.58174 6.51324 4.4827C7.01112 4.38367 7.52719 4.43449 7.99618 4.62876C8.46517 4.82302 8.86603 5.152 9.14806 5.57408C9.43009 5.99616 9.58062 6.4924 9.58062 7.00004C9.58062 7.68075 9.3102 8.33359 8.82886 8.81493C8.34752 9.29628 7.69468 9.56669 7.01396 9.56669Z" fill="#994308"/>
</svg>
