<svg width="28" height="28" viewBox="0 0 28 28" fill="none" xmlns="http://www.w3.org/2000/svg">
<rect width="28" height="28" rx="3" fill="#E1FFE6"/>
<path d="M15.7143 14.8V13.2L14 14L12.2857 13.2V14.8L10.5714 15.6L12.2857 16.4V18L14 17.2L15.7143 18V16.4L17.4286 15.6L15.7143 14.8ZM15.7143 6H9.71429C9.25963 6 8.82359 6.16857 8.5021 6.46863C8.18061 6.76869 8 7.17565 8 7.6V18.8C8 19.2243 8.18061 19.6313 8.5021 19.9314C8.82359 20.2314 9.25963 20.4 9.71429 20.4H10.5714V18.8H9.71429V7.6H14.8571V10.8H18.2857V18.8H17.4286V20.4H18.2857C18.7404 20.4 19.1764 20.2314 19.4979 19.9314C19.8194 19.6313 20 19.2243 20 18.8V10L15.7143 6ZM15.7143 14.8V13.2L14 14L12.2857 13.2V14.8L10.5714 15.6L12.2857 16.4V18L14 17.2L15.7143 18V16.4L17.4286 15.6L15.7143 14.8ZM12.2857 22.8L14 22L15.7143 22.8V18.8H12.2857V22.8ZM15.7143 14.8V13.2L14 14L12.2857 13.2V14.8L10.5714 15.6L12.2857 16.4V18L14 17.2L15.7143 18V16.4L17.4286 15.6L15.7143 14.8Z" fill="#47CA5B"/>
</svg>
