<svg width="34" height="34" viewBox="0 0 34 34" fill="none" xmlns="http://www.w3.org/2000/svg">
<rect width="34" height="34" rx="3" fill="#F6CDCD"/>
<path d="M10 17.0722C10.0009 16.2486 10.329 15.459 10.9123 14.8766C11.4955 14.2943 12.2863 13.9667 13.1111 13.9657L15.7026 13.9657C15.7362 13.9656 19.0976 13.9211 22.2959 11.2427C22.4471 11.1159 22.6314 11.0348 22.8271 11.0089C23.0228 10.9831 23.2218 11.0136 23.4008 11.0968C23.5798 11.18 23.7312 11.3125 23.8374 11.4787C23.9435 11.6449 23.9999 11.838 24 12.0351L24 22.1092C24.0012 22.3064 23.9454 22.4998 23.8393 22.6662C23.7332 22.8325 23.5812 22.9648 23.4017 23.0471C23.2637 23.1118 23.1131 23.1455 22.9606 23.1458C22.7172 23.1453 22.4817 23.0588 22.296 22.9017C19.841 20.8458 17.2901 20.3417 16.2222 20.2185V22.4902C16.2224 22.6607 16.1803 22.8286 16.0998 22.9789C16.0192 23.1292 15.9026 23.2573 15.7604 23.3517L15.0479 23.8261C14.9097 23.9182 14.7513 23.9757 14.5861 23.9938C14.4209 24.0119 14.2538 23.9902 14.0988 23.9303C13.9438 23.8705 13.8054 23.7743 13.6954 23.6499C13.5854 23.5256 13.507 23.3766 13.4667 23.2156L12.6993 20.1505C11.9526 20.0501 11.2677 19.6828 10.7714 19.1168C10.2751 18.5508 10.001 17.8244 10 17.0722ZM14.4728 22.9645L15.1852 22.4902L15.1852 20.1786H13.7752L14.4728 22.9645ZM13.1111 19.1431L15.1852 19.1431V15.0012L13.1111 15.0012C12.561 15.0012 12.0335 15.2194 11.6445 15.6078C11.2555 15.9961 11.037 16.5229 11.037 17.0722C11.037 17.6214 11.2555 18.1482 11.6445 18.5365C12.0335 18.9249 12.561 19.1431 13.1111 19.1431Z" fill="#E92929"/>
</svg>
