<svg width="12" height="17" viewBox="0 0 12 17" fill="none" xmlns="http://www.w3.org/2000/svg">
<path d="M7.71526 8.8V7.2L6.00098 8L4.28669 7.2V8.8L2.57241 9.6L4.28669 10.4V12L6.00098 11.2L7.71526 12V10.4L9.42955 9.6L7.71526 8.8ZM7.71526 0H1.71526C1.26061 0 0.82457 0.168571 0.503079 0.468629C0.181588 0.768687 0.000976563 1.17565 0.000976562 1.6V12.8C0.000976563 13.2243 0.181588 13.6313 0.503079 13.9314C0.82457 14.2314 1.26061 14.4 1.71526 14.4H2.57241V12.8H1.71526V1.6H6.85812V4.8H10.2867V12.8H9.42955V14.4H10.2867C10.7413 14.4 11.1774 14.2314 11.4989 13.9314C11.8204 13.6313 12.001 13.2243 12.001 12.8V4L7.71526 0ZM7.71526 8.8V7.2L6.00098 8L4.28669 7.2V8.8L2.57241 9.6L4.28669 10.4V12L6.00098 11.2L7.71526 12V10.4L9.42955 9.6L7.71526 8.8ZM4.28669 16.8L6.00098 16L7.71526 16.8V12.8H4.28669V16.8ZM7.71526 8.8V7.2L6.00098 8L4.28669 7.2V8.8L2.57241 9.6L4.28669 10.4V12L6.00098 11.2L7.71526 12V10.4L9.42955 9.6L7.71526 8.8Z" fill="#22A335"/>
</svg>
