<svg width="18" height="18" viewBox="0 0 18 18" fill="none" xmlns="http://www.w3.org/2000/svg">
<path d="M6.1874 16.9594V13.0781L3.29053 15.2156C4.10615 15.975 5.09053 16.5656 6.1874 16.9594Z" fill="#2A5F9E"/>
<path d="M11.8125 16.9602C12.9094 16.5664 13.8937 15.9758 14.7094 15.2164L11.8125 13.0508V16.9602Z" fill="#2A5F9E"/>
<path d="M1.04053 11.8125C1.1249 12.0938 1.2374 12.3469 1.37803 12.6281L2.4749 11.8125H1.04053Z" fill="#2A5F9E"/>
<path d="M15.5249 11.8125L16.6218 12.6281C16.7343 12.375 16.8468 12.0938 16.9593 11.8125H15.5249Z" fill="#2A5F9E"/>
<path d="M6.60957 10.6875H0.731445C0.81582 11.0813 0.92832 11.4469 1.04082 11.8125H2.4752L1.37832 12.6281C1.60332 13.1063 1.85645 13.5281 2.16582 13.95L5.0627 11.8125H6.1877V12.375L2.89707 14.7937L3.29082 15.1875L6.1877 13.0781V16.9594C6.55332 17.1 6.91895 17.1844 7.3127 17.2688V10.6875H6.60957Z" fill="white"/>
<path d="M17.2688 10.6875H10.6875V17.2688C11.0813 17.1844 11.4469 17.0719 11.8125 16.9594V13.0781L14.7094 15.1875C15.1031 14.8219 15.4406 14.4281 15.7781 14.0063L12.7688 11.8125H14.6813L16.3969 13.0781C16.4813 12.9375 16.5656 12.7688 16.6219 12.6281L15.525 11.8125H16.9594C17.0719 11.4469 17.1844 11.0813 17.2688 10.6875Z" fill="white"/>
<path d="M2.16553 13.9492C2.39053 14.2586 2.61553 14.5398 2.86865 14.8211L6.1874 12.4023V11.8398H5.0624L2.16553 13.9492Z" fill="#ED4C5C"/>
<path d="M12.7969 11.8125L15.8063 14.0062C15.9188 13.8656 16.0031 13.725 16.1156 13.5844C16.1437 13.5562 16.1437 13.5281 16.1719 13.5281C16.2562 13.3875 16.3688 13.2187 16.4531 13.0781L14.6813 11.8125H12.7969Z" fill="#ED4C5C"/>
<path d="M11.8125 1.03906V4.92031L14.7094 2.78281C13.8937 2.02344 12.9094 1.43281 11.8125 1.03906Z" fill="#2A5F9E"/>
<path d="M6.1874 1.03906C5.09053 1.43281 4.10615 2.02344 3.29053 2.78281L6.1874 4.94844V1.03906Z" fill="#2A5F9E"/>
<path d="M16.9593 6.18672C16.8749 5.90547 16.7624 5.65234 16.6218 5.37109L15.5249 6.18672H16.9593Z" fill="#2A5F9E"/>
<path d="M2.4749 6.18672L1.37803 5.37109C1.26553 5.65234 1.15303 5.90547 1.04053 6.18672H2.4749Z" fill="#2A5F9E"/>
<path d="M11.3906 7.31172H17.2406C17.1563 6.91797 17.0438 6.55234 16.9313 6.18672H15.4969L16.5938 5.37109C16.3688 4.89297 16.1156 4.47109 15.8063 4.04922L12.9375 6.18672H11.8125V5.62422L15.1031 3.20547L14.7094 2.81172L11.8125 4.92109V1.03984C11.4469 0.899219 11.0813 0.814844 10.6875 0.730469V7.31172H11.3906Z" fill="white"/>
<path d="M0.731445 7.31172H7.3127V0.730469C6.91895 0.814844 6.55332 0.927344 6.1877 1.03984V4.92109L3.29082 2.81172C2.89707 3.17734 2.55957 3.57109 2.22207 3.99297L5.23145 6.18672H3.31895L1.60332 4.92109C1.51895 5.06172 1.43457 5.23047 1.37832 5.37109L2.4752 6.18672H1.04082C0.92832 6.55234 0.81582 6.91797 0.731445 7.31172Z" fill="white"/>
<path d="M15.8344 4.05156C15.6094 3.74219 15.3844 3.46094 15.1312 3.17969L11.8125 5.59844V6.16094H12.9375L15.8344 4.05156Z" fill="#ED4C5C"/>
<path d="M5.20332 6.18594L2.22207 3.99219C2.10957 4.13281 2.0252 4.27344 1.9127 4.41406C1.88457 4.44219 1.88457 4.47031 1.85645 4.47031C1.77207 4.61094 1.65957 4.77969 1.5752 4.92031L3.29082 6.18594H5.20332Z" fill="#ED4C5C"/>
<path d="M17.2688 7.3125H10.6875V0.73125C10.1531 0.61875 9.59062 0.5625 9 0.5625C8.40938 0.5625 7.84688 0.61875 7.3125 0.73125V7.3125H0.73125C0.61875 7.84688 0.5625 8.40938 0.5625 9C0.5625 9.59062 0.61875 10.1531 0.73125 10.6875H7.3125V17.2688C7.84688 17.3813 8.40938 17.4375 9 17.4375C9.59062 17.4375 10.1531 17.3813 10.6875 17.2688V10.6875H17.2688C17.3813 10.1531 17.4375 9.59062 17.4375 9C17.4375 8.40938 17.3813 7.84688 17.2688 7.3125Z" fill="#ED4C5C"/>
</svg>
