<svg width="14" height="16" viewBox="0 0 14 16" fill="none" xmlns="http://www.w3.org/2000/svg">
<path d="M0 8.55599C0 7.93715 0.245833 7.34366 0.683418 6.90607C1.121 6.46849 1.71449 6.22266 2.33333 6.22266H11.6667C12.2855 6.22266 12.879 6.46849 13.3166 6.90607C13.7542 7.34366 14 7.93715 14 8.55599V13.2227C14 13.8415 13.7542 14.435 13.3166 14.8726C12.879 15.3102 12.2855 15.556 11.6667 15.556H2.33333C1.71449 15.556 1.121 15.3102 0.683418 14.8726C0.245833 14.435 0 13.8415 0 13.2227V8.55599ZM2.33333 7.77821C2.12705 7.77821 1.92922 7.86016 1.78336 8.00602C1.6375 8.15188 1.55556 8.34971 1.55556 8.55599V13.2227C1.55556 13.4289 1.6375 13.6268 1.78336 13.7726C1.92922 13.9185 2.12705 14.0004 2.33333 14.0004H11.6667C11.8729 14.0004 12.0708 13.9185 12.2166 13.7726C12.3625 13.6268 12.4444 13.4289 12.4444 13.2227V8.55599C12.4444 8.34971 12.3625 8.15188 12.2166 8.00602C12.0708 7.86016 11.8729 7.77821 11.6667 7.77821H2.33333Z" fill="#D3D3D3"/>
<path d="M3.11133 3.88889C3.11133 2.85749 3.52105 1.86834 4.25036 1.13903C4.97967 0.409721 5.96882 0 7.00022 0C8.03161 0 9.02077 0.409721 9.75008 1.13903C10.4794 1.86834 10.8891 2.85749 10.8891 3.88889V7C10.8891 7.20628 10.8072 7.40411 10.6613 7.54997C10.5154 7.69583 10.3176 7.77778 10.1113 7.77778C9.90505 7.77778 9.70722 7.69583 9.56136 7.54997C9.41549 7.40411 9.33355 7.20628 9.33355 7V3.88889C9.33355 3.27005 9.08772 2.67656 8.65013 2.23897C8.21255 1.80139 7.61906 1.55556 7.00022 1.55556C6.38138 1.55556 5.78789 1.80139 5.3503 2.23897C4.91272 2.67656 4.66688 3.27005 4.66688 3.88889V7C4.66688 7.20628 4.58494 7.40411 4.43908 7.54997C4.29322 7.69583 4.09539 7.77778 3.88911 7.77778C3.68283 7.77778 3.485 7.69583 3.33913 7.54997C3.19327 7.40411 3.11133 7.20628 3.11133 7V3.88889ZM7.00022 9.33333C7.2065 9.33333 7.40433 9.41528 7.55019 9.56114C7.69605 9.707 7.778 9.90483 7.778 10.1111V11.6667C7.778 11.8729 7.69605 12.0708 7.55019 12.2166C7.40433 12.3625 7.2065 12.4444 7.00022 12.4444C6.79394 12.4444 6.59611 12.3625 6.45025 12.2166C6.30438 12.0708 6.22244 11.8729 6.22244 11.6667V10.1111C6.22244 9.90483 6.30438 9.707 6.45025 9.56114C6.59611 9.41528 6.79394 9.33333 7.00022 9.33333Z" fill="#D3D3D3"/>
</svg>
