<svg width="18" height="18" viewBox="0 0 18 18" fill="none" xmlns="http://www.w3.org/2000/svg">
<path d="M9.00039 0.5625C5.31602 0.5625 2.19414 2.89688 1.04102 6.1875H16.9598C15.8066 2.89688 12.6848 0.5625 9.00039 0.5625Z" fill="#ED4C5C"/>
<path d="M9.00039 17.4375C12.6848 17.4375 15.8066 15.1031 16.9598 11.8125H1.04102C2.19414 15.1031 5.31602 17.4375 9.00039 17.4375Z" fill="#428BC1"/>
<path d="M1.04063 6.1875C0.73125 7.05937 0.5625 8.01562 0.5625 9C0.5625 9.98438 0.73125 10.9406 1.04063 11.8125H16.9594C17.2687 10.9406 17.4375 9.98438 17.4375 9C17.4375 8.01562 17.2687 7.05937 16.9594 6.1875H1.04063Z" fill="white"/>
</svg>
