<svg width="14" height="13" viewBox="0 0 14 13" fill="none" xmlns="http://www.w3.org/2000/svg">
<path d="M2.625 1.3125C2.625 0.964403 2.76328 0.630564 3.00942 0.384422C3.25556 0.138281 3.5894 0 3.9375 0H10.0625C10.4106 0 10.7444 0.138281 10.9906 0.384422C11.2367 0.630564 11.375 0.964403 11.375 1.3125V1.75H11.8125C12.3927 1.75 12.9491 1.98047 13.3593 2.3907C13.7695 2.80094 14 3.35734 14 3.9375V8.3125C14 8.6606 13.8617 8.99444 13.6156 9.24058C13.3694 9.48672 13.0356 9.625 12.6875 9.625H11.375V10.9375C11.375 11.2856 11.2367 11.6194 10.9906 11.8656C10.7444 12.1117 10.4106 12.25 10.0625 12.25H3.9375C3.5894 12.25 3.25556 12.1117 3.00942 11.8656C2.76328 11.6194 2.625 11.2856 2.625 10.9375V9.625H1.3125C0.964403 9.625 0.630564 9.48672 0.384422 9.24058C0.138281 8.99444 0 8.6606 0 8.3125V3.9375C0 3.35734 0.230468 2.80094 0.640704 2.3907C1.05094 1.98047 1.60734 1.75 2.1875 1.75H2.625V1.3125ZM10.5 1.3125C10.5 1.19647 10.4539 1.08519 10.3719 1.00314C10.2898 0.921094 10.1785 0.875 10.0625 0.875H3.9375C3.82147 0.875 3.71019 0.921094 3.62814 1.00314C3.54609 1.08519 3.5 1.19647 3.5 1.3125V1.75H10.5V1.3125ZM3.5 7.4375V10.9375C3.5 11.0535 3.54609 11.1648 3.62814 11.2469C3.71019 11.3289 3.82147 11.375 3.9375 11.375H10.0625C10.1785 11.375 10.2898 11.3289 10.3719 11.2469C10.4539 11.1648 10.5 11.0535 10.5 10.9375V7.4375C10.5 7.32147 10.4539 7.21019 10.3719 7.12814C10.2898 7.04609 10.1785 7 10.0625 7H3.9375C3.82147 7 3.71019 7.04609 3.62814 7.12814C3.54609 7.21019 3.5 7.32147 3.5 7.4375Z" fill="#898989"/>
</svg>
