<svg width="50" height="50" viewBox="0 0 50 50" fill="none" xmlns="http://www.w3.org/2000/svg">
<path d="M18.75 0H0V18.75H18.75V0ZM15.625 15.625H3.125V3.125H15.625V15.625Z" fill="#313131"/>
<path d="M6.25 6.25H12.5V12.5H6.25V6.25Z" fill="#313131"/>
<path d="M0 50H18.75V31.25H0V50ZM3.125 34.375H15.625V46.875H3.125V34.375Z" fill="#313131"/>
<path d="M6.25 37.5H12.5V43.75H6.25V37.5Z" fill="#313131"/>
<path d="M31.25 0V18.75H50V0H31.25ZM46.875 15.625H34.375V3.125H46.875V15.625Z" fill="#313131"/>
<path d="M37.5 6.25H43.75V12.5H37.5V6.25Z" fill="#313131"/>
<path d="M6.25 21.875H0V28.125H9.375V25H6.25V21.875Z" fill="#313131"/>
<path d="M21.875 28.125H28.125V34.375H21.875V28.125Z" fill="#313131"/>
<path d="M9.375 21.875H15.625V25H9.375V21.875Z" fill="#313131"/>
<path d="M28.125 37.5H21.875V40.625H25V43.75H28.125V40.625V37.5Z" fill="#313131"/>
<path d="M18.75 21.875V25H15.625V28.125H21.875V21.875H18.75Z" fill="#313131"/>
<path d="M25 12.5H28.125V18.75H25V12.5Z" fill="#313131"/>
<path d="M28.125 25V28.125H34.375V21.875H25V25H28.125Z" fill="#313131"/>
<path d="M21.875 18.75H25V21.875H21.875V18.75Z" fill="#313131"/>
<path d="M28.125 43.75H34.375V50H28.125V43.75Z" fill="#313131"/>
<path d="M21.875 43.75H25V50H21.875V43.75Z" fill="#313131"/>
<path d="M28.125 34.375H31.25V37.5H28.125V34.375Z" fill="#313131"/>
<path d="M28.125 9.375V3.125H25V0H21.875V12.5H25V9.375H28.125Z" fill="#313131"/>
<path d="M37.5 43.75H40.625V50H37.5V43.75Z" fill="#313131"/>
<path d="M37.5 37.5H43.75V40.625H37.5V37.5Z" fill="#313131"/>
<path d="M34.375 40.625H37.5V43.75H34.375V40.625Z" fill="#313131"/>
<path d="M31.25 37.5H34.375V40.625H31.25V37.5Z" fill="#313131"/>
<path d="M43.75 31.25V34.375H46.875V37.5H50V31.25H46.875H43.75Z" fill="#313131"/>
<path d="M46.875 40.625H43.75V50H50V43.75H46.875V40.625Z" fill="#313131"/>
<path d="M31.25 31.25V34.375H40.625V28.125H34.375V31.25H31.25Z" fill="#313131"/>
<path d="M37.5 21.875V25H43.75V28.125H50V21.875H43.75H37.5Z" fill="#313131"/>
</svg>
