<svg width="9" height="11" viewBox="0 0 9 11" fill="none" xmlns="http://www.w3.org/2000/svg">
<path d="M4.43154 5.19442C4.77328 5.19909 5.11238 5.13401 5.4281 5.00315C5.74383 4.87229 6.02954 4.67839 6.26776 4.43333C6.51274 4.19507 6.70655 3.90934 6.83734 3.59362C6.96813 3.27789 7.03314 2.93881 7.0284 2.5971C7.03311 2.2554 6.96809 1.91633 6.8373 1.60061C6.70652 1.28489 6.51272 0.999158 6.26776 0.76088C6.02948 0.515917 5.74375 0.322121 5.42803 0.191338C5.11231 0.0605542 4.77324 -0.00446943 4.43154 0.000241467C4.08983 -0.00449578 3.75075 0.0605159 3.43503 0.191301C3.1193 0.322086 2.83358 0.515896 2.59531 0.76088C2.35025 0.999103 2.15636 1.28481 2.02549 1.60054C1.89463 1.91626 1.82955 2.25537 1.83423 2.5971C1.82949 2.93892 1.89454 3.27811 2.0254 3.59391C2.15627 3.90972 2.35019 4.1955 2.59531 4.43378C2.83359 4.67874 3.11932 4.87254 3.43504 5.00332C3.75076 5.1341 4.08983 5.19913 4.43154 5.19442Z" fill="#C4C4C4"/>
<path d="M8.97621 8.29152C8.95934 8.06309 8.93024 7.83573 8.88905 7.61041C8.84827 7.3786 8.79229 7.14972 8.72147 6.92525C8.64982 6.7033 8.55542 6.48935 8.43976 6.28682C8.32582 6.0827 8.1828 5.89625 8.01519 5.7333C7.83859 5.56709 7.63137 5.43678 7.40506 5.34961C7.15662 5.2538 6.89227 5.20594 6.626 5.20854C6.47055 5.22534 6.32357 5.28789 6.20368 5.38825C6.07698 5.47092 5.92916 5.56796 5.76383 5.67175C5.5853 5.77847 5.39425 5.86268 5.19503 5.92245C4.97036 5.99607 4.73552 6.03397 4.49909 6.03477C4.26267 6.03394 4.02783 5.99604 3.80315 5.92245C3.60467 5.8624 3.41438 5.77804 3.2366 5.6713C3.07127 5.56796 2.92211 5.47137 2.79496 5.38825C2.67521 5.28792 2.52839 5.22538 2.37308 5.20854C2.10696 5.20593 1.84276 5.2538 1.59447 5.34961C1.36818 5.43662 1.16097 5.56678 0.984343 5.73285C0.816702 5.89594 0.67368 6.08255 0.55977 6.28682C0.44416 6.48937 0.34976 6.70332 0.278069 6.92525C0.207301 7.14958 0.15132 7.37831 0.110486 7.60996C0.0692332 7.83542 0.0401375 8.06294 0.0233246 8.29152C0.00894753 8.49819 0.00175898 8.71295 0.00175898 8.92861C-0.00935053 9.17906 0.0322595 9.42904 0.123895 9.66239C0.215531 9.89574 0.355149 10.1072 0.533711 10.2832C0.906592 10.6242 1.39916 10.8039 1.90403 10.7833H7.09595C7.60083 10.804 8.09342 10.6242 8.46627 10.2832C8.64488 10.1073 8.78453 9.89578 8.87617 9.66242C8.96781 9.42907 9.00939 9.17906 8.99822 8.92861C8.99822 8.71115 8.99104 8.49685 8.97621 8.29152Z" fill="#C4C4C4"/>
</svg>
