<svg width="18" height="17" viewBox="0 0 18 17" fill="none" xmlns="http://www.w3.org/2000/svg">
<g clip-path="url(#clip0_12_11265)">
<path d="M16.2 3.6H13.5V1.8C13.5 0.8073 12.6927 0 11.7 0H6.3C5.3073 0 4.5 0.8073 4.5 1.8V3.6H1.8C1.32261 3.6 0.864773 3.78964 0.527208 4.12721C0.189642 4.46477 0 4.92261 0 5.4V14.4C0 14.8774 0.189642 15.3352 0.527208 15.6728C0.864773 16.0104 1.32261 16.2 1.8 16.2H16.2C16.6774 16.2 17.1352 16.0104 17.4728 15.6728C17.8104 15.3352 18 14.8774 18 14.4V5.4C18 4.92261 17.8104 4.46477 17.4728 4.12721C17.1352 3.78964 16.6774 3.6 16.2 3.6ZM6.3 1.8H11.7V3.6H6.3V1.8ZM12.6 10.8H9.9V13.5H8.1V10.8H5.4V9H8.1V6.3H9.9V9H12.6V10.8Z" fill="#EF3C3C"/>
</g>
<defs>
<clipPath id="clip0_12_11265">
<rect width="18" height="16.2" fill="white"/>
</clipPath>
</defs>
</svg>
