<svg width="14" height="8" viewBox="0 0 14 8" fill="none" xmlns="http://www.w3.org/2000/svg">
<path d="M12.8759 0.194372L7.23969 5.8306L4.88683 3.48438C4.8253 3.42285 4.75224 3.37404 4.67185 3.34074C4.59145 3.30743 4.50528 3.29029 4.41825 3.29029C4.33123 3.29029 4.24506 3.30743 4.16466 3.34074C4.08426 3.37404 4.01121 3.42285 3.94968 3.48438C3.88814 3.54592 3.83933 3.61897 3.80603 3.69937C3.77273 3.77977 3.75558 3.86594 3.75558 3.95296C3.75558 4.03998 3.77273 4.12616 3.80603 4.20655C3.83933 4.28695 3.88814 4.36001 3.94968 4.42154L6.76779 7.23965C7.027 7.49886 7.44573 7.49886 7.70494 7.23965L13.8064 1.13817C13.8684 1.07599 13.9174 1.00215 13.9506 0.920911C13.9838 0.839673 14.0006 0.752654 14 0.664887C13.9994 0.577119 13.9814 0.490345 13.947 0.409584C13.9126 0.328822 13.8626 0.255674 13.7998 0.194372C13.7392 0.133482 13.6673 0.0851606 13.588 0.0521868C13.5087 0.0192131 13.4237 0.00223815 13.3378 0.00223815C13.252 0.00223815 13.167 0.0192131 13.0877 0.0521868C13.0084 0.0851606 12.9364 0.133482 12.8759 0.194372ZM10.0644 0.194372C10.003 0.132757 9.92992 0.0838738 9.84951 0.0505207C9.76911 0.0171677 9.68292 0 9.59587 0C9.50882 0 9.42263 0.0171677 9.34222 0.0505207C9.26182 0.0838738 9.18878 0.132757 9.12729 0.194372L6.30918 3.01248L7.24633 3.94964L10.0644 1.13153C10.1261 1.07004 10.1749 0.997001 10.2083 0.916596C10.2417 0.836191 10.2588 0.749998 10.2588 0.66295C10.2588 0.575902 10.2417 0.489709 10.2083 0.409304C10.1749 0.328899 10.1261 0.255862 10.0644 0.194372ZM0.19441 4.42154L3.01252 7.23965C3.27173 7.49886 3.69046 7.49886 3.94968 7.23965L4.42158 6.76775L1.13156 3.47774C1.07008 3.41612 0.997038 3.36724 0.916633 3.33389C0.836229 3.30053 0.750035 3.28337 0.662987 3.28337C0.575939 3.28337 0.489746 3.30053 0.409341 3.33389C0.328936 3.36724 0.255899 3.41612 0.19441 3.47774C-0.0648033 3.7436 -0.0648033 4.16233 0.19441 4.42154Z" fill="#ABABAB"/>
</svg>
