<svg width="12" height="14" viewBox="0 0 12 14" fill="none" xmlns="http://www.w3.org/2000/svg">
<path d="M6 0L0 1.91667V7.66667C0 10.8426 2.68594 13.4167 6 13.4167C9.31406 13.4167 12 10.8426 12 7.66667V1.91667L6 0ZM10.875 7.66667C10.875 10.2467 8.69219 12.3385 6 12.3385C3.30781 12.3385 1.125 10.2467 1.125 7.66667V2.72526L6 1.07812L10.875 2.72526V7.66667Z" fill="white"/>
<path d="M3.91246 6.1558C3.86033 6.1056 3.79836 6.06578 3.73012 6.0386C3.66188 6.01142 3.58871 5.99744 3.51481 5.99744C3.44091 5.99744 3.36774 6.01142 3.29949 6.0386C3.23125 6.06578 3.16929 6.1056 3.11715 6.1558C3.06478 6.20576 3.02322 6.26514 2.99486 6.33054C2.9665 6.39594 2.9519 6.46606 2.9519 6.53688C2.9519 6.6077 2.9665 6.67782 2.99486 6.74322C3.02322 6.80862 3.06478 6.86801 3.11715 6.91797L5.13902 8.8556L5.17184 8.88705C5.22115 8.93439 5.27973 8.97196 5.34421 8.99759C5.40869 9.02322 5.47781 9.03641 5.54762 9.03641C5.61743 9.03641 5.68655 9.02322 5.75103 8.99759C5.81551 8.97196 5.87408 8.93439 5.9234 8.88705L9.41559 5.54037C9.46499 5.49311 9.50419 5.43697 9.53094 5.37518C9.55768 5.31338 9.57145 5.24714 9.57145 5.18024C9.57145 5.11334 9.55768 5.0471 9.53094 4.98531C9.50419 4.92351 9.46499 4.86738 9.41559 4.82012L9.37184 4.77819C9.32252 4.73084 9.26395 4.69328 9.19947 4.66765C9.13499 4.64202 9.06586 4.62883 8.99606 4.62883C8.92625 4.62883 8.85713 4.64202 8.79264 4.66765C8.72816 4.69328 8.66959 4.73084 8.62028 4.77819L5.54684 7.72207L3.91246 6.1558Z" fill="white"/>
</svg>
